<?xml version="1.0" encoding="UTF-8" standalone="no"?>
<!DOCTYPE svg PUBLIC "-//W3C//DTD SVG 1.1//EN"
 "http://www.w3.org/Graphics/SVG/1.1/DTD/svg11.dtd">
<!-- Generated by graphviz version 2.40.1 (20161225.0304)
 -->
<!-- Title: snakemake_dag Pages: 1 -->
<svg width="242pt" height="620pt"
 viewBox="0.00 0.00 241.50 620.00" xmlns="http://www.w3.org/2000/svg" xmlns:xlink="http://www.w3.org/1999/xlink">
<g id="graph0" class="graph" transform="scale(1 1) rotate(0) translate(4 616)">
<title>snakemake_dag</title>
<polygon fill="#ffffff" stroke="transparent" points="-4,4 -4,-616 237.5,-616 237.5,4 -4,4"/>
<!-- 0 -->
<g id="node1" class="node">
<title>0</title>
<path fill="none" stroke="#56d88a" stroke-width="2" d="M91,-36C91,-36 61,-36 61,-36 55,-36 49,-30 49,-24 49,-24 49,-12 49,-12 49,-6 55,0 61,0 61,0 91,0 91,0 97,0 103,-6 103,-12 103,-12 103,-24 103,-24 103,-30 97,-36 91,-36"/>
<text text-anchor="middle" x="76" y="-15.5" font-family="sans" font-size="10.00" fill="#000000">all</text>
</g>
<!-- 1 -->
<g id="node2" class="node">
<title>1</title>
<path fill="none" stroke="#56c1d8" stroke-width="2" d="M76,-396C76,-396 34,-396 34,-396 28,-396 22,-390 22,-384 22,-384 22,-372 22,-372 22,-366 28,-360 34,-360 34,-360 76,-360 76,-360 82,-360 88,-366 88,-372 88,-372 88,-384 88,-384 88,-390 82,-396 76,-396"/>
<text text-anchor="middle" x="55" y="-375.5" font-family="sans" font-size="10.00" fill="#000000">minimap2</text>
</g>
<!-- 1&#45;&gt;0 -->
<g id="edge1" class="edge">
<title>1&#45;&gt;0</title>
<path fill="none" stroke="#c0c0c0" stroke-width="2" d="M40.1147,-359.5185C32.7538,-349.5296 24.328,-336.6716 19,-324 3.1542,-286.3142 0,-274.8816 0,-234 0,-234 0,-234 0,-162 0,-116.656 29.8384,-71.5999 52.1226,-44.2735"/>
<polygon fill="#c0c0c0" stroke="#c0c0c0" stroke-width="2" points="55.0006,-46.2889 58.7544,-36.3814 49.6415,-41.7856 55.0006,-46.2889"/>
</g>
<!-- 5 -->
<g id="node6" class="node">
<title>5</title>
<path fill="none" stroke="#88d856" stroke-width="2" d="M74,-324C74,-324 40,-324 40,-324 34,-324 28,-318 28,-312 28,-312 28,-300 28,-300 28,-294 34,-288 40,-288 40,-288 74,-288 74,-288 80,-288 86,-294 86,-300 86,-300 86,-312 86,-312 86,-318 80,-324 74,-324"/>
<text text-anchor="middle" x="57" y="-303.5" font-family="sans" font-size="10.00" fill="#000000">targeted</text>
</g>
<!-- 1&#45;&gt;5 -->
<g id="edge13" class="edge">
<title>1&#45;&gt;5</title>
<path fill="none" stroke="#c0c0c0" stroke-width="2" d="M55.5047,-359.8314C55.7186,-352.131 55.9729,-342.9743 56.2106,-334.4166"/>
<polygon fill="#c0c0c0" stroke="#c0c0c0" stroke-width="2" points="59.7094,-334.5066 56.4885,-324.4133 52.7121,-334.3122 59.7094,-334.5066"/>
</g>
<!-- 2 -->
<g id="node3" class="node">
<title>2</title>
<path fill="none" stroke="#d85656" stroke-width="2" d="M130.5,-252C130.5,-252 97.5,-252 97.5,-252 91.5,-252 85.5,-246 85.5,-240 85.5,-240 85.5,-228 85.5,-228 85.5,-222 91.5,-216 97.5,-216 97.5,-216 130.5,-216 130.5,-216 136.5,-216 142.5,-222 142.5,-228 142.5,-228 142.5,-240 142.5,-240 142.5,-246 136.5,-252 130.5,-252"/>
<text text-anchor="middle" x="114" y="-231.5" font-family="sans" font-size="10.00" fill="#000000">collapse</text>
</g>
<!-- 2&#45;&gt;0 -->
<g id="edge2" class="edge">
<title>2&#45;&gt;0</title>
<path fill="none" stroke="#c0c0c0" stroke-width="2" d="M110.8255,-215.9555C104.2035,-178.3144 88.8754,-91.1867 80.9478,-46.1246"/>
<polygon fill="#c0c0c0" stroke="#c0c0c0" stroke-width="2" points="84.372,-45.3874 79.1922,-36.1451 77.4779,-46.6003 84.372,-45.3874"/>
</g>
<!-- 3 -->
<g id="node4" class="node">
<title>3</title>
<path fill="none" stroke="#568ad8" stroke-width="2" d="M221.5,-180C221.5,-180 154.5,-180 154.5,-180 148.5,-180 142.5,-174 142.5,-168 142.5,-168 142.5,-156 142.5,-156 142.5,-150 148.5,-144 154.5,-144 154.5,-144 221.5,-144 221.5,-144 227.5,-144 233.5,-150 233.5,-156 233.5,-156 233.5,-168 233.5,-168 233.5,-174 227.5,-180 221.5,-180"/>
<text text-anchor="middle" x="188" y="-159.5" font-family="sans" font-size="10.00" fill="#000000">get_abundance</text>
</g>
<!-- 2&#45;&gt;3 -->
<g id="edge10" class="edge">
<title>2&#45;&gt;3</title>
<path fill="none" stroke="#c0c0c0" stroke-width="2" d="M132.6733,-215.8314C141.5249,-207.219 152.2486,-196.7851 161.8895,-187.4048"/>
<polygon fill="#c0c0c0" stroke="#c0c0c0" stroke-width="2" points="164.6061,-189.645 169.3326,-180.1628 159.7246,-184.6279 164.6061,-189.645"/>
</g>
<!-- 4 -->
<g id="node5" class="node">
<title>4</title>
<path fill="none" stroke="#56d8c1" stroke-width="2" d="M146,-108C146,-108 116,-108 116,-108 110,-108 104,-102 104,-96 104,-96 104,-84 104,-84 104,-78 110,-72 116,-72 116,-72 146,-72 146,-72 152,-72 158,-78 158,-84 158,-84 158,-96 158,-96 158,-102 152,-108 146,-108"/>
<text text-anchor="middle" x="131" y="-87.5" font-family="sans" font-size="10.00" fill="#000000">sqanti</text>
</g>
<!-- 2&#45;&gt;4 -->
<g id="edge11" class="edge">
<title>2&#45;&gt;4</title>
<path fill="none" stroke="#c0c0c0" stroke-width="2" d="M116.1531,-215.7623C119.0527,-191.201 124.2416,-147.2474 127.6526,-118.3541"/>
<polygon fill="#c0c0c0" stroke="#c0c0c0" stroke-width="2" points="131.1678,-118.431 128.8644,-108.0896 124.2161,-117.6103 131.1678,-118.431"/>
</g>
<!-- 3&#45;&gt;0 -->
<g id="edge3" class="edge">
<title>3&#45;&gt;0</title>
<path fill="none" stroke="#c0c0c0" stroke-width="2" d="M187.8377,-143.7083C186.7949,-124.1931 182.5498,-93.2272 167,-72 153.4407,-53.4902 131.4513,-40.188 112.4852,-31.4179"/>
<polygon fill="#c0c0c0" stroke="#c0c0c0" stroke-width="2" points="113.7514,-28.1517 103.1863,-27.3576 110.9502,-34.5668 113.7514,-28.1517"/>
</g>
<!-- 3&#45;&gt;4 -->
<g id="edge12" class="edge">
<title>3&#45;&gt;4</title>
<path fill="none" stroke="#c0c0c0" stroke-width="2" d="M173.6165,-143.8314C167.0514,-135.5386 159.1493,-125.557 151.9422,-116.4533"/>
<polygon fill="#c0c0c0" stroke="#c0c0c0" stroke-width="2" points="154.5284,-114.0813 145.5772,-108.4133 149.0401,-118.4262 154.5284,-114.0813"/>
</g>
<!-- 4&#45;&gt;0 -->
<g id="edge4" class="edge">
<title>4&#45;&gt;0</title>
<path fill="none" stroke="#c0c0c0" stroke-width="2" d="M117.1212,-71.8314C110.7864,-63.5386 103.1616,-53.557 96.2074,-44.4533"/>
<polygon fill="#c0c0c0" stroke="#c0c0c0" stroke-width="2" points="98.9175,-42.2353 90.0657,-36.4133 93.3548,-46.4847 98.9175,-42.2353"/>
</g>
<!-- 5&#45;&gt;0 -->
<g id="edge5" class="edge">
<title>5&#45;&gt;0</title>
<path fill="none" stroke="#c0c0c0" stroke-width="2" d="M58.1885,-287.9843C61.4007,-239.2939 70.2739,-104.7961 74.149,-46.0573"/>
<polygon fill="#c0c0c0" stroke="#c0c0c0" stroke-width="2" points="77.6459,-46.2176 74.8119,-36.0089 70.6611,-45.7568 77.6459,-46.2176"/>
</g>
<!-- 5&#45;&gt;2 -->
<g id="edge8" class="edge">
<title>5&#45;&gt;2</title>
<path fill="none" stroke="#c0c0c0" stroke-width="2" d="M71.3835,-287.8314C77.9486,-279.5386 85.8507,-269.557 93.0578,-260.4533"/>
<polygon fill="#c0c0c0" stroke="#c0c0c0" stroke-width="2" points="95.9599,-262.4262 99.4228,-252.4133 90.4716,-258.0813 95.9599,-262.4262"/>
</g>
<!-- 6 -->
<g id="node7" class="node">
<title>6</title>
<path fill="none" stroke="#d88d56" stroke-width="2" d="M131,-468C131,-468 101,-468 101,-468 95,-468 89,-462 89,-456 89,-456 89,-444 89,-444 89,-438 95,-432 101,-432 101,-432 131,-432 131,-432 137,-432 143,-438 143,-444 143,-444 143,-456 143,-456 143,-462 137,-468 131,-468"/>
<text text-anchor="middle" x="116" y="-447.5" font-family="sans" font-size="10.00" fill="#000000">cluster</text>
</g>
<!-- 6&#45;&gt;1 -->
<g id="edge6" class="edge">
<title>6&#45;&gt;1</title>
<path fill="none" stroke="#c0c0c0" stroke-width="2" d="M100.6071,-431.8314C93.5096,-423.454 84.952,-413.3531 77.176,-404.1749"/>
<polygon fill="#c0c0c0" stroke="#c0c0c0" stroke-width="2" points="79.7348,-401.7807 70.6001,-396.4133 74.3939,-406.3056 79.7348,-401.7807"/>
</g>
<!-- 6&#45;&gt;2 -->
<g id="edge7" class="edge">
<title>6&#45;&gt;2</title>
<path fill="none" stroke="#c0c0c0" stroke-width="2" d="M115.8329,-431.9555C115.4851,-394.3938 114.6811,-307.5541 114.2631,-262.4103"/>
<polygon fill="#c0c0c0" stroke="#c0c0c0" stroke-width="2" points="117.7605,-262.1122 114.168,-252.1451 110.7608,-262.1771 117.7605,-262.1122"/>
</g>
<!-- 6&#45;&gt;3 -->
<g id="edge9" class="edge">
<title>6&#45;&gt;3</title>
<path fill="none" stroke="#c0c0c0" stroke-width="2" d="M120.8438,-431.5182C123.5624,-421.095 127.0008,-407.8287 130,-396 148.8164,-321.7892 170.3548,-234.1619 181.1188,-190.1788"/>
<polygon fill="#c0c0c0" stroke="#c0c0c0" stroke-width="2" points="184.5781,-190.7665 183.554,-180.2213 177.7785,-189.1036 184.5781,-190.7665"/>
</g>
<!-- 7 -->
<g id="node8" class="node">
<title>7</title>
<path fill="none" stroke="#59d856" stroke-width="2" d="M131,-540C131,-540 101,-540 101,-540 95,-540 89,-534 89,-528 89,-528 89,-516 89,-516 89,-510 95,-504 101,-504 101,-504 131,-504 131,-504 137,-504 143,-510 143,-516 143,-516 143,-528 143,-528 143,-534 137,-540 131,-540"/>
<text text-anchor="middle" x="116" y="-519.5" font-family="sans" font-size="10.00" fill="#000000">refine</text>
</g>
<!-- 7&#45;&gt;6 -->
<g id="edge14" class="edge">
<title>7&#45;&gt;6</title>
<path fill="none" stroke="#c0c0c0" stroke-width="2" d="M116,-503.8314C116,-496.131 116,-486.9743 116,-478.4166"/>
<polygon fill="#c0c0c0" stroke="#c0c0c0" stroke-width="2" points="119.5001,-478.4132 116,-468.4133 112.5001,-478.4133 119.5001,-478.4132"/>
</g>
<!-- 8 -->
<g id="node9" class="node">
<title>8</title>
<path fill="none" stroke="#d8bc56" stroke-width="2" d="M165.5,-612C165.5,-612 66.5,-612 66.5,-612 60.5,-612 54.5,-606 54.5,-600 54.5,-600 54.5,-588 54.5,-588 54.5,-582 60.5,-576 66.5,-576 66.5,-576 165.5,-576 165.5,-576 171.5,-576 177.5,-582 177.5,-588 177.5,-588 177.5,-600 177.5,-600 177.5,-606 171.5,-612 165.5,-612"/>
<text text-anchor="middle" x="116" y="-597" font-family="sans" font-size="10.00" fill="#000000">lima</text>
<text text-anchor="middle" x="116" y="-586" font-family="sans" font-size="10.00" fill="#000000">sample: 1_Neg_1_2_3</text>
</g>
<!-- 8&#45;&gt;7 -->
<g id="edge15" class="edge">
<title>8&#45;&gt;7</title>
<path fill="none" stroke="#c0c0c0" stroke-width="2" d="M116,-575.8314C116,-568.131 116,-558.9743 116,-550.4166"/>
<polygon fill="#c0c0c0" stroke="#c0c0c0" stroke-width="2" points="119.5001,-550.4132 116,-540.4133 112.5001,-550.4133 119.5001,-550.4132"/>
</g>
</g>
</svg>
