<?xml version="1.0" encoding="UTF-8" standalone="no"?>
<!DOCTYPE svg PUBLIC "-//W3C//DTD SVG 1.1//EN"
 "http://www.w3.org/Graphics/SVG/1.1/DTD/svg11.dtd">
<!-- Generated by graphviz version 2.40.1 (20161225.0304)
 -->
<!-- Title: snakemake_dag Pages: 1 -->
<svg width="250pt" height="548pt"
 viewBox="0.00 0.00 249.80 548.00" xmlns="http://www.w3.org/2000/svg" xmlns:xlink="http://www.w3.org/1999/xlink">
<g id="graph0" class="graph" transform="scale(1 1) rotate(0) translate(4 544)">
<title>snakemake_dag</title>
<polygon fill="#ffffff" stroke="transparent" points="-4,4 -4,-544 245.7999,-544 245.7999,4 -4,4"/>
<!-- 0 -->
<g id="node1" class="node">
<title>0</title>
<path fill="none" stroke="#afd856" stroke-width="2" d="M116.441,-36C116.441,-36 86.441,-36 86.441,-36 80.441,-36 74.441,-30 74.441,-24 74.441,-24 74.441,-12 74.441,-12 74.441,-6 80.441,0 86.441,0 86.441,0 116.441,0 116.441,0 122.441,0 128.441,-6 128.441,-12 128.441,-12 128.441,-24 128.441,-24 128.441,-30 122.441,-36 116.441,-36"/>
<text text-anchor="middle" x="101.441" y="-15.5" font-family="sans" font-size="10.00" fill="#000000">all</text>
</g>
<!-- 1 -->
<g id="node2" class="node">
<title>1</title>
<path fill="none" stroke="#56a9d8" stroke-width="2" stroke-dasharray="5,2" d="M223.441,-324C223.441,-324 181.441,-324 181.441,-324 175.441,-324 169.441,-318 169.441,-312 169.441,-312 169.441,-300 169.441,-300 169.441,-294 175.441,-288 181.441,-288 181.441,-288 223.441,-288 223.441,-288 229.441,-288 235.441,-294 235.441,-300 235.441,-300 235.441,-312 235.441,-312 235.441,-318 229.441,-324 223.441,-324"/>
<text text-anchor="middle" x="202.441" y="-303.5" font-family="sans" font-size="10.00" fill="#000000">minimap2</text>
</g>
<!-- 1&#45;&gt;0 -->
<g id="edge1" class="edge">
<title>1&#45;&gt;0</title>
<path fill="none" stroke="#c0c0c0" stroke-width="2" d="M210.7192,-287.7712C228.4054,-245.8351 264.8009,-140.8433 220.441,-72 202.4919,-44.1444 166.2861,-30.4963 138.4996,-23.9113"/>
<polygon fill="#c0c0c0" stroke="#c0c0c0" stroke-width="2" points="139.2066,-20.4834 128.6929,-21.7916 137.7277,-27.3254 139.2066,-20.4834"/>
</g>
<!-- 2 -->
<g id="node3" class="node">
<title>2</title>
<path fill="none" stroke="#d85656" stroke-width="2" stroke-dasharray="5,2" d="M62.941,-252C62.941,-252 29.941,-252 29.941,-252 23.941,-252 17.941,-246 17.941,-240 17.941,-240 17.941,-228 17.941,-228 17.941,-222 23.941,-216 29.941,-216 29.941,-216 62.941,-216 62.941,-216 68.941,-216 74.941,-222 74.941,-228 74.941,-228 74.941,-240 74.941,-240 74.941,-246 68.941,-252 62.941,-252"/>
<text text-anchor="middle" x="46.441" y="-231.5" font-family="sans" font-size="10.00" fill="#000000">collapse</text>
</g>
<!-- 1&#45;&gt;2 -->
<g id="edge8" class="edge">
<title>1&#45;&gt;2</title>
<path fill="none" stroke="#c0c0c0" stroke-width="2" d="M169.3574,-290.7307C144.4251,-279.2234 110.2048,-263.4294 84.2014,-251.4279"/>
<polygon fill="#c0c0c0" stroke="#c0c0c0" stroke-width="2" points="85.5718,-248.2056 75.0254,-247.1928 82.6383,-254.5613 85.5718,-248.2056"/>
</g>
<!-- 7 -->
<g id="node8" class="node">
<title>7</title>
<path fill="none" stroke="#56d8d8" stroke-width="2" d="M199.441,-252C199.441,-252 153.441,-252 153.441,-252 147.441,-252 141.441,-246 141.441,-240 141.441,-240 141.441,-228 141.441,-228 141.441,-222 147.441,-216 153.441,-216 153.441,-216 199.441,-216 199.441,-216 205.441,-216 211.441,-222 211.441,-228 211.441,-228 211.441,-240 211.441,-240 211.441,-246 205.441,-252 199.441,-252"/>
<text text-anchor="middle" x="176.441" y="-231.5" font-family="sans" font-size="10.00" fill="#000000">find_fusion</text>
</g>
<!-- 1&#45;&gt;7 -->
<g id="edge17" class="edge">
<title>1&#45;&gt;7</title>
<path fill="none" stroke="#c0c0c0" stroke-width="2" d="M195.8801,-287.8314C193.0383,-279.9617 189.6473,-270.5712 186.4991,-261.8533"/>
<polygon fill="#c0c0c0" stroke="#c0c0c0" stroke-width="2" points="189.7787,-260.63 183.0902,-252.4133 183.1948,-263.0076 189.7787,-260.63"/>
</g>
<!-- 2&#45;&gt;0 -->
<g id="edge2" class="edge">
<title>2&#45;&gt;0</title>
<path fill="none" stroke="#c0c0c0" stroke-width="2" d="M34.4972,-215.7449C15.6178,-184.3732 -16.3604,-119.0692 10.441,-72 22.0806,-51.5583 44.843,-38.0559 64.6893,-29.6651"/>
<polygon fill="#c0c0c0" stroke="#c0c0c0" stroke-width="2" points="66.1118,-32.8667 74.1363,-25.9486 63.5491,-26.3526 66.1118,-32.8667"/>
</g>
<!-- 3 -->
<g id="node4" class="node">
<title>3</title>
<path fill="none" stroke="#56d8a9" stroke-width="2" stroke-dasharray="5,2" d="M136.941,-180C136.941,-180 69.941,-180 69.941,-180 63.941,-180 57.941,-174 57.941,-168 57.941,-168 57.941,-156 57.941,-156 57.941,-150 63.941,-144 69.941,-144 69.941,-144 136.941,-144 136.941,-144 142.941,-144 148.941,-150 148.941,-156 148.941,-156 148.941,-168 148.941,-168 148.941,-174 142.941,-180 136.941,-180"/>
<text text-anchor="middle" x="103.441" y="-159.5" font-family="sans" font-size="10.00" fill="#000000">get_abundance</text>
</g>
<!-- 2&#45;&gt;3 -->
<g id="edge10" class="edge">
<title>2&#45;&gt;3</title>
<path fill="none" stroke="#c0c0c0" stroke-width="2" d="M60.8245,-215.8314C67.3896,-207.5386 75.2917,-197.557 82.4988,-188.4533"/>
<polygon fill="#c0c0c0" stroke="#c0c0c0" stroke-width="2" points="85.4009,-190.4262 88.8638,-180.4133 79.9126,-186.0813 85.4009,-190.4262"/>
</g>
<!-- 5 -->
<g id="node6" class="node">
<title>5</title>
<path fill="none" stroke="#80d856" stroke-width="2" d="M61.441,-108C61.441,-108 31.441,-108 31.441,-108 25.441,-108 19.441,-102 19.441,-96 19.441,-96 19.441,-84 19.441,-84 19.441,-78 25.441,-72 31.441,-72 31.441,-72 61.441,-72 61.441,-72 67.441,-72 73.441,-78 73.441,-84 73.441,-84 73.441,-96 73.441,-96 73.441,-102 67.441,-108 61.441,-108"/>
<text text-anchor="middle" x="46.441" y="-87.5" font-family="sans" font-size="10.00" fill="#000000">sqanti</text>
</g>
<!-- 2&#45;&gt;5 -->
<g id="edge13" class="edge">
<title>2&#45;&gt;5</title>
<path fill="none" stroke="#c0c0c0" stroke-width="2" d="M46.441,-215.7623C46.441,-191.201 46.441,-147.2474 46.441,-118.3541"/>
<polygon fill="#c0c0c0" stroke="#c0c0c0" stroke-width="2" points="49.9411,-118.0896 46.441,-108.0896 42.9411,-118.0897 49.9411,-118.0896"/>
</g>
<!-- 3&#45;&gt;0 -->
<g id="edge3" class="edge">
<title>3&#45;&gt;0</title>
<path fill="none" stroke="#c0c0c0" stroke-width="2" d="M103.1877,-143.7623C102.8466,-119.201 102.2361,-75.2474 101.8348,-46.3541"/>
<polygon fill="#c0c0c0" stroke="#c0c0c0" stroke-width="2" points="105.3309,-46.04 101.6922,-36.0896 98.3316,-46.1373 105.3309,-46.04"/>
</g>
<!-- 4 -->
<g id="node5" class="node">
<title>4</title>
<path fill="none" stroke="#d6d856" stroke-width="2" d="M199.441,-108C199.441,-108 141.441,-108 141.441,-108 135.441,-108 129.441,-102 129.441,-96 129.441,-96 129.441,-84 129.441,-84 129.441,-78 135.441,-72 141.441,-72 141.441,-72 199.441,-72 199.441,-72 205.441,-72 211.441,-78 211.441,-84 211.441,-84 211.441,-96 211.441,-96 211.441,-102 205.441,-108 199.441,-108"/>
<text text-anchor="middle" x="170.441" y="-87.5" font-family="sans" font-size="10.00" fill="#000000">fusion_sqanti</text>
</g>
<!-- 3&#45;&gt;4 -->
<g id="edge11" class="edge">
<title>3&#45;&gt;4</title>
<path fill="none" stroke="#c0c0c0" stroke-width="2" d="M120.3479,-143.8314C128.2223,-135.3694 137.733,-125.1489 146.3423,-115.8971"/>
<polygon fill="#c0c0c0" stroke="#c0c0c0" stroke-width="2" points="149.0563,-118.1183 153.3064,-108.4133 143.9318,-113.3497 149.0563,-118.1183"/>
</g>
<!-- 3&#45;&gt;5 -->
<g id="edge14" class="edge">
<title>3&#45;&gt;5</title>
<path fill="none" stroke="#c0c0c0" stroke-width="2" d="M89.0575,-143.8314C82.4924,-135.5386 74.5903,-125.557 67.3832,-116.4533"/>
<polygon fill="#c0c0c0" stroke="#c0c0c0" stroke-width="2" points="69.9694,-114.0813 61.0182,-108.4133 64.4811,-118.4262 69.9694,-114.0813"/>
</g>
<!-- 4&#45;&gt;0 -->
<g id="edge4" class="edge">
<title>4&#45;&gt;0</title>
<path fill="none" stroke="#c0c0c0" stroke-width="2" d="M153.0294,-71.8314C144.92,-63.3694 135.1254,-53.1489 126.2591,-43.8971"/>
<polygon fill="#c0c0c0" stroke="#c0c0c0" stroke-width="2" points="128.5331,-41.2115 119.0871,-36.4133 123.4792,-46.0549 128.5331,-41.2115"/>
</g>
<!-- 5&#45;&gt;0 -->
<g id="edge5" class="edge">
<title>5&#45;&gt;0</title>
<path fill="none" stroke="#c0c0c0" stroke-width="2" d="M60.3198,-71.8314C66.6546,-63.5386 74.2794,-53.557 81.2336,-44.4533"/>
<polygon fill="#c0c0c0" stroke="#c0c0c0" stroke-width="2" points="84.0862,-46.4847 87.3753,-36.4133 78.5235,-42.2353 84.0862,-46.4847"/>
</g>
<!-- 6 -->
<g id="node7" class="node">
<title>6</title>
<path fill="none" stroke="#5682d8" stroke-width="2" stroke-dasharray="5,2" d="M137.441,-396C137.441,-396 107.441,-396 107.441,-396 101.441,-396 95.441,-390 95.441,-384 95.441,-384 95.441,-372 95.441,-372 95.441,-366 101.441,-360 107.441,-360 107.441,-360 137.441,-360 137.441,-360 143.441,-360 149.441,-366 149.441,-372 149.441,-372 149.441,-384 149.441,-384 149.441,-390 143.441,-396 137.441,-396"/>
<text text-anchor="middle" x="122.441" y="-375.5" font-family="sans" font-size="10.00" fill="#000000">cluster</text>
</g>
<!-- 6&#45;&gt;1 -->
<g id="edge6" class="edge">
<title>6&#45;&gt;1</title>
<path fill="none" stroke="#c0c0c0" stroke-width="2" d="M142.6284,-359.8314C152.2924,-351.1337 164.0206,-340.5783 174.5226,-331.1265"/>
<polygon fill="#c0c0c0" stroke="#c0c0c0" stroke-width="2" points="177.1685,-333.454 182.2601,-324.1628 172.4857,-328.251 177.1685,-333.454"/>
</g>
<!-- 6&#45;&gt;2 -->
<g id="edge7" class="edge">
<title>6&#45;&gt;2</title>
<path fill="none" stroke="#c0c0c0" stroke-width="2" d="M110.6618,-359.7806C104.1405,-349.4394 96.0431,-336.1679 89.441,-324 78.2921,-303.4521 66.9438,-279.5476 58.7069,-261.5408"/>
<polygon fill="#c0c0c0" stroke="#c0c0c0" stroke-width="2" points="61.7898,-259.8643 54.472,-252.2026 55.4147,-262.7554 61.7898,-259.8643"/>
</g>
<!-- 6&#45;&gt;3 -->
<g id="edge9" class="edge">
<title>6&#45;&gt;3</title>
<path fill="none" stroke="#c0c0c0" stroke-width="2" d="M120.8538,-359.9555C117.5427,-322.3144 109.8787,-235.1867 105.9149,-190.1246"/>
<polygon fill="#c0c0c0" stroke="#c0c0c0" stroke-width="2" points="109.4,-189.7999 105.0371,-180.1451 102.4269,-190.4133 109.4,-189.7999"/>
</g>
<!-- 6&#45;&gt;7 -->
<g id="edge16" class="edge">
<title>6&#45;&gt;7</title>
<path fill="none" stroke="#c0c0c0" stroke-width="2" d="M129.2801,-359.7623C138.5718,-334.9846 155.2642,-290.4714 166.0933,-261.5939"/>
<polygon fill="#c0c0c0" stroke="#c0c0c0" stroke-width="2" points="169.4233,-262.6819 169.6574,-252.0896 162.8689,-260.224 169.4233,-262.6819"/>
</g>
<!-- 7&#45;&gt;4 -->
<g id="edge12" class="edge">
<title>7&#45;&gt;4</title>
<path fill="none" stroke="#c0c0c0" stroke-width="2" d="M175.6811,-215.7623C174.6577,-191.201 172.8263,-147.2474 171.6224,-118.3541"/>
<polygon fill="#c0c0c0" stroke="#c0c0c0" stroke-width="2" points="175.1081,-117.9352 171.1947,-108.0896 168.1142,-118.2267 175.1081,-117.9352"/>
</g>
<!-- 8 -->
<g id="node9" class="node">
<title>8</title>
<path fill="none" stroke="#59d856" stroke-width="2" stroke-dasharray="5,2" d="M137.441,-468C137.441,-468 107.441,-468 107.441,-468 101.441,-468 95.441,-462 95.441,-456 95.441,-456 95.441,-444 95.441,-444 95.441,-438 101.441,-432 107.441,-432 107.441,-432 137.441,-432 137.441,-432 143.441,-432 149.441,-438 149.441,-444 149.441,-444 149.441,-456 149.441,-456 149.441,-462 143.441,-468 137.441,-468"/>
<text text-anchor="middle" x="122.441" y="-447.5" font-family="sans" font-size="10.00" fill="#000000">refine</text>
</g>
<!-- 8&#45;&gt;6 -->
<g id="edge15" class="edge">
<title>8&#45;&gt;6</title>
<path fill="none" stroke="#c0c0c0" stroke-width="2" d="M122.441,-431.8314C122.441,-424.131 122.441,-414.9743 122.441,-406.4166"/>
<polygon fill="#c0c0c0" stroke="#c0c0c0" stroke-width="2" points="125.9411,-406.4132 122.441,-396.4133 118.9411,-406.4133 125.9411,-406.4132"/>
</g>
<!-- 9 -->
<g id="node10" class="node">
<title>9</title>
<path fill="none" stroke="#d8ac56" stroke-width="2" stroke-dasharray="5,2" d="M186.441,-540C186.441,-540 58.441,-540 58.441,-540 52.441,-540 46.441,-534 46.441,-528 46.441,-528 46.441,-516 46.441,-516 46.441,-510 52.441,-504 58.441,-504 58.441,-504 186.441,-504 186.441,-504 192.441,-504 198.441,-510 198.441,-516 198.441,-516 198.441,-528 198.441,-528 198.441,-534 192.441,-540 186.441,-540"/>
<text text-anchor="middle" x="122.441" y="-525" font-family="sans" font-size="10.00" fill="#000000">lima</text>
<text text-anchor="middle" x="122.441" y="-514" font-family="sans" font-size="10.00" fill="#000000">sample: 2_HNRNPH1_1_2_3</text>
</g>
<!-- 9&#45;&gt;8 -->
<g id="edge18" class="edge">
<title>9&#45;&gt;8</title>
<path fill="none" stroke="#c0c0c0" stroke-width="2" d="M122.441,-503.8314C122.441,-496.131 122.441,-486.9743 122.441,-478.4166"/>
<polygon fill="#c0c0c0" stroke="#c0c0c0" stroke-width="2" points="125.9411,-478.4132 122.441,-468.4133 118.9411,-478.4133 125.9411,-478.4132"/>
</g>
</g>
</svg>
