<?xml version="1.0" encoding="UTF-8" standalone="no"?>
<!DOCTYPE svg PUBLIC "-//W3C//DTD SVG 1.1//EN"
 "http://www.w3.org/Graphics/SVG/1.1/DTD/svg11.dtd">
<!-- Generated by graphviz version 2.40.1 (20161225.0304)
 -->
<!-- Title: snakemake_dag Pages: 1 -->
<svg width="508pt" height="342pt"
 viewBox="0.00 0.00 508.00 342.00" xmlns="http://www.w3.org/2000/svg" xmlns:xlink="http://www.w3.org/1999/xlink">
<g id="graph0" class="graph" transform="scale(1 1) rotate(0) translate(4 338)">
<title>snakemake_dag</title>
<polygon fill="#ffffff" stroke="transparent" points="-4,4 -4,-338 504,-338 504,4 -4,4"/>
<!-- 0 -->
<g id="node1" class="node">
<title>0</title>
<path fill="none" stroke="#70d856" stroke-width="2" d="M214,-36C214,-36 139,-36 139,-36 133,-36 127,-30 127,-24 127,-24 127,-12 127,-12 127,-6 133,0 139,0 139,0 214,0 214,0 220,0 226,-6 226,-12 226,-12 226,-24 226,-24 226,-30 220,-36 214,-36"/>
<text text-anchor="middle" x="176.5" y="-15.5" font-family="sans" font-size="10.00" fill="#000000">RNAseq_pipeline</text>
</g>
<!-- 1 -->
<g id="node2" class="node">
<title>1</title>
<path fill="none" stroke="#d8b456" stroke-width="2" d="M122.5,-185C122.5,-185 30.5,-185 30.5,-185 24.5,-185 18.5,-179 18.5,-173 18.5,-173 18.5,-156 18.5,-156 18.5,-150 24.5,-144 30.5,-144 30.5,-144 122.5,-144 122.5,-144 128.5,-144 134.5,-150 134.5,-156 134.5,-156 134.5,-173 134.5,-173 134.5,-179 128.5,-185 122.5,-185"/>
<text text-anchor="middle" x="76.5" y="-173" font-family="sans" font-size="10.00" fill="#000000">STAR</text>
<text text-anchor="middle" x="76.5" y="-162" font-family="sans" font-size="10.00" fill="#000000">annotation: gencode</text>
<text text-anchor="middle" x="76.5" y="-151" font-family="sans" font-size="10.00" fill="#000000">genome: hg19</text>
</g>
<!-- 1&#45;&gt;0 -->
<g id="edge1" class="edge">
<title>1&#45;&gt;0</title>
<path fill="none" stroke="#c0c0c0" stroke-width="2" d="M73.4356,-143.6712C71.603,-123.7083 71.8266,-93.5159 85.5,-72 93.5859,-59.2764 105.8386,-49.1612 118.756,-41.2896"/>
<polygon fill="#c0c0c0" stroke="#c0c0c0" stroke-width="2" points="120.782,-44.1647 127.7619,-36.1939 117.3349,-38.0723 120.782,-44.1647"/>
</g>
<!-- 4 -->
<g id="node5" class="node">
<title>4</title>
<path fill="none" stroke="#5682d8" stroke-width="2" d="M136.5,-108C136.5,-108 106.5,-108 106.5,-108 100.5,-108 94.5,-102 94.5,-96 94.5,-96 94.5,-84 94.5,-84 94.5,-78 100.5,-72 106.5,-72 106.5,-72 136.5,-72 136.5,-72 142.5,-72 148.5,-78 148.5,-84 148.5,-84 148.5,-96 148.5,-96 148.5,-102 142.5,-108 136.5,-108"/>
<text text-anchor="middle" x="121.5" y="-87.5" font-family="sans" font-size="10.00" fill="#000000">RSEM</text>
</g>
<!-- 1&#45;&gt;4 -->
<g id="edge10" class="edge">
<title>1&#45;&gt;4</title>
<path fill="none" stroke="#c0c0c0" stroke-width="2" d="M89.035,-143.7476C94.0534,-135.4394 99.9006,-125.7591 105.239,-116.9211"/>
<polygon fill="#c0c0c0" stroke="#c0c0c0" stroke-width="2" points="108.3874,-118.478 110.5619,-108.1087 102.3957,-114.8588 108.3874,-118.478"/>
</g>
<!-- 2 -->
<g id="node3" class="node">
<title>2</title>
<path fill="none" stroke="#d8b456" stroke-width="2" d="M237,-185C237,-185 164,-185 164,-185 158,-185 152,-179 152,-173 152,-173 152,-156 152,-156 152,-150 158,-144 164,-144 164,-144 237,-144 237,-144 243,-144 249,-150 249,-156 249,-156 249,-173 249,-173 249,-179 243,-185 237,-185"/>
<text text-anchor="middle" x="200.5" y="-173" font-family="sans" font-size="10.00" fill="#000000">STAR</text>
<text text-anchor="middle" x="200.5" y="-162" font-family="sans" font-size="10.00" fill="#000000">annotation: ucsc</text>
<text text-anchor="middle" x="200.5" y="-151" font-family="sans" font-size="10.00" fill="#000000">genome: hg19</text>
</g>
<!-- 2&#45;&gt;0 -->
<g id="edge2" class="edge">
<title>2&#45;&gt;0</title>
<path fill="none" stroke="#c0c0c0" stroke-width="2" d="M197.1123,-143.8208C192.9418,-118.3635 185.838,-75.0008 181.1566,-46.4249"/>
<polygon fill="#c0c0c0" stroke="#c0c0c0" stroke-width="2" points="184.5629,-45.5676 179.4922,-36.265 177.655,-46.6994 184.5629,-45.5676"/>
</g>
<!-- 5 -->
<g id="node6" class="node">
<title>5</title>
<path fill="none" stroke="#5682d8" stroke-width="2" d="M246.5,-108C246.5,-108 216.5,-108 216.5,-108 210.5,-108 204.5,-102 204.5,-96 204.5,-96 204.5,-84 204.5,-84 204.5,-78 210.5,-72 216.5,-72 216.5,-72 246.5,-72 246.5,-72 252.5,-72 258.5,-78 258.5,-84 258.5,-84 258.5,-96 258.5,-96 258.5,-102 252.5,-108 246.5,-108"/>
<text text-anchor="middle" x="231.5" y="-87.5" font-family="sans" font-size="10.00" fill="#000000">RSEM</text>
</g>
<!-- 2&#45;&gt;5 -->
<g id="edge11" class="edge">
<title>2&#45;&gt;5</title>
<path fill="none" stroke="#c0c0c0" stroke-width="2" d="M209.1352,-143.7476C212.5195,-135.6143 216.451,-126.1661 220.0652,-117.4804"/>
<polygon fill="#c0c0c0" stroke="#c0c0c0" stroke-width="2" points="223.3544,-118.6859 223.9649,-108.1087 216.8916,-115.9966 223.3544,-118.6859"/>
</g>
<!-- 3 -->
<g id="node4" class="node">
<title>3</title>
<path fill="none" stroke="#d88556" stroke-width="2" d="M330.5,-108C330.5,-108 288.5,-108 288.5,-108 282.5,-108 276.5,-102 276.5,-96 276.5,-96 276.5,-84 276.5,-84 276.5,-78 282.5,-72 288.5,-72 288.5,-72 330.5,-72 330.5,-72 336.5,-72 342.5,-78 342.5,-84 342.5,-84 342.5,-96 342.5,-96 342.5,-102 336.5,-108 330.5,-108"/>
<text text-anchor="middle" x="309.5" y="-87.5" font-family="sans" font-size="10.00" fill="#000000">MergeHLA</text>
</g>
<!-- 3&#45;&gt;0 -->
<g id="edge3" class="edge">
<title>3&#45;&gt;0</title>
<path fill="none" stroke="#c0c0c0" stroke-width="2" d="M276.2816,-72.0171C258.8256,-62.5673 237.2475,-50.8858 218.6278,-40.806"/>
<polygon fill="#c0c0c0" stroke="#c0c0c0" stroke-width="2" points="220.2163,-37.686 209.7559,-36.0032 216.8837,-43.8419 220.2163,-37.686"/>
</g>
<!-- 4&#45;&gt;0 -->
<g id="edge4" class="edge">
<title>4&#45;&gt;0</title>
<path fill="none" stroke="#c0c0c0" stroke-width="2" d="M135.3788,-71.8314C141.7136,-63.5386 149.3384,-53.557 156.2926,-44.4533"/>
<polygon fill="#c0c0c0" stroke="#c0c0c0" stroke-width="2" points="159.1452,-46.4847 162.4343,-36.4133 153.5825,-42.2353 159.1452,-46.4847"/>
</g>
<!-- 5&#45;&gt;0 -->
<g id="edge5" class="edge">
<title>5&#45;&gt;0</title>
<path fill="none" stroke="#c0c0c0" stroke-width="2" d="M217.6212,-71.8314C211.2864,-63.5386 203.6616,-53.557 196.7074,-44.4533"/>
<polygon fill="#c0c0c0" stroke="#c0c0c0" stroke-width="2" points="199.4175,-42.2353 190.5657,-36.4133 193.8548,-46.4847 199.4175,-42.2353"/>
</g>
<!-- 6 -->
<g id="node7" class="node">
<title>6</title>
<path fill="none" stroke="#56d89a" stroke-width="2" d="M276,-257C276,-257 223,-257 223,-257 217,-257 211,-251 211,-245 211,-245 211,-233 211,-233 211,-227 217,-221 223,-221 223,-221 276,-221 276,-221 282,-221 288,-227 288,-233 288,-233 288,-245 288,-245 288,-251 282,-257 276,-257"/>
<text text-anchor="middle" x="249.5" y="-236.5" font-family="sans" font-size="10.00" fill="#000000">xengsort_pe</text>
</g>
<!-- 6&#45;&gt;1 -->
<g id="edge6" class="edge">
<title>6&#45;&gt;1</title>
<path fill="none" stroke="#c0c0c0" stroke-width="2" d="M210.6754,-222.2807C187.973,-212.5043 158.8989,-199.9839 133.6226,-189.099"/>
<polygon fill="#c0c0c0" stroke="#c0c0c0" stroke-width="2" points="134.7112,-185.7572 124.1423,-185.0165 131.9426,-192.1864 134.7112,-185.7572"/>
</g>
<!-- 6&#45;&gt;2 -->
<g id="edge7" class="edge">
<title>6&#45;&gt;2</title>
<path fill="none" stroke="#c0c0c0" stroke-width="2" d="M237.6385,-220.9656C232.2725,-212.8071 225.7926,-202.9551 219.7579,-193.7799"/>
<polygon fill="#c0c0c0" stroke="#c0c0c0" stroke-width="2" points="222.5788,-191.6994 214.1594,-185.2679 216.7304,-195.5461 222.5788,-191.6994"/>
</g>
<!-- 7 -->
<g id="node8" class="node">
<title>7</title>
<path fill="none" stroke="#ced856" stroke-width="2" d="M320,-182.5C320,-182.5 279,-182.5 279,-182.5 273,-182.5 267,-176.5 267,-170.5 267,-170.5 267,-158.5 267,-158.5 267,-152.5 273,-146.5 279,-146.5 279,-146.5 320,-146.5 320,-146.5 326,-146.5 332,-152.5 332,-158.5 332,-158.5 332,-170.5 332,-170.5 332,-176.5 326,-182.5 320,-182.5"/>
<text text-anchor="middle" x="299.5" y="-162" font-family="sans" font-size="10.00" fill="#000000">HLAminer</text>
</g>
<!-- 6&#45;&gt;7 -->
<g id="edge14" class="edge">
<title>6&#45;&gt;7</title>
<path fill="none" stroke="#c0c0c0" stroke-width="2" d="M261.6036,-220.9656C267.6391,-211.9728 275.0555,-200.9223 281.7223,-190.9887"/>
<polygon fill="#c0c0c0" stroke="#c0c0c0" stroke-width="2" points="284.668,-192.8803 287.3346,-182.6265 278.8557,-188.9794 284.668,-192.8803"/>
</g>
<!-- 8 -->
<g id="node9" class="node">
<title>8</title>
<path fill="none" stroke="#56d8c9" stroke-width="2" d="M397,-182.5C397,-182.5 362,-182.5 362,-182.5 356,-182.5 350,-176.5 350,-170.5 350,-170.5 350,-158.5 350,-158.5 350,-152.5 356,-146.5 362,-146.5 362,-146.5 397,-146.5 397,-146.5 403,-146.5 409,-152.5 409,-158.5 409,-158.5 409,-170.5 409,-170.5 409,-176.5 403,-182.5 397,-182.5"/>
<text text-anchor="middle" x="379.5" y="-162" font-family="sans" font-size="10.00" fill="#000000">seq2HLA</text>
</g>
<!-- 6&#45;&gt;8 -->
<g id="edge15" class="edge">
<title>6&#45;&gt;8</title>
<path fill="none" stroke="#c0c0c0" stroke-width="2" d="M280.9694,-220.9656C299.0034,-210.6307 321.7795,-197.5783 340.8898,-186.6266"/>
<polygon fill="#c0c0c0" stroke="#c0c0c0" stroke-width="2" points="342.7241,-189.6095 349.6601,-181.6006 339.2435,-183.5361 342.7241,-189.6095"/>
</g>
<!-- 7&#45;&gt;3 -->
<g id="edge8" class="edge">
<title>7&#45;&gt;3</title>
<path fill="none" stroke="#c0c0c0" stroke-width="2" d="M301.9207,-146.4656C303.0547,-138.0178 304.4323,-127.7542 305.7005,-118.3064"/>
<polygon fill="#c0c0c0" stroke="#c0c0c0" stroke-width="2" points="309.2054,-118.5033 307.0669,-108.1265 302.2676,-117.572 309.2054,-118.5033"/>
</g>
<!-- 8&#45;&gt;3 -->
<g id="edge9" class="edge">
<title>8&#45;&gt;3</title>
<path fill="none" stroke="#c0c0c0" stroke-width="2" d="M362.555,-146.4656C353.8492,-137.2003 343.0913,-125.7507 333.5432,-115.5888"/>
<polygon fill="#c0c0c0" stroke="#c0c0c0" stroke-width="2" points="335.9299,-113.0176 326.5316,-108.1265 330.8285,-117.8109 335.9299,-113.0176"/>
</g>
<!-- 9 -->
<g id="node10" class="node">
<title>9</title>
<path fill="none" stroke="#9fd856" stroke-width="2" d="M229,-334C229,-334 12,-334 12,-334 6,-334 0,-328 0,-322 0,-322 0,-305 0,-305 0,-299 6,-293 12,-293 12,-293 229,-293 229,-293 235,-293 241,-299 241,-305 241,-305 241,-322 241,-322 241,-328 235,-334 229,-334"/>
<text text-anchor="middle" x="120.5" y="-322" font-family="sans" font-size="10.00" fill="#000000">prepareFASTQ</text>
<text text-anchor="middle" x="120.5" y="-311" font-family="sans" font-size="10.00" fill="#000000">sample: RH4_total_RNA_PA58_T_H37TWBGXC</text>
<text text-anchor="middle" x="120.5" y="-300" font-family="sans" font-size="10.00" fill="#000000">suffix: R1.fastq.gz</text>
</g>
<!-- 9&#45;&gt;6 -->
<g id="edge12" class="edge">
<title>9&#45;&gt;6</title>
<path fill="none" stroke="#c0c0c0" stroke-width="2" d="M156.0913,-292.9453C172.4515,-283.497 191.9405,-272.2417 208.8735,-262.4626"/>
<polygon fill="#c0c0c0" stroke="#c0c0c0" stroke-width="2" points="211.0725,-265.2344 217.9817,-257.2024 207.5717,-259.1727 211.0725,-265.2344"/>
</g>
<!-- 10 -->
<g id="node11" class="node">
<title>10</title>
<path fill="none" stroke="#9fd856" stroke-width="2" d="M488,-334C488,-334 271,-334 271,-334 265,-334 259,-328 259,-322 259,-322 259,-305 259,-305 259,-299 265,-293 271,-293 271,-293 488,-293 488,-293 494,-293 500,-299 500,-305 500,-305 500,-322 500,-322 500,-328 494,-334 488,-334"/>
<text text-anchor="middle" x="379.5" y="-322" font-family="sans" font-size="10.00" fill="#000000">prepareFASTQ</text>
<text text-anchor="middle" x="379.5" y="-311" font-family="sans" font-size="10.00" fill="#000000">sample: RH4_total_RNA_PA58_T_H37TWBGXC</text>
<text text-anchor="middle" x="379.5" y="-300" font-family="sans" font-size="10.00" fill="#000000">suffix: R2.fastq.gz</text>
</g>
<!-- 10&#45;&gt;6 -->
<g id="edge13" class="edge">
<title>10&#45;&gt;6</title>
<path fill="none" stroke="#c0c0c0" stroke-width="2" d="M343.6328,-292.9453C326.9931,-283.4095 307.1418,-272.0332 289.9681,-262.1913"/>
<polygon fill="#c0c0c0" stroke="#c0c0c0" stroke-width="2" points="291.6791,-259.1379 281.2626,-257.2024 288.1986,-265.2113 291.6791,-259.1379"/>
</g>
</g>
</svg>
