<?xml version="1.0" encoding="UTF-8" standalone="no"?>
<!DOCTYPE svg PUBLIC "-//W3C//DTD SVG 1.1//EN"
 "http://www.w3.org/Graphics/SVG/1.1/DTD/svg11.dtd">
<!-- Generated by graphviz version 2.40.1 (20161225.0304)
 -->
<!-- Title: snakemake_dag Pages: 1 -->
<svg width="1351pt" height="446pt"
 viewBox="0.00 0.00 1351.08 446.00" xmlns="http://www.w3.org/2000/svg" xmlns:xlink="http://www.w3.org/1999/xlink">
<g id="graph0" class="graph" transform="scale(1 1) rotate(0) translate(4 442)">
<title>snakemake_dag</title>
<polygon fill="#ffffff" stroke="transparent" points="-4,4 -4,-442 1347.0773,-442 1347.0773,4 -4,4"/>
<!-- 0 -->
<g id="node1" class="node">
<title>0</title>
<path fill="none" stroke="#d8b456" stroke-width="2" d="M658.5,-36C658.5,-36 582.5,-36 582.5,-36 576.5,-36 570.5,-30 570.5,-24 570.5,-24 570.5,-12 570.5,-12 570.5,-6 576.5,0 582.5,0 582.5,0 658.5,0 658.5,0 664.5,0 670.5,-6 670.5,-12 670.5,-12 670.5,-24 670.5,-24 670.5,-30 664.5,-36 658.5,-36"/>
<text text-anchor="middle" x="620.5" y="-15.5" font-family="sans" font-size="10.00" fill="#000000">ChIPseq_pipeline</text>
</g>
<!-- 1 -->
<g id="node2" class="node">
<title>1</title>
<path fill="none" stroke="#56d8b9" stroke-width="2" d="M384.5,-361C384.5,-361 354.5,-361 354.5,-361 348.5,-361 342.5,-355 342.5,-349 342.5,-349 342.5,-337 342.5,-337 342.5,-331 348.5,-325 354.5,-325 354.5,-325 384.5,-325 384.5,-325 390.5,-325 396.5,-331 396.5,-337 396.5,-337 396.5,-349 396.5,-349 396.5,-355 390.5,-361 384.5,-361"/>
<text text-anchor="middle" x="369.5" y="-340.5" font-family="sans" font-size="10.00" fill="#000000">BWA</text>
</g>
<!-- 1&#45;&gt;0 -->
<g id="edge1" class="edge">
<title>1&#45;&gt;0</title>
<path fill="none" stroke="#c0c0c0" stroke-width="2" d="M342.4774,-327.6789C328.9784,-318.4052 313.9641,-305.2286 306.5,-289 277.9991,-227.0327 276.1291,-139.7141 345.5,-72 375.3668,-42.8465 488.7109,-28.5158 560.2311,-22.2338"/>
<polygon fill="#c0c0c0" stroke="#c0c0c0" stroke-width="2" points="560.797,-25.6985 570.4649,-21.3646 560.2045,-18.7236 560.797,-25.6985"/>
</g>
<!-- 3 -->
<g id="node4" class="node">
<title>3</title>
<path fill="none" stroke="#d6d856" stroke-width="2" d="M411,-289C411,-289 328,-289 328,-289 322,-289 316,-283 316,-277 316,-277 316,-260 316,-260 316,-254 322,-248 328,-248 328,-248 411,-248 411,-248 417,-248 423,-254 423,-260 423,-260 423,-277 423,-277 423,-283 417,-289 411,-289"/>
<text text-anchor="middle" x="369.5" y="-277" font-family="sans" font-size="10.00" fill="#000000">makeBigWig</text>
<text text-anchor="middle" x="369.5" y="-266" font-family="sans" font-size="10.00" fill="#000000">bin_size: 25</text>
<text text-anchor="middle" x="369.5" y="-255" font-family="sans" font-size="10.00" fill="#000000">norm_type: scaled</text>
</g>
<!-- 1&#45;&gt;3 -->
<g id="edge21" class="edge">
<title>1&#45;&gt;3</title>
<path fill="none" stroke="#c0c0c0" stroke-width="2" d="M369.5,-324.9656C369.5,-317.3118 369.5,-308.1674 369.5,-299.4898"/>
<polygon fill="#c0c0c0" stroke="#c0c0c0" stroke-width="2" points="373.0001,-299.2678 369.5,-289.2679 366.0001,-299.2679 373.0001,-299.2678"/>
</g>
<!-- 4 -->
<g id="node5" class="node">
<title>4</title>
<path fill="none" stroke="#d6d856" stroke-width="2" d="M525.5,-289C525.5,-289 453.5,-289 453.5,-289 447.5,-289 441.5,-283 441.5,-277 441.5,-277 441.5,-260 441.5,-260 441.5,-254 447.5,-248 453.5,-248 453.5,-248 525.5,-248 525.5,-248 531.5,-248 537.5,-254 537.5,-260 537.5,-260 537.5,-277 537.5,-277 537.5,-283 531.5,-289 525.5,-289"/>
<text text-anchor="middle" x="489.5" y="-277" font-family="sans" font-size="10.00" fill="#000000">makeBigWig</text>
<text text-anchor="middle" x="489.5" y="-266" font-family="sans" font-size="10.00" fill="#000000">bin_size: 25</text>
<text text-anchor="middle" x="489.5" y="-255" font-family="sans" font-size="10.00" fill="#000000">norm_type: RPM</text>
</g>
<!-- 1&#45;&gt;4 -->
<g id="edge22" class="edge">
<title>1&#45;&gt;4</title>
<path fill="none" stroke="#c0c0c0" stroke-width="2" d="M396.7299,-326.0948C411.8047,-316.7359 430.8606,-304.9053 447.7746,-294.4045"/>
<polygon fill="#c0c0c0" stroke="#c0c0c0" stroke-width="2" points="449.742,-297.3028 456.3918,-289.0547 446.0499,-291.3557 449.742,-297.3028"/>
</g>
<!-- 7 -->
<g id="node8" class="node">
<title>7</title>
<path fill="none" stroke="#59d856" stroke-width="2" d="M247.5,-286.5C247.5,-286.5 175.5,-286.5 175.5,-286.5 169.5,-286.5 163.5,-280.5 163.5,-274.5 163.5,-274.5 163.5,-262.5 163.5,-262.5 163.5,-256.5 169.5,-250.5 175.5,-250.5 175.5,-250.5 247.5,-250.5 247.5,-250.5 253.5,-250.5 259.5,-256.5 259.5,-262.5 259.5,-262.5 259.5,-274.5 259.5,-274.5 259.5,-280.5 253.5,-286.5 247.5,-286.5"/>
<text text-anchor="middle" x="211.5" y="-266" font-family="sans" font-size="10.00" fill="#000000">crossCorrelation</text>
</g>
<!-- 1&#45;&gt;7 -->
<g id="edge25" class="edge">
<title>1&#45;&gt;7</title>
<path fill="none" stroke="#c0c0c0" stroke-width="2" d="M342.3388,-330.193C319.5293,-319.4378 286.397,-303.8154 259.1816,-290.9828"/>
<polygon fill="#c0c0c0" stroke="#c0c0c0" stroke-width="2" points="260.3662,-287.6718 249.8285,-286.5726 257.3807,-294.0033 260.3662,-287.6718"/>
</g>
<!-- 8 -->
<g id="node9" class="node">
<title>8</title>
<path fill="none" stroke="#78d856" stroke-width="2" d="M836,-289C836,-289 753,-289 753,-289 747,-289 741,-283 741,-277 741,-277 741,-260 741,-260 741,-254 747,-248 753,-248 753,-248 836,-248 836,-248 842,-248 848,-254 848,-260 848,-260 848,-277 848,-277 848,-283 842,-289 836,-289"/>
<text text-anchor="middle" x="794.5" y="-277" font-family="sans" font-size="10.00" fill="#000000">macs2</text>
<text text-anchor="middle" x="794.5" y="-266" font-family="sans" font-size="10.00" fill="#000000">cutoff: 0.05</text>
<text text-anchor="middle" x="794.5" y="-255" font-family="sans" font-size="10.00" fill="#000000">peak_type: narrow</text>
</g>
<!-- 1&#45;&gt;8 -->
<g id="edge26" class="edge">
<title>1&#45;&gt;8</title>
<path fill="none" stroke="#c0c0c0" stroke-width="2" d="M396.7322,-338.2264C463.4614,-326.5291 636.5476,-296.1881 730.9,-279.6487"/>
<polygon fill="#c0c0c0" stroke="#c0c0c0" stroke-width="2" points="731.6458,-283.0714 740.8913,-277.8973 730.4372,-276.1765 731.6458,-283.0714"/>
</g>
<!-- 10 -->
<g id="node11" class="node">
<title>10</title>
<path fill="none" stroke="#78d856" stroke-width="2" d="M652,-289C652,-289 569,-289 569,-289 563,-289 557,-283 557,-277 557,-277 557,-260 557,-260 557,-254 563,-248 569,-248 569,-248 652,-248 652,-248 658,-248 664,-254 664,-260 664,-260 664,-277 664,-277 664,-283 658,-289 652,-289"/>
<text text-anchor="middle" x="610.5" y="-277" font-family="sans" font-size="10.00" fill="#000000">macs2</text>
<text text-anchor="middle" x="610.5" y="-266" font-family="sans" font-size="10.00" fill="#000000">cutoff: 0.01</text>
<text text-anchor="middle" x="610.5" y="-255" font-family="sans" font-size="10.00" fill="#000000">peak_type: narrow</text>
</g>
<!-- 1&#45;&gt;10 -->
<g id="edge29" class="edge">
<title>1&#45;&gt;10</title>
<path fill="none" stroke="#c0c0c0" stroke-width="2" d="M396.524,-334.8825C431.2695,-324.4164 493.4523,-305.5871 546.5,-289 546.7088,-288.9347 546.918,-288.8693 547.1275,-288.8037"/>
<polygon fill="#c0c0c0" stroke="#c0c0c0" stroke-width="2" points="548.2527,-292.1189 556.7414,-285.7791 546.152,-285.4416 548.2527,-292.1189"/>
</g>
<!-- 21 -->
<g id="node22" class="node">
<title>21</title>
<path fill="none" stroke="#569ad8" stroke-width="2" d="M160.5,-204C160.5,-204 110.5,-204 110.5,-204 104.5,-204 98.5,-198 98.5,-192 98.5,-192 98.5,-180 98.5,-180 98.5,-174 104.5,-168 110.5,-168 110.5,-168 160.5,-168 160.5,-168 166.5,-168 172.5,-174 172.5,-180 172.5,-180 172.5,-192 172.5,-192 172.5,-198 166.5,-204 160.5,-204"/>
<text text-anchor="middle" x="135.5" y="-189" font-family="sans" font-size="10.00" fill="#000000">makeTDF</text>
<text text-anchor="middle" x="135.5" y="-178" font-family="sans" font-size="10.00" fill="#000000">bin_size: 25</text>
</g>
<!-- 1&#45;&gt;21 -->
<g id="edge40" class="edge">
<title>1&#45;&gt;21</title>
<path fill="none" stroke="#c0c0c0" stroke-width="2" d="M342.2708,-339.8225C290.3429,-333.1976 180.0437,-316.2238 154.5,-289 135.918,-269.1958 132.5506,-237.4434 132.9699,-214.4239"/>
<polygon fill="#c0c0c0" stroke="#c0c0c0" stroke-width="2" points="136.4755,-214.3675 133.4087,-204.2263 129.482,-214.0666 136.4755,-214.3675"/>
</g>
<!-- 2 -->
<g id="node3" class="node">
<title>2</title>
<path fill="none" stroke="#56d8b9" stroke-width="2" stroke-dasharray="5,2" d="M809.5,-361C809.5,-361 779.5,-361 779.5,-361 773.5,-361 767.5,-355 767.5,-349 767.5,-349 767.5,-337 767.5,-337 767.5,-331 773.5,-325 779.5,-325 779.5,-325 809.5,-325 809.5,-325 815.5,-325 821.5,-331 821.5,-337 821.5,-337 821.5,-349 821.5,-349 821.5,-355 815.5,-361 809.5,-361"/>
<text text-anchor="middle" x="794.5" y="-340.5" font-family="sans" font-size="10.00" fill="#000000">BWA</text>
</g>
<!-- 2&#45;&gt;0 -->
<g id="edge2" class="edge">
<title>2&#45;&gt;0</title>
<path fill="none" stroke="#c0c0c0" stroke-width="2" d="M821.7721,-340.7405C922.4951,-331.7796 1271.0874,-295.1062 1336.5,-212 1356.9149,-186.0631 1322.6335,-76.4819 1317.5,-72 1270.0566,-30.5786 841.3305,-20.8267 680.8082,-18.6193"/>
<polygon fill="#c0c0c0" stroke="#c0c0c0" stroke-width="2" points="680.6751,-15.1174 670.6296,-18.4846 680.5824,-22.1167 680.6751,-15.1174"/>
</g>
<!-- 2&#45;&gt;8 -->
<g id="edge27" class="edge">
<title>2&#45;&gt;8</title>
<path fill="none" stroke="#c0c0c0" stroke-width="2" d="M794.5,-324.9656C794.5,-317.3118 794.5,-308.1674 794.5,-299.4898"/>
<polygon fill="#c0c0c0" stroke="#c0c0c0" stroke-width="2" points="798.0001,-299.2678 794.5,-289.2679 791.0001,-299.2679 798.0001,-299.2678"/>
</g>
<!-- 2&#45;&gt;10 -->
<g id="edge30" class="edge">
<title>2&#45;&gt;10</title>
<path fill="none" stroke="#c0c0c0" stroke-width="2" d="M767.3502,-332.0073C742.0564,-321.766 703.4563,-306.1372 670.8788,-292.9468"/>
<polygon fill="#c0c0c0" stroke="#c0c0c0" stroke-width="2" points="672.0086,-289.6283 661.426,-289.1195 669.3815,-296.1167 672.0086,-289.6283"/>
</g>
<!-- 3&#45;&gt;0 -->
<g id="edge3" class="edge">
<title>3&#45;&gt;0</title>
<path fill="none" stroke="#c0c0c0" stroke-width="2" d="M362.1152,-247.9458C349.5149,-208.8519 329.0183,-123.1316 370.5,-72 393.9344,-43.114 493.7694,-28.9086 559.9687,-22.5402"/>
<polygon fill="#c0c0c0" stroke="#c0c0c0" stroke-width="2" points="560.6531,-25.9919 570.2877,-21.5844 560.0074,-19.0217 560.6531,-25.9919"/>
</g>
<!-- 4&#45;&gt;0 -->
<g id="edge4" class="edge">
<title>4&#45;&gt;0</title>
<path fill="none" stroke="#c0c0c0" stroke-width="2" d="M444.01,-247.9185C429.3356,-238.9899 414.5406,-227.0718 405.5,-212 373.4272,-158.531 357.9221,-120.9831 396.5,-72 416.5632,-46.5254 501.0502,-31.6595 560.3174,-24.1822"/>
<polygon fill="#c0c0c0" stroke="#c0c0c0" stroke-width="2" points="560.8314,-27.6455 570.3329,-22.958 559.9821,-20.6972 560.8314,-27.6455"/>
</g>
<!-- 5 -->
<g id="node6" class="node">
<title>5</title>
<path fill="none" stroke="#d89556" stroke-width="2" d="M95,-116C95,-116 12,-116 12,-116 6,-116 0,-110 0,-104 0,-104 0,-92 0,-92 0,-86 6,-80 12,-80 12,-80 95,-80 95,-80 101,-80 107,-86 107,-92 107,-92 107,-104 107,-104 107,-110 101,-116 95,-116"/>
<text text-anchor="middle" x="53.5" y="-101" font-family="sans" font-size="10.00" fill="#000000">makeNormTDF</text>
<text text-anchor="middle" x="53.5" y="-90" font-family="sans" font-size="10.00" fill="#000000">norm_type: scaled</text>
</g>
<!-- 5&#45;&gt;0 -->
<g id="edge5" class="edge">
<title>5&#45;&gt;0</title>
<path fill="none" stroke="#c0c0c0" stroke-width="2" d="M92.5711,-79.8698C100.3637,-76.829 108.5876,-74.0125 116.5,-72 199.0797,-50.9957 445.1312,-30.8685 560.0774,-22.3109"/>
<polygon fill="#c0c0c0" stroke="#c0c0c0" stroke-width="2" points="560.4042,-25.7964 570.1186,-21.568 559.8876,-18.8155 560.4042,-25.7964"/>
</g>
<!-- 6 -->
<g id="node7" class="node">
<title>6</title>
<path fill="none" stroke="#d89556" stroke-width="2" d="M209.5,-116C209.5,-116 137.5,-116 137.5,-116 131.5,-116 125.5,-110 125.5,-104 125.5,-104 125.5,-92 125.5,-92 125.5,-86 131.5,-80 137.5,-80 137.5,-80 209.5,-80 209.5,-80 215.5,-80 221.5,-86 221.5,-92 221.5,-92 221.5,-104 221.5,-104 221.5,-110 215.5,-116 209.5,-116"/>
<text text-anchor="middle" x="173.5" y="-101" font-family="sans" font-size="10.00" fill="#000000">makeNormTDF</text>
<text text-anchor="middle" x="173.5" y="-90" font-family="sans" font-size="10.00" fill="#000000">norm_type: RPM</text>
</g>
<!-- 6&#45;&gt;0 -->
<g id="edge6" class="edge">
<title>6&#45;&gt;0</title>
<path fill="none" stroke="#c0c0c0" stroke-width="2" d="M212.3182,-79.932C219.8848,-76.9238 227.8468,-74.1034 235.5,-72 347.6947,-41.1647 483.372,-27.3711 560.0279,-21.6503"/>
<polygon fill="#c0c0c0" stroke="#c0c0c0" stroke-width="2" points="560.7231,-25.1091 570.4441,-20.8957 560.2173,-18.1274 560.7231,-25.1091"/>
</g>
<!-- 7&#45;&gt;0 -->
<g id="edge7" class="edge">
<title>7&#45;&gt;0</title>
<path fill="none" stroke="#c0c0c0" stroke-width="2" d="M211.3268,-250.2167C212.0285,-210.9286 219.6395,-118.2733 273.5,-72 315.4815,-35.9324 472.4549,-23.8629 560.1936,-19.8934"/>
<polygon fill="#c0c0c0" stroke="#c0c0c0" stroke-width="2" points="560.4382,-23.3862 570.2783,-19.459 560.1369,-16.3927 560.4382,-23.3862"/>
</g>
<!-- 8&#45;&gt;0 -->
<g id="edge8" class="edge">
<title>8&#45;&gt;0</title>
<path fill="none" stroke="#c0c0c0" stroke-width="2" d="M772.161,-247.7986C761.6669,-237.5302 749.3335,-224.6421 739.5,-212 696.2257,-156.3659 655.4797,-84.0694 634.75,-45.3441"/>
<polygon fill="#c0c0c0" stroke="#c0c0c0" stroke-width="2" points="637.7033,-43.4427 629.9217,-36.2525 631.521,-46.726 637.7033,-43.4427"/>
</g>
<!-- 9 -->
<g id="node10" class="node">
<title>9</title>
<path fill="none" stroke="#56d87b" stroke-width="2" d="M828.5,-204C828.5,-204 760.5,-204 760.5,-204 754.5,-204 748.5,-198 748.5,-192 748.5,-192 748.5,-180 748.5,-180 748.5,-174 754.5,-168 760.5,-168 760.5,-168 828.5,-168 828.5,-168 834.5,-168 840.5,-174 840.5,-180 840.5,-180 840.5,-192 840.5,-192 840.5,-198 834.5,-204 828.5,-204"/>
<text text-anchor="middle" x="794.5" y="-183.5" font-family="sans" font-size="10.00" fill="#000000">prepareSummit</text>
</g>
<!-- 8&#45;&gt;9 -->
<g id="edge28" class="edge">
<title>8&#45;&gt;9</title>
<path fill="none" stroke="#c0c0c0" stroke-width="2" d="M794.5,-247.6818C794.5,-237.4808 794.5,-225.0496 794.5,-214.027"/>
<polygon fill="#c0c0c0" stroke="#c0c0c0" stroke-width="2" points="798.0001,-214.0094 794.5,-204.0094 791.0001,-214.0094 798.0001,-214.0094"/>
</g>
<!-- 12 -->
<g id="node13" class="node">
<title>12</title>
<path fill="none" stroke="#56b9d8" stroke-width="2" d="M1315.5,-204C1315.5,-204 1245.5,-204 1245.5,-204 1239.5,-204 1233.5,-198 1233.5,-192 1233.5,-192 1233.5,-180 1233.5,-180 1233.5,-174 1239.5,-168 1245.5,-168 1245.5,-168 1315.5,-168 1315.5,-168 1321.5,-168 1327.5,-174 1327.5,-180 1327.5,-180 1327.5,-192 1327.5,-192 1327.5,-198 1321.5,-204 1315.5,-204"/>
<text text-anchor="middle" x="1280.5" y="-183.5" font-family="sans" font-size="10.00" fill="#000000">peakAnnotation</text>
</g>
<!-- 8&#45;&gt;12 -->
<g id="edge32" class="edge">
<title>8&#45;&gt;12</title>
<path fill="none" stroke="#c0c0c0" stroke-width="2" d="M848.0907,-266.0238C929.5978,-261.2241 1089.0292,-247.7634 1219.5,-212 1223.8647,-210.8036 1228.3274,-209.3615 1232.755,-207.7774"/>
<polygon fill="#c0c0c0" stroke="#c0c0c0" stroke-width="2" points="1234.2432,-210.9558 1242.3403,-204.1229 1231.7495,-204.4151 1234.2432,-210.9558"/>
</g>
<!-- 16 -->
<g id="node17" class="node">
<title>16</title>
<path fill="none" stroke="#567bd8" stroke-width="2" d="M1277.5,-124C1277.5,-124 1137.5,-124 1137.5,-124 1131.5,-124 1125.5,-118 1125.5,-112 1125.5,-112 1125.5,-84 1125.5,-84 1125.5,-78 1131.5,-72 1137.5,-72 1137.5,-72 1277.5,-72 1277.5,-72 1283.5,-72 1289.5,-78 1289.5,-84 1289.5,-84 1289.5,-112 1289.5,-112 1289.5,-118 1283.5,-124 1277.5,-124"/>
<text text-anchor="middle" x="1207.5" y="-112" font-family="sans" font-size="10.00" fill="#000000">EDEN</text>
<text text-anchor="middle" x="1207.5" y="-101" font-family="sans" font-size="10.00" fill="#000000">TPM_cutoff: 4</text>
<text text-anchor="middle" x="1207.5" y="-90" font-family="sans" font-size="10.00" fill="#000000">folders: MACS_Out_q_0.05</text>
<text text-anchor="middle" x="1207.5" y="-79" font-family="sans" font-size="10.00" fill="#000000">prefix: peaks.narrowPeak.nobl</text>
</g>
<!-- 8&#45;&gt;16 -->
<g id="edge36" class="edge">
<title>8&#45;&gt;16</title>
<path fill="none" stroke="#c0c0c0" stroke-width="2" d="M848.1114,-264.2308C949.7398,-255.6437 1162.4638,-235.1161 1186.5,-212 1207.0254,-192.2603 1211.2762,-159.5121 1210.9727,-134.1675"/>
<polygon fill="#c0c0c0" stroke="#c0c0c0" stroke-width="2" points="1214.4704,-134.0366 1210.6186,-124.1667 1207.4748,-134.2843 1214.4704,-134.0366"/>
</g>
<!-- 9&#45;&gt;0 -->
<g id="edge9" class="edge">
<title>9&#45;&gt;0</title>
<path fill="none" stroke="#c0c0c0" stroke-width="2" d="M821.7003,-167.8983C835.5228,-157.0054 850.9584,-141.8061 858.5,-124 867.5134,-102.719 872.9212,-90.0597 858.5,-72 836.6803,-44.675 744.0547,-30.1374 681.0013,-23.257"/>
<polygon fill="#c0c0c0" stroke="#c0c0c0" stroke-width="2" points="681.0747,-19.7455 670.763,-22.1783 680.3411,-26.707 681.0747,-19.7455"/>
</g>
<!-- 14 -->
<g id="node15" class="node">
<title>14</title>
<path fill="none" stroke="#d87556" stroke-width="2" d="M837.5,-116C837.5,-116 717.5,-116 717.5,-116 711.5,-116 705.5,-110 705.5,-104 705.5,-104 705.5,-92 705.5,-92 705.5,-86 711.5,-80 717.5,-80 717.5,-80 837.5,-80 837.5,-80 843.5,-80 849.5,-86 849.5,-92 849.5,-92 849.5,-104 849.5,-104 849.5,-110 843.5,-116 837.5,-116"/>
<text text-anchor="middle" x="777.5" y="-101" font-family="sans" font-size="10.00" fill="#000000">findMotif</text>
<text text-anchor="middle" x="777.5" y="-90" font-family="sans" font-size="10.00" fill="#000000">folders: MACS_Out_q_0.05</text>
</g>
<!-- 9&#45;&gt;14 -->
<g id="edge34" class="edge">
<title>9&#45;&gt;14</title>
<path fill="none" stroke="#c0c0c0" stroke-width="2" d="M790.9776,-167.7663C788.6526,-155.7312 785.5605,-139.7249 782.9245,-126.0797"/>
<polygon fill="#c0c0c0" stroke="#c0c0c0" stroke-width="2" points="786.3512,-125.3649 781.0179,-116.2103 779.4783,-126.6927 786.3512,-125.3649"/>
</g>
<!-- 10&#45;&gt;0 -->
<g id="edge10" class="edge">
<title>10&#45;&gt;0</title>
<path fill="none" stroke="#c0c0c0" stroke-width="2" d="M556.9264,-250.8038C509.5329,-235.0503 447.5509,-214.1628 445.5,-212 402.0088,-166.1353 382.0703,-122.1819 420.5,-72 437.5508,-49.7349 508.047,-34.5573 560.5456,-26.0947"/>
<polygon fill="#c0c0c0" stroke="#c0c0c0" stroke-width="2" points="561.1152,-29.5483 570.4527,-24.5421 560.0314,-22.6327 561.1152,-29.5483"/>
</g>
<!-- 11 -->
<g id="node12" class="node">
<title>11</title>
<path fill="none" stroke="#56d87b" stroke-width="2" d="M534.5,-204C534.5,-204 466.5,-204 466.5,-204 460.5,-204 454.5,-198 454.5,-192 454.5,-192 454.5,-180 454.5,-180 454.5,-174 460.5,-168 466.5,-168 466.5,-168 534.5,-168 534.5,-168 540.5,-168 546.5,-174 546.5,-180 546.5,-180 546.5,-192 546.5,-192 546.5,-198 540.5,-204 534.5,-204"/>
<text text-anchor="middle" x="500.5" y="-183.5" font-family="sans" font-size="10.00" fill="#000000">prepareSummit</text>
</g>
<!-- 10&#45;&gt;11 -->
<g id="edge31" class="edge">
<title>10&#45;&gt;11</title>
<path fill="none" stroke="#c0c0c0" stroke-width="2" d="M583.0261,-247.8946C567.7447,-236.4335 548.6436,-222.1077 532.6675,-210.1256"/>
<polygon fill="#c0c0c0" stroke="#c0c0c0" stroke-width="2" points="534.7347,-207.301 524.6347,-204.101 530.5347,-212.901 534.7347,-207.301"/>
</g>
<!-- 13 -->
<g id="node14" class="node">
<title>13</title>
<path fill="none" stroke="#56b9d8" stroke-width="2" d="M646.5,-204C646.5,-204 576.5,-204 576.5,-204 570.5,-204 564.5,-198 564.5,-192 564.5,-192 564.5,-180 564.5,-180 564.5,-174 570.5,-168 576.5,-168 576.5,-168 646.5,-168 646.5,-168 652.5,-168 658.5,-174 658.5,-180 658.5,-180 658.5,-192 658.5,-192 658.5,-198 652.5,-204 646.5,-204"/>
<text text-anchor="middle" x="611.5" y="-183.5" font-family="sans" font-size="10.00" fill="#000000">peakAnnotation</text>
</g>
<!-- 10&#45;&gt;13 -->
<g id="edge33" class="edge">
<title>10&#45;&gt;13</title>
<path fill="none" stroke="#c0c0c0" stroke-width="2" d="M610.7523,-247.6818C610.876,-237.4808 611.0267,-225.0496 611.1603,-214.027"/>
<polygon fill="#c0c0c0" stroke="#c0c0c0" stroke-width="2" points="614.6601,-214.0511 611.2817,-204.0094 607.6607,-213.9662 614.6601,-214.0511"/>
</g>
<!-- 17 -->
<g id="node18" class="node">
<title>17</title>
<path fill="none" stroke="#567bd8" stroke-width="2" d="M1057.5,-124C1057.5,-124 917.5,-124 917.5,-124 911.5,-124 905.5,-118 905.5,-112 905.5,-112 905.5,-84 905.5,-84 905.5,-78 911.5,-72 917.5,-72 917.5,-72 1057.5,-72 1057.5,-72 1063.5,-72 1069.5,-78 1069.5,-84 1069.5,-84 1069.5,-112 1069.5,-112 1069.5,-118 1063.5,-124 1057.5,-124"/>
<text text-anchor="middle" x="987.5" y="-112" font-family="sans" font-size="10.00" fill="#000000">EDEN</text>
<text text-anchor="middle" x="987.5" y="-101" font-family="sans" font-size="10.00" fill="#000000">TPM_cutoff: 4</text>
<text text-anchor="middle" x="987.5" y="-90" font-family="sans" font-size="10.00" fill="#000000">folders: MACS_Out_q_0.01</text>
<text text-anchor="middle" x="987.5" y="-79" font-family="sans" font-size="10.00" fill="#000000">prefix: peaks.narrowPeak.nobl</text>
</g>
<!-- 10&#45;&gt;17 -->
<g id="edge38" class="edge">
<title>10&#45;&gt;17</title>
<path fill="none" stroke="#c0c0c0" stroke-width="2" d="M664.1707,-258.7632C724.2456,-247.3498 817.3809,-227.9651 849.5,-212 890.2775,-191.7311 929.5877,-157.3146 955.7498,-131.5878"/>
<polygon fill="#c0c0c0" stroke="#c0c0c0" stroke-width="2" points="958.4996,-133.7882 963.1018,-124.2451 953.5529,-128.8353 958.4996,-133.7882"/>
</g>
<!-- 11&#45;&gt;0 -->
<g id="edge11" class="edge">
<title>11&#45;&gt;0</title>
<path fill="none" stroke="#c0c0c0" stroke-width="2" d="M532.9676,-167.7706C549.7454,-156.9361 569.3937,-141.8324 582.5,-124 599.5911,-100.7459 609.6069,-69.0634 615.0242,-46.4054"/>
<polygon fill="#c0c0c0" stroke="#c0c0c0" stroke-width="2" points="618.4974,-46.9112 617.2619,-36.3887 611.6658,-45.385 618.4974,-46.9112"/>
</g>
<!-- 15 -->
<g id="node16" class="node">
<title>15</title>
<path fill="none" stroke="#d87556" stroke-width="2" d="M561.5,-116C561.5,-116 441.5,-116 441.5,-116 435.5,-116 429.5,-110 429.5,-104 429.5,-104 429.5,-92 429.5,-92 429.5,-86 435.5,-80 441.5,-80 441.5,-80 561.5,-80 561.5,-80 567.5,-80 573.5,-86 573.5,-92 573.5,-92 573.5,-104 573.5,-104 573.5,-110 567.5,-116 561.5,-116"/>
<text text-anchor="middle" x="501.5" y="-101" font-family="sans" font-size="10.00" fill="#000000">findMotif</text>
<text text-anchor="middle" x="501.5" y="-90" font-family="sans" font-size="10.00" fill="#000000">folders: MACS_Out_q_0.01</text>
</g>
<!-- 11&#45;&gt;15 -->
<g id="edge35" class="edge">
<title>11&#45;&gt;15</title>
<path fill="none" stroke="#c0c0c0" stroke-width="2" d="M500.7072,-167.7663C500.8426,-155.8492 501.0223,-140.0384 501.1763,-126.4817"/>
<polygon fill="#c0c0c0" stroke="#c0c0c0" stroke-width="2" points="504.6791,-126.2495 501.2931,-116.2103 497.6796,-126.1698 504.6791,-126.2495"/>
</g>
<!-- 12&#45;&gt;0 -->
<g id="edge12" class="edge">
<title>12&#45;&gt;0</title>
<path fill="none" stroke="#c0c0c0" stroke-width="2" d="M1291.2339,-167.9969C1304.5431,-143.0809 1322.6975,-98.2014 1298.5,-72 1277.6772,-49.4528 843.3764,-27.9073 681.0257,-20.6115"/>
<polygon fill="#c0c0c0" stroke="#c0c0c0" stroke-width="2" points="680.8787,-17.1015 670.7325,-20.1517 680.5663,-24.0946 680.8787,-17.1015"/>
</g>
<!-- 13&#45;&gt;0 -->
<g id="edge13" class="edge">
<title>13&#45;&gt;0</title>
<path fill="none" stroke="#c0c0c0" stroke-width="2" d="M612.7554,-167.8284C613.5885,-155.4731 614.6761,-138.7542 615.5,-124 616.9762,-97.5635 618.3708,-67.4018 619.3101,-46.0296"/>
<polygon fill="#c0c0c0" stroke="#c0c0c0" stroke-width="2" points="622.808,-46.1527 619.7454,-36.0101 615.8146,-45.8487 622.808,-46.1527"/>
</g>
<!-- 14&#45;&gt;0 -->
<g id="edge14" class="edge">
<title>14&#45;&gt;0</title>
<path fill="none" stroke="#c0c0c0" stroke-width="2" d="M741.8743,-79.8468C719.0909,-68.2374 689.357,-53.0864 665.0215,-40.6861"/>
<polygon fill="#c0c0c0" stroke="#c0c0c0" stroke-width="2" points="666.4838,-37.5031 655.9847,-36.0814 663.3057,-43.7401 666.4838,-37.5031"/>
</g>
<!-- 15&#45;&gt;0 -->
<g id="edge15" class="edge">
<title>15&#45;&gt;0</title>
<path fill="none" stroke="#c0c0c0" stroke-width="2" d="M528.5029,-79.8468C545.2393,-68.5954 566.9241,-54.0174 585.0366,-41.8409"/>
<polygon fill="#c0c0c0" stroke="#c0c0c0" stroke-width="2" points="587.2576,-44.5652 593.6039,-36.0814 583.3522,-38.7559 587.2576,-44.5652"/>
</g>
<!-- 16&#45;&gt;0 -->
<g id="edge16" class="edge">
<title>16&#45;&gt;0</title>
<path fill="none" stroke="#c0c0c0" stroke-width="2" d="M1125.4749,-74.8875C1120.7633,-73.84 1116.0808,-72.8668 1111.5,-72 957.7966,-42.9155 773.8431,-27.8621 680.7874,-21.611"/>
<polygon fill="#c0c0c0" stroke="#c0c0c0" stroke-width="2" points="680.9209,-18.1123 670.7118,-20.9449 680.459,-25.0971 680.9209,-18.1123"/>
</g>
<!-- 17&#45;&gt;0 -->
<g id="edge17" class="edge">
<title>17&#45;&gt;0</title>
<path fill="none" stroke="#c0c0c0" stroke-width="2" d="M905.3738,-75.3645C900.6879,-74.1955 896.0387,-73.0655 891.5,-72 819.3937,-55.0721 735.6934,-38.9216 680.6097,-28.7678"/>
<polygon fill="#c0c0c0" stroke="#c0c0c0" stroke-width="2" points="681.1342,-25.3056 670.6667,-26.9428 679.8705,-32.1906 681.1342,-25.3056"/>
</g>
<!-- 18 -->
<g id="node19" class="node">
<title>18</title>
<path fill="none" stroke="#d85656" stroke-width="2" d="M1165,-212C1165,-212 960,-212 960,-212 954,-212 948,-206 948,-200 948,-200 948,-172 948,-172 948,-166 954,-160 960,-160 960,-160 1165,-160 1165,-160 1171,-160 1177,-166 1177,-172 1177,-172 1177,-200 1177,-200 1177,-206 1171,-212 1165,-212"/>
<text text-anchor="middle" x="1062.5" y="-200" font-family="sans" font-size="10.00" fill="#000000">RNAseq_pipeline</text>
<text text-anchor="middle" x="1062.5" y="-189" font-family="sans" font-size="10.00" fill="#000000">genome: hg38</text>
<text text-anchor="middle" x="1062.5" y="-178" font-family="sans" font-size="10.00" fill="#000000">rnaseq_sample: RH4_D6_T_HVNVFBGX2</text>
<text text-anchor="middle" x="1062.5" y="-167" font-family="sans" font-size="10.00" fill="#000000">sample: RH4_D6_BRD4_024_C_HLFMLBGX3</text>
</g>
<!-- 18&#45;&gt;0 -->
<g id="edge18" class="edge">
<title>18&#45;&gt;0</title>
<path fill="none" stroke="#c0c0c0" stroke-width="2" d="M1076.7443,-159.5311C1088.3279,-133.9736 1099.6134,-95.749 1078.5,-72 1052.4935,-42.7471 798.9768,-26.6762 680.7007,-20.7176"/>
<polygon fill="#c0c0c0" stroke="#c0c0c0" stroke-width="2" points="680.8738,-17.222 670.7127,-20.2223 680.527,-24.2134 680.8738,-17.222"/>
</g>
<!-- 18&#45;&gt;16 -->
<g id="edge37" class="edge">
<title>18&#45;&gt;16</title>
<path fill="none" stroke="#c0c0c0" stroke-width="2" d="M1105.6122,-159.8354C1121.3196,-150.3026 1139.2423,-139.4254 1155.6308,-129.4792"/>
<polygon fill="#c0c0c0" stroke="#c0c0c0" stroke-width="2" points="1157.821,-132.2442 1164.5539,-124.0638 1154.1892,-126.26 1157.821,-132.2442"/>
</g>
<!-- 18&#45;&gt;17 -->
<g id="edge39" class="edge">
<title>18&#45;&gt;17</title>
<path fill="none" stroke="#c0c0c0" stroke-width="2" d="M1039.9975,-159.5971C1032.5889,-150.9043 1024.2452,-141.1144 1016.4269,-131.9409"/>
<polygon fill="#c0c0c0" stroke="#c0c0c0" stroke-width="2" points="1018.8785,-129.4216 1009.7281,-124.081 1013.5509,-133.9622 1018.8785,-129.4216"/>
</g>
<!-- 19 -->
<g id="node20" class="node">
<title>19</title>
<path fill="none" stroke="#56d89a" stroke-width="2" d="M472,-438C472,-438 267,-438 267,-438 261,-438 255,-432 255,-426 255,-426 255,-409 255,-409 255,-403 261,-397 267,-397 267,-397 472,-397 472,-397 478,-397 484,-403 484,-409 484,-409 484,-426 484,-426 484,-432 478,-438 472,-438"/>
<text text-anchor="middle" x="369.5" y="-426" font-family="sans" font-size="10.00" fill="#000000">prepareFASTQ</text>
<text text-anchor="middle" x="369.5" y="-415" font-family="sans" font-size="10.00" fill="#000000">sample: RH4_D6_BRD4_024_C_HLFMLBGX3</text>
<text text-anchor="middle" x="369.5" y="-404" font-family="sans" font-size="10.00" fill="#000000">suffix: R1.fastq.gz</text>
</g>
<!-- 19&#45;&gt;1 -->
<g id="edge19" class="edge">
<title>19&#45;&gt;1</title>
<path fill="none" stroke="#c0c0c0" stroke-width="2" d="M369.5,-396.7476C369.5,-388.8767 369.5,-379.7743 369.5,-371.3232"/>
<polygon fill="#c0c0c0" stroke="#c0c0c0" stroke-width="2" points="373.0001,-371.1086 369.5,-361.1087 366.0001,-371.1087 373.0001,-371.1086"/>
</g>
<!-- 20 -->
<g id="node21" class="node">
<title>20</title>
<path fill="none" stroke="#56d89a" stroke-width="2" stroke-dasharray="5,2" d="M887,-438C887,-438 702,-438 702,-438 696,-438 690,-432 690,-426 690,-426 690,-409 690,-409 690,-403 696,-397 702,-397 702,-397 887,-397 887,-397 893,-397 899,-403 899,-409 899,-409 899,-426 899,-426 899,-432 893,-438 887,-438"/>
<text text-anchor="middle" x="794.5" y="-426" font-family="sans" font-size="10.00" fill="#000000">prepareFASTQ</text>
<text text-anchor="middle" x="794.5" y="-415" font-family="sans" font-size="10.00" fill="#000000">sample: RH4_Input_001_C_H5TLGBGXX</text>
<text text-anchor="middle" x="794.5" y="-404" font-family="sans" font-size="10.00" fill="#000000">suffix: R1.fastq.gz</text>
</g>
<!-- 20&#45;&gt;2 -->
<g id="edge20" class="edge">
<title>20&#45;&gt;2</title>
<path fill="none" stroke="#c0c0c0" stroke-width="2" d="M794.5,-396.7476C794.5,-388.8767 794.5,-379.7743 794.5,-371.3232"/>
<polygon fill="#c0c0c0" stroke="#c0c0c0" stroke-width="2" points="798.0001,-371.1086 794.5,-361.1087 791.0001,-371.1087 798.0001,-371.1086"/>
</g>
<!-- 21&#45;&gt;5 -->
<g id="edge23" class="edge">
<title>21&#45;&gt;5</title>
<path fill="none" stroke="#c0c0c0" stroke-width="2" d="M118.5095,-167.7663C106.6353,-155.0232 90.6125,-137.8281 77.4454,-123.6976"/>
<polygon fill="#c0c0c0" stroke="#c0c0c0" stroke-width="2" points="79.8466,-121.1404 70.4687,-116.2103 74.7253,-125.9125 79.8466,-121.1404"/>
</g>
<!-- 21&#45;&gt;6 -->
<g id="edge24" class="edge">
<title>21&#45;&gt;6</title>
<path fill="none" stroke="#c0c0c0" stroke-width="2" d="M143.3736,-167.7663C148.6216,-155.6132 155.6181,-139.4107 161.5477,-125.6791"/>
<polygon fill="#c0c0c0" stroke="#c0c0c0" stroke-width="2" points="164.8853,-126.7785 165.6365,-116.2103 158.4588,-124.0034 164.8853,-126.7785"/>
</g>
</g>
</svg>
