<?xml version="1.0" encoding="UTF-8" standalone="no"?>
<!DOCTYPE svg PUBLIC "-//W3C//DTD SVG 1.1//EN"
 "http://www.w3.org/Graphics/SVG/1.1/DTD/svg11.dtd">
<!-- Generated by graphviz version 2.40.1 (20161225.0304)
 -->
<!-- Title: snakemake_dag Pages: 1 -->
<svg width="3176pt" height="523pt"
 viewBox="0.00 0.00 3175.50 523.00" xmlns="http://www.w3.org/2000/svg" xmlns:xlink="http://www.w3.org/1999/xlink">
<g id="graph0" class="graph" transform="scale(1 1) rotate(0) translate(4 519)">
<title>snakemake_dag</title>
<polygon fill="#ffffff" stroke="transparent" points="-4,4 -4,-519 3171.5,-519 3171.5,4 -4,4"/>
<!-- 0 -->
<g id="node1" class="node">
<title>0</title>
<path fill="none" stroke="#d85656" stroke-width="2" d="M1295,-36C1295,-36 1219,-36 1219,-36 1213,-36 1207,-30 1207,-24 1207,-24 1207,-12 1207,-12 1207,-6 1213,0 1219,0 1219,0 1295,0 1295,0 1301,0 1307,-6 1307,-12 1307,-12 1307,-24 1307,-24 1307,-30 1301,-36 1295,-36"/>
<text text-anchor="middle" x="1257" y="-15.5" font-family="sans" font-size="10.00" fill="#000000">ChIPseq_pipeline</text>
</g>
<!-- 1 -->
<g id="node2" class="node">
<title>1</title>
<path fill="none" stroke="#56d8d8" stroke-width="2" stroke-dasharray="5,2" d="M2628,-438C2628,-438 2598,-438 2598,-438 2592,-438 2586,-432 2586,-426 2586,-426 2586,-414 2586,-414 2586,-408 2592,-402 2598,-402 2598,-402 2628,-402 2628,-402 2634,-402 2640,-408 2640,-414 2640,-414 2640,-426 2640,-426 2640,-432 2634,-438 2628,-438"/>
<text text-anchor="middle" x="2613" y="-417.5" font-family="sans" font-size="10.00" fill="#000000">BWA</text>
</g>
<!-- 1&#45;&gt;0 -->
<g id="edge1" class="edge">
<title>1&#45;&gt;0</title>
<path fill="none" stroke="#c0c0c0" stroke-width="2" d="M2640.3458,-418.3082C2690.6454,-414.3975 2800.4329,-402.112 2885,-366 2958.3659,-334.6712 3032,-342.775 3032,-263 3032,-263 3032,-263 3032,-175 3032,-128.4499 3048.3151,-102.3275 3013,-72 2980.1451,-43.7853 1622.7079,-23.1212 1317.501,-18.8262"/>
<polygon fill="#c0c0c0" stroke="#c0c0c0" stroke-width="2" points="1317.1398,-15.3209 1307.0917,-18.6804 1317.0416,-22.3202 1317.1398,-15.3209"/>
</g>
<!-- 3 -->
<g id="node4" class="node">
<title>3</title>
<path fill="none" stroke="#56d89a" stroke-width="2" stroke-dasharray="5,2" d="M3155.5,-366C3155.5,-366 3072.5,-366 3072.5,-366 3066.5,-366 3060.5,-360 3060.5,-354 3060.5,-354 3060.5,-337 3060.5,-337 3060.5,-331 3066.5,-325 3072.5,-325 3072.5,-325 3155.5,-325 3155.5,-325 3161.5,-325 3167.5,-331 3167.5,-337 3167.5,-337 3167.5,-354 3167.5,-354 3167.5,-360 3161.5,-366 3155.5,-366"/>
<text text-anchor="middle" x="3114" y="-354" font-family="sans" font-size="10.00" fill="#000000">makeBigWig</text>
<text text-anchor="middle" x="3114" y="-343" font-family="sans" font-size="10.00" fill="#000000">bin_size: 25</text>
<text text-anchor="middle" x="3114" y="-332" font-family="sans" font-size="10.00" fill="#000000">norm_type: scaled</text>
</g>
<!-- 1&#45;&gt;3 -->
<g id="edge35" class="edge">
<title>1&#45;&gt;3</title>
<path fill="none" stroke="#c0c0c0" stroke-width="2" d="M2640.1183,-418.2153C2708.709,-413.3572 2894.4323,-398.0581 3046,-366 3047.4702,-365.689 3048.9546,-365.3612 3050.4484,-365.0188"/>
<polygon fill="#c0c0c0" stroke="#c0c0c0" stroke-width="2" points="3051.5203,-368.3596 3060.3951,-362.5726 3049.8486,-361.5621 3051.5203,-368.3596"/>
</g>
<!-- 4 -->
<g id="node5" class="node">
<title>4</title>
<path fill="none" stroke="#56d89a" stroke-width="2" stroke-dasharray="5,2" d="M2725,-366C2725,-366 2653,-366 2653,-366 2647,-366 2641,-360 2641,-354 2641,-354 2641,-337 2641,-337 2641,-331 2647,-325 2653,-325 2653,-325 2725,-325 2725,-325 2731,-325 2737,-331 2737,-337 2737,-337 2737,-354 2737,-354 2737,-360 2731,-366 2725,-366"/>
<text text-anchor="middle" x="2689" y="-354" font-family="sans" font-size="10.00" fill="#000000">makeBigWig</text>
<text text-anchor="middle" x="2689" y="-343" font-family="sans" font-size="10.00" fill="#000000">bin_size: 25</text>
<text text-anchor="middle" x="2689" y="-332" font-family="sans" font-size="10.00" fill="#000000">norm_type: RPM</text>
</g>
<!-- 1&#45;&gt;4 -->
<g id="edge36" class="edge">
<title>1&#45;&gt;4</title>
<path fill="none" stroke="#c0c0c0" stroke-width="2" d="M2631.3975,-401.9656C2640.1493,-393.3866 2650.8113,-382.9349 2660.5721,-373.3668"/>
<polygon fill="#c0c0c0" stroke="#c0c0c0" stroke-width="2" points="2663.1229,-375.7676 2667.814,-366.2679 2658.2227,-370.7687 2663.1229,-375.7676"/>
</g>
<!-- 7 -->
<g id="node8" class="node">
<title>7</title>
<path fill="none" stroke="#d8b456" stroke-width="2" stroke-dasharray="5,2" d="M2839,-363.5C2839,-363.5 2767,-363.5 2767,-363.5 2761,-363.5 2755,-357.5 2755,-351.5 2755,-351.5 2755,-339.5 2755,-339.5 2755,-333.5 2761,-327.5 2767,-327.5 2767,-327.5 2839,-327.5 2839,-327.5 2845,-327.5 2851,-333.5 2851,-339.5 2851,-339.5 2851,-351.5 2851,-351.5 2851,-357.5 2845,-363.5 2839,-363.5"/>
<text text-anchor="middle" x="2803" y="-343" font-family="sans" font-size="10.00" fill="#000000">crossCorrelation</text>
</g>
<!-- 1&#45;&gt;7 -->
<g id="edge39" class="edge">
<title>1&#45;&gt;7</title>
<path fill="none" stroke="#c0c0c0" stroke-width="2" d="M2640.2224,-409.326C2667.985,-398.4401 2711.8616,-381.2359 2747.0688,-367.4309"/>
<polygon fill="#c0c0c0" stroke="#c0c0c0" stroke-width="2" points="2748.7163,-370.5444 2756.7486,-363.6354 2746.161,-364.0275 2748.7163,-370.5444"/>
</g>
<!-- 8 -->
<g id="node9" class="node">
<title>8</title>
<path fill="none" stroke="#56d8b9" stroke-width="2" d="M1009.5,-366C1009.5,-366 926.5,-366 926.5,-366 920.5,-366 914.5,-360 914.5,-354 914.5,-354 914.5,-337 914.5,-337 914.5,-331 920.5,-325 926.5,-325 926.5,-325 1009.5,-325 1009.5,-325 1015.5,-325 1021.5,-331 1021.5,-337 1021.5,-337 1021.5,-354 1021.5,-354 1021.5,-360 1015.5,-366 1009.5,-366"/>
<text text-anchor="middle" x="968" y="-354" font-family="sans" font-size="10.00" fill="#000000">macs2</text>
<text text-anchor="middle" x="968" y="-343" font-family="sans" font-size="10.00" fill="#000000">cutoff: 0.05</text>
<text text-anchor="middle" x="968" y="-332" font-family="sans" font-size="10.00" fill="#000000">peak_type: narrow</text>
</g>
<!-- 1&#45;&gt;8 -->
<g id="edge40" class="edge">
<title>1&#45;&gt;8</title>
<path fill="none" stroke="#c0c0c0" stroke-width="2" d="M2585.8158,-418.8518C2453.9238,-413.2704 1867.4496,-388.334 1387,-366 1261.0696,-360.1461 1113.8741,-352.8361 1031.745,-348.7155"/>
<polygon fill="#c0c0c0" stroke="#c0c0c0" stroke-width="2" points="1031.7338,-345.2106 1021.5708,-348.2046 1031.3827,-352.2018 1031.7338,-345.2106"/>
</g>
<!-- 10 -->
<g id="node11" class="node">
<title>10</title>
<path fill="none" stroke="#56d8b9" stroke-width="2" d="M472.5,-366C472.5,-366 389.5,-366 389.5,-366 383.5,-366 377.5,-360 377.5,-354 377.5,-354 377.5,-337 377.5,-337 377.5,-331 383.5,-325 389.5,-325 389.5,-325 472.5,-325 472.5,-325 478.5,-325 484.5,-331 484.5,-337 484.5,-337 484.5,-354 484.5,-354 484.5,-360 478.5,-366 472.5,-366"/>
<text text-anchor="middle" x="431" y="-354" font-family="sans" font-size="10.00" fill="#000000">macs2</text>
<text text-anchor="middle" x="431" y="-343" font-family="sans" font-size="10.00" fill="#000000">cutoff: 0.01</text>
<text text-anchor="middle" x="431" y="-332" font-family="sans" font-size="10.00" fill="#000000">peak_type: narrow</text>
</g>
<!-- 1&#45;&gt;10 -->
<g id="edge43" class="edge">
<title>1&#45;&gt;10</title>
<path fill="none" stroke="#c0c0c0" stroke-width="2" d="M2585.8766,-419.2608C2425.8192,-414.8738 1588.3595,-391.5789 905,-366 758.1774,-360.5043 585.8331,-352.7144 494.8156,-348.4956"/>
<polygon fill="#c0c0c0" stroke="#c0c0c0" stroke-width="2" points="494.8124,-344.9917 484.6608,-348.024 494.4876,-351.9842 494.8124,-344.9917"/>
</g>
<!-- 14 -->
<g id="node15" class="node">
<title>14</title>
<path fill="none" stroke="#56d87b" stroke-width="2" d="M2472,-281C2472,-281 2370,-281 2370,-281 2364,-281 2358,-275 2358,-269 2358,-269 2358,-257 2358,-257 2358,-251 2364,-245 2370,-245 2370,-245 2472,-245 2472,-245 2478,-245 2484,-251 2484,-257 2484,-257 2484,-269 2484,-269 2484,-275 2478,-281 2472,-281"/>
<text text-anchor="middle" x="2421" y="-266" font-family="sans" font-size="10.00" fill="#000000">rose</text>
<text text-anchor="middle" x="2421" y="-255" font-family="sans" font-size="10.00" fill="#000000">stitch_distance: 12500</text>
</g>
<!-- 1&#45;&gt;14 -->
<g id="edge49" class="edge">
<title>1&#45;&gt;14</title>
<path fill="none" stroke="#c0c0c0" stroke-width="2" d="M2590.9752,-401.9901C2556.4904,-373.7916 2489.6921,-319.1701 2450.895,-287.4454"/>
<polygon fill="#c0c0c0" stroke="#c0c0c0" stroke-width="2" points="2453.0199,-284.6617 2443.0629,-281.041 2448.5887,-290.0807 2453.0199,-284.6617"/>
</g>
<!-- 16 -->
<g id="node17" class="node">
<title>16</title>
<path fill="none" stroke="#56d87b" stroke-width="2" d="M1200,-281C1200,-281 1098,-281 1098,-281 1092,-281 1086,-275 1086,-269 1086,-269 1086,-257 1086,-257 1086,-251 1092,-245 1098,-245 1098,-245 1200,-245 1200,-245 1206,-245 1212,-251 1212,-257 1212,-257 1212,-269 1212,-269 1212,-275 1206,-281 1200,-281"/>
<text text-anchor="middle" x="1149" y="-266" font-family="sans" font-size="10.00" fill="#000000">rose</text>
<text text-anchor="middle" x="1149" y="-255" font-family="sans" font-size="10.00" fill="#000000">stitch_distance: 12500</text>
</g>
<!-- 1&#45;&gt;16 -->
<g id="edge53" class="edge">
<title>1&#45;&gt;16</title>
<path fill="none" stroke="#c0c0c0" stroke-width="2" d="M2585.6936,-419.7699C2473.1422,-418.538 2034.3128,-410.9499 1677,-366 1513.1136,-345.3831 1323.6638,-304.0922 1222.1935,-280.5333"/>
<polygon fill="#c0c0c0" stroke="#c0c0c0" stroke-width="2" points="1222.887,-277.1012 1212.3536,-278.2402 1221.2982,-283.9185 1222.887,-277.1012"/>
</g>
<!-- 31 -->
<g id="node32" class="node">
<title>31</title>
<path fill="none" stroke="#97d856" stroke-width="2" d="M2735.5,-195.5C2735.5,-195.5 2604.5,-195.5 2604.5,-195.5 2598.5,-195.5 2592.5,-189.5 2592.5,-183.5 2592.5,-183.5 2592.5,-166.5 2592.5,-166.5 2592.5,-160.5 2598.5,-154.5 2604.5,-154.5 2604.5,-154.5 2735.5,-154.5 2735.5,-154.5 2741.5,-154.5 2747.5,-160.5 2747.5,-166.5 2747.5,-166.5 2747.5,-183.5 2747.5,-183.5 2747.5,-189.5 2741.5,-195.5 2735.5,-195.5"/>
<text text-anchor="middle" x="2670" y="-183.5" font-family="sans" font-size="10.00" fill="#000000">coltron</text>
<text text-anchor="middle" x="2670" y="-172.5" font-family="sans" font-size="10.00" fill="#000000">macs_dir: MACS_Out_q_0.05</text>
<text text-anchor="middle" x="2670" y="-161.5" font-family="sans" font-size="10.00" fill="#000000">rose_dir: ROSE_out_12500</text>
</g>
<!-- 1&#45;&gt;31 -->
<g id="edge75" class="edge">
<title>1&#45;&gt;31</title>
<path fill="none" stroke="#c0c0c0" stroke-width="2" d="M2616.3691,-401.7296C2619.9708,-382.5587 2625.9805,-351.5747 2632,-325 2641.3967,-283.5161 2653.7058,-235.968 2661.7304,-205.7255"/>
<polygon fill="#c0c0c0" stroke="#c0c0c0" stroke-width="2" points="2665.1854,-206.3525 2664.3783,-195.7884 2658.4214,-204.5501 2665.1854,-206.3525"/>
</g>
<!-- 32 -->
<g id="node33" class="node">
<title>32</title>
<path fill="none" stroke="#97d856" stroke-width="2" d="M1807.5,-195.5C1807.5,-195.5 1676.5,-195.5 1676.5,-195.5 1670.5,-195.5 1664.5,-189.5 1664.5,-183.5 1664.5,-183.5 1664.5,-166.5 1664.5,-166.5 1664.5,-160.5 1670.5,-154.5 1676.5,-154.5 1676.5,-154.5 1807.5,-154.5 1807.5,-154.5 1813.5,-154.5 1819.5,-160.5 1819.5,-166.5 1819.5,-166.5 1819.5,-183.5 1819.5,-183.5 1819.5,-189.5 1813.5,-195.5 1807.5,-195.5"/>
<text text-anchor="middle" x="1742" y="-183.5" font-family="sans" font-size="10.00" fill="#000000">coltron</text>
<text text-anchor="middle" x="1742" y="-172.5" font-family="sans" font-size="10.00" fill="#000000">macs_dir: MACS_Out_q_0.01</text>
<text text-anchor="middle" x="1742" y="-161.5" font-family="sans" font-size="10.00" fill="#000000">rose_dir: ROSE_out_12500</text>
</g>
<!-- 1&#45;&gt;32 -->
<g id="edge78" class="edge">
<title>1&#45;&gt;32</title>
<path fill="none" stroke="#c0c0c0" stroke-width="2" d="M2585.5541,-418.1253C2440.6669,-407.9575 1769.1521,-357.3526 1710,-289 1689.4234,-265.2229 1704.8615,-229.159 1720.6219,-203.9807"/>
<polygon fill="#c0c0c0" stroke="#c0c0c0" stroke-width="2" points="1723.5842,-205.8459 1726.1514,-195.5667 1717.7344,-202.0014 1723.5842,-205.8459"/>
</g>
<!-- 35 -->
<g id="node36" class="node">
<title>35</title>
<path fill="none" stroke="#d6d856" stroke-width="2" stroke-dasharray="5,2" d="M2904,-193C2904,-193 2854,-193 2854,-193 2848,-193 2842,-187 2842,-181 2842,-181 2842,-169 2842,-169 2842,-163 2848,-157 2854,-157 2854,-157 2904,-157 2904,-157 2910,-157 2916,-163 2916,-169 2916,-169 2916,-181 2916,-181 2916,-187 2910,-193 2904,-193"/>
<text text-anchor="middle" x="2879" y="-178" font-family="sans" font-size="10.00" fill="#000000">makeTDF</text>
<text text-anchor="middle" x="2879" y="-167" font-family="sans" font-size="10.00" fill="#000000">bin_size: 25</text>
</g>
<!-- 1&#45;&gt;35 -->
<g id="edge80" class="edge">
<title>1&#45;&gt;35</title>
<path fill="none" stroke="#c0c0c0" stroke-width="2" d="M2640.4012,-417.976C2698.4837,-413.0843 2831.0334,-398.5407 2860,-366 2900.0513,-321.0069 2893.0145,-244.3227 2885.4192,-203.1356"/>
<polygon fill="#c0c0c0" stroke="#c0c0c0" stroke-width="2" points="2888.8333,-202.3584 2883.4537,-193.231 2881.9672,-203.721 2888.8333,-202.3584"/>
</g>
<!-- 2 -->
<g id="node3" class="node">
<title>2</title>
<path fill="none" stroke="#56d8d8" stroke-width="2" stroke-dasharray="5,2" d="M446,-438C446,-438 416,-438 416,-438 410,-438 404,-432 404,-426 404,-426 404,-414 404,-414 404,-408 410,-402 416,-402 416,-402 446,-402 446,-402 452,-402 458,-408 458,-414 458,-414 458,-426 458,-426 458,-432 452,-438 446,-438"/>
<text text-anchor="middle" x="431" y="-417.5" font-family="sans" font-size="10.00" fill="#000000">BWA</text>
</g>
<!-- 2&#45;&gt;0 -->
<g id="edge2" class="edge">
<title>2&#45;&gt;0</title>
<path fill="none" stroke="#c0c0c0" stroke-width="2" d="M403.712,-416.1462C308.9695,-402.0129 0,-349.3058 0,-263 0,-263 0,-263 0,-175 0,-125.2202 3.0782,-100.3449 44,-72 91.7834,-38.9024 957.905,-22.7487 1196.5577,-18.9137"/>
<polygon fill="#c0c0c0" stroke="#c0c0c0" stroke-width="2" points="1196.8376,-22.4098 1206.7805,-18.7508 1196.726,-15.4107 1196.8376,-22.4098"/>
</g>
<!-- 2&#45;&gt;8 -->
<g id="edge41" class="edge">
<title>2&#45;&gt;8</title>
<path fill="none" stroke="#c0c0c0" stroke-width="2" d="M458.3682,-416.2031C540.6086,-404.7936 787.0775,-370.6 904.4789,-354.3125"/>
<polygon fill="#c0c0c0" stroke="#c0c0c0" stroke-width="2" points="904.9839,-357.7761 914.408,-352.935 904.0219,-350.8425 904.9839,-357.7761"/>
</g>
<!-- 2&#45;&gt;10 -->
<g id="edge44" class="edge">
<title>2&#45;&gt;10</title>
<path fill="none" stroke="#c0c0c0" stroke-width="2" d="M431,-401.9656C431,-394.3118 431,-385.1674 431,-376.4898"/>
<polygon fill="#c0c0c0" stroke="#c0c0c0" stroke-width="2" points="434.5001,-376.2678 431,-366.2679 427.5001,-376.2679 434.5001,-376.2678"/>
</g>
<!-- 3&#45;&gt;0 -->
<g id="edge3" class="edge">
<title>3&#45;&gt;0</title>
<path fill="none" stroke="#c0c0c0" stroke-width="2" d="M3116.2753,-324.7576C3120.7144,-272.4692 3124.0784,-134.9638 3046,-72 3011.6013,-44.2603 1625.0069,-23.1713 1317.1378,-18.8252"/>
<polygon fill="#c0c0c0" stroke="#c0c0c0" stroke-width="2" points="1317.1167,-15.3247 1307.0685,-18.6837 1317.0183,-22.324 1317.1167,-15.3247"/>
</g>
<!-- 4&#45;&gt;0 -->
<g id="edge4" class="edge">
<title>4&#45;&gt;0</title>
<path fill="none" stroke="#c0c0c0" stroke-width="2" d="M2707.2074,-324.8144C2737.5884,-287.6564 2791.9976,-207.9884 2757,-149 2720.567,-87.5923 2684.8196,-91.03 2616,-72 2489.9375,-37.1412 1564.0796,-22.1722 1317.3008,-18.776"/>
<polygon fill="#c0c0c0" stroke="#c0c0c0" stroke-width="2" points="1317.1385,-15.2736 1307.0916,-18.6368 1317.043,-22.273 1317.1385,-15.2736"/>
</g>
<!-- 5 -->
<g id="node6" class="node">
<title>5</title>
<path fill="none" stroke="#b6d856" stroke-width="2" stroke-dasharray="5,2" d="M2877.5,-110.5C2877.5,-110.5 2794.5,-110.5 2794.5,-110.5 2788.5,-110.5 2782.5,-104.5 2782.5,-98.5 2782.5,-98.5 2782.5,-86.5 2782.5,-86.5 2782.5,-80.5 2788.5,-74.5 2794.5,-74.5 2794.5,-74.5 2877.5,-74.5 2877.5,-74.5 2883.5,-74.5 2889.5,-80.5 2889.5,-86.5 2889.5,-86.5 2889.5,-98.5 2889.5,-98.5 2889.5,-104.5 2883.5,-110.5 2877.5,-110.5"/>
<text text-anchor="middle" x="2836" y="-95.5" font-family="sans" font-size="10.00" fill="#000000">makeNormTDF</text>
<text text-anchor="middle" x="2836" y="-84.5" font-family="sans" font-size="10.00" fill="#000000">norm_type: scaled</text>
</g>
<!-- 5&#45;&gt;0 -->
<g id="edge5" class="edge">
<title>5&#45;&gt;0</title>
<path fill="none" stroke="#c0c0c0" stroke-width="2" d="M2782.4799,-74.9774C2777.6209,-73.8089 2772.7441,-72.7864 2768,-72 2623.3767,-48.0276 1580.5826,-24.7737 1317.2657,-19.2384"/>
<polygon fill="#c0c0c0" stroke="#c0c0c0" stroke-width="2" points="1317.2047,-15.7365 1307.1336,-19.0261 1317.058,-22.735 1317.2047,-15.7365"/>
</g>
<!-- 6 -->
<g id="node7" class="node">
<title>6</title>
<path fill="none" stroke="#b6d856" stroke-width="2" stroke-dasharray="5,2" d="M2992,-110.5C2992,-110.5 2920,-110.5 2920,-110.5 2914,-110.5 2908,-104.5 2908,-98.5 2908,-98.5 2908,-86.5 2908,-86.5 2908,-80.5 2914,-74.5 2920,-74.5 2920,-74.5 2992,-74.5 2992,-74.5 2998,-74.5 3004,-80.5 3004,-86.5 3004,-86.5 3004,-98.5 3004,-98.5 3004,-104.5 2998,-110.5 2992,-110.5"/>
<text text-anchor="middle" x="2956" y="-95.5" font-family="sans" font-size="10.00" fill="#000000">makeNormTDF</text>
<text text-anchor="middle" x="2956" y="-84.5" font-family="sans" font-size="10.00" fill="#000000">norm_type: RPM</text>
</g>
<!-- 6&#45;&gt;0 -->
<g id="edge6" class="edge">
<title>6&#45;&gt;0</title>
<path fill="none" stroke="#c0c0c0" stroke-width="2" d="M2909.3566,-74.4188C2905.8855,-73.4769 2902.4086,-72.6522 2899,-72 2741.606,-41.8834 1595.1331,-23.0282 1317.4478,-18.872"/>
<polygon fill="#c0c0c0" stroke="#c0c0c0" stroke-width="2" points="1317.2218,-15.3683 1307.1708,-18.7189 1317.1175,-22.3675 1317.2218,-15.3683"/>
</g>
<!-- 7&#45;&gt;0 -->
<g id="edge7" class="edge">
<title>7&#45;&gt;0</title>
<path fill="none" stroke="#c0c0c0" stroke-width="2" d="M2804.6406,-327.3698C2807.0791,-291.0562 2808.3425,-207.8462 2776,-149 2750.4817,-102.5702 2734.3945,-91.1598 2685,-72 2620.4116,-46.9465 1581.1739,-24.4983 1317.4645,-19.1858"/>
<polygon fill="#c0c0c0" stroke="#c0c0c0" stroke-width="2" points="1317.3829,-15.6836 1307.3146,-18.9821 1317.2424,-22.6822 1317.3829,-15.6836"/>
</g>
<!-- 8&#45;&gt;0 -->
<g id="edge8" class="edge">
<title>8&#45;&gt;0</title>
<path fill="none" stroke="#c0c0c0" stroke-width="2" d="M914.2394,-340.7833C736.3724,-323.3423 187.7695,-253.8365 359,-72 387.7303,-41.4901 999.6657,-24.1785 1196.5564,-19.3829"/>
<polygon fill="#c0c0c0" stroke="#c0c0c0" stroke-width="2" points="1196.8082,-22.878 1206.7208,-19.1375 1196.6392,-15.88 1196.8082,-22.878"/>
</g>
<!-- 9 -->
<g id="node10" class="node">
<title>9</title>
<path fill="none" stroke="#d89556" stroke-width="2" d="M1002,-281C1002,-281 934,-281 934,-281 928,-281 922,-275 922,-269 922,-269 922,-257 922,-257 922,-251 928,-245 934,-245 934,-245 1002,-245 1002,-245 1008,-245 1014,-251 1014,-257 1014,-257 1014,-269 1014,-269 1014,-275 1008,-281 1002,-281"/>
<text text-anchor="middle" x="968" y="-260.5" font-family="sans" font-size="10.00" fill="#000000">prepareSummit</text>
</g>
<!-- 8&#45;&gt;9 -->
<g id="edge42" class="edge">
<title>8&#45;&gt;9</title>
<path fill="none" stroke="#c0c0c0" stroke-width="2" d="M968,-324.6818C968,-314.4808 968,-302.0496 968,-291.027"/>
<polygon fill="#c0c0c0" stroke="#c0c0c0" stroke-width="2" points="971.5001,-291.0094 968,-281.0094 964.5001,-291.0094 971.5001,-291.0094"/>
</g>
<!-- 12 -->
<g id="node13" class="node">
<title>12</title>
<path fill="none" stroke="#d87556" stroke-width="2" d="M819,-281C819,-281 749,-281 749,-281 743,-281 737,-275 737,-269 737,-269 737,-257 737,-257 737,-251 743,-245 749,-245 749,-245 819,-245 819,-245 825,-245 831,-251 831,-257 831,-257 831,-269 831,-269 831,-275 825,-281 819,-281"/>
<text text-anchor="middle" x="784" y="-260.5" font-family="sans" font-size="10.00" fill="#000000">peakAnnotation</text>
</g>
<!-- 8&#45;&gt;12 -->
<g id="edge46" class="edge">
<title>8&#45;&gt;12</title>
<path fill="none" stroke="#c0c0c0" stroke-width="2" d="M922.0437,-324.8946C895.1922,-312.8552 861.2904,-297.6547 833.8035,-285.3304"/>
<polygon fill="#c0c0c0" stroke="#c0c0c0" stroke-width="2" points="834.9274,-281.9986 824.3707,-281.101 832.0635,-288.386 834.9274,-281.9986"/>
</g>
<!-- 8&#45;&gt;14 -->
<g id="edge48" class="edge">
<title>8&#45;&gt;14</title>
<path fill="none" stroke="#c0c0c0" stroke-width="2" d="M1021.6059,-342.8247C1176.3057,-335.0595 1636.8527,-311.6291 2019,-289 2133.9895,-282.1908 2267.4184,-273.381 2347.961,-267.9635"/>
<polygon fill="#c0c0c0" stroke="#c0c0c0" stroke-width="2" points="2348.2574,-271.4516 2357.9995,-267.2874 2347.7869,-264.4674 2348.2574,-271.4516"/>
</g>
<!-- 24 -->
<g id="node25" class="node">
<title>24</title>
<path fill="none" stroke="#56b9d8" stroke-width="2" d="M2028,-201C2028,-201 1888,-201 1888,-201 1882,-201 1876,-195 1876,-189 1876,-189 1876,-161 1876,-161 1876,-155 1882,-149 1888,-149 1888,-149 2028,-149 2028,-149 2034,-149 2040,-155 2040,-161 2040,-161 2040,-189 2040,-189 2040,-195 2034,-201 2028,-201"/>
<text text-anchor="middle" x="1958" y="-189" font-family="sans" font-size="10.00" fill="#000000">EDEN</text>
<text text-anchor="middle" x="1958" y="-178" font-family="sans" font-size="10.00" fill="#000000">TPM_cutoff: 4</text>
<text text-anchor="middle" x="1958" y="-167" font-family="sans" font-size="10.00" fill="#000000">folders: MACS_Out_q_0.05</text>
<text text-anchor="middle" x="1958" y="-156" font-family="sans" font-size="10.00" fill="#000000">prefix: peaks.narrowPeak.nobl</text>
</g>
<!-- 8&#45;&gt;24 -->
<g id="edge62" class="edge">
<title>8&#45;&gt;24</title>
<path fill="none" stroke="#c0c0c0" stroke-width="2" d="M1021.7426,-344.5381C1226.9972,-340.6067 1951.638,-324.2669 1985,-289 2004.9178,-267.9449 1994.2956,-235.0073 1980.9614,-209.9397"/>
<polygon fill="#c0c0c0" stroke="#c0c0c0" stroke-width="2" points="1983.9367,-208.0901 1975.9777,-201.0969 1977.8385,-211.527 1983.9367,-208.0901"/>
</g>
<!-- 9&#45;&gt;0 -->
<g id="edge9" class="edge">
<title>9&#45;&gt;0</title>
<path fill="none" stroke="#c0c0c0" stroke-width="2" d="M962.5674,-244.8053C952.5155,-206.9872 935.9046,-119.4709 981,-72 1009.8862,-41.5922 1124.3039,-27.6775 1196.4438,-21.8138"/>
<polygon fill="#c0c0c0" stroke="#c0c0c0" stroke-width="2" points="1197.0689,-25.2757 1206.7654,-21.0061 1196.5228,-18.297 1197.0689,-25.2757"/>
</g>
<!-- 15 -->
<g id="node16" class="node">
<title>15</title>
<path fill="none" stroke="#78d856" stroke-width="2" d="M1634,-193C1634,-193 1542,-193 1542,-193 1536,-193 1530,-187 1530,-181 1530,-181 1530,-169 1530,-169 1530,-163 1536,-157 1542,-157 1542,-157 1634,-157 1634,-157 1640,-157 1646,-163 1646,-169 1646,-169 1646,-181 1646,-181 1646,-187 1640,-193 1634,-193"/>
<text text-anchor="middle" x="1588" y="-172.5" font-family="sans" font-size="10.00" fill="#000000">prepareRoseSummit</text>
</g>
<!-- 9&#45;&gt;15 -->
<g id="edge50" class="edge">
<title>9&#45;&gt;15</title>
<path fill="none" stroke="#c0c0c0" stroke-width="2" d="M1014.096,-250.3502C1033.3976,-245.4863 1056.1532,-240.3114 1077,-237 1272.5295,-205.9408 1328.0331,-245.2745 1521,-201 1526.3965,-199.7618 1531.9352,-198.1717 1537.4048,-196.3888"/>
<polygon fill="#c0c0c0" stroke="#c0c0c0" stroke-width="2" points="1538.8347,-199.5972 1547.1296,-193.0059 1536.5348,-192.9858 1538.8347,-199.5972"/>
</g>
<!-- 18 -->
<g id="node19" class="node">
<title>18</title>
<path fill="none" stroke="#567bd8" stroke-width="2" d="M1122,-110.5C1122,-110.5 1002,-110.5 1002,-110.5 996,-110.5 990,-104.5 990,-98.5 990,-98.5 990,-86.5 990,-86.5 990,-80.5 996,-74.5 1002,-74.5 1002,-74.5 1122,-74.5 1122,-74.5 1128,-74.5 1134,-80.5 1134,-86.5 1134,-86.5 1134,-98.5 1134,-98.5 1134,-104.5 1128,-110.5 1122,-110.5"/>
<text text-anchor="middle" x="1062" y="-95.5" font-family="sans" font-size="10.00" fill="#000000">findMotif</text>
<text text-anchor="middle" x="1062" y="-84.5" font-family="sans" font-size="10.00" fill="#000000">folders: MACS_Out_q_0.05</text>
</g>
<!-- 9&#45;&gt;18 -->
<g id="edge56" class="edge">
<title>9&#45;&gt;18</title>
<path fill="none" stroke="#c0c0c0" stroke-width="2" d="M968.1515,-244.6408C969.1361,-220.8901 973.6172,-179.0096 992,-149 999.6805,-136.4617 1011.1794,-125.504 1022.6493,-116.6601"/>
<polygon fill="#c0c0c0" stroke="#c0c0c0" stroke-width="2" points="1024.9317,-119.3273 1030.9411,-110.6016 1020.8019,-113.6753 1024.9317,-119.3273"/>
</g>
<!-- 10&#45;&gt;0 -->
<g id="edge10" class="edge">
<title>10&#45;&gt;0</title>
<path fill="none" stroke="#c0c0c0" stroke-width="2" d="M377.4622,-342.6244C296.7628,-337.2331 149.2054,-322.9267 110,-289 36.1283,-225.0745 7.5168,-142.6366 75,-72 114.0851,-31.0885 961.5968,-20.5982 1196.889,-18.4698"/>
<polygon fill="#c0c0c0" stroke="#c0c0c0" stroke-width="2" points="1197.0036,-21.969 1206.9722,-18.3804 1196.9415,-14.9693 1197.0036,-21.969"/>
</g>
<!-- 11 -->
<g id="node12" class="node">
<title>11</title>
<path fill="none" stroke="#d89556" stroke-width="2" d="M199,-281C199,-281 131,-281 131,-281 125,-281 119,-275 119,-269 119,-269 119,-257 119,-257 119,-251 125,-245 131,-245 131,-245 199,-245 199,-245 205,-245 211,-251 211,-257 211,-257 211,-269 211,-269 211,-275 205,-281 199,-281"/>
<text text-anchor="middle" x="165" y="-260.5" font-family="sans" font-size="10.00" fill="#000000">prepareSummit</text>
</g>
<!-- 10&#45;&gt;11 -->
<g id="edge45" class="edge">
<title>10&#45;&gt;11</title>
<path fill="none" stroke="#c0c0c0" stroke-width="2" d="M377.2813,-333.9359C334.1393,-323.9793 272.3354,-308.1997 220,-289 216.7279,-287.7996 213.3854,-286.4766 210.0451,-285.0826"/>
<polygon fill="#c0c0c0" stroke="#c0c0c0" stroke-width="2" points="211.263,-281.7955 200.6974,-281.0089 208.4664,-288.2126 211.263,-281.7955"/>
</g>
<!-- 13 -->
<g id="node14" class="node">
<title>13</title>
<path fill="none" stroke="#d87556" stroke-width="2" d="M311,-281C311,-281 241,-281 241,-281 235,-281 229,-275 229,-269 229,-269 229,-257 229,-257 229,-251 235,-245 241,-245 241,-245 311,-245 311,-245 317,-245 323,-251 323,-257 323,-257 323,-269 323,-269 323,-275 317,-281 311,-281"/>
<text text-anchor="middle" x="276" y="-260.5" font-family="sans" font-size="10.00" fill="#000000">peakAnnotation</text>
</g>
<!-- 10&#45;&gt;13 -->
<g id="edge47" class="edge">
<title>10&#45;&gt;13</title>
<path fill="none" stroke="#c0c0c0" stroke-width="2" d="M392.2868,-324.8946C369.9637,-313.0129 341.856,-298.0524 318.8668,-285.8162"/>
<polygon fill="#c0c0c0" stroke="#c0c0c0" stroke-width="2" points="320.4799,-282.7099 310.0079,-281.101 317.1909,-288.8892 320.4799,-282.7099"/>
</g>
<!-- 10&#45;&gt;16 -->
<g id="edge52" class="edge">
<title>10&#45;&gt;16</title>
<path fill="none" stroke="#c0c0c0" stroke-width="2" d="M484.7065,-342.3303C588.9265,-335.7477 825.6997,-318.6822 1023,-289 1040.1712,-286.4167 1058.5332,-283.0047 1075.7792,-279.5054"/>
<polygon fill="#c0c0c0" stroke="#c0c0c0" stroke-width="2" points="1076.7005,-282.8892 1085.787,-277.4407 1075.2861,-276.0335 1076.7005,-282.8892"/>
</g>
<!-- 27 -->
<g id="node28" class="node">
<title>27</title>
<path fill="none" stroke="#56b9d8" stroke-width="2" d="M890,-201C890,-201 750,-201 750,-201 744,-201 738,-195 738,-189 738,-189 738,-161 738,-161 738,-155 744,-149 750,-149 750,-149 890,-149 890,-149 896,-149 902,-155 902,-161 902,-161 902,-189 902,-189 902,-195 896,-201 890,-201"/>
<text text-anchor="middle" x="820" y="-189" font-family="sans" font-size="10.00" fill="#000000">EDEN</text>
<text text-anchor="middle" x="820" y="-178" font-family="sans" font-size="10.00" fill="#000000">TPM_cutoff: 4</text>
<text text-anchor="middle" x="820" y="-167" font-family="sans" font-size="10.00" fill="#000000">folders: MACS_Out_q_0.01</text>
<text text-anchor="middle" x="820" y="-156" font-family="sans" font-size="10.00" fill="#000000">prefix: peaks.narrowPeak.nobl</text>
</g>
<!-- 10&#45;&gt;27 -->
<g id="edge68" class="edge">
<title>10&#45;&gt;27</title>
<path fill="none" stroke="#c0c0c0" stroke-width="2" d="M477.9225,-324.9337C545.9829,-295.1026 672.5295,-239.6368 751.1619,-205.172"/>
<polygon fill="#c0c0c0" stroke="#c0c0c0" stroke-width="2" points="752.7528,-208.2962 760.5066,-201.0762 749.9427,-201.885 752.7528,-208.2962"/>
</g>
<!-- 11&#45;&gt;0 -->
<g id="edge11" class="edge">
<title>11&#45;&gt;0</title>
<path fill="none" stroke="#c0c0c0" stroke-width="2" d="M147.6479,-244.9777C113.9677,-207.8665 47.0814,-122.1971 95,-72 133.3259,-31.8516 962.9762,-20.8342 1196.3898,-18.5241"/>
<polygon fill="#c0c0c0" stroke="#c0c0c0" stroke-width="2" points="1196.759,-22.0208 1206.7245,-18.4237 1196.6909,-15.0211 1196.759,-22.0208"/>
</g>
<!-- 17 -->
<g id="node18" class="node">
<title>17</title>
<path fill="none" stroke="#78d856" stroke-width="2" d="M541,-193C541,-193 449,-193 449,-193 443,-193 437,-187 437,-181 437,-181 437,-169 437,-169 437,-163 443,-157 449,-157 449,-157 541,-157 541,-157 547,-157 553,-163 553,-169 553,-169 553,-181 553,-181 553,-187 547,-193 541,-193"/>
<text text-anchor="middle" x="495" y="-172.5" font-family="sans" font-size="10.00" fill="#000000">prepareRoseSummit</text>
</g>
<!-- 11&#45;&gt;17 -->
<g id="edge54" class="edge">
<title>11&#45;&gt;17</title>
<path fill="none" stroke="#c0c0c0" stroke-width="2" d="M200.3235,-244.9105C206.7684,-242.0119 213.509,-239.2354 220,-237 288.8628,-213.2842 370.5924,-196.1898 426.9595,-186.0327"/>
<polygon fill="#c0c0c0" stroke="#c0c0c0" stroke-width="2" points="427.5969,-189.4743 436.8301,-184.2782 426.3718,-182.5823 427.5969,-189.4743"/>
</g>
<!-- 21 -->
<g id="node22" class="node">
<title>21</title>
<path fill="none" stroke="#567bd8" stroke-width="2" d="M236,-110.5C236,-110.5 116,-110.5 116,-110.5 110,-110.5 104,-104.5 104,-98.5 104,-98.5 104,-86.5 104,-86.5 104,-80.5 110,-74.5 116,-74.5 116,-74.5 236,-74.5 236,-74.5 242,-74.5 248,-80.5 248,-86.5 248,-86.5 248,-98.5 248,-98.5 248,-104.5 242,-110.5 236,-110.5"/>
<text text-anchor="middle" x="176" y="-95.5" font-family="sans" font-size="10.00" fill="#000000">findMotif</text>
<text text-anchor="middle" x="176" y="-84.5" font-family="sans" font-size="10.00" fill="#000000">folders: MACS_Out_q_0.01</text>
</g>
<!-- 11&#45;&gt;21 -->
<g id="edge59" class="edge">
<title>11&#45;&gt;21</title>
<path fill="none" stroke="#c0c0c0" stroke-width="2" d="M166.1772,-244.7535C168.0959,-215.0136 171.9107,-155.8843 174.1803,-120.705"/>
<polygon fill="#c0c0c0" stroke="#c0c0c0" stroke-width="2" points="177.6801,-120.8199 174.8313,-110.6153 170.6946,-120.3692 177.6801,-120.8199"/>
</g>
<!-- 12&#45;&gt;0 -->
<g id="edge12" class="edge">
<title>12&#45;&gt;0</title>
<path fill="none" stroke="#c0c0c0" stroke-width="2" d="M761.4025,-244.914C749.2866,-233.7187 735.5366,-218.2187 729,-201 720.7976,-179.3934 714.8703,-167.2886 729,-149 767.7531,-98.8405 813.7772,-147.4255 867,-113 886.6409,-100.2959 879.7191,-83.6553 900,-72 949.4032,-43.6082 1108.6842,-28.3081 1196.865,-21.8241"/>
<polygon fill="#c0c0c0" stroke="#c0c0c0" stroke-width="2" points="1197.2707,-25.3041 1206.9936,-21.0951 1196.7682,-18.3221 1197.2707,-25.3041"/>
</g>
<!-- 13&#45;&gt;0 -->
<g id="edge13" class="edge">
<title>13&#45;&gt;0</title>
<path fill="none" stroke="#c0c0c0" stroke-width="2" d="M271.6892,-244.9841C263.7259,-206.7195 251.6311,-117.1581 300,-72 332.8413,-41.3387 991.5314,-23.9756 1196.5983,-19.2977"/>
<polygon fill="#c0c0c0" stroke="#c0c0c0" stroke-width="2" points="1196.9595,-22.7905 1206.8778,-19.0652 1196.8011,-15.7923 1196.9595,-22.7905"/>
</g>
<!-- 14&#45;&gt;0 -->
<g id="edge14" class="edge">
<title>14&#45;&gt;0</title>
<path fill="none" stroke="#c0c0c0" stroke-width="2" d="M2484.0356,-246.8346C2507.3532,-237.4674 2531.3973,-223.0097 2545,-201 2557.1502,-181.3405 2559.9068,-166.661 2545,-149 2464.7852,-53.9647 1560.5888,-25.3399 1317.0874,-19.3286"/>
<polygon fill="#c0c0c0" stroke="#c0c0c0" stroke-width="2" points="1317.0903,-15.8278 1307.0081,-19.0835 1316.92,-22.8257 1317.0903,-15.8278"/>
</g>
<!-- 14&#45;&gt;15 -->
<g id="edge51" class="edge">
<title>14&#45;&gt;15</title>
<path fill="none" stroke="#c0c0c0" stroke-width="2" d="M2357.7504,-258.9343C2186.5954,-247.7837 1722.6636,-216.5198 1655,-201 1649.6034,-199.7622 1644.0646,-198.1723 1638.595,-196.3896"/>
<polygon fill="#c0c0c0" stroke="#c0c0c0" stroke-width="2" points="1639.465,-192.9865 1628.8702,-193.0068 1637.1652,-199.598 1639.465,-192.9865"/>
</g>
<!-- 25 -->
<g id="node26" class="node">
<title>25</title>
<path fill="none" stroke="#56b9d8" stroke-width="2" d="M2524,-201C2524,-201 2318,-201 2318,-201 2312,-201 2306,-195 2306,-189 2306,-189 2306,-161 2306,-161 2306,-155 2312,-149 2318,-149 2318,-149 2524,-149 2524,-149 2530,-149 2536,-155 2536,-161 2536,-161 2536,-189 2536,-189 2536,-195 2530,-201 2524,-201"/>
<text text-anchor="middle" x="2421" y="-189" font-family="sans" font-size="10.00" fill="#000000">EDEN</text>
<text text-anchor="middle" x="2421" y="-178" font-family="sans" font-size="10.00" fill="#000000">TPM_cutoff: 4</text>
<text text-anchor="middle" x="2421" y="-167" font-family="sans" font-size="10.00" fill="#000000">folders: MACS_Out_q_0.05/ROSE_out_12500</text>
<text text-anchor="middle" x="2421" y="-156" font-family="sans" font-size="10.00" fill="#000000">prefix: peaks_AllEnhancers.table.super</text>
</g>
<!-- 14&#45;&gt;25 -->
<g id="edge64" class="edge">
<title>14&#45;&gt;25</title>
<path fill="none" stroke="#c0c0c0" stroke-width="2" d="M2421,-244.7663C2421,-235.1303 2421,-222.9487 2421,-211.4714"/>
<polygon fill="#c0c0c0" stroke="#c0c0c0" stroke-width="2" points="2424.5001,-211.2223 2421,-201.2223 2417.5001,-211.2223 2424.5001,-211.2223"/>
</g>
<!-- 26 -->
<g id="node27" class="node">
<title>26</title>
<path fill="none" stroke="#56b9d8" stroke-width="2" d="M2276,-201C2276,-201 2070,-201 2070,-201 2064,-201 2058,-195 2058,-189 2058,-189 2058,-161 2058,-161 2058,-155 2064,-149 2070,-149 2070,-149 2276,-149 2276,-149 2282,-149 2288,-155 2288,-161 2288,-161 2288,-189 2288,-189 2288,-195 2282,-201 2276,-201"/>
<text text-anchor="middle" x="2173" y="-189" font-family="sans" font-size="10.00" fill="#000000">EDEN</text>
<text text-anchor="middle" x="2173" y="-178" font-family="sans" font-size="10.00" fill="#000000">TPM_cutoff: 4</text>
<text text-anchor="middle" x="2173" y="-167" font-family="sans" font-size="10.00" fill="#000000">folders: MACS_Out_q_0.05/ROSE_out_12500</text>
<text text-anchor="middle" x="2173" y="-156" font-family="sans" font-size="10.00" fill="#000000">prefix: peaks_AllEnhancers.table.regular</text>
</g>
<!-- 14&#45;&gt;26 -->
<g id="edge66" class="edge">
<title>14&#45;&gt;26</title>
<path fill="none" stroke="#c0c0c0" stroke-width="2" d="M2370.2151,-244.9795C2337.294,-233.2979 2293.646,-217.8099 2255.7832,-204.3747"/>
<polygon fill="#c0c0c0" stroke="#c0c0c0" stroke-width="2" points="2256.8864,-201.0524 2246.2917,-201.0067 2254.5455,-207.6494 2256.8864,-201.0524"/>
</g>
<!-- 14&#45;&gt;31 -->
<g id="edge74" class="edge">
<title>14&#45;&gt;31</title>
<path fill="none" stroke="#c0c0c0" stroke-width="2" d="M2471.9897,-244.9795C2509.5304,-231.7121 2560.9637,-213.5349 2602.0017,-199.0315"/>
<polygon fill="#c0c0c0" stroke="#c0c0c0" stroke-width="2" points="2603.3964,-202.2508 2611.6586,-195.6186 2601.0639,-195.6509 2603.3964,-202.2508"/>
</g>
<!-- 15&#45;&gt;0 -->
<g id="edge15" class="edge">
<title>15&#45;&gt;0</title>
<path fill="none" stroke="#c0c0c0" stroke-width="2" d="M1545.5613,-156.9784C1537.5049,-154.0027 1529.0699,-151.1819 1521,-149 1422.8149,-122.4525 1374.4618,-176.4895 1295,-113 1274.6061,-96.7054 1265.1042,-67.8141 1260.7097,-46.1573"/>
<polygon fill="#c0c0c0" stroke="#c0c0c0" stroke-width="2" points="1264.1347,-45.4262 1258.9373,-36.1938 1257.2428,-46.6523 1264.1347,-45.4262"/>
</g>
<!-- 19 -->
<g id="node20" class="node">
<title>19</title>
<path fill="none" stroke="#567bd8" stroke-width="2" d="M1522,-113C1522,-113 1316,-113 1316,-113 1310,-113 1304,-107 1304,-101 1304,-101 1304,-84 1304,-84 1304,-78 1310,-72 1316,-72 1316,-72 1522,-72 1522,-72 1528,-72 1534,-78 1534,-84 1534,-84 1534,-101 1534,-101 1534,-107 1528,-113 1522,-113"/>
<text text-anchor="middle" x="1419" y="-101" font-family="sans" font-size="10.00" fill="#000000">findMotif</text>
<text text-anchor="middle" x="1419" y="-90" font-family="sans" font-size="10.00" fill="#000000">folders: MACS_Out_q_0.05/ROSE_out_12500</text>
<text text-anchor="middle" x="1419" y="-79" font-family="sans" font-size="10.00" fill="#000000">peak_type: super</text>
</g>
<!-- 15&#45;&gt;19 -->
<g id="edge57" class="edge">
<title>15&#45;&gt;19</title>
<path fill="none" stroke="#c0c0c0" stroke-width="2" d="M1550.9122,-156.895C1527.2877,-145.3624 1496.3529,-130.261 1470.3785,-117.5812"/>
<polygon fill="#c0c0c0" stroke="#c0c0c0" stroke-width="2" points="1471.5779,-114.272 1461.0561,-113.0303 1468.5071,-120.5625 1471.5779,-114.272"/>
</g>
<!-- 20 -->
<g id="node21" class="node">
<title>20</title>
<path fill="none" stroke="#567bd8" stroke-width="2" d="M1770,-113C1770,-113 1564,-113 1564,-113 1558,-113 1552,-107 1552,-101 1552,-101 1552,-84 1552,-84 1552,-78 1558,-72 1564,-72 1564,-72 1770,-72 1770,-72 1776,-72 1782,-78 1782,-84 1782,-84 1782,-101 1782,-101 1782,-107 1776,-113 1770,-113"/>
<text text-anchor="middle" x="1667" y="-101" font-family="sans" font-size="10.00" fill="#000000">findMotif</text>
<text text-anchor="middle" x="1667" y="-90" font-family="sans" font-size="10.00" fill="#000000">folders: MACS_Out_q_0.05/ROSE_out_12500</text>
<text text-anchor="middle" x="1667" y="-79" font-family="sans" font-size="10.00" fill="#000000">peak_type: regular</text>
</g>
<!-- 15&#45;&gt;20 -->
<g id="edge58" class="edge">
<title>15&#45;&gt;20</title>
<path fill="none" stroke="#c0c0c0" stroke-width="2" d="M1605.5327,-156.6906C1615.6753,-146.0986 1628.6513,-132.5477 1640.0649,-120.6284"/>
<polygon fill="#c0c0c0" stroke="#c0c0c0" stroke-width="2" points="1642.9059,-122.7222 1647.2942,-113.0789 1637.85,-117.8808 1642.9059,-122.7222"/>
</g>
<!-- 16&#45;&gt;0 -->
<g id="edge16" class="edge">
<title>16&#45;&gt;0</title>
<path fill="none" stroke="#c0c0c0" stroke-width="2" d="M1085.9644,-246.8346C1062.6468,-237.4674 1038.6027,-223.0097 1025,-201 1012.8498,-181.3405 1011.2475,-167.574 1025,-149 1057.6276,-104.9335 1095.0591,-139.61 1143,-113 1167.2367,-99.5472 1168.7602,-89.812 1190,-72 1201.6985,-62.1895 1214.7341,-51.6062 1226.1749,-42.4306"/>
<polygon fill="#c0c0c0" stroke="#c0c0c0" stroke-width="2" points="1228.5567,-45.0074 1234.1819,-36.0292 1224.1856,-39.5399 1228.5567,-45.0074"/>
</g>
<!-- 16&#45;&gt;17 -->
<g id="edge55" class="edge">
<title>16&#45;&gt;17</title>
<path fill="none" stroke="#c0c0c0" stroke-width="2" d="M1085.7447,-248.8306C1065.7423,-244.6506 1043.5064,-240.3133 1023,-237 978.5993,-229.8259 695.7049,-197.6322 563.2428,-182.6786"/>
<polygon fill="#c0c0c0" stroke="#c0c0c0" stroke-width="2" points="563.5326,-179.1892 553.2032,-181.5457 562.7476,-186.145 563.5326,-179.1892"/>
</g>
<!-- 28 -->
<g id="node29" class="node">
<title>28</title>
<path fill="none" stroke="#56b9d8" stroke-width="2" d="M1500,-201C1500,-201 1294,-201 1294,-201 1288,-201 1282,-195 1282,-189 1282,-189 1282,-161 1282,-161 1282,-155 1288,-149 1294,-149 1294,-149 1500,-149 1500,-149 1506,-149 1512,-155 1512,-161 1512,-161 1512,-189 1512,-189 1512,-195 1506,-201 1500,-201"/>
<text text-anchor="middle" x="1397" y="-189" font-family="sans" font-size="10.00" fill="#000000">EDEN</text>
<text text-anchor="middle" x="1397" y="-178" font-family="sans" font-size="10.00" fill="#000000">TPM_cutoff: 4</text>
<text text-anchor="middle" x="1397" y="-167" font-family="sans" font-size="10.00" fill="#000000">folders: MACS_Out_q_0.01/ROSE_out_12500</text>
<text text-anchor="middle" x="1397" y="-156" font-family="sans" font-size="10.00" fill="#000000">prefix: peaks_AllEnhancers.table.super</text>
</g>
<!-- 16&#45;&gt;28 -->
<g id="edge70" class="edge">
<title>16&#45;&gt;28</title>
<path fill="none" stroke="#c0c0c0" stroke-width="2" d="M1199.7849,-244.9795C1232.706,-233.2979 1276.354,-217.8099 1314.2168,-204.3747"/>
<polygon fill="#c0c0c0" stroke="#c0c0c0" stroke-width="2" points="1315.4545,-207.6494 1323.7083,-201.0067 1313.1136,-201.0524 1315.4545,-207.6494"/>
</g>
<!-- 29 -->
<g id="node30" class="node">
<title>29</title>
<path fill="none" stroke="#56b9d8" stroke-width="2" d="M1252,-201C1252,-201 1046,-201 1046,-201 1040,-201 1034,-195 1034,-189 1034,-189 1034,-161 1034,-161 1034,-155 1040,-149 1046,-149 1046,-149 1252,-149 1252,-149 1258,-149 1264,-155 1264,-161 1264,-161 1264,-189 1264,-189 1264,-195 1258,-201 1252,-201"/>
<text text-anchor="middle" x="1149" y="-189" font-family="sans" font-size="10.00" fill="#000000">EDEN</text>
<text text-anchor="middle" x="1149" y="-178" font-family="sans" font-size="10.00" fill="#000000">TPM_cutoff: 4</text>
<text text-anchor="middle" x="1149" y="-167" font-family="sans" font-size="10.00" fill="#000000">folders: MACS_Out_q_0.01/ROSE_out_12500</text>
<text text-anchor="middle" x="1149" y="-156" font-family="sans" font-size="10.00" fill="#000000">prefix: peaks_AllEnhancers.table.regular</text>
</g>
<!-- 16&#45;&gt;29 -->
<g id="edge72" class="edge">
<title>16&#45;&gt;29</title>
<path fill="none" stroke="#c0c0c0" stroke-width="2" d="M1149,-244.7663C1149,-235.1303 1149,-222.9487 1149,-211.4714"/>
<polygon fill="#c0c0c0" stroke="#c0c0c0" stroke-width="2" points="1152.5001,-211.2223 1149,-201.2223 1145.5001,-211.2223 1152.5001,-211.2223"/>
</g>
<!-- 16&#45;&gt;32 -->
<g id="edge77" class="edge">
<title>16&#45;&gt;32</title>
<path fill="none" stroke="#c0c0c0" stroke-width="2" d="M1212.2712,-258.6886C1308.6201,-251.3516 1497.5499,-233.928 1655,-201 1659.1662,-200.1287 1663.4214,-199.152 1667.7004,-198.1018"/>
<polygon fill="#c0c0c0" stroke="#c0c0c0" stroke-width="2" points="1668.8831,-201.4116 1677.6973,-195.5329 1667.1409,-194.6319 1668.8831,-201.4116"/>
</g>
<!-- 17&#45;&gt;0 -->
<g id="edge17" class="edge">
<title>17&#45;&gt;0</title>
<path fill="none" stroke="#c0c0c0" stroke-width="2" d="M436.8304,-160.7216C412.0526,-151.448 385.5518,-136.5453 371,-113 361.42,-97.4993 358.513,-85.2712 371,-72 399.3031,-41.9193 1001.7201,-24.3462 1196.6949,-19.4306"/>
<polygon fill="#c0c0c0" stroke="#c0c0c0" stroke-width="2" points="1196.8544,-22.9278 1206.7638,-19.1789 1196.6794,-15.93 1196.8544,-22.9278"/>
</g>
<!-- 22 -->
<g id="node23" class="node">
<title>22</title>
<path fill="none" stroke="#567bd8" stroke-width="2" d="M598,-113C598,-113 392,-113 392,-113 386,-113 380,-107 380,-101 380,-101 380,-84 380,-84 380,-78 386,-72 392,-72 392,-72 598,-72 598,-72 604,-72 610,-78 610,-84 610,-84 610,-101 610,-101 610,-107 604,-113 598,-113"/>
<text text-anchor="middle" x="495" y="-101" font-family="sans" font-size="10.00" fill="#000000">findMotif</text>
<text text-anchor="middle" x="495" y="-90" font-family="sans" font-size="10.00" fill="#000000">folders: MACS_Out_q_0.01/ROSE_out_12500</text>
<text text-anchor="middle" x="495" y="-79" font-family="sans" font-size="10.00" fill="#000000">peak_type: super</text>
</g>
<!-- 17&#45;&gt;22 -->
<g id="edge60" class="edge">
<title>17&#45;&gt;22</title>
<path fill="none" stroke="#c0c0c0" stroke-width="2" d="M495,-156.6906C495,-146.9056 495,-134.5954 495,-123.3792"/>
<polygon fill="#c0c0c0" stroke="#c0c0c0" stroke-width="2" points="498.5001,-123.0788 495,-113.0789 491.5001,-123.0789 498.5001,-123.0788"/>
</g>
<!-- 23 -->
<g id="node24" class="node">
<title>23</title>
<path fill="none" stroke="#567bd8" stroke-width="2" d="M846,-113C846,-113 640,-113 640,-113 634,-113 628,-107 628,-101 628,-101 628,-84 628,-84 628,-78 634,-72 640,-72 640,-72 846,-72 846,-72 852,-72 858,-78 858,-84 858,-84 858,-101 858,-101 858,-107 852,-113 846,-113"/>
<text text-anchor="middle" x="743" y="-101" font-family="sans" font-size="10.00" fill="#000000">findMotif</text>
<text text-anchor="middle" x="743" y="-90" font-family="sans" font-size="10.00" fill="#000000">folders: MACS_Out_q_0.01/ROSE_out_12500</text>
<text text-anchor="middle" x="743" y="-79" font-family="sans" font-size="10.00" fill="#000000">peak_type: regular</text>
</g>
<!-- 17&#45;&gt;23 -->
<g id="edge61" class="edge">
<title>17&#45;&gt;23</title>
<path fill="none" stroke="#c0c0c0" stroke-width="2" d="M549.1182,-156.997C584.987,-145.0648 632.4388,-129.2794 671.4198,-116.3119"/>
<polygon fill="#c0c0c0" stroke="#c0c0c0" stroke-width="2" points="672.7516,-119.5576 681.1356,-113.0799 670.542,-112.9154 672.7516,-119.5576"/>
</g>
<!-- 18&#45;&gt;0 -->
<g id="edge18" class="edge">
<title>18&#45;&gt;0</title>
<path fill="none" stroke="#c0c0c0" stroke-width="2" d="M1109.2041,-74.4656C1136.5466,-64.0194 1171.1563,-50.7967 1200.0093,-39.7734"/>
<polygon fill="#c0c0c0" stroke="#c0c0c0" stroke-width="2" points="1201.4624,-42.965 1209.5548,-36.1265 1198.9642,-36.426 1201.4624,-42.965"/>
</g>
<!-- 19&#45;&gt;0 -->
<g id="edge19" class="edge">
<title>19&#45;&gt;0</title>
<path fill="none" stroke="#c0c0c0" stroke-width="2" d="M1374.304,-71.9453C1352.9156,-62.1094 1327.2693,-50.3152 1305.4188,-40.2667"/>
<polygon fill="#c0c0c0" stroke="#c0c0c0" stroke-width="2" points="1306.8579,-37.0761 1296.3102,-36.0778 1303.9331,-43.4359 1306.8579,-37.0761"/>
</g>
<!-- 20&#45;&gt;0 -->
<g id="edge20" class="edge">
<title>20&#45;&gt;0</title>
<path fill="none" stroke="#c0c0c0" stroke-width="2" d="M1554.152,-71.9947C1477.5822,-58.0814 1379.3528,-40.2324 1317.2703,-28.9516"/>
<polygon fill="#c0c0c0" stroke="#c0c0c0" stroke-width="2" points="1317.7126,-25.4747 1307.248,-27.1304 1316.4611,-32.3619 1317.7126,-25.4747"/>
</g>
<!-- 21&#45;&gt;0 -->
<g id="edge21" class="edge">
<title>21&#45;&gt;0</title>
<path fill="none" stroke="#c0c0c0" stroke-width="2" d="M247.6098,-74.4126C252.4617,-73.5018 257.2912,-72.6833 262,-72 443.9946,-45.5894 1009.9656,-25.8017 1196.6111,-19.8522"/>
<polygon fill="#c0c0c0" stroke="#c0c0c0" stroke-width="2" points="1196.9011,-23.3449 1206.7851,-19.5296 1196.6792,-16.3484 1196.9011,-23.3449"/>
</g>
<!-- 22&#45;&gt;0 -->
<g id="edge22" class="edge">
<title>22&#45;&gt;0</title>
<path fill="none" stroke="#c0c0c0" stroke-width="2" d="M610.1333,-73.1469C613.1174,-72.748 616.077,-72.3647 619,-72 830.5237,-45.6058 1083.144,-28.4539 1196.6028,-21.5082"/>
<polygon fill="#c0c0c0" stroke="#c0c0c0" stroke-width="2" points="1197.0473,-24.9877 1206.8165,-20.8875 1196.6226,-18.0006 1197.0473,-24.9877"/>
</g>
<!-- 23&#45;&gt;0 -->
<g id="edge23" class="edge">
<title>23&#45;&gt;0</title>
<path fill="none" stroke="#c0c0c0" stroke-width="2" d="M858.325,-74.0663C862.9426,-73.3621 867.5145,-72.6709 872,-72 986.5966,-54.8593 1120.6343,-36.4234 1196.5029,-26.1379"/>
<polygon fill="#c0c0c0" stroke="#c0c0c0" stroke-width="2" points="1197.3742,-29.5519 1206.8141,-24.7416 1196.4349,-22.6152 1197.3742,-29.5519"/>
</g>
<!-- 24&#45;&gt;0 -->
<g id="edge24" class="edge">
<title>24&#45;&gt;0</title>
<path fill="none" stroke="#c0c0c0" stroke-width="2" d="M1941.8199,-148.7328C1925.133,-124.2243 1896.6967,-88.9659 1862,-72 1813.8835,-48.4722 1461.0939,-28.2778 1317.5233,-20.9444"/>
<polygon fill="#c0c0c0" stroke="#c0c0c0" stroke-width="2" points="1317.3103,-17.4292 1307.1458,-20.4182 1316.9557,-24.4202 1317.3103,-17.4292"/>
</g>
<!-- 25&#45;&gt;0 -->
<g id="edge25" class="edge">
<title>25&#45;&gt;0</title>
<path fill="none" stroke="#c0c0c0" stroke-width="2" d="M2328.6866,-148.9666C2240.2161,-125.0734 2102.555,-90.6447 1981,-72 1736.8226,-34.5468 1442.17,-22.7903 1317.4465,-19.3366"/>
<polygon fill="#c0c0c0" stroke="#c0c0c0" stroke-width="2" points="1317.426,-15.8349 1307.3355,-19.0646 1317.2377,-22.8323 1317.426,-15.8349"/>
</g>
<!-- 26&#45;&gt;0 -->
<g id="edge26" class="edge">
<title>26&#45;&gt;0</title>
<path fill="none" stroke="#c0c0c0" stroke-width="2" d="M2118.1025,-148.9032C2064.334,-124.611 1979.4266,-89.5882 1902,-72 1791.6216,-46.9265 1455.5277,-27.8746 1317.3265,-20.8946"/>
<polygon fill="#c0c0c0" stroke="#c0c0c0" stroke-width="2" points="1317.4922,-17.3986 1307.3295,-20.3934 1317.1416,-24.3898 1317.4922,-17.3986"/>
</g>
<!-- 27&#45;&gt;0 -->
<g id="edge27" class="edge">
<title>27&#45;&gt;0</title>
<path fill="none" stroke="#c0c0c0" stroke-width="2" d="M854.5401,-148.8043C868.7427,-137.885 885.2809,-124.9787 900,-113 921.7609,-95.2906 922.6155,-83.9493 948,-72 991.1473,-51.6893 1119.8796,-33.8951 1196.9005,-24.6803"/>
<polygon fill="#c0c0c0" stroke="#c0c0c0" stroke-width="2" points="1197.43,-28.1422 1206.9496,-23.4916 1196.6076,-21.1906 1197.43,-28.1422"/>
</g>
<!-- 28&#45;&gt;0 -->
<g id="edge28" class="edge">
<title>28&#45;&gt;0</title>
<path fill="none" stroke="#c0c0c0" stroke-width="2" d="M1304.5387,-148.947C1287.8842,-140.1506 1272.5027,-128.4702 1262,-113 1248.8074,-93.5677 1248.7291,-66.4088 1251.266,-46.1044"/>
<polygon fill="#c0c0c0" stroke="#c0c0c0" stroke-width="2" points="1254.7306,-46.6014 1252.7754,-36.1886 1247.8103,-45.5479 1254.7306,-46.6014"/>
</g>
<!-- 29&#45;&gt;0 -->
<g id="edge29" class="edge">
<title>29&#45;&gt;0</title>
<path fill="none" stroke="#c0c0c0" stroke-width="2" d="M1167.0768,-148.7217C1186.9942,-119.7677 1218.8445,-73.4668 1238.8079,-44.446"/>
<polygon fill="#c0c0c0" stroke="#c0c0c0" stroke-width="2" points="1241.8114,-46.2552 1244.5954,-36.0326 1236.0442,-42.2879 1241.8114,-46.2552"/>
</g>
<!-- 30 -->
<g id="node31" class="node">
<title>30</title>
<path fill="none" stroke="#59d856" stroke-width="2" d="M1964.5,-289C1964.5,-289 1731.5,-289 1731.5,-289 1725.5,-289 1719.5,-283 1719.5,-277 1719.5,-277 1719.5,-249 1719.5,-249 1719.5,-243 1725.5,-237 1731.5,-237 1731.5,-237 1964.5,-237 1964.5,-237 1970.5,-237 1976.5,-243 1976.5,-249 1976.5,-249 1976.5,-277 1976.5,-277 1976.5,-283 1970.5,-289 1964.5,-289"/>
<text text-anchor="middle" x="1848" y="-277" font-family="sans" font-size="10.00" fill="#000000">RNAseq_pipeline</text>
<text text-anchor="middle" x="1848" y="-266" font-family="sans" font-size="10.00" fill="#000000">genome: hg19</text>
<text text-anchor="middle" x="1848" y="-255" font-family="sans" font-size="10.00" fill="#000000">rnaseq_sample: Rh4_dmso_6h_rz_T_H3YCHBGXX</text>
<text text-anchor="middle" x="1848" y="-244" font-family="sans" font-size="10.00" fill="#000000">sample: RH4_D6_H3K27ac_018_C_HWC77BGXY</text>
</g>
<!-- 30&#45;&gt;0 -->
<g id="edge30" class="edge">
<title>30&#45;&gt;0</title>
<path fill="none" stroke="#c0c0c0" stroke-width="2" d="M1851.6764,-236.9229C1855.9392,-195.044 1857.182,-113.319 1810,-72 1773.5313,-40.063 1453.3808,-24.9866 1317.5316,-19.9834"/>
<polygon fill="#c0c0c0" stroke="#c0c0c0" stroke-width="2" points="1317.4178,-16.4771 1307.2977,-19.6128 1317.1644,-23.4725 1317.4178,-16.4771"/>
</g>
<!-- 30&#45;&gt;24 -->
<g id="edge63" class="edge">
<title>30&#45;&gt;24</title>
<path fill="none" stroke="#c0c0c0" stroke-width="2" d="M1880.7058,-236.8354C1892.129,-227.6968 1905.0966,-217.3227 1917.1027,-207.7178"/>
<polygon fill="#c0c0c0" stroke="#c0c0c0" stroke-width="2" points="1919.608,-210.1958 1925.2303,-201.2158 1915.2351,-204.7297 1919.608,-210.1958"/>
</g>
<!-- 30&#45;&gt;25 -->
<g id="edge65" class="edge">
<title>30&#45;&gt;25</title>
<path fill="none" stroke="#c0c0c0" stroke-width="2" d="M1976.5872,-247.6528C2064.0164,-236.6464 2182.4937,-220.6202 2295.9658,-201.1355"/>
<polygon fill="#c0c0c0" stroke="#c0c0c0" stroke-width="2" points="2296.616,-204.575 2305.8738,-199.423 2295.4238,-197.6773 2296.616,-204.575"/>
</g>
<!-- 30&#45;&gt;26 -->
<g id="edge67" class="edge">
<title>30&#45;&gt;26</title>
<path fill="none" stroke="#c0c0c0" stroke-width="2" d="M1944.1916,-236.9543C1982.8391,-226.4897 2027.5264,-214.3898 2067.0971,-203.6753"/>
<polygon fill="#c0c0c0" stroke="#c0c0c0" stroke-width="2" points="2068.0369,-207.0469 2076.7746,-201.0549 2066.2073,-200.2902 2068.0369,-207.0469"/>
</g>
<!-- 30&#45;&gt;27 -->
<g id="edge69" class="edge">
<title>30&#45;&gt;27</title>
<path fill="none" stroke="#c0c0c0" stroke-width="2" d="M1719.1696,-255.3332C1557.014,-245.2145 1270.0272,-225.7515 1025,-201 988.1274,-197.2753 947.6321,-192.323 912.4418,-187.7403"/>
<polygon fill="#c0c0c0" stroke="#c0c0c0" stroke-width="2" points="912.5545,-184.2252 902.1843,-186.3955 911.6445,-191.1658 912.5545,-184.2252"/>
</g>
<!-- 30&#45;&gt;28 -->
<g id="edge71" class="edge">
<title>30&#45;&gt;28</title>
<path fill="none" stroke="#c0c0c0" stroke-width="2" d="M1719.3743,-239.2056C1661.7939,-228.4086 1592.8192,-215.2768 1522.1456,-201.216"/>
<polygon fill="#c0c0c0" stroke="#c0c0c0" stroke-width="2" points="1522.6543,-197.7486 1512.163,-199.2259 1521.2857,-204.6135 1522.6543,-197.7486"/>
</g>
<!-- 30&#45;&gt;29 -->
<g id="edge73" class="edge">
<title>30&#45;&gt;29</title>
<path fill="none" stroke="#c0c0c0" stroke-width="2" d="M1719.3427,-252.8083C1604.8879,-242.8869 1432.8271,-225.8792 1274.0609,-201.1067"/>
<polygon fill="#c0c0c0" stroke="#c0c0c0" stroke-width="2" points="1274.5292,-197.6374 1264.1067,-199.5405 1273.4411,-204.5523 1274.5292,-197.6374"/>
</g>
<!-- 30&#45;&gt;31 -->
<g id="edge76" class="edge">
<title>30&#45;&gt;31</title>
<path fill="none" stroke="#c0c0c0" stroke-width="2" d="M1976.6701,-256.0518C2116.9415,-247.4313 2347.7606,-230.1842 2545,-201 2557.1113,-199.208 2569.8154,-196.9789 2582.2926,-194.5848"/>
<polygon fill="#c0c0c0" stroke="#c0c0c0" stroke-width="2" points="2583.0956,-197.994 2592.2348,-192.6345 2581.7481,-191.1249 2583.0956,-197.994"/>
</g>
<!-- 30&#45;&gt;32 -->
<g id="edge79" class="edge">
<title>30&#45;&gt;32</title>
<path fill="none" stroke="#c0c0c0" stroke-width="2" d="M1816.4835,-236.8354C1803.3436,-225.9268 1788.083,-213.2576 1774.8091,-202.2377"/>
<polygon fill="#c0c0c0" stroke="#c0c0c0" stroke-width="2" points="1776.7674,-199.3146 1766.8376,-195.6199 1772.2961,-204.7005 1776.7674,-199.3146"/>
</g>
<!-- 31&#45;&gt;0 -->
<g id="edge31" class="edge">
<title>31&#45;&gt;0</title>
<path fill="none" stroke="#c0c0c0" stroke-width="2" d="M2658.5687,-154.2667C2643.6669,-129.5857 2615.072,-89.5118 2578,-72 2520.3629,-44.7739 1567.8305,-24.1332 1317.0887,-19.1534"/>
<polygon fill="#c0c0c0" stroke="#c0c0c0" stroke-width="2" points="1317.1378,-15.6538 1307.0706,-18.9554 1316.9994,-22.6524 1317.1378,-15.6538"/>
</g>
<!-- 32&#45;&gt;0 -->
<g id="edge32" class="edge">
<title>32&#45;&gt;0</title>
<path fill="none" stroke="#c0c0c0" stroke-width="2" d="M1764.4787,-154.3962C1786.2216,-132.0202 1812.9108,-96.2383 1791,-72 1759.7126,-37.3891 1450.5325,-23.882 1317.43,-19.6419"/>
<polygon fill="#c0c0c0" stroke="#c0c0c0" stroke-width="2" points="1317.498,-16.1424 1307.3938,-19.3292 1317.2799,-23.139 1317.498,-16.1424"/>
</g>
<!-- 33 -->
<g id="node34" class="node">
<title>33</title>
<path fill="none" stroke="#569ad8" stroke-width="2" stroke-dasharray="5,2" d="M2726,-515C2726,-515 2500,-515 2500,-515 2494,-515 2488,-509 2488,-503 2488,-503 2488,-486 2488,-486 2488,-480 2494,-474 2500,-474 2500,-474 2726,-474 2726,-474 2732,-474 2738,-480 2738,-486 2738,-486 2738,-503 2738,-503 2738,-509 2732,-515 2726,-515"/>
<text text-anchor="middle" x="2613" y="-503" font-family="sans" font-size="10.00" fill="#000000">prepareFASTQ</text>
<text text-anchor="middle" x="2613" y="-492" font-family="sans" font-size="10.00" fill="#000000">sample: RH4_D6_H3K27ac_018_C_HWC77BGXY</text>
<text text-anchor="middle" x="2613" y="-481" font-family="sans" font-size="10.00" fill="#000000">suffix: R1.fastq.gz</text>
</g>
<!-- 33&#45;&gt;1 -->
<g id="edge33" class="edge">
<title>33&#45;&gt;1</title>
<path fill="none" stroke="#c0c0c0" stroke-width="2" d="M2613,-473.7476C2613,-465.8767 2613,-456.7743 2613,-448.3232"/>
<polygon fill="#c0c0c0" stroke="#c0c0c0" stroke-width="2" points="2616.5001,-448.1086 2613,-438.1087 2609.5001,-448.1087 2616.5001,-448.1086"/>
</g>
<!-- 34 -->
<g id="node35" class="node">
<title>34</title>
<path fill="none" stroke="#569ad8" stroke-width="2" stroke-dasharray="5,2" d="M523.5,-515C523.5,-515 338.5,-515 338.5,-515 332.5,-515 326.5,-509 326.5,-503 326.5,-503 326.5,-486 326.5,-486 326.5,-480 332.5,-474 338.5,-474 338.5,-474 523.5,-474 523.5,-474 529.5,-474 535.5,-480 535.5,-486 535.5,-486 535.5,-503 535.5,-503 535.5,-509 529.5,-515 523.5,-515"/>
<text text-anchor="middle" x="431" y="-503" font-family="sans" font-size="10.00" fill="#000000">prepareFASTQ</text>
<text text-anchor="middle" x="431" y="-492" font-family="sans" font-size="10.00" fill="#000000">sample: RH4_Input_001_C_H5TLGBGXX</text>
<text text-anchor="middle" x="431" y="-481" font-family="sans" font-size="10.00" fill="#000000">suffix: R1.fastq.gz</text>
</g>
<!-- 34&#45;&gt;2 -->
<g id="edge34" class="edge">
<title>34&#45;&gt;2</title>
<path fill="none" stroke="#c0c0c0" stroke-width="2" d="M431,-473.7476C431,-465.8767 431,-456.7743 431,-448.3232"/>
<polygon fill="#c0c0c0" stroke="#c0c0c0" stroke-width="2" points="434.5001,-448.1086 431,-438.1087 427.5001,-448.1087 434.5001,-448.1086"/>
</g>
<!-- 35&#45;&gt;5 -->
<g id="edge37" class="edge">
<title>35&#45;&gt;5</title>
<path fill="none" stroke="#c0c0c0" stroke-width="2" d="M2869.4569,-156.6906C2863.8342,-145.9028 2856.6117,-132.0457 2850.3172,-119.9691"/>
<polygon fill="#c0c0c0" stroke="#c0c0c0" stroke-width="2" points="2853.2422,-118.0083 2845.5164,-110.7582 2847.0347,-121.2437 2853.2422,-118.0083"/>
</g>
<!-- 35&#45;&gt;6 -->
<g id="edge38" class="edge">
<title>35&#45;&gt;6</title>
<path fill="none" stroke="#c0c0c0" stroke-width="2" d="M2896.0888,-156.6906C2906.6558,-145.3687 2920.3783,-130.6662 2932.0234,-118.1892"/>
<polygon fill="#c0c0c0" stroke="#c0c0c0" stroke-width="2" points="2934.6945,-120.4569 2938.959,-110.7582 2929.5771,-115.6807 2934.6945,-120.4569"/>
</g>
</g>
</svg>
