<?xml version="1.0" encoding="UTF-8" standalone="no"?>
<!DOCTYPE svg PUBLIC "-//W3C//DTD SVG 1.1//EN"
 "http://www.w3.org/Graphics/SVG/1.1/DTD/svg11.dtd">
<!-- Generated by graphviz version 2.40.1 (20161225.0304)
 -->
<!-- Title: snakemake_dag Pages: 1 -->
<svg width="534pt" height="409pt"
 viewBox="0.00 0.00 534.00 409.00" xmlns="http://www.w3.org/2000/svg" xmlns:xlink="http://www.w3.org/1999/xlink">
<g id="graph0" class="graph" transform="scale(1 1) rotate(0) translate(4 405)">
<title>snakemake_dag</title>
<polygon fill="#ffffff" stroke="transparent" points="-4,4 -4,-405 530,-405 530,4 -4,4"/>
<!-- 0 -->
<g id="node1" class="node">
<title>0</title>
<path fill="none" stroke="#56d8d8" stroke-width="2" d="M322,-36C322,-36 268,-36 268,-36 262,-36 256,-30 256,-24 256,-24 256,-12 256,-12 256,-6 262,0 268,0 268,0 322,0 322,0 328,0 334,-6 334,-12 334,-12 334,-24 334,-24 334,-30 328,-36 322,-36"/>
<text text-anchor="middle" x="295" y="-15.5" font-family="sans" font-size="10.00" fill="#000000">HiC_pipeline</text>
</g>
<!-- 1 -->
<g id="node2" class="node">
<title>1</title>
<path fill="none" stroke="#d89556" stroke-width="2" d="M224.5,-180C224.5,-180 171.5,-180 171.5,-180 165.5,-180 159.5,-174 159.5,-168 159.5,-168 159.5,-156 159.5,-156 159.5,-150 165.5,-144 171.5,-144 171.5,-144 224.5,-144 224.5,-144 230.5,-144 236.5,-150 236.5,-156 236.5,-156 236.5,-168 236.5,-168 236.5,-174 230.5,-180 224.5,-180"/>
<text text-anchor="middle" x="198" y="-159.5" font-family="sans" font-size="10.00" fill="#000000">HiCProStep2</text>
</g>
<!-- 1&#45;&gt;0 -->
<g id="edge1" class="edge">
<title>1&#45;&gt;0</title>
<path fill="none" stroke="#c0c0c0" stroke-width="2" d="M197.9806,-143.9344C198.7819,-124.6126 202.5019,-93.8108 217,-72 224.9971,-59.9693 236.6706,-49.8435 248.5625,-41.7296"/>
<polygon fill="#c0c0c0" stroke="#c0c0c0" stroke-width="2" points="250.6858,-44.5257 257.2108,-36.1785 246.9046,-38.6348 250.6858,-44.5257"/>
</g>
<!-- 4 -->
<g id="node5" class="node">
<title>4</title>
<path fill="none" stroke="#d6d856" stroke-width="2" d="M287.5,-108C287.5,-108 238.5,-108 238.5,-108 232.5,-108 226.5,-102 226.5,-96 226.5,-96 226.5,-84 226.5,-84 226.5,-78 232.5,-72 238.5,-72 238.5,-72 287.5,-72 287.5,-72 293.5,-72 299.5,-78 299.5,-84 299.5,-84 299.5,-96 299.5,-96 299.5,-102 293.5,-108 287.5,-108"/>
<text text-anchor="middle" x="263" y="-87.5" font-family="sans" font-size="10.00" fill="#000000">mergeStats</text>
</g>
<!-- 1&#45;&gt;4 -->
<g id="edge8" class="edge">
<title>1&#45;&gt;4</title>
<path fill="none" stroke="#c0c0c0" stroke-width="2" d="M214.4022,-143.8314C222.0415,-135.3694 231.2683,-125.1489 239.6207,-115.8971"/>
<polygon fill="#c0c0c0" stroke="#c0c0c0" stroke-width="2" points="242.2738,-118.1813 246.3769,-108.4133 237.0779,-113.4906 242.2738,-118.1813"/>
</g>
<!-- 2 -->
<g id="node3" class="node">
<title>2</title>
<path fill="none" stroke="#d89556" stroke-width="2" d="M355.5,-180C355.5,-180 302.5,-180 302.5,-180 296.5,-180 290.5,-174 290.5,-168 290.5,-168 290.5,-156 290.5,-156 290.5,-150 296.5,-144 302.5,-144 302.5,-144 355.5,-144 355.5,-144 361.5,-144 367.5,-150 367.5,-156 367.5,-156 367.5,-168 367.5,-168 367.5,-174 361.5,-180 355.5,-180"/>
<text text-anchor="middle" x="329" y="-159.5" font-family="sans" font-size="10.00" fill="#000000">HiCProStep2</text>
</g>
<!-- 2&#45;&gt;0 -->
<g id="edge2" class="edge">
<title>2&#45;&gt;0</title>
<path fill="none" stroke="#c0c0c0" stroke-width="2" d="M325.1266,-143.6852C321.2278,-125.469 314.9548,-96.7433 309,-72 306.9924,-63.6579 304.6976,-54.6225 302.5549,-46.3726"/>
<polygon fill="#c0c0c0" stroke="#c0c0c0" stroke-width="2" points="305.8763,-45.2401 299.9551,-36.4543 299.1051,-47.015 305.8763,-45.2401"/>
</g>
<!-- 3 -->
<g id="node4" class="node">
<title>3</title>
<path fill="none" stroke="#59d856" stroke-width="2" d="M441.5,-108C441.5,-108 368.5,-108 368.5,-108 362.5,-108 356.5,-102 356.5,-96 356.5,-96 356.5,-84 356.5,-84 356.5,-78 362.5,-72 368.5,-72 368.5,-72 441.5,-72 441.5,-72 447.5,-72 453.5,-78 453.5,-84 453.5,-84 453.5,-96 453.5,-96 453.5,-102 447.5,-108 441.5,-108"/>
<text text-anchor="middle" x="405" y="-87.5" font-family="sans" font-size="10.00" fill="#000000">HiCpro2Juicebox</text>
</g>
<!-- 2&#45;&gt;3 -->
<g id="edge7" class="edge">
<title>2&#45;&gt;3</title>
<path fill="none" stroke="#c0c0c0" stroke-width="2" d="M348.178,-143.8314C357.3588,-135.1337 368.5006,-124.5783 378.4776,-115.1265"/>
<polygon fill="#c0c0c0" stroke="#c0c0c0" stroke-width="2" points="380.9757,-117.5811 385.8281,-108.1628 376.1615,-112.4995 380.9757,-117.5811"/>
</g>
<!-- 2&#45;&gt;4 -->
<g id="edge9" class="edge">
<title>2&#45;&gt;4</title>
<path fill="none" stroke="#c0c0c0" stroke-width="2" d="M312.3454,-143.8314C304.5886,-135.3694 295.2198,-125.1489 286.739,-115.8971"/>
<polygon fill="#c0c0c0" stroke="#c0c0c0" stroke-width="2" points="289.2162,-113.4198 279.8788,-108.4133 284.0561,-118.1499 289.2162,-113.4198"/>
</g>
<!-- 3&#45;&gt;0 -->
<g id="edge3" class="edge">
<title>3&#45;&gt;0</title>
<path fill="none" stroke="#c0c0c0" stroke-width="2" d="M377.2424,-71.8314C363.303,-62.7074 346.2402,-51.539 331.2769,-41.7449"/>
<polygon fill="#c0c0c0" stroke="#c0c0c0" stroke-width="2" points="333.0326,-38.711 322.7488,-36.1628 329.199,-44.5679 333.0326,-38.711"/>
</g>
<!-- 4&#45;&gt;0 -->
<g id="edge4" class="edge">
<title>4&#45;&gt;0</title>
<path fill="none" stroke="#c0c0c0" stroke-width="2" d="M271.075,-71.8314C274.6102,-63.8771 278.836,-54.369 282.7456,-45.5723"/>
<polygon fill="#c0c0c0" stroke="#c0c0c0" stroke-width="2" points="285.9532,-46.9729 286.8163,-36.4133 279.5565,-44.1299 285.9532,-46.9729"/>
</g>
<!-- 5 -->
<g id="node6" class="node">
<title>5</title>
<path fill="none" stroke="#56d89a" stroke-width="2" d="M237.5,-252C237.5,-252 154.5,-252 154.5,-252 148.5,-252 142.5,-246 142.5,-240 142.5,-240 142.5,-228 142.5,-228 142.5,-222 148.5,-216 154.5,-216 154.5,-216 237.5,-216 237.5,-216 243.5,-216 249.5,-222 249.5,-228 249.5,-228 249.5,-240 249.5,-240 249.5,-246 243.5,-252 237.5,-252"/>
<text text-anchor="middle" x="196" y="-237" font-family="sans" font-size="10.00" fill="#000000">HiCProStep1</text>
<text text-anchor="middle" x="196" y="-226" font-family="sans" font-size="10.00" fill="#000000">bowtie_idx: mm10</text>
</g>
<!-- 5&#45;&gt;1 -->
<g id="edge5" class="edge">
<title>5&#45;&gt;1</title>
<path fill="none" stroke="#c0c0c0" stroke-width="2" d="M196.5047,-215.8314C196.7186,-208.131 196.9729,-198.9743 197.2106,-190.4166"/>
<polygon fill="#c0c0c0" stroke="#c0c0c0" stroke-width="2" points="200.7094,-190.5066 197.4885,-180.4133 193.7121,-190.3122 200.7094,-190.5066"/>
</g>
<!-- 6 -->
<g id="node7" class="node">
<title>6</title>
<path fill="none" stroke="#56d89a" stroke-width="2" d="M380.5,-252C380.5,-252 279.5,-252 279.5,-252 273.5,-252 267.5,-246 267.5,-240 267.5,-240 267.5,-228 267.5,-228 267.5,-222 273.5,-216 279.5,-216 279.5,-216 380.5,-216 380.5,-216 386.5,-216 392.5,-222 392.5,-228 392.5,-228 392.5,-240 392.5,-240 392.5,-246 386.5,-252 380.5,-252"/>
<text text-anchor="middle" x="330" y="-237" font-family="sans" font-size="10.00" fill="#000000">HiCProStep1</text>
<text text-anchor="middle" x="330" y="-226" font-family="sans" font-size="10.00" fill="#000000">bowtie_idx: ucsc.hg19</text>
</g>
<!-- 6&#45;&gt;2 -->
<g id="edge6" class="edge">
<title>6&#45;&gt;2</title>
<path fill="none" stroke="#c0c0c0" stroke-width="2" d="M329.7477,-215.8314C329.6407,-208.131 329.5135,-198.9743 329.3947,-190.4166"/>
<polygon fill="#c0c0c0" stroke="#c0c0c0" stroke-width="2" points="332.8944,-190.3637 329.2557,-180.4133 325.8951,-190.4609 332.8944,-190.3637"/>
</g>
<!-- 7 -->
<g id="node8" class="node">
<title>7</title>
<path fill="none" stroke="#d85656" stroke-width="2" d="M231,-324C231,-324 161,-324 161,-324 155,-324 149,-318 149,-312 149,-312 149,-300 149,-300 149,-294 155,-288 161,-288 161,-288 231,-288 231,-288 237,-288 243,-294 243,-300 243,-300 243,-312 243,-312 243,-318 237,-324 231,-324"/>
<text text-anchor="middle" x="196" y="-309" font-family="sans" font-size="10.00" fill="#000000">HiCPro</text>
<text text-anchor="middle" x="196" y="-298" font-family="sans" font-size="10.00" fill="#000000">genome: mm10</text>
</g>
<!-- 7&#45;&gt;5 -->
<g id="edge10" class="edge">
<title>7&#45;&gt;5</title>
<path fill="none" stroke="#c0c0c0" stroke-width="2" d="M196,-287.8314C196,-280.131 196,-270.9743 196,-262.4166"/>
<polygon fill="#c0c0c0" stroke="#c0c0c0" stroke-width="2" points="199.5001,-262.4132 196,-252.4133 192.5001,-262.4133 199.5001,-262.4132"/>
</g>
<!-- 8 -->
<g id="node9" class="node">
<title>8</title>
<path fill="none" stroke="#d85656" stroke-width="2" d="M361,-324C361,-324 299,-324 299,-324 293,-324 287,-318 287,-312 287,-312 287,-300 287,-300 287,-294 293,-288 299,-288 299,-288 361,-288 361,-288 367,-288 373,-294 373,-300 373,-300 373,-312 373,-312 373,-318 367,-324 361,-324"/>
<text text-anchor="middle" x="330" y="-309" font-family="sans" font-size="10.00" fill="#000000">HiCPro</text>
<text text-anchor="middle" x="330" y="-298" font-family="sans" font-size="10.00" fill="#000000">genome: hg19</text>
</g>
<!-- 8&#45;&gt;6 -->
<g id="edge11" class="edge">
<title>8&#45;&gt;6</title>
<path fill="none" stroke="#c0c0c0" stroke-width="2" d="M330,-287.8314C330,-280.131 330,-270.9743 330,-262.4166"/>
<polygon fill="#c0c0c0" stroke="#c0c0c0" stroke-width="2" points="333.5001,-262.4132 330,-252.4133 326.5001,-262.4133 333.5001,-262.4132"/>
</g>
<!-- 9 -->
<g id="node10" class="node">
<title>9</title>
<path fill="none" stroke="#97d856" stroke-width="2" d="M242,-401C242,-401 12,-401 12,-401 6,-401 0,-395 0,-389 0,-389 0,-372 0,-372 0,-366 6,-360 12,-360 12,-360 242,-360 242,-360 248,-360 254,-366 254,-372 254,-372 254,-389 254,-389 254,-395 248,-401 242,-401"/>
<text text-anchor="middle" x="127" y="-389" font-family="sans" font-size="10.00" fill="#000000">prepareFASTQ</text>
<text text-anchor="middle" x="127" y="-378" font-family="sans" font-size="10.00" fill="#000000">sample: RH4_Ent6_H3K27ac_HiChIP_HKJ22BGX7</text>
<text text-anchor="middle" x="127" y="-367" font-family="sans" font-size="10.00" fill="#000000">suffix: R1.fastq.gz</text>
</g>
<!-- 9&#45;&gt;7 -->
<g id="edge12" class="edge">
<title>9&#45;&gt;7</title>
<path fill="none" stroke="#c0c0c0" stroke-width="2" d="M146.2203,-359.7476C154.3202,-351.0021 163.8281,-340.7363 172.3521,-331.5329"/>
<polygon fill="#c0c0c0" stroke="#c0c0c0" stroke-width="2" points="175.001,-333.8237 179.2282,-324.1087 169.8653,-329.0671 175.001,-333.8237"/>
</g>
<!-- 9&#45;&gt;8 -->
<g id="edge14" class="edge">
<title>9&#45;&gt;8</title>
<path fill="none" stroke="#c0c0c0" stroke-width="2" d="M183.008,-359.9453C212.4252,-349.1494 248.2704,-335.9944 277.1987,-325.3778"/>
<polygon fill="#c0c0c0" stroke="#c0c0c0" stroke-width="2" points="278.5428,-328.6129 286.7247,-321.8818 276.1311,-322.0414 278.5428,-328.6129"/>
</g>
<!-- 10 -->
<g id="node11" class="node">
<title>10</title>
<path fill="none" stroke="#97d856" stroke-width="2" d="M514,-401C514,-401 284,-401 284,-401 278,-401 272,-395 272,-389 272,-389 272,-372 272,-372 272,-366 278,-360 284,-360 284,-360 514,-360 514,-360 520,-360 526,-366 526,-372 526,-372 526,-389 526,-389 526,-395 520,-401 514,-401"/>
<text text-anchor="middle" x="399" y="-389" font-family="sans" font-size="10.00" fill="#000000">prepareFASTQ</text>
<text text-anchor="middle" x="399" y="-378" font-family="sans" font-size="10.00" fill="#000000">sample: RH4_Ent6_H3K27ac_HiChIP_HKJ22BGX7</text>
<text text-anchor="middle" x="399" y="-367" font-family="sans" font-size="10.00" fill="#000000">suffix: R2.fastq.gz</text>
</g>
<!-- 10&#45;&gt;7 -->
<g id="edge13" class="edge">
<title>10&#45;&gt;7</title>
<path fill="none" stroke="#c0c0c0" stroke-width="2" d="M342.992,-359.9453C314.9625,-349.6586 281.097,-337.2302 252.9399,-326.8967"/>
<polygon fill="#c0c0c0" stroke="#c0c0c0" stroke-width="2" points="253.831,-323.4955 243.2373,-323.3359 251.4192,-330.0669 253.831,-323.4955"/>
</g>
<!-- 10&#45;&gt;8 -->
<g id="edge15" class="edge">
<title>10&#45;&gt;8</title>
<path fill="none" stroke="#c0c0c0" stroke-width="2" d="M379.7797,-359.7476C371.6798,-351.0021 362.1719,-340.7363 353.6479,-331.5329"/>
<polygon fill="#c0c0c0" stroke="#c0c0c0" stroke-width="2" points="356.1347,-329.0671 346.7718,-324.1087 350.999,-333.8237 356.1347,-329.0671"/>
</g>
</g>
</svg>
