<?xml version="1.0" encoding="UTF-8" standalone="no"?>
<!DOCTYPE svg PUBLIC "-//W3C//DTD SVG 1.1//EN"
 "http://www.w3.org/Graphics/SVG/1.1/DTD/svg11.dtd">
<!-- Generated by graphviz version 2.40.1 (20161225.0304)
 -->
<!-- Title: snakemake_dag Pages: 1 -->
<svg width="4688pt" height="523pt"
 viewBox="0.00 0.00 4688.00 523.00" xmlns="http://www.w3.org/2000/svg" xmlns:xlink="http://www.w3.org/1999/xlink">
<g id="graph0" class="graph" transform="scale(1 1) rotate(0) translate(4 519)">
<title>snakemake_dag</title>
<polygon fill="#ffffff" stroke="transparent" points="-4,4 -4,-519 4684,-519 4684,4 -4,4"/>
<!-- 0 -->
<g id="node1" class="node">
<title>0</title>
<path fill="none" stroke="#d8bc56" stroke-width="2" stroke-dasharray="5,2" d="M2889,-36C2889,-36 2813,-36 2813,-36 2807,-36 2801,-30 2801,-24 2801,-24 2801,-12 2801,-12 2801,-6 2807,0 2813,0 2813,0 2889,0 2889,0 2895,0 2901,-6 2901,-12 2901,-12 2901,-24 2901,-24 2901,-30 2895,-36 2889,-36"/>
<text text-anchor="middle" x="2851" y="-15.5" font-family="sans" font-size="10.00" fill="#000000">ChIPseq_pipeline</text>
</g>
<!-- 1 -->
<g id="node2" class="node">
<title>1</title>
<path fill="none" stroke="#68d856" stroke-width="2" stroke-dasharray="5,2" d="M3728,-438C3728,-438 3698,-438 3698,-438 3692,-438 3686,-432 3686,-426 3686,-426 3686,-414 3686,-414 3686,-408 3692,-402 3698,-402 3698,-402 3728,-402 3728,-402 3734,-402 3740,-408 3740,-414 3740,-414 3740,-426 3740,-426 3740,-432 3734,-438 3728,-438"/>
<text text-anchor="middle" x="3713" y="-417.5" font-family="sans" font-size="10.00" fill="#000000">BWA</text>
</g>
<!-- 1&#45;&gt;0 -->
<g id="edge1" class="edge">
<title>1&#45;&gt;0</title>
<path fill="none" stroke="#c0c0c0" stroke-width="2" d="M3740.1844,-419.3968C3807.5842,-417.28 3987.2638,-407.8259 4130,-366 4206.8878,-343.4696 4224.6561,-330.8147 4293,-289 4408.5431,-218.3075 4601.2064,-169.3284 4507,-72 4478.7021,-42.7643 3206.2046,-23.0169 2911.489,-18.8305"/>
<polygon fill="#c0c0c0" stroke="#c0c0c0" stroke-width="2" points="2911.4697,-15.33 2901.4212,-18.6881 2911.3707,-22.3293 2911.4697,-15.33"/>
</g>
<!-- 3 -->
<g id="node4" class="node">
<title>3</title>
<path fill="none" stroke="#56d8d0" stroke-width="2" stroke-dasharray="5,2" d="M4605.5,-289C4605.5,-289 4522.5,-289 4522.5,-289 4516.5,-289 4510.5,-283 4510.5,-277 4510.5,-277 4510.5,-260 4510.5,-260 4510.5,-254 4516.5,-248 4522.5,-248 4522.5,-248 4605.5,-248 4605.5,-248 4611.5,-248 4617.5,-254 4617.5,-260 4617.5,-260 4617.5,-277 4617.5,-277 4617.5,-283 4611.5,-289 4605.5,-289"/>
<text text-anchor="middle" x="4564" y="-277" font-family="sans" font-size="10.00" fill="#000000">makeBigWig</text>
<text text-anchor="middle" x="4564" y="-266" font-family="sans" font-size="10.00" fill="#000000">bin_size: 25</text>
<text text-anchor="middle" x="4564" y="-255" font-family="sans" font-size="10.00" fill="#000000">norm_type: scaled</text>
</g>
<!-- 1&#45;&gt;3 -->
<g id="edge33" class="edge">
<title>1&#45;&gt;3</title>
<path fill="none" stroke="#c0c0c0" stroke-width="2" d="M3740.4118,-419.5037C3871.2982,-416.9488 4429.0851,-403.8986 4496,-366 4522.397,-351.0495 4540.9002,-321.1203 4551.8712,-298.3441"/>
<polygon fill="#c0c0c0" stroke="#c0c0c0" stroke-width="2" points="4555.1299,-299.6345 4556.113,-289.0853 4548.7659,-296.7189 4555.1299,-299.6345"/>
</g>
<!-- 4 -->
<g id="node5" class="node">
<title>4</title>
<path fill="none" stroke="#56d8d0" stroke-width="2" stroke-dasharray="5,2" d="M4668,-366C4668,-366 4596,-366 4596,-366 4590,-366 4584,-360 4584,-354 4584,-354 4584,-337 4584,-337 4584,-331 4590,-325 4596,-325 4596,-325 4668,-325 4668,-325 4674,-325 4680,-331 4680,-337 4680,-337 4680,-354 4680,-354 4680,-360 4674,-366 4668,-366"/>
<text text-anchor="middle" x="4632" y="-354" font-family="sans" font-size="10.00" fill="#000000">makeBigWig</text>
<text text-anchor="middle" x="4632" y="-343" font-family="sans" font-size="10.00" fill="#000000">bin_size: 25</text>
<text text-anchor="middle" x="4632" y="-332" font-family="sans" font-size="10.00" fill="#000000">norm_type: RPM</text>
</g>
<!-- 1&#45;&gt;4 -->
<g id="edge34" class="edge">
<title>1&#45;&gt;4</title>
<path fill="none" stroke="#c0c0c0" stroke-width="2" d="M3740.3495,-418.9832C3866.5519,-414.1789 4393.4011,-392.8608 4556,-366 4561.7873,-365.044 4567.7704,-363.8322 4573.7209,-362.4774"/>
<polygon fill="#c0c0c0" stroke="#c0c0c0" stroke-width="2" points="4574.762,-365.8268 4583.6642,-360.0822 4573.1226,-359.0215 4574.762,-365.8268"/>
</g>
<!-- 7 -->
<g id="node8" class="node">
<title>7</title>
<path fill="none" stroke="#d87556" stroke-width="2" stroke-dasharray="5,2" d="M4010,-363.5C4010,-363.5 3938,-363.5 3938,-363.5 3932,-363.5 3926,-357.5 3926,-351.5 3926,-351.5 3926,-339.5 3926,-339.5 3926,-333.5 3932,-327.5 3938,-327.5 3938,-327.5 4010,-327.5 4010,-327.5 4016,-327.5 4022,-333.5 4022,-339.5 4022,-339.5 4022,-351.5 4022,-351.5 4022,-357.5 4016,-363.5 4010,-363.5"/>
<text text-anchor="middle" x="3974" y="-343" font-family="sans" font-size="10.00" fill="#000000">crossCorrelation</text>
</g>
<!-- 1&#45;&gt;7 -->
<g id="edge37" class="edge">
<title>1&#45;&gt;7</title>
<path fill="none" stroke="#c0c0c0" stroke-width="2" d="M3740.4383,-412.168C3781.8374,-400.351 3861.2284,-377.6896 3915.8677,-362.0933"/>
<polygon fill="#c0c0c0" stroke="#c0c0c0" stroke-width="2" points="3917.1121,-365.378 3925.7673,-359.2676 3915.1907,-358.6468 3917.1121,-365.378"/>
</g>
<!-- 8 -->
<g id="node9" class="node">
<title>8</title>
<path fill="none" stroke="#d85656" stroke-width="2" stroke-dasharray="5,2" d="M994.5,-366C994.5,-366 911.5,-366 911.5,-366 905.5,-366 899.5,-360 899.5,-354 899.5,-354 899.5,-337 899.5,-337 899.5,-331 905.5,-325 911.5,-325 911.5,-325 994.5,-325 994.5,-325 1000.5,-325 1006.5,-331 1006.5,-337 1006.5,-337 1006.5,-354 1006.5,-354 1006.5,-360 1000.5,-366 994.5,-366"/>
<text text-anchor="middle" x="953" y="-354" font-family="sans" font-size="10.00" fill="#000000">macs2</text>
<text text-anchor="middle" x="953" y="-343" font-family="sans" font-size="10.00" fill="#000000">cutoff: 0.05</text>
<text text-anchor="middle" x="953" y="-332" font-family="sans" font-size="10.00" fill="#000000">peak_type: narrow</text>
</g>
<!-- 1&#45;&gt;8 -->
<g id="edge38" class="edge">
<title>1&#45;&gt;8</title>
<path fill="none" stroke="#c0c0c0" stroke-width="2" d="M3685.7596,-419.334C3506.3091,-414.9378 2475.0828,-389.5412 1635,-366 1407.7637,-359.6323 1137.9639,-351.2914 1017.1111,-347.5141"/>
<polygon fill="#c0c0c0" stroke="#c0c0c0" stroke-width="2" points="1017.0329,-344.01 1006.9284,-347.1956 1016.814,-351.0066 1017.0329,-344.01"/>
</g>
<!-- 10 -->
<g id="node11" class="node">
<title>10</title>
<path fill="none" stroke="#d85656" stroke-width="2" stroke-dasharray="5,2" d="M3467.5,-366C3467.5,-366 3384.5,-366 3384.5,-366 3378.5,-366 3372.5,-360 3372.5,-354 3372.5,-354 3372.5,-337 3372.5,-337 3372.5,-331 3378.5,-325 3384.5,-325 3384.5,-325 3467.5,-325 3467.5,-325 3473.5,-325 3479.5,-331 3479.5,-337 3479.5,-337 3479.5,-354 3479.5,-354 3479.5,-360 3473.5,-366 3467.5,-366"/>
<text text-anchor="middle" x="3426" y="-354" font-family="sans" font-size="10.00" fill="#000000">macs2</text>
<text text-anchor="middle" x="3426" y="-343" font-family="sans" font-size="10.00" fill="#000000">cutoff: 0.01</text>
<text text-anchor="middle" x="3426" y="-332" font-family="sans" font-size="10.00" fill="#000000">peak_type: narrow</text>
</g>
<!-- 1&#45;&gt;10 -->
<g id="edge41" class="edge">
<title>1&#45;&gt;10</title>
<path fill="none" stroke="#c0c0c0" stroke-width="2" d="M3685.9997,-412.9912C3641.3884,-401.4109 3551.1159,-377.9778 3489.5994,-362.0093"/>
<polygon fill="#c0c0c0" stroke="#c0c0c0" stroke-width="2" points="3490.1644,-358.54 3479.6058,-359.4151 3488.4056,-365.3154 3490.1644,-358.54"/>
</g>
<!-- 14 -->
<g id="node15" class="node">
<title>14</title>
<path fill="none" stroke="#56d88a" stroke-width="2" stroke-dasharray="5,2" d="M928,-204C928,-204 826,-204 826,-204 820,-204 814,-198 814,-192 814,-192 814,-180 814,-180 814,-174 820,-168 826,-168 826,-168 928,-168 928,-168 934,-168 940,-174 940,-180 940,-180 940,-192 940,-192 940,-198 934,-204 928,-204"/>
<text text-anchor="middle" x="877" y="-189" font-family="sans" font-size="10.00" fill="#000000">rose</text>
<text text-anchor="middle" x="877" y="-178" font-family="sans" font-size="10.00" fill="#000000">stitch_distance: 12500</text>
</g>
<!-- 1&#45;&gt;14 -->
<g id="edge48" class="edge">
<title>1&#45;&gt;14</title>
<path fill="none" stroke="#c0c0c0" stroke-width="2" d="M3685.8136,-419.8891C3479.8125,-418.9525 2162.0193,-411.2429 1766,-366 1459.3546,-330.9676 1101.1545,-244.0686 950.0851,-205.257"/>
<polygon fill="#c0c0c0" stroke="#c0c0c0" stroke-width="2" points="950.5599,-201.7651 940.0029,-202.659 948.8132,-208.5437 950.5599,-201.7651"/>
</g>
<!-- 15 -->
<g id="node16" class="node">
<title>15</title>
<path fill="none" stroke="#56d88a" stroke-width="2" stroke-dasharray="5,2" d="M3764,-204C3764,-204 3662,-204 3662,-204 3656,-204 3650,-198 3650,-192 3650,-192 3650,-180 3650,-180 3650,-174 3656,-168 3662,-168 3662,-168 3764,-168 3764,-168 3770,-168 3776,-174 3776,-180 3776,-180 3776,-192 3776,-192 3776,-198 3770,-204 3764,-204"/>
<text text-anchor="middle" x="3713" y="-189" font-family="sans" font-size="10.00" fill="#000000">rose</text>
<text text-anchor="middle" x="3713" y="-178" font-family="sans" font-size="10.00" fill="#000000">stitch_distance: 12500</text>
</g>
<!-- 1&#45;&gt;15 -->
<g id="edge51" class="edge">
<title>1&#45;&gt;15</title>
<path fill="none" stroke="#c0c0c0" stroke-width="2" d="M3713,-401.6384C3713,-360.9713 3713,-263.069 3713,-214.4225"/>
<polygon fill="#c0c0c0" stroke="#c0c0c0" stroke-width="2" points="3716.5001,-214.2763 3713,-204.2763 3709.5001,-214.2763 3716.5001,-214.2763"/>
</g>
<!-- 29 -->
<g id="node30" class="node">
<title>29</title>
<path fill="none" stroke="#88d856" stroke-width="2" stroke-dasharray="5,2" d="M1277.5,-118.5C1277.5,-118.5 1146.5,-118.5 1146.5,-118.5 1140.5,-118.5 1134.5,-112.5 1134.5,-106.5 1134.5,-106.5 1134.5,-89.5 1134.5,-89.5 1134.5,-83.5 1140.5,-77.5 1146.5,-77.5 1146.5,-77.5 1277.5,-77.5 1277.5,-77.5 1283.5,-77.5 1289.5,-83.5 1289.5,-89.5 1289.5,-89.5 1289.5,-106.5 1289.5,-106.5 1289.5,-112.5 1283.5,-118.5 1277.5,-118.5"/>
<text text-anchor="middle" x="1212" y="-106.5" font-family="sans" font-size="10.00" fill="#000000">coltron</text>
<text text-anchor="middle" x="1212" y="-95.5" font-family="sans" font-size="10.00" fill="#000000">macs_dir: MACS_Out_q_0.05</text>
<text text-anchor="middle" x="1212" y="-84.5" font-family="sans" font-size="10.00" fill="#000000">rose_dir: ROSE_out_12500</text>
</g>
<!-- 1&#45;&gt;29 -->
<g id="edge71" class="edge">
<title>1&#45;&gt;29</title>
<path fill="none" stroke="#c0c0c0" stroke-width="2" d="M3685.8322,-416.8058C3524.6198,-397.8355 2677.1559,-297.8864 1986,-212 1680.5215,-174.0398 1600.1357,-187.8388 1299,-124 1294.9229,-123.1357 1290.7601,-122.1726 1286.5727,-121.1404"/>
<polygon fill="#c0c0c0" stroke="#c0c0c0" stroke-width="2" points="1287.3432,-117.7247 1276.7863,-118.6202 1285.5975,-124.5035 1287.3432,-117.7247"/>
</g>
<!-- 30 -->
<g id="node31" class="node">
<title>30</title>
<path fill="none" stroke="#88d856" stroke-width="2" stroke-dasharray="5,2" d="M3597.5,-118.5C3597.5,-118.5 3466.5,-118.5 3466.5,-118.5 3460.5,-118.5 3454.5,-112.5 3454.5,-106.5 3454.5,-106.5 3454.5,-89.5 3454.5,-89.5 3454.5,-83.5 3460.5,-77.5 3466.5,-77.5 3466.5,-77.5 3597.5,-77.5 3597.5,-77.5 3603.5,-77.5 3609.5,-83.5 3609.5,-89.5 3609.5,-89.5 3609.5,-106.5 3609.5,-106.5 3609.5,-112.5 3603.5,-118.5 3597.5,-118.5"/>
<text text-anchor="middle" x="3532" y="-106.5" font-family="sans" font-size="10.00" fill="#000000">coltron</text>
<text text-anchor="middle" x="3532" y="-95.5" font-family="sans" font-size="10.00" fill="#000000">macs_dir: MACS_Out_q_0.01</text>
<text text-anchor="middle" x="3532" y="-84.5" font-family="sans" font-size="10.00" fill="#000000">rose_dir: ROSE_out_12500</text>
</g>
<!-- 1&#45;&gt;30 -->
<g id="edge74" class="edge">
<title>1&#45;&gt;30</title>
<path fill="none" stroke="#c0c0c0" stroke-width="2" d="M3702.7501,-401.7653C3672.8844,-348.6341 3585.7251,-193.5772 3548.8203,-127.9234"/>
<polygon fill="#c0c0c0" stroke="#c0c0c0" stroke-width="2" points="3551.7039,-125.9104 3543.7528,-118.9082 3545.6018,-129.3405 3551.7039,-125.9104"/>
</g>
<!-- 33 -->
<g id="node34" class="node">
<title>33</title>
<path fill="none" stroke="#ced856" stroke-width="2" stroke-dasharray="5,2" d="M4349,-204C4349,-204 4299,-204 4299,-204 4293,-204 4287,-198 4287,-192 4287,-192 4287,-180 4287,-180 4287,-174 4293,-168 4299,-168 4299,-168 4349,-168 4349,-168 4355,-168 4361,-174 4361,-180 4361,-180 4361,-192 4361,-192 4361,-198 4355,-204 4349,-204"/>
<text text-anchor="middle" x="4324" y="-189" font-family="sans" font-size="10.00" fill="#000000">makeTDF</text>
<text text-anchor="middle" x="4324" y="-178" font-family="sans" font-size="10.00" fill="#000000">bin_size: 25</text>
</g>
<!-- 1&#45;&gt;33 -->
<g id="edge76" class="edge">
<title>1&#45;&gt;33</title>
<path fill="none" stroke="#c0c0c0" stroke-width="2" d="M3740.188,-416.6114C3839.1398,-403.819 4178.6382,-355.7728 4262,-289 4286.6591,-269.2481 4303.834,-236.8416 4313.7536,-213.6522"/>
<polygon fill="#c0c0c0" stroke="#c0c0c0" stroke-width="2" points="4317.0153,-214.9228 4317.5614,-204.342 4310.5363,-212.2729 4317.0153,-214.9228"/>
</g>
<!-- 2 -->
<g id="node3" class="node">
<title>2</title>
<path fill="none" stroke="#68d856" stroke-width="2" stroke-dasharray="5,2" d="M968,-438C968,-438 938,-438 938,-438 932,-438 926,-432 926,-426 926,-426 926,-414 926,-414 926,-408 932,-402 938,-402 938,-402 968,-402 968,-402 974,-402 980,-408 980,-414 980,-414 980,-426 980,-426 980,-432 974,-438 968,-438"/>
<text text-anchor="middle" x="953" y="-417.5" font-family="sans" font-size="10.00" fill="#000000">BWA</text>
</g>
<!-- 2&#45;&gt;0 -->
<g id="edge2" class="edge">
<title>2&#45;&gt;0</title>
<path fill="none" stroke="#c0c0c0" stroke-width="2" d="M925.7605,-418.6236C770.0884,-410.4056 0,-364.8815 0,-268.5 0,-268.5 0,-268.5 0,-186 0,-128.5359 11.9928,-102.007 61,-72 121.2466,-35.1111 2388.9539,-20.6094 2790.533,-18.3282"/>
<polygon fill="#c0c0c0" stroke="#c0c0c0" stroke-width="2" points="2790.7924,-21.8268 2800.7724,-18.2704 2790.7528,-14.827 2790.7924,-21.8268"/>
</g>
<!-- 2&#45;&gt;8 -->
<g id="edge39" class="edge">
<title>2&#45;&gt;8</title>
<path fill="none" stroke="#c0c0c0" stroke-width="2" d="M953,-401.9656C953,-394.3118 953,-385.1674 953,-376.4898"/>
<polygon fill="#c0c0c0" stroke="#c0c0c0" stroke-width="2" points="956.5001,-376.2678 953,-366.2679 949.5001,-376.2679 956.5001,-376.2678"/>
</g>
<!-- 2&#45;&gt;10 -->
<g id="edge42" class="edge">
<title>2&#45;&gt;10</title>
<path fill="none" stroke="#c0c0c0" stroke-width="2" d="M980.35,-419.1761C1222.6385,-411.877 3001.4234,-358.2905 3362.2554,-347.4203"/>
<polygon fill="#c0c0c0" stroke="#c0c0c0" stroke-width="2" points="3362.3757,-350.9184 3372.2657,-347.1188 3362.1648,-343.9216 3362.3757,-350.9184"/>
</g>
<!-- 3&#45;&gt;0 -->
<g id="edge3" class="edge">
<title>3&#45;&gt;0</title>
<path fill="none" stroke="#c0c0c0" stroke-width="2" d="M4569.0521,-247.7363C4577.5583,-207.0993 4589.3361,-117.1036 4540,-72 4509.3221,-43.954 3208.6239,-23.2357 2911.1561,-18.8587"/>
<polygon fill="#c0c0c0" stroke="#c0c0c0" stroke-width="2" points="2911.0515,-15.3569 2901.0013,-18.7099 2910.9489,-22.3562 2911.0515,-15.3569"/>
</g>
<!-- 4&#45;&gt;0 -->
<g id="edge4" class="edge">
<title>4&#45;&gt;0</title>
<path fill="none" stroke="#c0c0c0" stroke-width="2" d="M4634.8991,-324.7511C4640.9674,-271.8306 4648.4167,-131.7976 4568,-72 4534.0743,-46.7729 3212.4902,-23.8594 2911.5538,-18.9621"/>
<polygon fill="#c0c0c0" stroke="#c0c0c0" stroke-width="2" points="2911.3384,-15.4583 2901.2829,-18.7955 2911.2248,-22.4573 2911.3384,-15.4583"/>
</g>
<!-- 5 -->
<g id="node6" class="node">
<title>5</title>
<path fill="none" stroke="#569ad8" stroke-width="2" stroke-dasharray="5,2" d="M4485.5,-116C4485.5,-116 4402.5,-116 4402.5,-116 4396.5,-116 4390.5,-110 4390.5,-104 4390.5,-104 4390.5,-92 4390.5,-92 4390.5,-86 4396.5,-80 4402.5,-80 4402.5,-80 4485.5,-80 4485.5,-80 4491.5,-80 4497.5,-86 4497.5,-92 4497.5,-92 4497.5,-104 4497.5,-104 4497.5,-110 4491.5,-116 4485.5,-116"/>
<text text-anchor="middle" x="4444" y="-101" font-family="sans" font-size="10.00" fill="#000000">makeNormTDF</text>
<text text-anchor="middle" x="4444" y="-90" font-family="sans" font-size="10.00" fill="#000000">norm_type: scaled</text>
</g>
<!-- 5&#45;&gt;0 -->
<g id="edge5" class="edge">
<title>5&#45;&gt;0</title>
<path fill="none" stroke="#c0c0c0" stroke-width="2" d="M4406.3881,-79.9404C4398.1919,-76.7288 4389.4418,-73.8288 4381,-72 4235.8475,-40.5543 3177.8328,-22.8546 2911.6488,-18.8689"/>
<polygon fill="#c0c0c0" stroke="#c0c0c0" stroke-width="2" points="2911.4594,-15.3658 2901.4084,-18.7165 2911.3551,-22.365 2911.4594,-15.3658"/>
</g>
<!-- 6 -->
<g id="node7" class="node">
<title>6</title>
<path fill="none" stroke="#569ad8" stroke-width="2" stroke-dasharray="5,2" d="M4360,-116C4360,-116 4288,-116 4288,-116 4282,-116 4276,-110 4276,-104 4276,-104 4276,-92 4276,-92 4276,-86 4282,-80 4288,-80 4288,-80 4360,-80 4360,-80 4366,-80 4372,-86 4372,-92 4372,-92 4372,-104 4372,-104 4372,-110 4366,-116 4360,-116"/>
<text text-anchor="middle" x="4324" y="-101" font-family="sans" font-size="10.00" fill="#000000">makeNormTDF</text>
<text text-anchor="middle" x="4324" y="-90" font-family="sans" font-size="10.00" fill="#000000">norm_type: RPM</text>
</g>
<!-- 6&#45;&gt;0 -->
<g id="edge6" class="edge">
<title>6&#45;&gt;0</title>
<path fill="none" stroke="#c0c0c0" stroke-width="2" d="M4287.0031,-79.9575C4278.9358,-76.7448 4270.3195,-73.84 4262,-72 4129.0531,-42.5962 3164.1414,-23.5576 2911.4429,-19.0393"/>
<polygon fill="#c0c0c0" stroke="#c0c0c0" stroke-width="2" points="2911.41,-15.5383 2901.3493,-18.8598 2911.2854,-22.5372 2911.41,-15.5383"/>
</g>
<!-- 7&#45;&gt;0 -->
<g id="edge7" class="edge">
<title>7&#45;&gt;0</title>
<path fill="none" stroke="#c0c0c0" stroke-width="2" d="M4021.6423,-327.4716C4088.7815,-300.9853 4205.6812,-250.5292 4229,-212 4261.6873,-157.9914 4254.3961,-111.3117 4205,-72 4153.766,-31.2257 3167.3332,-20.5288 2911.2946,-18.4343"/>
<polygon fill="#c0c0c0" stroke="#c0c0c0" stroke-width="2" points="2911.1008,-14.9328 2901.0729,-18.3521 2911.0444,-21.9325 2911.1008,-14.9328"/>
</g>
<!-- 8&#45;&gt;0 -->
<g id="edge8" class="edge">
<title>8&#45;&gt;0</title>
<path fill="none" stroke="#c0c0c0" stroke-width="2" d="M899.4681,-341.6266C714.5957,-327.705 111.3244,-277.5357 57,-212 30.5876,-180.1367 84.8378,-72.8581 86,-72 142.3071,-30.4266 2391.2992,-19.7825 2790.6772,-18.2187"/>
<polygon fill="#c0c0c0" stroke="#c0c0c0" stroke-width="2" points="2790.8757,-21.7181 2800.862,-18.1792 2790.8485,-14.7181 2790.8757,-21.7181"/>
</g>
<!-- 9 -->
<g id="node10" class="node">
<title>9</title>
<path fill="none" stroke="#56d8a9" stroke-width="2" stroke-dasharray="5,2" d="M554,-286.5C554,-286.5 486,-286.5 486,-286.5 480,-286.5 474,-280.5 474,-274.5 474,-274.5 474,-262.5 474,-262.5 474,-256.5 480,-250.5 486,-250.5 486,-250.5 554,-250.5 554,-250.5 560,-250.5 566,-256.5 566,-262.5 566,-262.5 566,-274.5 566,-274.5 566,-280.5 560,-286.5 554,-286.5"/>
<text text-anchor="middle" x="520" y="-266" font-family="sans" font-size="10.00" fill="#000000">prepareSummit</text>
</g>
<!-- 8&#45;&gt;9 -->
<g id="edge40" class="edge">
<title>8&#45;&gt;9</title>
<path fill="none" stroke="#c0c0c0" stroke-width="2" d="M899.4714,-335.9811C817.0655,-321.3269 659.8904,-293.3766 576.011,-278.4604"/>
<polygon fill="#c0c0c0" stroke="#c0c0c0" stroke-width="2" points="576.6134,-275.0127 566.1551,-276.7077 575.3878,-281.9046 576.6134,-275.0127"/>
</g>
<!-- 12 -->
<g id="node13" class="node">
<title>12</title>
<path fill="none" stroke="#afd856" stroke-width="2" stroke-dasharray="5,2" d="M1064,-286.5C1064,-286.5 994,-286.5 994,-286.5 988,-286.5 982,-280.5 982,-274.5 982,-274.5 982,-262.5 982,-262.5 982,-256.5 988,-250.5 994,-250.5 994,-250.5 1064,-250.5 1064,-250.5 1070,-250.5 1076,-256.5 1076,-262.5 1076,-262.5 1076,-274.5 1076,-274.5 1076,-280.5 1070,-286.5 1064,-286.5"/>
<text text-anchor="middle" x="1029" y="-266" font-family="sans" font-size="10.00" fill="#000000">peakAnnotation</text>
</g>
<!-- 8&#45;&gt;12 -->
<g id="edge44" class="edge">
<title>8&#45;&gt;12</title>
<path fill="none" stroke="#c0c0c0" stroke-width="2" d="M973.3666,-324.8654C982.7567,-315.3517 993.9927,-303.9679 1003.9009,-293.9294"/>
<polygon fill="#c0c0c0" stroke="#c0c0c0" stroke-width="2" points="1006.6327,-296.1441 1011.1664,-286.5683 1001.6506,-291.2268 1006.6327,-296.1441"/>
</g>
<!-- 8&#45;&gt;14 -->
<g id="edge46" class="edge">
<title>8&#45;&gt;14</title>
<path fill="none" stroke="#c0c0c0" stroke-width="2" d="M943.2199,-324.9747C929.7044,-296.6098 905.2775,-245.3456 890.1681,-213.6358"/>
<polygon fill="#c0c0c0" stroke="#c0c0c0" stroke-width="2" points="893.2618,-211.9916 885.8005,-204.4696 886.9425,-215.0027 893.2618,-211.9916"/>
</g>
<!-- 22 -->
<g id="node23" class="node">
<title>22</title>
<path fill="none" stroke="#d89c56" stroke-width="2" stroke-dasharray="5,2" d="M2084.5,-124C2084.5,-124 1747.5,-124 1747.5,-124 1741.5,-124 1735.5,-118 1735.5,-112 1735.5,-112 1735.5,-84 1735.5,-84 1735.5,-78 1741.5,-72 1747.5,-72 1747.5,-72 2084.5,-72 2084.5,-72 2090.5,-72 2096.5,-78 2096.5,-84 2096.5,-84 2096.5,-112 2096.5,-112 2096.5,-118 2090.5,-124 2084.5,-124"/>
<text text-anchor="middle" x="1916" y="-112" font-family="sans" font-size="10.00" fill="#000000">EDEN</text>
<text text-anchor="middle" x="1916" y="-101" font-family="sans" font-size="10.00" fill="#000000">TPM_cutoff: 4</text>
<text text-anchor="middle" x="1916" y="-90" font-family="sans" font-size="10.00" fill="#000000">folders: MACS_Out_q_0.05</text>
<text text-anchor="middle" x="1916" y="-79" font-family="sans" font-size="10.00" fill="#000000">prefix: RH4_D6_H3K27ac_018_C_HWC77BGXY_peaks.narrowPeak.nobl</text>
</g>
<!-- 8&#45;&gt;22 -->
<g id="edge58" class="edge">
<title>8&#45;&gt;22</title>
<path fill="none" stroke="#c0c0c0" stroke-width="2" d="M1006.8385,-331.663C1159.5855,-292.4056 1597.9913,-179.7312 1805.0994,-126.5025"/>
<polygon fill="#c0c0c0" stroke="#c0c0c0" stroke-width="2" points="1805.9708,-129.8924 1814.7848,-124.0132 1804.2283,-123.1127 1805.9708,-129.8924"/>
</g>
<!-- 9&#45;&gt;0 -->
<g id="edge9" class="edge">
<title>9&#45;&gt;0</title>
<path fill="none" stroke="#c0c0c0" stroke-width="2" d="M473.6613,-251.9751C372.026,-215.6281 138.1179,-131.374 133,-124 119.8226,-105.0137 116.8211,-88.5035 133,-72 181.1395,-22.8946 2395.4815,-18.4436 2790.9033,-18.0402"/>
<polygon fill="#c0c0c0" stroke="#c0c0c0" stroke-width="2" points="2790.9936,-21.5402 2800.9901,-18.0304 2790.9867,-14.5402 2790.9936,-21.5402"/>
</g>
<!-- 9&#45;&gt;14 -->
<g id="edge47" class="edge">
<title>9&#45;&gt;14</title>
<path fill="none" stroke="#c0c0c0" stroke-width="2" d="M566.3055,-257.7991C626.6685,-243.8497 732.9172,-219.2964 804.1312,-202.8394"/>
<polygon fill="#c0c0c0" stroke="#c0c0c0" stroke-width="2" points="804.9837,-206.2347 813.9389,-200.5729 803.4076,-199.4145 804.9837,-206.2347"/>
</g>
<!-- 16 -->
<g id="node17" class="node">
<title>16</title>
<path fill="none" stroke="#56c1d8" stroke-width="2" stroke-dasharray="5,2" d="M198,-204C198,-204 78,-204 78,-204 72,-204 66,-198 66,-192 66,-192 66,-180 66,-180 66,-174 72,-168 78,-168 78,-168 198,-168 198,-168 204,-168 210,-174 210,-180 210,-180 210,-192 210,-192 210,-198 204,-204 198,-204"/>
<text text-anchor="middle" x="138" y="-189" font-family="sans" font-size="10.00" fill="#000000">findMotif</text>
<text text-anchor="middle" x="138" y="-178" font-family="sans" font-size="10.00" fill="#000000">folders: MACS_Out_q_0.05</text>
</g>
<!-- 9&#45;&gt;16 -->
<g id="edge52" class="edge">
<title>9&#45;&gt;16</title>
<path fill="none" stroke="#c0c0c0" stroke-width="2" d="M473.786,-261.2242C415.2647,-251.6576 311.509,-233.5169 224,-212 217.5886,-210.4236 210.9463,-208.6576 204.3247,-206.808"/>
<polygon fill="#c0c0c0" stroke="#c0c0c0" stroke-width="2" points="205.244,-203.4306 194.6673,-204.0504 203.322,-210.1616 205.244,-203.4306"/>
</g>
<!-- 10&#45;&gt;0 -->
<g id="edge10" class="edge">
<title>10&#45;&gt;0</title>
<path fill="none" stroke="#c0c0c0" stroke-width="2" d="M3372.2865,-327.7885C3284.488,-296.9115 3107.9222,-226.5772 2987,-124 2965.1715,-105.4831 2970.4884,-90.9105 2949,-72 2935.2247,-59.8774 2918.2724,-49.3487 2902.3631,-40.8883"/>
<polygon fill="#c0c0c0" stroke="#c0c0c0" stroke-width="2" points="2903.642,-37.6103 2893.1483,-36.1495 2900.4406,-43.8354 2903.642,-37.6103"/>
</g>
<!-- 11 -->
<g id="node12" class="node">
<title>11</title>
<path fill="none" stroke="#56d8a9" stroke-width="2" stroke-dasharray="5,2" d="M3966,-286.5C3966,-286.5 3898,-286.5 3898,-286.5 3892,-286.5 3886,-280.5 3886,-274.5 3886,-274.5 3886,-262.5 3886,-262.5 3886,-256.5 3892,-250.5 3898,-250.5 3898,-250.5 3966,-250.5 3966,-250.5 3972,-250.5 3978,-256.5 3978,-262.5 3978,-262.5 3978,-274.5 3978,-274.5 3978,-280.5 3972,-286.5 3966,-286.5"/>
<text text-anchor="middle" x="3932" y="-266" font-family="sans" font-size="10.00" fill="#000000">prepareSummit</text>
</g>
<!-- 10&#45;&gt;11 -->
<g id="edge43" class="edge">
<title>10&#45;&gt;11</title>
<path fill="none" stroke="#c0c0c0" stroke-width="2" d="M3479.6718,-337.3325C3576.0905,-322.6601 3777.6949,-291.9812 3875.8702,-277.0415"/>
<polygon fill="#c0c0c0" stroke="#c0c0c0" stroke-width="2" points="3876.5358,-280.4806 3885.8954,-275.5159 3875.4826,-273.5603 3876.5358,-280.4806"/>
</g>
<!-- 13 -->
<g id="node14" class="node">
<title>13</title>
<path fill="none" stroke="#afd856" stroke-width="2" stroke-dasharray="5,2" d="M3461,-286.5C3461,-286.5 3391,-286.5 3391,-286.5 3385,-286.5 3379,-280.5 3379,-274.5 3379,-274.5 3379,-262.5 3379,-262.5 3379,-256.5 3385,-250.5 3391,-250.5 3391,-250.5 3461,-250.5 3461,-250.5 3467,-250.5 3473,-256.5 3473,-262.5 3473,-262.5 3473,-274.5 3473,-274.5 3473,-280.5 3467,-286.5 3461,-286.5"/>
<text text-anchor="middle" x="3426" y="-266" font-family="sans" font-size="10.00" fill="#000000">peakAnnotation</text>
</g>
<!-- 10&#45;&gt;13 -->
<g id="edge45" class="edge">
<title>10&#45;&gt;13</title>
<path fill="none" stroke="#c0c0c0" stroke-width="2" d="M3426,-324.8654C3426,-316.1912 3426,-305.9623 3426,-296.6158"/>
<polygon fill="#c0c0c0" stroke="#c0c0c0" stroke-width="2" points="3429.5001,-296.5682 3426,-286.5683 3422.5001,-296.5683 3429.5001,-296.5682"/>
</g>
<!-- 10&#45;&gt;15 -->
<g id="edge49" class="edge">
<title>10&#45;&gt;15</title>
<path fill="none" stroke="#c0c0c0" stroke-width="2" d="M3462.9327,-324.9747C3516.425,-295.2464 3615.1783,-240.3643 3671.2486,-209.2033"/>
<polygon fill="#c0c0c0" stroke="#c0c0c0" stroke-width="2" points="3673.1603,-212.1451 3680.2009,-204.2281 3669.7598,-206.0265 3673.1603,-212.1451"/>
</g>
<!-- 25 -->
<g id="node26" class="node">
<title>25</title>
<path fill="none" stroke="#d89c56" stroke-width="2" stroke-dasharray="5,2" d="M2500.5,-124C2500.5,-124 2163.5,-124 2163.5,-124 2157.5,-124 2151.5,-118 2151.5,-112 2151.5,-112 2151.5,-84 2151.5,-84 2151.5,-78 2157.5,-72 2163.5,-72 2163.5,-72 2500.5,-72 2500.5,-72 2506.5,-72 2512.5,-78 2512.5,-84 2512.5,-84 2512.5,-112 2512.5,-112 2512.5,-118 2506.5,-124 2500.5,-124"/>
<text text-anchor="middle" x="2332" y="-112" font-family="sans" font-size="10.00" fill="#000000">EDEN</text>
<text text-anchor="middle" x="2332" y="-101" font-family="sans" font-size="10.00" fill="#000000">TPM_cutoff: 4</text>
<text text-anchor="middle" x="2332" y="-90" font-family="sans" font-size="10.00" fill="#000000">folders: MACS_Out_q_0.01</text>
<text text-anchor="middle" x="2332" y="-79" font-family="sans" font-size="10.00" fill="#000000">prefix: RH4_D6_H3K27ac_018_C_HWC77BGXY_peaks.narrowPeak.nobl</text>
</g>
<!-- 10&#45;&gt;25 -->
<g id="edge64" class="edge">
<title>10&#45;&gt;25</title>
<path fill="none" stroke="#c0c0c0" stroke-width="2" d="M3372.4035,-342.2163C3284.3212,-336.1224 3103.7754,-320.6942 2954,-289 2755.4058,-246.9752 2529.1394,-169.8375 2411.9026,-127.5885"/>
<polygon fill="#c0c0c0" stroke="#c0c0c0" stroke-width="2" points="2412.871,-124.217 2402.2767,-124.1096 2410.4917,-130.8003 2412.871,-124.217"/>
</g>
<!-- 11&#45;&gt;0 -->
<g id="edge11" class="edge">
<title>11&#45;&gt;0</title>
<path fill="none" stroke="#c0c0c0" stroke-width="2" d="M3952.1392,-250.3457C3977.7628,-227.7211 4023.8822,-188.56 4067,-160 4095.1824,-141.3328 4116.6528,-153.0136 4134,-124 4145.8599,-104.164 4149.9947,-88.6821 4134,-72 4091.2435,-27.4061 3160.3917,-19.5513 2911.653,-18.2469"/>
<polygon fill="#c0c0c0" stroke="#c0c0c0" stroke-width="2" points="2911.3792,-14.7455 2901.3616,-18.1946 2911.3436,-21.7454 2911.3792,-14.7455"/>
</g>
<!-- 11&#45;&gt;15 -->
<g id="edge50" class="edge">
<title>11&#45;&gt;15</title>
<path fill="none" stroke="#c0c0c0" stroke-width="2" d="M3885.8233,-251.1047C3852.1855,-238.4329 3806.4005,-221.1851 3770.4068,-207.6258"/>
<polygon fill="#c0c0c0" stroke="#c0c0c0" stroke-width="2" points="3771.5995,-204.3351 3761.0076,-204.085 3769.1317,-210.8857 3771.5995,-204.3351"/>
</g>
<!-- 19 -->
<g id="node20" class="node">
<title>19</title>
<path fill="none" stroke="#56c1d8" stroke-width="2" stroke-dasharray="5,2" d="M4208,-204C4208,-204 4088,-204 4088,-204 4082,-204 4076,-198 4076,-192 4076,-192 4076,-180 4076,-180 4076,-174 4082,-168 4088,-168 4088,-168 4208,-168 4208,-168 4214,-168 4220,-174 4220,-180 4220,-180 4220,-192 4220,-192 4220,-198 4214,-204 4208,-204"/>
<text text-anchor="middle" x="4148" y="-189" font-family="sans" font-size="10.00" fill="#000000">findMotif</text>
<text text-anchor="middle" x="4148" y="-178" font-family="sans" font-size="10.00" fill="#000000">folders: MACS_Out_q_0.01</text>
</g>
<!-- 11&#45;&gt;19 -->
<g id="edge55" class="edge">
<title>11&#45;&gt;19</title>
<path fill="none" stroke="#c0c0c0" stroke-width="2" d="M3978.0725,-250.9029C4011.0289,-238.3153 4055.6055,-221.2896 4090.8336,-207.8344"/>
<polygon fill="#c0c0c0" stroke="#c0c0c0" stroke-width="2" points="4092.4115,-210.9784 4100.5045,-204.1407 4089.9138,-204.4391 4092.4115,-210.9784"/>
</g>
<!-- 12&#45;&gt;0 -->
<g id="edge12" class="edge">
<title>12&#45;&gt;0</title>
<path fill="none" stroke="#c0c0c0" stroke-width="2" d="M1035.1337,-250.4011C1050.6216,-205.871 1092.3955,-93.0743 1125,-72 1196.3059,-25.9106 2493.2863,-19.1052 2790.6137,-18.1496"/>
<polygon fill="#c0c0c0" stroke="#c0c0c0" stroke-width="2" points="2790.7762,-21.6492 2800.7652,-18.118 2790.7543,-14.6492 2790.7762,-21.6492"/>
</g>
<!-- 13&#45;&gt;0 -->
<g id="edge13" class="edge">
<title>13&#45;&gt;0</title>
<path fill="none" stroke="#c0c0c0" stroke-width="2" d="M3430.8343,-250.4958C3440.0292,-211.7569 3455.0965,-120.117 3407,-72 3372.5036,-37.4889 3048.6125,-23.8657 2911.6679,-19.6175"/>
<polygon fill="#c0c0c0" stroke="#c0c0c0" stroke-width="2" points="2911.4556,-16.1095 2901.3539,-19.3043 2911.2431,-23.1063 2911.4556,-16.1095"/>
</g>
<!-- 14&#45;&gt;0 -->
<g id="edge14" class="edge">
<title>14&#45;&gt;0</title>
<path fill="none" stroke="#c0c0c0" stroke-width="2" d="M813.9262,-182.0084C694.4229,-173.8002 444.6056,-153.3054 419,-124 403.7936,-106.5963 402.8404,-88.5224 419,-72 461.7645,-28.2754 2419.5011,-19.4638 2790.6261,-18.1853"/>
<polygon fill="#c0c0c0" stroke="#c0c0c0" stroke-width="2" points="2790.898,-21.6845 2800.8861,-18.1505 2790.8742,-14.6845 2790.898,-21.6845"/>
</g>
<!-- 17 -->
<g id="node18" class="node">
<title>17</title>
<path fill="none" stroke="#56c1d8" stroke-width="2" stroke-dasharray="5,2" d="M646,-118.5C646,-118.5 440,-118.5 440,-118.5 434,-118.5 428,-112.5 428,-106.5 428,-106.5 428,-89.5 428,-89.5 428,-83.5 434,-77.5 440,-77.5 440,-77.5 646,-77.5 646,-77.5 652,-77.5 658,-83.5 658,-89.5 658,-89.5 658,-106.5 658,-106.5 658,-112.5 652,-118.5 646,-118.5"/>
<text text-anchor="middle" x="543" y="-106.5" font-family="sans" font-size="10.00" fill="#000000">findMotif</text>
<text text-anchor="middle" x="543" y="-95.5" font-family="sans" font-size="10.00" fill="#000000">folders: MACS_Out_q_0.05/ROSE_out_12500</text>
<text text-anchor="middle" x="543" y="-84.5" font-family="sans" font-size="10.00" fill="#000000">peak_type: super</text>
</g>
<!-- 14&#45;&gt;17 -->
<g id="edge53" class="edge">
<title>14&#45;&gt;17</title>
<path fill="none" stroke="#c0c0c0" stroke-width="2" d="M813.7845,-169.3444C762.0281,-155.708 688.2373,-136.2661 630.754,-121.1208"/>
<polygon fill="#c0c0c0" stroke="#c0c0c0" stroke-width="2" points="631.5105,-117.7008 620.9487,-118.5374 629.727,-124.4698 631.5105,-117.7008"/>
</g>
<!-- 18 -->
<g id="node19" class="node">
<title>18</title>
<path fill="none" stroke="#56c1d8" stroke-width="2" stroke-dasharray="5,2" d="M360,-118.5C360,-118.5 154,-118.5 154,-118.5 148,-118.5 142,-112.5 142,-106.5 142,-106.5 142,-89.5 142,-89.5 142,-83.5 148,-77.5 154,-77.5 154,-77.5 360,-77.5 360,-77.5 366,-77.5 372,-83.5 372,-89.5 372,-89.5 372,-106.5 372,-106.5 372,-112.5 366,-118.5 360,-118.5"/>
<text text-anchor="middle" x="257" y="-106.5" font-family="sans" font-size="10.00" fill="#000000">findMotif</text>
<text text-anchor="middle" x="257" y="-95.5" font-family="sans" font-size="10.00" fill="#000000">folders: MACS_Out_q_0.05/ROSE_out_12500</text>
<text text-anchor="middle" x="257" y="-84.5" font-family="sans" font-size="10.00" fill="#000000">peak_type: regular</text>
</g>
<!-- 14&#45;&gt;18 -->
<g id="edge54" class="edge">
<title>14&#45;&gt;18</title>
<path fill="none" stroke="#c0c0c0" stroke-width="2" d="M813.6168,-179.4984C719.866,-169.5422 538.8368,-149.0172 386,-124 379.2591,-122.8966 372.3331,-121.6963 365.3573,-120.4368"/>
<polygon fill="#c0c0c0" stroke="#c0c0c0" stroke-width="2" points="365.5852,-116.92 355.117,-118.5534 364.3189,-123.8046 365.5852,-116.92"/>
</g>
<!-- 23 -->
<g id="node24" class="node">
<title>23</title>
<path fill="none" stroke="#d89c56" stroke-width="2" stroke-dasharray="5,2" d="M1066,-124C1066,-124 688,-124 688,-124 682,-124 676,-118 676,-112 676,-112 676,-84 676,-84 676,-78 682,-72 688,-72 688,-72 1066,-72 1066,-72 1072,-72 1078,-78 1078,-84 1078,-84 1078,-112 1078,-112 1078,-118 1072,-124 1066,-124"/>
<text text-anchor="middle" x="877" y="-112" font-family="sans" font-size="10.00" fill="#000000">EDEN</text>
<text text-anchor="middle" x="877" y="-101" font-family="sans" font-size="10.00" fill="#000000">TPM_cutoff: 4</text>
<text text-anchor="middle" x="877" y="-90" font-family="sans" font-size="10.00" fill="#000000">folders: MACS_Out_q_0.05/ROSE_out_12500</text>
<text text-anchor="middle" x="877" y="-79" font-family="sans" font-size="10.00" fill="#000000">prefix: RH4_D6_H3K27ac_018_C_HWC77BGXY_peaks_AllEnhancers.table.super</text>
</g>
<!-- 14&#45;&gt;23 -->
<g id="edge60" class="edge">
<title>14&#45;&gt;23</title>
<path fill="none" stroke="#c0c0c0" stroke-width="2" d="M877,-167.7663C877,-158.1303 877,-145.9487 877,-134.4714"/>
<polygon fill="#c0c0c0" stroke="#c0c0c0" stroke-width="2" points="880.5001,-134.2223 877,-124.2223 873.5001,-134.2223 880.5001,-134.2223"/>
</g>
<!-- 24 -->
<g id="node25" class="node">
<title>24</title>
<path fill="none" stroke="#d89c56" stroke-width="2" stroke-dasharray="5,2" d="M1706,-124C1706,-124 1320,-124 1320,-124 1314,-124 1308,-118 1308,-112 1308,-112 1308,-84 1308,-84 1308,-78 1314,-72 1320,-72 1320,-72 1706,-72 1706,-72 1712,-72 1718,-78 1718,-84 1718,-84 1718,-112 1718,-112 1718,-118 1712,-124 1706,-124"/>
<text text-anchor="middle" x="1513" y="-112" font-family="sans" font-size="10.00" fill="#000000">EDEN</text>
<text text-anchor="middle" x="1513" y="-101" font-family="sans" font-size="10.00" fill="#000000">TPM_cutoff: 4</text>
<text text-anchor="middle" x="1513" y="-90" font-family="sans" font-size="10.00" fill="#000000">folders: MACS_Out_q_0.05/ROSE_out_12500</text>
<text text-anchor="middle" x="1513" y="-79" font-family="sans" font-size="10.00" fill="#000000">prefix: RH4_D6_H3K27ac_018_C_HWC77BGXY_peaks_AllEnhancers.table.regular</text>
</g>
<!-- 14&#45;&gt;24 -->
<g id="edge62" class="edge">
<title>14&#45;&gt;24</title>
<path fill="none" stroke="#c0c0c0" stroke-width="2" d="M940.0147,-177.281C1026.563,-165.3057 1186.1432,-143.2255 1314.9546,-125.4025"/>
<polygon fill="#c0c0c0" stroke="#c0c0c0" stroke-width="2" points="1315.5317,-128.8561 1324.9576,-124.0184 1314.5722,-121.9222 1315.5317,-128.8561"/>
</g>
<!-- 14&#45;&gt;29 -->
<g id="edge70" class="edge">
<title>14&#45;&gt;29</title>
<path fill="none" stroke="#c0c0c0" stroke-width="2" d="M940.0109,-169.4479C992.0594,-155.7754 1066.5197,-136.2157 1124.3774,-121.0173"/>
<polygon fill="#c0c0c0" stroke="#c0c0c0" stroke-width="2" points="1125.462,-124.3512 1134.2446,-118.4253 1123.6835,-117.5809 1125.462,-124.3512"/>
</g>
<!-- 15&#45;&gt;0 -->
<g id="edge15" class="edge">
<title>15&#45;&gt;0</title>
<path fill="none" stroke="#c0c0c0" stroke-width="2" d="M3776.3031,-180.7254C3883.9639,-171.1088 4093.2501,-149.3616 4115,-124 4130.0451,-106.4567 4130.9895,-88.6871 4115,-72 4072.9362,-28.1009 3157.8513,-19.743 2911.5753,-18.2865"/>
<polygon fill="#c0c0c0" stroke="#c0c0c0" stroke-width="2" points="2911.4016,-14.7855 2901.3816,-18.2279 2911.3613,-21.7854 2911.4016,-14.7855"/>
</g>
<!-- 20 -->
<g id="node21" class="node">
<title>20</title>
<path fill="none" stroke="#56c1d8" stroke-width="2" stroke-dasharray="5,2" d="M3846,-118.5C3846,-118.5 3640,-118.5 3640,-118.5 3634,-118.5 3628,-112.5 3628,-106.5 3628,-106.5 3628,-89.5 3628,-89.5 3628,-83.5 3634,-77.5 3640,-77.5 3640,-77.5 3846,-77.5 3846,-77.5 3852,-77.5 3858,-83.5 3858,-89.5 3858,-89.5 3858,-106.5 3858,-106.5 3858,-112.5 3852,-118.5 3846,-118.5"/>
<text text-anchor="middle" x="3743" y="-106.5" font-family="sans" font-size="10.00" fill="#000000">findMotif</text>
<text text-anchor="middle" x="3743" y="-95.5" font-family="sans" font-size="10.00" fill="#000000">folders: MACS_Out_q_0.01/ROSE_out_12500</text>
<text text-anchor="middle" x="3743" y="-84.5" font-family="sans" font-size="10.00" fill="#000000">peak_type: super</text>
</g>
<!-- 15&#45;&gt;20 -->
<g id="edge56" class="edge">
<title>15&#45;&gt;20</title>
<path fill="none" stroke="#c0c0c0" stroke-width="2" d="M3719.216,-167.7663C3723.1001,-156.373 3728.1974,-141.4209 3732.6765,-128.2821"/>
<polygon fill="#c0c0c0" stroke="#c0c0c0" stroke-width="2" points="3736.0369,-129.2718 3735.9509,-118.6773 3729.4113,-127.013 3736.0369,-129.2718"/>
</g>
<!-- 21 -->
<g id="node22" class="node">
<title>21</title>
<path fill="none" stroke="#56c1d8" stroke-width="2" stroke-dasharray="5,2" d="M4094,-118.5C4094,-118.5 3888,-118.5 3888,-118.5 3882,-118.5 3876,-112.5 3876,-106.5 3876,-106.5 3876,-89.5 3876,-89.5 3876,-83.5 3882,-77.5 3888,-77.5 3888,-77.5 4094,-77.5 4094,-77.5 4100,-77.5 4106,-83.5 4106,-89.5 4106,-89.5 4106,-106.5 4106,-106.5 4106,-112.5 4100,-118.5 4094,-118.5"/>
<text text-anchor="middle" x="3991" y="-106.5" font-family="sans" font-size="10.00" fill="#000000">findMotif</text>
<text text-anchor="middle" x="3991" y="-95.5" font-family="sans" font-size="10.00" fill="#000000">folders: MACS_Out_q_0.01/ROSE_out_12500</text>
<text text-anchor="middle" x="3991" y="-84.5" font-family="sans" font-size="10.00" fill="#000000">peak_type: regular</text>
</g>
<!-- 15&#45;&gt;21 -->
<g id="edge57" class="edge">
<title>15&#45;&gt;21</title>
<path fill="none" stroke="#c0c0c0" stroke-width="2" d="M3769.9283,-167.9795C3812.1949,-154.6002 3870.235,-136.2278 3916.2397,-121.6651"/>
<polygon fill="#c0c0c0" stroke="#c0c0c0" stroke-width="2" points="3917.3864,-124.9734 3925.8639,-118.6186 3915.2738,-118.2998 3917.3864,-124.9734"/>
</g>
<!-- 26 -->
<g id="node27" class="node">
<title>26</title>
<path fill="none" stroke="#d89c56" stroke-width="2" stroke-dasharray="5,2" d="M3386,-124C3386,-124 3008,-124 3008,-124 3002,-124 2996,-118 2996,-112 2996,-112 2996,-84 2996,-84 2996,-78 3002,-72 3008,-72 3008,-72 3386,-72 3386,-72 3392,-72 3398,-78 3398,-84 3398,-84 3398,-112 3398,-112 3398,-118 3392,-124 3386,-124"/>
<text text-anchor="middle" x="3197" y="-112" font-family="sans" font-size="10.00" fill="#000000">EDEN</text>
<text text-anchor="middle" x="3197" y="-101" font-family="sans" font-size="10.00" fill="#000000">TPM_cutoff: 4</text>
<text text-anchor="middle" x="3197" y="-90" font-family="sans" font-size="10.00" fill="#000000">folders: MACS_Out_q_0.01/ROSE_out_12500</text>
<text text-anchor="middle" x="3197" y="-79" font-family="sans" font-size="10.00" fill="#000000">prefix: RH4_D6_H3K27ac_018_C_HWC77BGXY_peaks_AllEnhancers.table.super</text>
</g>
<!-- 15&#45;&gt;26 -->
<g id="edge66" class="edge">
<title>15&#45;&gt;26</title>
<path fill="none" stroke="#c0c0c0" stroke-width="2" d="M3649.9864,-175.2535C3578.2476,-163.019 3458.2476,-142.5539 3359.7756,-125.7602"/>
<polygon fill="#c0c0c0" stroke="#c0c0c0" stroke-width="2" points="3360.1551,-122.2744 3349.709,-124.0434 3358.9783,-129.1748 3360.1551,-122.2744"/>
</g>
<!-- 27 -->
<g id="node28" class="node">
<title>27</title>
<path fill="none" stroke="#d89c56" stroke-width="2" stroke-dasharray="5,2" d="M2928,-124C2928,-124 2542,-124 2542,-124 2536,-124 2530,-118 2530,-112 2530,-112 2530,-84 2530,-84 2530,-78 2536,-72 2542,-72 2542,-72 2928,-72 2928,-72 2934,-72 2940,-78 2940,-84 2940,-84 2940,-112 2940,-112 2940,-118 2934,-124 2928,-124"/>
<text text-anchor="middle" x="2735" y="-112" font-family="sans" font-size="10.00" fill="#000000">EDEN</text>
<text text-anchor="middle" x="2735" y="-101" font-family="sans" font-size="10.00" fill="#000000">TPM_cutoff: 4</text>
<text text-anchor="middle" x="2735" y="-90" font-family="sans" font-size="10.00" fill="#000000">folders: MACS_Out_q_0.01/ROSE_out_12500</text>
<text text-anchor="middle" x="2735" y="-79" font-family="sans" font-size="10.00" fill="#000000">prefix: RH4_D6_H3K27ac_018_C_HWC77BGXY_peaks_AllEnhancers.table.regular</text>
</g>
<!-- 15&#45;&gt;27 -->
<g id="edge68" class="edge">
<title>15&#45;&gt;27</title>
<path fill="none" stroke="#c0c0c0" stroke-width="2" d="M3649.8447,-180.9832C3523.7732,-170.8853 3231.9571,-147.0945 2987,-124 2974.9933,-122.868 2962.6677,-121.6802 2950.2291,-120.4616"/>
<polygon fill="#c0c0c0" stroke="#c0c0c0" stroke-width="2" points="2950.5281,-116.9742 2940.2334,-119.4782 2949.8426,-123.9406 2950.5281,-116.9742"/>
</g>
<!-- 15&#45;&gt;30 -->
<g id="edge73" class="edge">
<title>15&#45;&gt;30</title>
<path fill="none" stroke="#c0c0c0" stroke-width="2" d="M3675.9352,-167.9795C3649.3374,-155.048 3613.1459,-137.4521 3583.7084,-123.14"/>
<polygon fill="#c0c0c0" stroke="#c0c0c0" stroke-width="2" points="3584.9326,-119.8435 3574.4088,-118.6186 3581.8718,-126.1389 3584.9326,-119.8435"/>
</g>
<!-- 16&#45;&gt;0 -->
<g id="edge16" class="edge">
<title>16&#45;&gt;0</title>
<path fill="none" stroke="#c0c0c0" stroke-width="2" d="M121.9912,-167.6641C102.2093,-142.7695 74.1467,-98.3657 100,-72 124.3842,-47.1324 2389.2037,-22.7407 2790.5527,-18.6116"/>
<polygon fill="#c0c0c0" stroke="#c0c0c0" stroke-width="2" points="2790.823,-22.1091 2800.7865,-18.5065 2790.7511,-15.1094 2790.823,-22.1091"/>
</g>
<!-- 17&#45;&gt;0 -->
<g id="edge17" class="edge">
<title>17&#45;&gt;0</title>
<path fill="none" stroke="#c0c0c0" stroke-width="2" d="M631.0748,-77.4821C643.0918,-75.2848 655.3109,-73.3585 667,-72 882.6999,-46.9312 2460.2848,-23.4996 2790.4971,-18.838"/>
<polygon fill="#c0c0c0" stroke="#c0c0c0" stroke-width="2" points="2790.8599,-22.3333 2800.8096,-18.6928 2790.7613,-15.334 2790.8599,-22.3333"/>
</g>
<!-- 18&#45;&gt;0 -->
<g id="edge18" class="edge">
<title>18&#45;&gt;0</title>
<path fill="none" stroke="#c0c0c0" stroke-width="2" d="M348.649,-77.4597C361.147,-75.2659 373.8517,-73.3466 386,-72 631.4035,-44.7982 2436.7385,-22.7653 2790.8349,-18.6797"/>
<polygon fill="#c0c0c0" stroke="#c0c0c0" stroke-width="2" points="2790.9258,-22.179 2800.8848,-18.5641 2790.8452,-15.1795 2790.9258,-22.179"/>
</g>
<!-- 19&#45;&gt;0 -->
<g id="edge19" class="edge">
<title>19&#45;&gt;0</title>
<path fill="none" stroke="#c0c0c0" stroke-width="2" d="M4163.9301,-167.7405C4183.6206,-142.9345 4211.5777,-98.6332 4186,-72 4141.305,-25.4606 3165.4851,-19.0277 2911.1654,-18.1412"/>
<polygon fill="#c0c0c0" stroke="#c0c0c0" stroke-width="2" points="2911.0216,-14.6408 2901.01,-18.1074 2910.9983,-21.6408 2911.0216,-14.6408"/>
</g>
<!-- 20&#45;&gt;0 -->
<g id="edge20" class="edge">
<title>20&#45;&gt;0</title>
<path fill="none" stroke="#c0c0c0" stroke-width="2" d="M3651.4281,-77.4798C3640.2071,-75.4015 3628.8683,-73.5059 3618,-72 3356.3366,-35.7443 3040.8927,-23.2732 2911.1701,-19.4797"/>
<polygon fill="#c0c0c0" stroke="#c0c0c0" stroke-width="2" points="2911.1403,-15.9775 2901.0443,-19.1903 2910.9402,-22.9746 2911.1403,-15.9775"/>
</g>
<!-- 21&#45;&gt;0 -->
<g id="edge21" class="edge">
<title>21&#45;&gt;0</title>
<path fill="none" stroke="#c0c0c0" stroke-width="2" d="M3901.2018,-77.4798C3889.7362,-75.359 3878.1234,-73.453 3867,-72 3680.2882,-47.6104 3099.8824,-26.3912 2911.038,-19.9781"/>
<polygon fill="#c0c0c0" stroke="#c0c0c0" stroke-width="2" points="2911.1297,-16.4793 2901.0171,-19.6392 2910.893,-23.4753 2911.1297,-16.4793"/>
</g>
<!-- 22&#45;&gt;0 -->
<g id="edge22" class="edge">
<title>22&#45;&gt;0</title>
<path fill="none" stroke="#c0c0c0" stroke-width="2" d="M2096.6722,-73.4219C2101.1576,-72.9292 2105.6058,-72.4542 2110,-72 2362.0864,-45.9464 2663.7024,-28.0764 2790.3335,-21.175"/>
<polygon fill="#c0c0c0" stroke="#c0c0c0" stroke-width="2" points="2790.7974,-24.6551 2800.5933,-20.619 2790.4186,-17.6653 2790.7974,-24.6551"/>
</g>
<!-- 23&#45;&gt;0 -->
<g id="edge23" class="edge">
<title>23&#45;&gt;0</title>
<path fill="none" stroke="#c0c0c0" stroke-width="2" d="M1078.0793,-73.118C1082.7619,-72.7213 1087.4073,-72.3475 1092,-72 1432.849,-46.2108 2521.7072,-24.249 2790.5523,-19.1265"/>
<polygon fill="#c0c0c0" stroke="#c0c0c0" stroke-width="2" points="2790.9529,-22.6197 2800.8846,-18.9303 2790.8199,-15.6209 2790.9529,-22.6197"/>
</g>
<!-- 24&#45;&gt;0 -->
<g id="edge24" class="edge">
<title>24&#45;&gt;0</title>
<path fill="none" stroke="#c0c0c0" stroke-width="2" d="M1718.1562,-72.6835C1720.786,-72.4487 1723.4016,-72.2206 1726,-72 2131.7746,-37.5427 2621.8929,-23.4106 2790.5657,-19.3383"/>
<polygon fill="#c0c0c0" stroke="#c0c0c0" stroke-width="2" points="2790.8202,-22.8333 2800.7338,-19.0956 2790.6531,-15.8353 2790.8202,-22.8333"/>
</g>
<!-- 25&#45;&gt;0 -->
<g id="edge25" class="edge">
<title>25&#45;&gt;0</title>
<path fill="none" stroke="#c0c0c0" stroke-width="2" d="M2500.8631,-71.971C2600.4188,-56.6252 2720.3298,-38.1418 2790.853,-27.2712"/>
<polygon fill="#c0c0c0" stroke="#c0c0c0" stroke-width="2" points="2791.5413,-30.7065 2800.8913,-25.7239 2790.4748,-23.7882 2791.5413,-30.7065"/>
</g>
<!-- 26&#45;&gt;0 -->
<g id="edge26" class="edge">
<title>26&#45;&gt;0</title>
<path fill="none" stroke="#c0c0c0" stroke-width="2" d="M3084.1854,-71.9157C3026.5589,-58.5916 2958.7543,-42.9143 2911.1605,-31.9099"/>
<polygon fill="#c0c0c0" stroke="#c0c0c0" stroke-width="2" points="2911.8537,-28.4779 2901.3222,-29.6352 2910.2767,-35.298 2911.8537,-28.4779"/>
</g>
<!-- 27&#45;&gt;0 -->
<g id="edge27" class="edge">
<title>27&#45;&gt;0</title>
<path fill="none" stroke="#c0c0c0" stroke-width="2" d="M2772.9827,-71.805C2786.8585,-62.2355 2802.4765,-51.4645 2816.0733,-42.0874"/>
<polygon fill="#c0c0c0" stroke="#c0c0c0" stroke-width="2" points="2818.4327,-44.7119 2824.6778,-36.1532 2814.4586,-38.9494 2818.4327,-44.7119"/>
</g>
<!-- 28 -->
<g id="node29" class="node">
<title>28</title>
<path fill="none" stroke="#56d86b" stroke-width="2" stroke-dasharray="5,2" d="M2240.5,-212C2240.5,-212 2007.5,-212 2007.5,-212 2001.5,-212 1995.5,-206 1995.5,-200 1995.5,-200 1995.5,-172 1995.5,-172 1995.5,-166 2001.5,-160 2007.5,-160 2007.5,-160 2240.5,-160 2240.5,-160 2246.5,-160 2252.5,-166 2252.5,-172 2252.5,-172 2252.5,-200 2252.5,-200 2252.5,-206 2246.5,-212 2240.5,-212"/>
<text text-anchor="middle" x="2124" y="-200" font-family="sans" font-size="10.00" fill="#000000">RNAseq_pipeline</text>
<text text-anchor="middle" x="2124" y="-189" font-family="sans" font-size="10.00" fill="#000000">genome: hg19</text>
<text text-anchor="middle" x="2124" y="-178" font-family="sans" font-size="10.00" fill="#000000">rnaseq_sample: Rh4_dmso_6h_rz_T_H3YCHBGXX</text>
<text text-anchor="middle" x="2124" y="-167" font-family="sans" font-size="10.00" fill="#000000">sample: RH4_D6_H3K27ac_018_C_HWC77BGXY</text>
</g>
<!-- 28&#45;&gt;0 -->
<g id="edge28" class="edge">
<title>28&#45;&gt;0</title>
<path fill="none" stroke="#c0c0c0" stroke-width="2" d="M2119.8008,-159.5912C2117.2825,-133.3238 2118.2889,-93.8734 2142,-72 2189.1953,-28.4625 2627.9841,-20.0249 2790.6796,-18.3915"/>
<polygon fill="#c0c0c0" stroke="#c0c0c0" stroke-width="2" points="2791.0235,-21.8885 2800.9897,-18.2934 2790.9569,-14.8888 2791.0235,-21.8885"/>
</g>
<!-- 28&#45;&gt;22 -->
<g id="edge59" class="edge">
<title>28&#45;&gt;22</title>
<path fill="none" stroke="#c0c0c0" stroke-width="2" d="M2062.4374,-159.9543C2038.7497,-149.9326 2011.5166,-138.4109 1987.0099,-128.0427"/>
<polygon fill="#c0c0c0" stroke="#c0c0c0" stroke-width="2" points="1988.3375,-124.804 1977.7641,-124.1309 1985.61,-131.2508 1988.3375,-124.804"/>
</g>
<!-- 28&#45;&gt;23 -->
<g id="edge61" class="edge">
<title>28&#45;&gt;23</title>
<path fill="none" stroke="#c0c0c0" stroke-width="2" d="M1995.3472,-179.766C1804.9859,-170.1452 1437.1386,-150.0363 1125,-124 1113.0004,-122.9991 1100.6807,-121.9087 1088.2521,-120.7602"/>
<polygon fill="#c0c0c0" stroke="#c0c0c0" stroke-width="2" points="1088.5475,-117.2727 1078.2653,-119.8272 1087.8963,-124.2423 1088.5475,-117.2727"/>
</g>
<!-- 28&#45;&gt;24 -->
<g id="edge63" class="edge">
<title>28&#45;&gt;24</title>
<path fill="none" stroke="#c0c0c0" stroke-width="2" d="M1995.1692,-167.445C1910.6314,-155.2693 1798.5944,-139.1331 1703.7961,-125.4796"/>
<polygon fill="#c0c0c0" stroke="#c0c0c0" stroke-width="2" points="1704.1951,-122.0011 1693.7983,-124.0397 1703.1972,-128.9296 1704.1951,-122.0011"/>
</g>
<!-- 28&#45;&gt;25 -->
<g id="edge65" class="edge">
<title>28&#45;&gt;25</title>
<path fill="none" stroke="#c0c0c0" stroke-width="2" d="M2185.5626,-159.9543C2209.2503,-149.9326 2236.4834,-138.4109 2260.9901,-128.0427"/>
<polygon fill="#c0c0c0" stroke="#c0c0c0" stroke-width="2" points="2262.39,-131.2508 2270.2359,-124.1309 2259.6625,-124.804 2262.39,-131.2508"/>
</g>
<!-- 28&#45;&gt;26 -->
<g id="edge67" class="edge">
<title>28&#45;&gt;26</title>
<path fill="none" stroke="#c0c0c0" stroke-width="2" d="M2252.7071,-177.5056C2415.1083,-166.5164 2702.9451,-146.1389 2949,-124 2960.9929,-122.9209 2973.3073,-121.7694 2985.7318,-120.574"/>
<polygon fill="#c0c0c0" stroke="#c0c0c0" stroke-width="2" points="2986.0999,-124.0548 2995.7156,-119.6063 2985.4245,-117.0874 2986.0999,-124.0548"/>
</g>
<!-- 28&#45;&gt;27 -->
<g id="edge69" class="edge">
<title>28&#45;&gt;27</title>
<path fill="none" stroke="#c0c0c0" stroke-width="2" d="M2252.8308,-167.445C2337.3686,-155.2693 2449.4056,-139.1331 2544.2039,-125.4796"/>
<polygon fill="#c0c0c0" stroke="#c0c0c0" stroke-width="2" points="2544.8028,-128.9296 2554.2017,-124.0397 2543.8049,-122.0011 2544.8028,-128.9296"/>
</g>
<!-- 28&#45;&gt;29 -->
<g id="edge72" class="edge">
<title>28&#45;&gt;29</title>
<path fill="none" stroke="#c0c0c0" stroke-width="2" d="M1995.1114,-175.6641C1934.1432,-170.8213 1860.3305,-165.025 1794,-160 1574.0492,-143.3372 1515.9578,-163.8162 1299,-124 1294.3048,-123.1383 1289.5031,-122.1167 1284.6858,-120.9851"/>
<polygon fill="#c0c0c0" stroke="#c0c0c0" stroke-width="2" points="1285.3542,-117.5447 1274.8047,-118.5237 1283.6621,-124.3371 1285.3542,-117.5447"/>
</g>
<!-- 28&#45;&gt;30 -->
<g id="edge75" class="edge">
<title>28&#45;&gt;30</title>
<path fill="none" stroke="#c0c0c0" stroke-width="2" d="M2252.7031,-182.3485C2532.0707,-174.0032 3186.6136,-152.0691 3407,-124 3419.1451,-122.4532 3431.8683,-120.3635 3444.3549,-118.0372"/>
<polygon fill="#c0c0c0" stroke="#c0c0c0" stroke-width="2" points="3445.1422,-121.45 3454.3025,-116.1266 3443.8219,-114.5756 3445.1422,-121.45"/>
</g>
<!-- 29&#45;&gt;0 -->
<g id="edge29" class="edge">
<title>29&#45;&gt;0</title>
<path fill="none" stroke="#c0c0c0" stroke-width="2" d="M1273.804,-77.4331C1282.1952,-75.2594 1290.7551,-73.3525 1299,-72 1447.8297,-47.5861 2522.1975,-24.5954 2790.4382,-19.192"/>
<polygon fill="#c0c0c0" stroke="#c0c0c0" stroke-width="2" points="2790.8256,-22.685 2800.7533,-18.9849 2790.6851,-15.6864 2790.8256,-22.685"/>
</g>
<!-- 30&#45;&gt;0 -->
<g id="edge30" class="edge">
<title>30&#45;&gt;0</title>
<path fill="none" stroke="#c0c0c0" stroke-width="2" d="M3464.7573,-77.4656C3456.4719,-75.3897 3448.0781,-73.4986 3440,-72 3248.9779,-36.5633 3018.5912,-24.011 2911.3641,-19.873"/>
<polygon fill="#c0c0c0" stroke="#c0c0c0" stroke-width="2" points="2911.1921,-16.3642 2901.068,-19.4871 2910.9298,-23.3593 2911.1921,-16.3642"/>
</g>
<!-- 31 -->
<g id="node32" class="node">
<title>31</title>
<path fill="none" stroke="#567bd8" stroke-width="2" stroke-dasharray="5,2" d="M3826,-515C3826,-515 3600,-515 3600,-515 3594,-515 3588,-509 3588,-503 3588,-503 3588,-486 3588,-486 3588,-480 3594,-474 3600,-474 3600,-474 3826,-474 3826,-474 3832,-474 3838,-480 3838,-486 3838,-486 3838,-503 3838,-503 3838,-509 3832,-515 3826,-515"/>
<text text-anchor="middle" x="3713" y="-503" font-family="sans" font-size="10.00" fill="#000000">prepareFASTQ</text>
<text text-anchor="middle" x="3713" y="-492" font-family="sans" font-size="10.00" fill="#000000">sample: RH4_D6_H3K27ac_018_C_HWC77BGXY</text>
<text text-anchor="middle" x="3713" y="-481" font-family="sans" font-size="10.00" fill="#000000">suffix: R1.fastq.gz</text>
</g>
<!-- 31&#45;&gt;1 -->
<g id="edge31" class="edge">
<title>31&#45;&gt;1</title>
<path fill="none" stroke="#c0c0c0" stroke-width="2" d="M3713,-473.7476C3713,-465.8767 3713,-456.7743 3713,-448.3232"/>
<polygon fill="#c0c0c0" stroke="#c0c0c0" stroke-width="2" points="3716.5001,-448.1086 3713,-438.1087 3709.5001,-448.1087 3716.5001,-448.1086"/>
</g>
<!-- 32 -->
<g id="node33" class="node">
<title>32</title>
<path fill="none" stroke="#567bd8" stroke-width="2" stroke-dasharray="5,2" d="M1045.5,-515C1045.5,-515 860.5,-515 860.5,-515 854.5,-515 848.5,-509 848.5,-503 848.5,-503 848.5,-486 848.5,-486 848.5,-480 854.5,-474 860.5,-474 860.5,-474 1045.5,-474 1045.5,-474 1051.5,-474 1057.5,-480 1057.5,-486 1057.5,-486 1057.5,-503 1057.5,-503 1057.5,-509 1051.5,-515 1045.5,-515"/>
<text text-anchor="middle" x="953" y="-503" font-family="sans" font-size="10.00" fill="#000000">prepareFASTQ</text>
<text text-anchor="middle" x="953" y="-492" font-family="sans" font-size="10.00" fill="#000000">sample: RH4_Input_001_C_H5TLGBGXX</text>
<text text-anchor="middle" x="953" y="-481" font-family="sans" font-size="10.00" fill="#000000">suffix: R1.fastq.gz</text>
</g>
<!-- 32&#45;&gt;2 -->
<g id="edge32" class="edge">
<title>32&#45;&gt;2</title>
<path fill="none" stroke="#c0c0c0" stroke-width="2" d="M953,-473.7476C953,-465.8767 953,-456.7743 953,-448.3232"/>
<polygon fill="#c0c0c0" stroke="#c0c0c0" stroke-width="2" points="956.5001,-448.1086 953,-438.1087 949.5001,-448.1087 956.5001,-448.1086"/>
</g>
<!-- 33&#45;&gt;5 -->
<g id="edge35" class="edge">
<title>33&#45;&gt;5</title>
<path fill="none" stroke="#c0c0c0" stroke-width="2" d="M4348.5734,-167.9795C4366.5729,-154.7799 4391.1993,-136.7205 4410.9263,-122.2541"/>
<polygon fill="#c0c0c0" stroke="#c0c0c0" stroke-width="2" points="4413.0528,-125.0349 4419.0471,-116.2988 4408.9133,-119.39 4413.0528,-125.0349"/>
</g>
<!-- 33&#45;&gt;6 -->
<g id="edge36" class="edge">
<title>33&#45;&gt;6</title>
<path fill="none" stroke="#c0c0c0" stroke-width="2" d="M4324,-167.7663C4324,-155.8492 4324,-140.0384 4324,-126.4817"/>
<polygon fill="#c0c0c0" stroke="#c0c0c0" stroke-width="2" points="4327.5001,-126.2103 4324,-116.2103 4320.5001,-126.2103 4327.5001,-126.2103"/>
</g>
</g>
</svg>
