<?xml version="1.0" encoding="UTF-8" standalone="no"?>
<!DOCTYPE svg PUBLIC "-//W3C//DTD SVG 1.1//EN"
 "http://www.w3.org/Graphics/SVG/1.1/DTD/svg11.dtd">
<!-- Generated by graphviz version 2.40.1 (20161225.0304)
 -->
<!-- Title: snakemake_dag Pages: 1 -->
<svg width="3218pt" height="446pt"
 viewBox="0.00 0.00 3217.69 446.00" xmlns="http://www.w3.org/2000/svg" xmlns:xlink="http://www.w3.org/1999/xlink">
<g id="graph0" class="graph" transform="scale(1 1) rotate(0) translate(4 442)">
<title>snakemake_dag</title>
<polygon fill="#ffffff" stroke="transparent" points="-4,4 -4,-442 3213.693,-442 3213.693,4 -4,4"/>
<!-- 0 -->
<g id="node1" class="node">
<title>0</title>
<path fill="none" stroke="#56d892" stroke-width="2" d="M2391.4412,-36C2391.4412,-36 2315.4412,-36 2315.4412,-36 2309.4412,-36 2303.4412,-30 2303.4412,-24 2303.4412,-24 2303.4412,-12 2303.4412,-12 2303.4412,-6 2309.4412,0 2315.4412,0 2315.4412,0 2391.4412,0 2391.4412,0 2397.4412,0 2403.4412,-6 2403.4412,-12 2403.4412,-12 2403.4412,-24 2403.4412,-24 2403.4412,-30 2397.4412,-36 2391.4412,-36"/>
<text text-anchor="middle" x="2353.4412" y="-15.5" font-family="sans" font-size="10.00" fill="#000000">ChIPseq_pipeline</text>
</g>
<!-- 1 -->
<g id="node2" class="node">
<title>1</title>
<path fill="none" stroke="#d8cb56" stroke-width="2" stroke-dasharray="5,2" d="M2717.4412,-361C2717.4412,-361 2687.4412,-361 2687.4412,-361 2681.4412,-361 2675.4412,-355 2675.4412,-349 2675.4412,-349 2675.4412,-337 2675.4412,-337 2675.4412,-331 2681.4412,-325 2687.4412,-325 2687.4412,-325 2717.4412,-325 2717.4412,-325 2723.4412,-325 2729.4412,-331 2729.4412,-337 2729.4412,-337 2729.4412,-349 2729.4412,-349 2729.4412,-355 2723.4412,-361 2717.4412,-361"/>
<text text-anchor="middle" x="2702.4412" y="-340.5" font-family="sans" font-size="10.00" fill="#000000">BWA</text>
</g>
<!-- 1&#45;&gt;0 -->
<g id="edge1" class="edge">
<title>1&#45;&gt;0</title>
<path fill="none" stroke="#c0c0c0" stroke-width="2" d="M2729.8289,-340.4047C2796.6475,-333.7394 2966.2244,-314.7204 3016.4412,-289 3125,-233.3977 3267.8437,-160.9981 3184.4412,-72 3158.123,-43.9161 2600.4556,-25.1861 2413.7427,-19.6835"/>
<polygon fill="#c0c0c0" stroke="#c0c0c0" stroke-width="2" points="2413.655,-16.1795 2403.5569,-19.3856 2413.4503,-23.1765 2413.655,-16.1795"/>
</g>
<!-- 3 -->
<g id="node4" class="node">
<title>3</title>
<path fill="none" stroke="#b6d856" stroke-width="2" stroke-dasharray="5,2" d="M2743.9412,-289C2743.9412,-289 2660.9412,-289 2660.9412,-289 2654.9412,-289 2648.9412,-283 2648.9412,-277 2648.9412,-277 2648.9412,-260 2648.9412,-260 2648.9412,-254 2654.9412,-248 2660.9412,-248 2660.9412,-248 2743.9412,-248 2743.9412,-248 2749.9412,-248 2755.9412,-254 2755.9412,-260 2755.9412,-260 2755.9412,-277 2755.9412,-277 2755.9412,-283 2749.9412,-289 2743.9412,-289"/>
<text text-anchor="middle" x="2702.4412" y="-277" font-family="sans" font-size="10.00" fill="#000000">makeBigWig</text>
<text text-anchor="middle" x="2702.4412" y="-266" font-family="sans" font-size="10.00" fill="#000000">bin_size: 25</text>
<text text-anchor="middle" x="2702.4412" y="-255" font-family="sans" font-size="10.00" fill="#000000">norm_type: scaled</text>
</g>
<!-- 1&#45;&gt;3 -->
<g id="edge25" class="edge">
<title>1&#45;&gt;3</title>
<path fill="none" stroke="#c0c0c0" stroke-width="2" d="M2702.4412,-324.9656C2702.4412,-317.3118 2702.4412,-308.1674 2702.4412,-299.4898"/>
<polygon fill="#c0c0c0" stroke="#c0c0c0" stroke-width="2" points="2705.9413,-299.2678 2702.4412,-289.2679 2698.9413,-299.2679 2705.9413,-299.2678"/>
</g>
<!-- 4 -->
<g id="node5" class="node">
<title>4</title>
<path fill="none" stroke="#b6d856" stroke-width="2" stroke-dasharray="5,2" d="M2858.4412,-289C2858.4412,-289 2786.4412,-289 2786.4412,-289 2780.4412,-289 2774.4412,-283 2774.4412,-277 2774.4412,-277 2774.4412,-260 2774.4412,-260 2774.4412,-254 2780.4412,-248 2786.4412,-248 2786.4412,-248 2858.4412,-248 2858.4412,-248 2864.4412,-248 2870.4412,-254 2870.4412,-260 2870.4412,-260 2870.4412,-277 2870.4412,-277 2870.4412,-283 2864.4412,-289 2858.4412,-289"/>
<text text-anchor="middle" x="2822.4412" y="-277" font-family="sans" font-size="10.00" fill="#000000">makeBigWig</text>
<text text-anchor="middle" x="2822.4412" y="-266" font-family="sans" font-size="10.00" fill="#000000">bin_size: 25</text>
<text text-anchor="middle" x="2822.4412" y="-255" font-family="sans" font-size="10.00" fill="#000000">norm_type: RPM</text>
</g>
<!-- 1&#45;&gt;4 -->
<g id="edge26" class="edge">
<title>1&#45;&gt;4</title>
<path fill="none" stroke="#c0c0c0" stroke-width="2" d="M2729.671,-326.0948C2744.7458,-316.7359 2763.8018,-304.9053 2780.7158,-294.4045"/>
<polygon fill="#c0c0c0" stroke="#c0c0c0" stroke-width="2" points="2782.6832,-297.3028 2789.333,-289.0547 2778.991,-291.3557 2782.6832,-297.3028"/>
</g>
<!-- 7 -->
<g id="node8" class="node">
<title>7</title>
<path fill="none" stroke="#d85656" stroke-width="2" stroke-dasharray="5,2" d="M2972.4412,-286.5C2972.4412,-286.5 2900.4412,-286.5 2900.4412,-286.5 2894.4412,-286.5 2888.4412,-280.5 2888.4412,-274.5 2888.4412,-274.5 2888.4412,-262.5 2888.4412,-262.5 2888.4412,-256.5 2894.4412,-250.5 2900.4412,-250.5 2900.4412,-250.5 2972.4412,-250.5 2972.4412,-250.5 2978.4412,-250.5 2984.4412,-256.5 2984.4412,-262.5 2984.4412,-262.5 2984.4412,-274.5 2984.4412,-274.5 2984.4412,-280.5 2978.4412,-286.5 2972.4412,-286.5"/>
<text text-anchor="middle" x="2936.4412" y="-266" font-family="sans" font-size="10.00" fill="#000000">crossCorrelation</text>
</g>
<!-- 1&#45;&gt;7 -->
<g id="edge29" class="edge">
<title>1&#45;&gt;7</title>
<path fill="none" stroke="#c0c0c0" stroke-width="2" d="M2729.5601,-335.1766C2762.5681,-325.5567 2820.201,-308.4478 2878.5496,-289.2309"/>
<polygon fill="#c0c0c0" stroke="#c0c0c0" stroke-width="2" points="2879.9043,-292.4693 2888.2969,-286.0028 2877.7036,-285.8242 2879.9043,-292.4693"/>
</g>
<!-- 8 -->
<g id="node9" class="node">
<title>8</title>
<path fill="none" stroke="#56d8b9" stroke-width="2" stroke-dasharray="5,2" d="M2618.9412,-289C2618.9412,-289 2535.9412,-289 2535.9412,-289 2529.9412,-289 2523.9412,-283 2523.9412,-277 2523.9412,-277 2523.9412,-260 2523.9412,-260 2523.9412,-254 2529.9412,-248 2535.9412,-248 2535.9412,-248 2618.9412,-248 2618.9412,-248 2624.9412,-248 2630.9412,-254 2630.9412,-260 2630.9412,-260 2630.9412,-277 2630.9412,-277 2630.9412,-283 2624.9412,-289 2618.9412,-289"/>
<text text-anchor="middle" x="2577.4412" y="-277" font-family="sans" font-size="10.00" fill="#000000">macs2</text>
<text text-anchor="middle" x="2577.4412" y="-266" font-family="sans" font-size="10.00" fill="#000000">cutoff: 0.05</text>
<text text-anchor="middle" x="2577.4412" y="-255" font-family="sans" font-size="10.00" fill="#000000">peak_type: narrow</text>
</g>
<!-- 1&#45;&gt;8 -->
<g id="edge30" class="edge">
<title>1&#45;&gt;8</title>
<path fill="none" stroke="#c0c0c0" stroke-width="2" d="M2675.3181,-326.8346C2659.3978,-317.3462 2638.9113,-305.1362 2620.7988,-294.3412"/>
<polygon fill="#c0c0c0" stroke="#c0c0c0" stroke-width="2" points="2622.5103,-291.2868 2612.1284,-289.1736 2618.9265,-297.2998 2622.5103,-291.2868"/>
</g>
<!-- 9 -->
<g id="node10" class="node">
<title>9</title>
<path fill="none" stroke="#56d8b9" stroke-width="2" stroke-dasharray="5,2" d="M303.9412,-289C303.9412,-289 220.9412,-289 220.9412,-289 214.9412,-289 208.9412,-283 208.9412,-277 208.9412,-277 208.9412,-260 208.9412,-260 208.9412,-254 214.9412,-248 220.9412,-248 220.9412,-248 303.9412,-248 303.9412,-248 309.9412,-248 315.9412,-254 315.9412,-260 315.9412,-260 315.9412,-277 315.9412,-277 315.9412,-283 309.9412,-289 303.9412,-289"/>
<text text-anchor="middle" x="262.4412" y="-277" font-family="sans" font-size="10.00" fill="#000000">macs2</text>
<text text-anchor="middle" x="262.4412" y="-266" font-family="sans" font-size="10.00" fill="#000000">cutoff: 0.01</text>
<text text-anchor="middle" x="262.4412" y="-255" font-family="sans" font-size="10.00" fill="#000000">peak_type: narrow</text>
</g>
<!-- 1&#45;&gt;9 -->
<g id="edge32" class="edge">
<title>1&#45;&gt;9</title>
<path fill="none" stroke="#c0c0c0" stroke-width="2" d="M2675.0388,-342.1633C2434.5409,-334.8203 683.69,-281.3619 326.1121,-270.4441"/>
<polygon fill="#c0c0c0" stroke="#c0c0c0" stroke-width="2" points="326.0444,-266.9404 315.9422,-270.1335 325.8307,-273.9372 326.0444,-266.9404"/>
</g>
<!-- 12 -->
<g id="node13" class="node">
<title>12</title>
<path fill="none" stroke="#8fd856" stroke-width="2" d="M2546.4412,-204C2546.4412,-204 2444.4412,-204 2444.4412,-204 2438.4412,-204 2432.4412,-198 2432.4412,-192 2432.4412,-192 2432.4412,-180 2432.4412,-180 2432.4412,-174 2438.4412,-168 2444.4412,-168 2444.4412,-168 2546.4412,-168 2546.4412,-168 2552.4412,-168 2558.4412,-174 2558.4412,-180 2558.4412,-180 2558.4412,-192 2558.4412,-192 2558.4412,-198 2552.4412,-204 2546.4412,-204"/>
<text text-anchor="middle" x="2495.4412" y="-189" font-family="sans" font-size="10.00" fill="#000000">rose</text>
<text text-anchor="middle" x="2495.4412" y="-178" font-family="sans" font-size="10.00" fill="#000000">stitch_distance: 12500</text>
</g>
<!-- 1&#45;&gt;12 -->
<g id="edge37" class="edge">
<title>1&#45;&gt;12</title>
<path fill="none" stroke="#c0c0c0" stroke-width="2" d="M2675.3506,-338.7859C2628.6867,-330.9701 2536.0597,-312.8311 2514.4412,-289 2496.1949,-268.8862 2492.7714,-237.1854 2493.0859,-214.2627"/>
<polygon fill="#c0c0c0" stroke="#c0c0c0" stroke-width="2" points="2496.5892,-214.2392 2493.4725,-204.1132 2489.5943,-213.9727 2496.5892,-214.2392"/>
</g>
<!-- 13 -->
<g id="node14" class="node">
<title>13</title>
<path fill="none" stroke="#8fd856" stroke-width="2" stroke-dasharray="5,2" d="M1629.4412,-204C1629.4412,-204 1527.4412,-204 1527.4412,-204 1521.4412,-204 1515.4412,-198 1515.4412,-192 1515.4412,-192 1515.4412,-180 1515.4412,-180 1515.4412,-174 1521.4412,-168 1527.4412,-168 1527.4412,-168 1629.4412,-168 1629.4412,-168 1635.4412,-168 1641.4412,-174 1641.4412,-180 1641.4412,-180 1641.4412,-192 1641.4412,-192 1641.4412,-198 1635.4412,-204 1629.4412,-204"/>
<text text-anchor="middle" x="1578.4412" y="-189" font-family="sans" font-size="10.00" fill="#000000">rose</text>
<text text-anchor="middle" x="1578.4412" y="-178" font-family="sans" font-size="10.00" fill="#000000">stitch_distance: 12500</text>
</g>
<!-- 1&#45;&gt;13 -->
<g id="edge39" class="edge">
<title>1&#45;&gt;13</title>
<path fill="none" stroke="#c0c0c0" stroke-width="2" d="M2675.2137,-339.1969C2532.9865,-319.3306 1873.4783,-227.2107 1651.5442,-196.211"/>
<polygon fill="#c0c0c0" stroke="#c0c0c0" stroke-width="2" points="1652.0128,-192.7426 1641.6248,-194.8255 1651.0444,-199.6753 1652.0128,-192.7426"/>
</g>
<!-- 25 -->
<g id="node26" class="node">
<title>25</title>
<path fill="none" stroke="#56d0d8" stroke-width="2" stroke-dasharray="5,2" d="M3037.4412,-204C3037.4412,-204 2987.4412,-204 2987.4412,-204 2981.4412,-204 2975.4412,-198 2975.4412,-192 2975.4412,-192 2975.4412,-180 2975.4412,-180 2975.4412,-174 2981.4412,-168 2987.4412,-168 2987.4412,-168 3037.4412,-168 3037.4412,-168 3043.4412,-168 3049.4412,-174 3049.4412,-180 3049.4412,-180 3049.4412,-192 3049.4412,-192 3049.4412,-198 3043.4412,-204 3037.4412,-204"/>
<text text-anchor="middle" x="3012.4412" y="-189" font-family="sans" font-size="10.00" fill="#000000">makeTDF</text>
<text text-anchor="middle" x="3012.4412" y="-178" font-family="sans" font-size="10.00" fill="#000000">bin_size: 25</text>
</g>
<!-- 1&#45;&gt;25 -->
<g id="edge54" class="edge">
<title>1&#45;&gt;25</title>
<path fill="none" stroke="#c0c0c0" stroke-width="2" d="M2729.4753,-341.7852C2794.4029,-338.2939 2956.4915,-325.989 2993.4412,-289 3012.7447,-269.6759 3015.9366,-237.5673 3015.2782,-214.3302"/>
<polygon fill="#c0c0c0" stroke="#c0c0c0" stroke-width="2" points="3018.757,-213.8408 3014.7244,-204.0435 3011.7672,-214.2172 3018.757,-213.8408"/>
</g>
<!-- 2 -->
<g id="node3" class="node">
<title>2</title>
<path fill="none" stroke="#d8cb56" stroke-width="2" stroke-dasharray="5,2" d="M277.4412,-361C277.4412,-361 247.4412,-361 247.4412,-361 241.4412,-361 235.4412,-355 235.4412,-349 235.4412,-349 235.4412,-337 235.4412,-337 235.4412,-331 241.4412,-325 247.4412,-325 247.4412,-325 277.4412,-325 277.4412,-325 283.4412,-325 289.4412,-331 289.4412,-337 289.4412,-337 289.4412,-349 289.4412,-349 289.4412,-355 283.4412,-361 277.4412,-361"/>
<text text-anchor="middle" x="262.4412" y="-340.5" font-family="sans" font-size="10.00" fill="#000000">BWA</text>
</g>
<!-- 2&#45;&gt;0 -->
<g id="edge2" class="edge">
<title>2&#45;&gt;0</title>
<path fill="none" stroke="#c0c0c0" stroke-width="2" d="M235.3631,-338.0462C182.0069,-326.661 64.2334,-293.1075 15.4412,-212 -18.4664,-155.6352 7.2787,-106.2416 63.4412,-72 112.4444,-42.1233 1936.1719,-22.2098 2293.1763,-18.5935"/>
<polygon fill="#c0c0c0" stroke="#c0c0c0" stroke-width="2" points="2293.3433,-22.0921 2303.3075,-18.4912 2293.2726,-15.0924 2293.3433,-22.0921"/>
</g>
<!-- 2&#45;&gt;8 -->
<g id="edge31" class="edge">
<title>2&#45;&gt;8</title>
<path fill="none" stroke="#c0c0c0" stroke-width="2" d="M289.6449,-342.1245C521.631,-334.6589 2167.4478,-281.6942 2513.6357,-270.5534"/>
<polygon fill="#c0c0c0" stroke="#c0c0c0" stroke-width="2" points="2513.853,-274.0483 2523.7352,-270.2283 2513.6278,-267.0519 2513.853,-274.0483"/>
</g>
<!-- 2&#45;&gt;9 -->
<g id="edge33" class="edge">
<title>2&#45;&gt;9</title>
<path fill="none" stroke="#c0c0c0" stroke-width="2" d="M262.4412,-324.9656C262.4412,-317.3118 262.4412,-308.1674 262.4412,-299.4898"/>
<polygon fill="#c0c0c0" stroke="#c0c0c0" stroke-width="2" points="265.9413,-299.2678 262.4412,-289.2679 258.9413,-299.2679 265.9413,-299.2678"/>
</g>
<!-- 3&#45;&gt;0 -->
<g id="edge3" class="edge">
<title>3&#45;&gt;0</title>
<path fill="none" stroke="#c0c0c0" stroke-width="2" d="M2756.0401,-248.029C2789.0279,-234.8908 2825.8657,-219.021 2830.4412,-212 2864.7932,-159.2871 2856.4433,-113.8272 2809.4412,-72 2780.4284,-46.1816 2531.3631,-28.38 2414.0667,-21.3504"/>
<polygon fill="#c0c0c0" stroke="#c0c0c0" stroke-width="2" points="2414.0055,-17.8407 2403.8161,-20.7434 2413.5917,-24.8285 2414.0055,-17.8407"/>
</g>
<!-- 4&#45;&gt;0 -->
<g id="edge4" class="edge">
<title>4&#45;&gt;0</title>
<path fill="none" stroke="#c0c0c0" stroke-width="2" d="M2837.526,-247.8976C2844.1073,-237.6517 2851.0802,-224.754 2854.4412,-212 2870.3649,-151.573 2886.4263,-115.3742 2841.4412,-72 2811.1515,-42.795 2537.2834,-26.5172 2413.5929,-20.599"/>
<polygon fill="#c0c0c0" stroke="#c0c0c0" stroke-width="2" points="2413.6797,-17.0993 2403.526,-20.1243 2413.35,-24.0915 2413.6797,-17.0993"/>
</g>
<!-- 5 -->
<g id="node6" class="node">
<title>5</title>
<path fill="none" stroke="#d8a456" stroke-width="2" stroke-dasharray="5,2" d="M3162.9412,-116C3162.9412,-116 3079.9412,-116 3079.9412,-116 3073.9412,-116 3067.9412,-110 3067.9412,-104 3067.9412,-104 3067.9412,-92 3067.9412,-92 3067.9412,-86 3073.9412,-80 3079.9412,-80 3079.9412,-80 3162.9412,-80 3162.9412,-80 3168.9412,-80 3174.9412,-86 3174.9412,-92 3174.9412,-92 3174.9412,-104 3174.9412,-104 3174.9412,-110 3168.9412,-116 3162.9412,-116"/>
<text text-anchor="middle" x="3121.4412" y="-101" font-family="sans" font-size="10.00" fill="#000000">makeNormTDF</text>
<text text-anchor="middle" x="3121.4412" y="-90" font-family="sans" font-size="10.00" fill="#000000">norm_type: scaled</text>
</g>
<!-- 5&#45;&gt;0 -->
<g id="edge5" class="edge">
<title>5&#45;&gt;0</title>
<path fill="none" stroke="#c0c0c0" stroke-width="2" d="M3083.0943,-79.9413C3075.0984,-76.8144 3066.6133,-73.9473 3058.4412,-72 2936.6542,-42.9796 2561.3538,-25.9222 2413.8568,-20.1882"/>
<polygon fill="#c0c0c0" stroke="#c0c0c0" stroke-width="2" points="2413.7645,-16.6821 2403.6373,-19.7949 2413.4953,-23.677 2413.7645,-16.6821"/>
</g>
<!-- 6 -->
<g id="node7" class="node">
<title>6</title>
<path fill="none" stroke="#d8a456" stroke-width="2" stroke-dasharray="5,2" d="M3037.4412,-116C3037.4412,-116 2965.4412,-116 2965.4412,-116 2959.4412,-116 2953.4412,-110 2953.4412,-104 2953.4412,-104 2953.4412,-92 2953.4412,-92 2953.4412,-86 2959.4412,-80 2965.4412,-80 2965.4412,-80 3037.4412,-80 3037.4412,-80 3043.4412,-80 3049.4412,-86 3049.4412,-92 3049.4412,-92 3049.4412,-104 3049.4412,-104 3049.4412,-110 3043.4412,-116 3037.4412,-116"/>
<text text-anchor="middle" x="3001.4412" y="-101" font-family="sans" font-size="10.00" fill="#000000">makeNormTDF</text>
<text text-anchor="middle" x="3001.4412" y="-90" font-family="sans" font-size="10.00" fill="#000000">norm_type: RPM</text>
</g>
<!-- 6&#45;&gt;0 -->
<g id="edge6" class="edge">
<title>6&#45;&gt;0</title>
<path fill="none" stroke="#c0c0c0" stroke-width="2" d="M2963.3675,-79.9009C2955.5964,-76.8178 2947.3686,-73.9777 2939.4412,-72 2840.9957,-47.4403 2542.5596,-28.4845 2413.7245,-21.2209"/>
<polygon fill="#c0c0c0" stroke="#c0c0c0" stroke-width="2" points="2413.8179,-17.7207 2403.6379,-20.6566 2413.4268,-24.7098 2413.8179,-17.7207"/>
</g>
<!-- 7&#45;&gt;0 -->
<g id="edge7" class="edge">
<title>7&#45;&gt;0</title>
<path fill="none" stroke="#c0c0c0" stroke-width="2" d="M2936.2956,-250.2646C2934.8982,-210.6531 2925.5172,-116.7222 2869.4412,-72 2834.4312,-44.0786 2542.4384,-26.9509 2413.8451,-20.6964"/>
<polygon fill="#c0c0c0" stroke="#c0c0c0" stroke-width="2" points="2413.922,-17.1962 2403.7655,-20.2122 2413.5861,-24.1881 2413.922,-17.1962"/>
</g>
<!-- 8&#45;&gt;0 -->
<g id="edge8" class="edge">
<title>8&#45;&gt;0</title>
<path fill="none" stroke="#c0c0c0" stroke-width="2" d="M2628.937,-247.9016C2654.8451,-236.6014 2682.5996,-222.7464 2691.4412,-212 2731.5506,-163.2494 2756.6564,-119.8194 2715.4412,-72 2696.0339,-49.4829 2511.5773,-31.0314 2413.7324,-22.7331"/>
<polygon fill="#c0c0c0" stroke="#c0c0c0" stroke-width="2" points="2413.9384,-19.2382 2403.6809,-21.8905 2413.3536,-26.2137 2413.9384,-19.2382"/>
</g>
<!-- 10 -->
<g id="node11" class="node">
<title>10</title>
<path fill="none" stroke="#d87d56" stroke-width="2" stroke-dasharray="5,2" d="M2670.4412,-204C2670.4412,-204 2600.4412,-204 2600.4412,-204 2594.4412,-204 2588.4412,-198 2588.4412,-192 2588.4412,-192 2588.4412,-180 2588.4412,-180 2588.4412,-174 2594.4412,-168 2600.4412,-168 2600.4412,-168 2670.4412,-168 2670.4412,-168 2676.4412,-168 2682.4412,-174 2682.4412,-180 2682.4412,-180 2682.4412,-192 2682.4412,-192 2682.4412,-198 2676.4412,-204 2670.4412,-204"/>
<text text-anchor="middle" x="2635.4412" y="-183.5" font-family="sans" font-size="10.00" fill="#000000">peakAnnotation</text>
</g>
<!-- 8&#45;&gt;10 -->
<g id="edge34" class="edge">
<title>8&#45;&gt;10</title>
<path fill="none" stroke="#c0c0c0" stroke-width="2" d="M2592.077,-247.6818C2599.6183,-236.955 2608.8933,-223.7621 2616.9274,-212.3342"/>
<polygon fill="#c0c0c0" stroke="#c0c0c0" stroke-width="2" points="2619.892,-214.203 2622.78,-204.0094 2614.1655,-210.1771 2619.892,-214.203"/>
</g>
<!-- 8&#45;&gt;12 -->
<g id="edge36" class="edge">
<title>8&#45;&gt;12</title>
<path fill="none" stroke="#c0c0c0" stroke-width="2" d="M2556.7491,-247.6818C2545.7738,-236.6395 2532.2009,-222.9839 2520.6182,-211.3306"/>
<polygon fill="#c0c0c0" stroke="#c0c0c0" stroke-width="2" points="2522.8734,-208.6346 2513.3414,-204.0094 2517.9086,-213.5693 2522.8734,-208.6346"/>
</g>
<!-- 14 -->
<g id="node15" class="node">
<title>14</title>
<path fill="none" stroke="#56a9d8" stroke-width="2" d="M2808.9412,-204C2808.9412,-204 2773.9412,-204 2773.9412,-204 2767.9412,-204 2761.9412,-198 2761.9412,-192 2761.9412,-192 2761.9412,-180 2761.9412,-180 2761.9412,-174 2767.9412,-168 2773.9412,-168 2773.9412,-168 2808.9412,-168 2808.9412,-168 2814.9412,-168 2820.9412,-174 2820.9412,-180 2820.9412,-180 2820.9412,-192 2820.9412,-192 2820.9412,-198 2814.9412,-204 2808.9412,-204"/>
<text text-anchor="middle" x="2791.4412" y="-183.5" font-family="sans" font-size="10.00" fill="#000000">findMotif</text>
</g>
<!-- 8&#45;&gt;14 -->
<g id="edge40" class="edge">
<title>8&#45;&gt;14</title>
<path fill="none" stroke="#c0c0c0" stroke-width="2" d="M2631.1017,-250.9702C2678.8057,-235.3386 2741.8686,-214.5374 2747.4412,-212 2749.4751,-211.0739 2751.5347,-210.0783 2753.5953,-209.0359"/>
<polygon fill="#c0c0c0" stroke="#c0c0c0" stroke-width="2" points="2755.3956,-212.0421 2762.5591,-204.236 2752.0912,-205.8712 2755.3956,-212.0421"/>
</g>
<!-- 16 -->
<g id="node17" class="node">
<title>16</title>
<path fill="none" stroke="#68d856" stroke-width="2" d="M885.9412,-124C885.9412,-124 548.9412,-124 548.9412,-124 542.9412,-124 536.9412,-118 536.9412,-112 536.9412,-112 536.9412,-84 536.9412,-84 536.9412,-78 542.9412,-72 548.9412,-72 548.9412,-72 885.9412,-72 885.9412,-72 891.9412,-72 897.9412,-78 897.9412,-84 897.9412,-84 897.9412,-112 897.9412,-112 897.9412,-118 891.9412,-124 885.9412,-124"/>
<text text-anchor="middle" x="717.4412" y="-112" font-family="sans" font-size="10.00" fill="#000000">EDEN</text>
<text text-anchor="middle" x="717.4412" y="-101" font-family="sans" font-size="10.00" fill="#000000">TPM_cutoff: 2</text>
<text text-anchor="middle" x="717.4412" y="-90" font-family="sans" font-size="10.00" fill="#000000">folders: MACS_Out_q_0.05</text>
<text text-anchor="middle" x="717.4412" y="-79" font-family="sans" font-size="10.00" fill="#000000">prefix: RH4_D6_H3K27ac_018_C_HWC77BGXY_peaks.narrowPeak.nobl</text>
</g>
<!-- 8&#45;&gt;16 -->
<g id="edge42" class="edge">
<title>8&#45;&gt;16</title>
<path fill="none" stroke="#c0c0c0" stroke-width="2" d="M2523.9149,-267.6022C2266.9939,-263.1529 1166.5165,-242.4558 1016.4412,-212 931.1689,-194.6951 838.3201,-155.8942 779.0829,-128.3772"/>
<polygon fill="#c0c0c0" stroke="#c0c0c0" stroke-width="2" points="780.4111,-125.1344 769.8706,-124.0627 777.4422,-131.4737 780.4111,-125.1344"/>
</g>
<!-- 9&#45;&gt;0 -->
<g id="edge9" class="edge">
<title>9&#45;&gt;0</title>
<path fill="none" stroke="#c0c0c0" stroke-width="2" d="M255.3045,-247.7427C246.4595,-224.3245 229.548,-186.1064 205.4412,-160 185.114,-137.9868 162.9044,-150.241 148.4412,-124 137.2854,-103.7597 132.3005,-88.5409 148.4412,-72 186.9656,-32.5206 1943.4445,-20.3583 2293.2308,-18.3259"/>
<polygon fill="#c0c0c0" stroke="#c0c0c0" stroke-width="2" points="2293.4266,-21.8249 2303.4062,-18.2673 2293.3862,-14.825 2293.4266,-21.8249"/>
</g>
<!-- 11 -->
<g id="node12" class="node">
<title>11</title>
<path fill="none" stroke="#d87d56" stroke-width="2" stroke-dasharray="5,2" d="M184.4412,-204C184.4412,-204 114.4412,-204 114.4412,-204 108.4412,-204 102.4412,-198 102.4412,-192 102.4412,-192 102.4412,-180 102.4412,-180 102.4412,-174 108.4412,-168 114.4412,-168 114.4412,-168 184.4412,-168 184.4412,-168 190.4412,-168 196.4412,-174 196.4412,-180 196.4412,-180 196.4412,-192 196.4412,-192 196.4412,-198 190.4412,-204 184.4412,-204"/>
<text text-anchor="middle" x="149.4412" y="-183.5" font-family="sans" font-size="10.00" fill="#000000">peakAnnotation</text>
</g>
<!-- 9&#45;&gt;11 -->
<g id="edge35" class="edge">
<title>9&#45;&gt;11</title>
<path fill="none" stroke="#c0c0c0" stroke-width="2" d="M234.218,-247.8946C218.5198,-236.4335 198.8978,-222.1077 182.486,-210.1256"/>
<polygon fill="#c0c0c0" stroke="#c0c0c0" stroke-width="2" points="184.3744,-207.1708 174.2341,-204.101 180.2468,-212.8244 184.3744,-207.1708"/>
</g>
<!-- 9&#45;&gt;13 -->
<g id="edge38" class="edge">
<title>9&#45;&gt;13</title>
<path fill="none" stroke="#c0c0c0" stroke-width="2" d="M316.0457,-266.2287C468.6514,-259.6177 918.494,-239.1233 1291.4412,-212 1364.168,-206.7108 1447.1113,-199.0166 1505.0643,-193.3703"/>
<polygon fill="#c0c0c0" stroke="#c0c0c0" stroke-width="2" points="1505.6135,-196.8334 1515.2252,-192.3764 1504.9319,-189.8667 1505.6135,-196.8334"/>
</g>
<!-- 15 -->
<g id="node16" class="node">
<title>15</title>
<path fill="none" stroke="#56a9d8" stroke-width="2" d="M71.9412,-204C71.9412,-204 36.9412,-204 36.9412,-204 30.9412,-204 24.9412,-198 24.9412,-192 24.9412,-192 24.9412,-180 24.9412,-180 24.9412,-174 30.9412,-168 36.9412,-168 36.9412,-168 71.9412,-168 71.9412,-168 77.9412,-168 83.9412,-174 83.9412,-180 83.9412,-180 83.9412,-192 83.9412,-192 83.9412,-198 77.9412,-204 71.9412,-204"/>
<text text-anchor="middle" x="54.4412" y="-183.5" font-family="sans" font-size="10.00" fill="#000000">findMotif</text>
</g>
<!-- 9&#45;&gt;15 -->
<g id="edge41" class="edge">
<title>9&#45;&gt;15</title>
<path fill="none" stroke="#c0c0c0" stroke-width="2" d="M208.8642,-254.5456C174.8988,-244.7463 130.5338,-230.1618 93.4412,-212 91.6872,-211.1412 89.9192,-210.2148 88.1554,-209.2412"/>
<polygon fill="#c0c0c0" stroke="#c0c0c0" stroke-width="2" points="89.8394,-206.1706 79.4543,-204.0727 86.2644,-212.1889 89.8394,-206.1706"/>
</g>
<!-- 19 -->
<g id="node20" class="node">
<title>19</title>
<path fill="none" stroke="#68d856" stroke-width="2" d="M506.9412,-124C506.9412,-124 169.9412,-124 169.9412,-124 163.9412,-124 157.9412,-118 157.9412,-112 157.9412,-112 157.9412,-84 157.9412,-84 157.9412,-78 163.9412,-72 169.9412,-72 169.9412,-72 506.9412,-72 506.9412,-72 512.9412,-72 518.9412,-78 518.9412,-84 518.9412,-84 518.9412,-112 518.9412,-112 518.9412,-118 512.9412,-124 506.9412,-124"/>
<text text-anchor="middle" x="338.4412" y="-112" font-family="sans" font-size="10.00" fill="#000000">EDEN</text>
<text text-anchor="middle" x="338.4412" y="-101" font-family="sans" font-size="10.00" fill="#000000">TPM_cutoff: 2</text>
<text text-anchor="middle" x="338.4412" y="-90" font-family="sans" font-size="10.00" fill="#000000">folders: MACS_Out_q_0.01</text>
<text text-anchor="middle" x="338.4412" y="-79" font-family="sans" font-size="10.00" fill="#000000">prefix: RH4_D6_H3K27ac_018_C_HWC77BGXY_peaks.narrowPeak.nobl</text>
</g>
<!-- 9&#45;&gt;19 -->
<g id="edge48" class="edge">
<title>9&#45;&gt;19</title>
<path fill="none" stroke="#c0c0c0" stroke-width="2" d="M271.6086,-247.9337C284.239,-219.5983 307.179,-168.1342 322.6134,-133.5084"/>
<polygon fill="#c0c0c0" stroke="#c0c0c0" stroke-width="2" points="325.8783,-134.7805 326.7529,-124.2219 319.4847,-131.9306 325.8783,-134.7805"/>
</g>
<!-- 10&#45;&gt;0 -->
<g id="edge10" class="edge">
<title>10&#45;&gt;0</title>
<path fill="none" stroke="#c0c0c0" stroke-width="2" d="M2661.4893,-167.9823C2674.9671,-157.0165 2690.1012,-141.7203 2697.4412,-124 2706.2854,-102.6481 2712.4627,-89.5635 2697.4412,-72 2679.262,-50.7445 2507.5971,-32.0006 2413.8564,-23.2449"/>
<polygon fill="#c0c0c0" stroke="#c0c0c0" stroke-width="2" points="2413.9344,-19.7373 2403.6548,-22.3027 2413.2905,-26.7076 2413.9344,-19.7373"/>
</g>
<!-- 11&#45;&gt;0 -->
<g id="edge11" class="edge">
<title>11&#45;&gt;0</title>
<path fill="none" stroke="#c0c0c0" stroke-width="2" d="M134.6751,-167.5873C116.4939,-142.6037 90.9665,-98.0971 116.4412,-72 155.562,-31.9234 1940.2897,-20.2271 2293.1889,-18.3045"/>
<polygon fill="#c0c0c0" stroke="#c0c0c0" stroke-width="2" points="2293.2279,-21.8044 2303.2089,-18.2504 2293.1901,-14.8045 2293.2279,-21.8044"/>
</g>
<!-- 12&#45;&gt;0 -->
<g id="edge12" class="edge">
<title>12&#45;&gt;0</title>
<path fill="none" stroke="#c0c0c0" stroke-width="2" d="M2554.1602,-167.9107C2606.2118,-151.5979 2674.5929,-129.367 2678.4412,-124 2691.9084,-105.2182 2693.384,-89.6305 2678.4412,-72 2661.5268,-52.0433 2502.8046,-33.0317 2413.5977,-23.8067"/>
<polygon fill="#c0c0c0" stroke="#c0c0c0" stroke-width="2" points="2413.91,-20.3205 2403.6056,-22.7842 2413.1973,-27.2841 2413.91,-20.3205"/>
</g>
<!-- 17 -->
<g id="node18" class="node">
<title>17</title>
<path fill="none" stroke="#68d856" stroke-width="2" d="M2657.4412,-124C2657.4412,-124 2279.4412,-124 2279.4412,-124 2273.4412,-124 2267.4412,-118 2267.4412,-112 2267.4412,-112 2267.4412,-84 2267.4412,-84 2267.4412,-78 2273.4412,-72 2279.4412,-72 2279.4412,-72 2657.4412,-72 2657.4412,-72 2663.4412,-72 2669.4412,-78 2669.4412,-84 2669.4412,-84 2669.4412,-112 2669.4412,-112 2669.4412,-118 2663.4412,-124 2657.4412,-124"/>
<text text-anchor="middle" x="2468.4412" y="-112" font-family="sans" font-size="10.00" fill="#000000">EDEN</text>
<text text-anchor="middle" x="2468.4412" y="-101" font-family="sans" font-size="10.00" fill="#000000">TPM_cutoff: 2</text>
<text text-anchor="middle" x="2468.4412" y="-90" font-family="sans" font-size="10.00" fill="#000000">folders: MACS_Out_q_0.05/ROSE_out_12500</text>
<text text-anchor="middle" x="2468.4412" y="-79" font-family="sans" font-size="10.00" fill="#000000">prefix: RH4_D6_H3K27ac_018_C_HWC77BGXY_peaks_AllEnhancers.table.super</text>
</g>
<!-- 12&#45;&gt;17 -->
<g id="edge44" class="edge">
<title>12&#45;&gt;17</title>
<path fill="none" stroke="#c0c0c0" stroke-width="2" d="M2489.8468,-167.7663C2486.8601,-158.032 2483.0764,-145.6998 2479.5235,-134.1203"/>
<polygon fill="#c0c0c0" stroke="#c0c0c0" stroke-width="2" points="2482.766,-132.7558 2476.4867,-124.2223 2476.0739,-134.8091 2482.766,-132.7558"/>
</g>
<!-- 18 -->
<g id="node19" class="node">
<title>18</title>
<path fill="none" stroke="#68d856" stroke-width="2" d="M2199.4412,-124C2199.4412,-124 1813.4412,-124 1813.4412,-124 1807.4412,-124 1801.4412,-118 1801.4412,-112 1801.4412,-112 1801.4412,-84 1801.4412,-84 1801.4412,-78 1807.4412,-72 1813.4412,-72 1813.4412,-72 2199.4412,-72 2199.4412,-72 2205.4412,-72 2211.4412,-78 2211.4412,-84 2211.4412,-84 2211.4412,-112 2211.4412,-112 2211.4412,-118 2205.4412,-124 2199.4412,-124"/>
<text text-anchor="middle" x="2006.4412" y="-112" font-family="sans" font-size="10.00" fill="#000000">EDEN</text>
<text text-anchor="middle" x="2006.4412" y="-101" font-family="sans" font-size="10.00" fill="#000000">TPM_cutoff: 2</text>
<text text-anchor="middle" x="2006.4412" y="-90" font-family="sans" font-size="10.00" fill="#000000">folders: MACS_Out_q_0.05/ROSE_out_12500</text>
<text text-anchor="middle" x="2006.4412" y="-79" font-family="sans" font-size="10.00" fill="#000000">prefix: RH4_D6_H3K27ac_018_C_HWC77BGXY_peaks_AllEnhancers.table.regular</text>
</g>
<!-- 12&#45;&gt;18 -->
<g id="edge46" class="edge">
<title>12&#45;&gt;18</title>
<path fill="none" stroke="#c0c0c0" stroke-width="2" d="M2432.0143,-174.5858C2363.6963,-162.2913 2252.4675,-142.2747 2160.8555,-125.7883"/>
<polygon fill="#c0c0c0" stroke="#c0c0c0" stroke-width="2" points="2161.3842,-122.3273 2150.9223,-124.0007 2160.1443,-129.2166 2161.3842,-122.3273"/>
</g>
<!-- 13&#45;&gt;0 -->
<g id="edge13" class="edge">
<title>13&#45;&gt;0</title>
<path fill="none" stroke="#c0c0c0" stroke-width="2" d="M1641.5633,-182.8355C1793.5348,-174.8026 2170.8856,-152.2419 2220.4412,-124 2245.3105,-109.8269 2237.0785,-91.0524 2258.4412,-72 2271.9338,-59.9666 2288.5454,-49.4092 2304.0843,-40.8964"/>
<polygon fill="#c0c0c0" stroke="#c0c0c0" stroke-width="2" points="2305.8845,-43.9035 2313.0777,-36.1248 2302.6036,-37.72 2305.8845,-43.9035"/>
</g>
<!-- 20 -->
<g id="node21" class="node">
<title>20</title>
<path fill="none" stroke="#68d856" stroke-width="2" d="M1343.4412,-124C1343.4412,-124 965.4412,-124 965.4412,-124 959.4412,-124 953.4412,-118 953.4412,-112 953.4412,-112 953.4412,-84 953.4412,-84 953.4412,-78 959.4412,-72 965.4412,-72 965.4412,-72 1343.4412,-72 1343.4412,-72 1349.4412,-72 1355.4412,-78 1355.4412,-84 1355.4412,-84 1355.4412,-112 1355.4412,-112 1355.4412,-118 1349.4412,-124 1343.4412,-124"/>
<text text-anchor="middle" x="1154.4412" y="-112" font-family="sans" font-size="10.00" fill="#000000">EDEN</text>
<text text-anchor="middle" x="1154.4412" y="-101" font-family="sans" font-size="10.00" fill="#000000">TPM_cutoff: 2</text>
<text text-anchor="middle" x="1154.4412" y="-90" font-family="sans" font-size="10.00" fill="#000000">folders: MACS_Out_q_0.01/ROSE_out_12500</text>
<text text-anchor="middle" x="1154.4412" y="-79" font-family="sans" font-size="10.00" fill="#000000">prefix: RH4_D6_H3K27ac_018_C_HWC77BGXY_peaks_AllEnhancers.table.super</text>
</g>
<!-- 13&#45;&gt;20 -->
<g id="edge50" class="edge">
<title>13&#45;&gt;20</title>
<path fill="none" stroke="#c0c0c0" stroke-width="2" d="M1515.4219,-172.9205C1456.2536,-160.6403 1365.7785,-141.8625 1290.2108,-126.1786"/>
<polygon fill="#c0c0c0" stroke="#c0c0c0" stroke-width="2" points="1290.6292,-122.6909 1280.1266,-124.0857 1289.2067,-129.5449 1290.6292,-122.6909"/>
</g>
<!-- 21 -->
<g id="node22" class="node">
<title>21</title>
<path fill="none" stroke="#68d856" stroke-width="2" d="M1771.4412,-124C1771.4412,-124 1385.4412,-124 1385.4412,-124 1379.4412,-124 1373.4412,-118 1373.4412,-112 1373.4412,-112 1373.4412,-84 1373.4412,-84 1373.4412,-78 1379.4412,-72 1385.4412,-72 1385.4412,-72 1771.4412,-72 1771.4412,-72 1777.4412,-72 1783.4412,-78 1783.4412,-84 1783.4412,-84 1783.4412,-112 1783.4412,-112 1783.4412,-118 1777.4412,-124 1771.4412,-124"/>
<text text-anchor="middle" x="1578.4412" y="-112" font-family="sans" font-size="10.00" fill="#000000">EDEN</text>
<text text-anchor="middle" x="1578.4412" y="-101" font-family="sans" font-size="10.00" fill="#000000">TPM_cutoff: 2</text>
<text text-anchor="middle" x="1578.4412" y="-90" font-family="sans" font-size="10.00" fill="#000000">folders: MACS_Out_q_0.01/ROSE_out_12500</text>
<text text-anchor="middle" x="1578.4412" y="-79" font-family="sans" font-size="10.00" fill="#000000">prefix: RH4_D6_H3K27ac_018_C_HWC77BGXY_peaks_AllEnhancers.table.regular</text>
</g>
<!-- 13&#45;&gt;21 -->
<g id="edge52" class="edge">
<title>13&#45;&gt;21</title>
<path fill="none" stroke="#c0c0c0" stroke-width="2" d="M1578.4412,-167.7663C1578.4412,-158.1303 1578.4412,-145.9487 1578.4412,-134.4714"/>
<polygon fill="#c0c0c0" stroke="#c0c0c0" stroke-width="2" points="1581.9413,-134.2223 1578.4412,-124.2223 1574.9413,-134.2223 1581.9413,-134.2223"/>
</g>
<!-- 14&#45;&gt;0 -->
<g id="edge14" class="edge">
<title>14&#45;&gt;0</title>
<path fill="none" stroke="#c0c0c0" stroke-width="2" d="M2797.1808,-167.9427C2803.8759,-142.9623 2811.2375,-98.0069 2787.4412,-72 2762.6513,-44.9072 2527.4761,-27.9239 2414.0512,-21.2429"/>
<polygon fill="#c0c0c0" stroke="#c0c0c0" stroke-width="2" points="2413.9806,-17.733 2403.7944,-20.6473 2413.5747,-24.7212 2413.9806,-17.733"/>
</g>
<!-- 15&#45;&gt;0 -->
<g id="edge15" class="edge">
<title>15&#45;&gt;0</title>
<path fill="none" stroke="#c0c0c0" stroke-width="2" d="M56.1748,-167.5786C59.7443,-141.2834 70.4978,-93.766 102.4412,-72 149.0252,-40.2579 1940.0912,-21.8687 2293.3081,-18.547"/>
<polygon fill="#c0c0c0" stroke="#c0c0c0" stroke-width="2" points="2293.369,-22.0466 2303.3357,-18.4531 2293.3034,-15.047 2293.369,-22.0466"/>
</g>
<!-- 16&#45;&gt;0 -->
<g id="edge16" class="edge">
<title>16&#45;&gt;0</title>
<path fill="none" stroke="#c0c0c0" stroke-width="2" d="M898.0936,-73.212C902.5849,-72.7818 907.0396,-72.3765 911.4412,-72 1186.2957,-48.49 2055.402,-25.4669 2292.9359,-19.4915"/>
<polygon fill="#c0c0c0" stroke="#c0c0c0" stroke-width="2" points="2293.1977,-22.9861 2303.1068,-19.2363 2293.0221,-15.9883 2293.1977,-22.9861"/>
</g>
<!-- 17&#45;&gt;0 -->
<g id="edge17" class="edge">
<title>17&#45;&gt;0</title>
<path fill="none" stroke="#c0c0c0" stroke-width="2" d="M2430.7859,-71.805C2417.0297,-62.2355 2401.5464,-51.4645 2388.0668,-42.0874"/>
<polygon fill="#c0c0c0" stroke="#c0c0c0" stroke-width="2" points="2389.7443,-38.9908 2379.5365,-36.1532 2385.7468,-44.7371 2389.7443,-38.9908"/>
</g>
<!-- 18&#45;&gt;0 -->
<g id="edge18" class="edge">
<title>18&#45;&gt;0</title>
<path fill="none" stroke="#c0c0c0" stroke-width="2" d="M2119.5818,-71.9157C2177.5596,-58.5491 2245.8101,-42.8141 2293.5637,-31.8046"/>
<polygon fill="#c0c0c0" stroke="#c0c0c0" stroke-width="2" points="2294.4735,-35.1867 2303.4316,-29.5296 2292.9009,-28.3657 2294.4735,-35.1867"/>
</g>
<!-- 19&#45;&gt;0 -->
<g id="edge19" class="edge">
<title>19&#45;&gt;0</title>
<path fill="none" stroke="#c0c0c0" stroke-width="2" d="M518.9628,-72.7396C521.8079,-72.4807 524.6356,-72.2338 527.4412,-72 882.0019,-42.4551 2017.6613,-23.2194 2292.9234,-18.9165"/>
<polygon fill="#c0c0c0" stroke="#c0c0c0" stroke-width="2" points="2293.1673,-22.4133 2303.1116,-18.758 2293.0583,-15.4141 2293.1673,-22.4133"/>
</g>
<!-- 20&#45;&gt;0 -->
<g id="edge20" class="edge">
<title>20&#45;&gt;0</title>
<path fill="none" stroke="#c0c0c0" stroke-width="2" d="M1355.5971,-72.8089C1358.5644,-72.5307 1361.5139,-72.2608 1364.4412,-72 1715.4196,-40.7281 2138.1938,-24.9204 2292.9431,-19.8569"/>
<polygon fill="#c0c0c0" stroke="#c0c0c0" stroke-width="2" points="2293.3003,-23.3472 2303.1815,-19.5248 2293.0733,-16.3509 2293.3003,-23.3472"/>
</g>
<!-- 21&#45;&gt;0 -->
<g id="edge21" class="edge">
<title>21&#45;&gt;0</title>
<path fill="none" stroke="#c0c0c0" stroke-width="2" d="M1783.4472,-72.9868C1786.4653,-72.6532 1789.4647,-72.324 1792.4412,-72 1974.4118,-52.1909 2190.0095,-32.4965 2292.9127,-23.3276"/>
<polygon fill="#c0c0c0" stroke="#c0c0c0" stroke-width="2" points="2293.4596,-26.7928 2303.1102,-22.4206 2292.8394,-19.8204 2293.4596,-26.7928"/>
</g>
<!-- 22 -->
<g id="node23" class="node">
<title>22</title>
<path fill="none" stroke="#56d86b" stroke-width="2" d="M1270.9412,-212C1270.9412,-212 1037.9412,-212 1037.9412,-212 1031.9412,-212 1025.9412,-206 1025.9412,-200 1025.9412,-200 1025.9412,-172 1025.9412,-172 1025.9412,-166 1031.9412,-160 1037.9412,-160 1037.9412,-160 1270.9412,-160 1270.9412,-160 1276.9412,-160 1282.9412,-166 1282.9412,-172 1282.9412,-172 1282.9412,-200 1282.9412,-200 1282.9412,-206 1276.9412,-212 1270.9412,-212"/>
<text text-anchor="middle" x="1154.4412" y="-200" font-family="sans" font-size="10.00" fill="#000000">RNAseq_pipeline</text>
<text text-anchor="middle" x="1154.4412" y="-189" font-family="sans" font-size="10.00" fill="#000000">genome: hg19</text>
<text text-anchor="middle" x="1154.4412" y="-178" font-family="sans" font-size="10.00" fill="#000000">rnaseq_sample: Rh4_dmso_6h_rz_T_H3YCHBGXX</text>
<text text-anchor="middle" x="1154.4412" y="-167" font-family="sans" font-size="10.00" fill="#000000">sample: RH4_D6_H3K27ac_018_C_HWC77BGXY</text>
</g>
<!-- 22&#45;&gt;0 -->
<g id="edge22" class="edge">
<title>22&#45;&gt;0</title>
<path fill="none" stroke="#c0c0c0" stroke-width="2" d="M1025.6639,-161.2756C988.8108,-151.4383 955.5644,-138.8818 944.4412,-124 930.6049,-105.4883 928.4151,-88.652 944.4412,-72 968.181,-47.333 2026.8817,-24.5317 2293.1603,-19.1799"/>
<polygon fill="#c0c0c0" stroke="#c0c0c0" stroke-width="2" points="2293.476,-22.6744 2303.4039,-18.9748 2293.3358,-15.6758 2293.476,-22.6744"/>
</g>
<!-- 22&#45;&gt;16 -->
<g id="edge43" class="edge">
<title>22&#45;&gt;16</title>
<path fill="none" stroke="#c0c0c0" stroke-width="2" d="M1025.6904,-160.0731C972.5992,-149.3819 910.9516,-136.9678 856.8018,-126.0635"/>
<polygon fill="#c0c0c0" stroke="#c0c0c0" stroke-width="2" points="857.2761,-122.5888 846.7819,-124.0457 855.8941,-129.451 857.2761,-122.5888"/>
</g>
<!-- 22&#45;&gt;17 -->
<g id="edge45" class="edge">
<title>22&#45;&gt;17</title>
<path fill="none" stroke="#c0c0c0" stroke-width="2" d="M1283.1254,-175.7707C1349.7528,-170.658 1432.438,-164.5981 1506.4412,-160 1823.5661,-140.296 1903.6564,-148.5737 2220.4412,-124 2232.4464,-123.0687 2244.7705,-122.0329 2257.2025,-120.9262"/>
<polygon fill="#c0c0c0" stroke="#c0c0c0" stroke-width="2" points="2257.5471,-124.4094 2267.1918,-120.0241 2256.9175,-117.4378 2257.5471,-124.4094"/>
</g>
<!-- 22&#45;&gt;18 -->
<g id="edge47" class="edge">
<title>22&#45;&gt;18</title>
<path fill="none" stroke="#c0c0c0" stroke-width="2" d="M1283.1487,-174.4073C1409.7423,-162.7936 1608.7814,-143.9696 1791.3736,-124.1067"/>
<polygon fill="#c0c0c0" stroke="#c0c0c0" stroke-width="2" points="1791.8733,-127.5731 1801.4348,-123.0093 1791.1142,-120.6143 1791.8733,-127.5731"/>
</g>
<!-- 22&#45;&gt;19 -->
<g id="edge49" class="edge">
<title>22&#45;&gt;19</title>
<path fill="none" stroke="#c0c0c0" stroke-width="2" d="M1025.7971,-174.7251C901.2966,-163.4789 706.9902,-145.0476 529.0633,-124.1757"/>
<polygon fill="#c0c0c0" stroke="#c0c0c0" stroke-width="2" points="529.3308,-120.6831 518.9901,-122.9894 528.512,-127.6351 529.3308,-120.6831"/>
</g>
<!-- 22&#45;&gt;20 -->
<g id="edge51" class="edge">
<title>22&#45;&gt;20</title>
<path fill="none" stroke="#c0c0c0" stroke-width="2" d="M1154.4412,-159.5971C1154.4412,-151.6068 1154.4412,-142.6894 1154.4412,-134.1759"/>
<polygon fill="#c0c0c0" stroke="#c0c0c0" stroke-width="2" points="1157.9413,-134.081 1154.4412,-124.081 1150.9413,-134.081 1157.9413,-134.081"/>
</g>
<!-- 22&#45;&gt;21 -->
<g id="edge53" class="edge">
<title>22&#45;&gt;21</title>
<path fill="none" stroke="#c0c0c0" stroke-width="2" d="M1279.9342,-159.9543C1331.2071,-149.3127 1390.6285,-136.98 1442.8922,-126.1328"/>
<polygon fill="#c0c0c0" stroke="#c0c0c0" stroke-width="2" points="1443.8239,-129.5141 1452.904,-124.0549 1442.4014,-122.6602 1443.8239,-129.5141"/>
</g>
<!-- 23 -->
<g id="node24" class="node">
<title>23</title>
<path fill="none" stroke="#567bd8" stroke-width="2" stroke-dasharray="5,2" d="M2815.4412,-438C2815.4412,-438 2589.4412,-438 2589.4412,-438 2583.4412,-438 2577.4412,-432 2577.4412,-426 2577.4412,-426 2577.4412,-409 2577.4412,-409 2577.4412,-403 2583.4412,-397 2589.4412,-397 2589.4412,-397 2815.4412,-397 2815.4412,-397 2821.4412,-397 2827.4412,-403 2827.4412,-409 2827.4412,-409 2827.4412,-426 2827.4412,-426 2827.4412,-432 2821.4412,-438 2815.4412,-438"/>
<text text-anchor="middle" x="2702.4412" y="-426" font-family="sans" font-size="10.00" fill="#000000">prepareFASTQ</text>
<text text-anchor="middle" x="2702.4412" y="-415" font-family="sans" font-size="10.00" fill="#000000">sample: RH4_D6_H3K27ac_018_C_HWC77BGXY</text>
<text text-anchor="middle" x="2702.4412" y="-404" font-family="sans" font-size="10.00" fill="#000000">suffix: R1.fastq.gz</text>
</g>
<!-- 23&#45;&gt;1 -->
<g id="edge23" class="edge">
<title>23&#45;&gt;1</title>
<path fill="none" stroke="#c0c0c0" stroke-width="2" d="M2702.4412,-396.7476C2702.4412,-388.8767 2702.4412,-379.7743 2702.4412,-371.3232"/>
<polygon fill="#c0c0c0" stroke="#c0c0c0" stroke-width="2" points="2705.9413,-371.1086 2702.4412,-361.1087 2698.9413,-371.1087 2705.9413,-371.1086"/>
</g>
<!-- 24 -->
<g id="node25" class="node">
<title>24</title>
<path fill="none" stroke="#567bd8" stroke-width="2" stroke-dasharray="5,2" d="M354.9412,-438C354.9412,-438 169.9412,-438 169.9412,-438 163.9412,-438 157.9412,-432 157.9412,-426 157.9412,-426 157.9412,-409 157.9412,-409 157.9412,-403 163.9412,-397 169.9412,-397 169.9412,-397 354.9412,-397 354.9412,-397 360.9412,-397 366.9412,-403 366.9412,-409 366.9412,-409 366.9412,-426 366.9412,-426 366.9412,-432 360.9412,-438 354.9412,-438"/>
<text text-anchor="middle" x="262.4412" y="-426" font-family="sans" font-size="10.00" fill="#000000">prepareFASTQ</text>
<text text-anchor="middle" x="262.4412" y="-415" font-family="sans" font-size="10.00" fill="#000000">sample: RH4_Input_001_C_H5TLGBGXX</text>
<text text-anchor="middle" x="262.4412" y="-404" font-family="sans" font-size="10.00" fill="#000000">suffix: R1.fastq.gz</text>
</g>
<!-- 24&#45;&gt;2 -->
<g id="edge24" class="edge">
<title>24&#45;&gt;2</title>
<path fill="none" stroke="#c0c0c0" stroke-width="2" d="M262.4412,-396.7476C262.4412,-388.8767 262.4412,-379.7743 262.4412,-371.3232"/>
<polygon fill="#c0c0c0" stroke="#c0c0c0" stroke-width="2" points="265.9413,-371.1086 262.4412,-361.1087 258.9413,-371.1087 265.9413,-371.1086"/>
</g>
<!-- 25&#45;&gt;5 -->
<g id="edge27" class="edge">
<title>25&#45;&gt;5</title>
<path fill="none" stroke="#c0c0c0" stroke-width="2" d="M3034.762,-167.9795C3050.9656,-154.8978 3073.0816,-137.0426 3090.9182,-122.6424"/>
<polygon fill="#c0c0c0" stroke="#c0c0c0" stroke-width="2" points="3093.1935,-125.3038 3098.7757,-116.2988 3088.7963,-119.8573 3093.1935,-125.3038"/>
</g>
<!-- 25&#45;&gt;6 -->
<g id="edge28" class="edge">
<title>25&#45;&gt;6</title>
<path fill="none" stroke="#c0c0c0" stroke-width="2" d="M3010.162,-167.7663C3008.6723,-155.8492 3006.696,-140.0384 3005.0014,-126.4817"/>
<polygon fill="#c0c0c0" stroke="#c0c0c0" stroke-width="2" points="3008.4309,-125.6989 3003.7175,-116.2103 3001.4849,-126.5672 3008.4309,-125.6989"/>
</g>
</g>
</svg>
