<?xml version="1.0" encoding="UTF-8" standalone="no"?>
<!DOCTYPE svg PUBLIC "-//W3C//DTD SVG 1.1//EN"
 "http://www.w3.org/Graphics/SVG/1.1/DTD/svg11.dtd">
<!-- Generated by graphviz version 2.40.1 (20161225.0304)
 -->
<!-- Title: snakemake_dag Pages: 1 -->
<svg width="3947pt" height="523pt"
 viewBox="0.00 0.00 3947.00 523.00" xmlns="http://www.w3.org/2000/svg" xmlns:xlink="http://www.w3.org/1999/xlink">
<g id="graph0" class="graph" transform="scale(1 1) rotate(0) translate(4 519)">
<title>snakemake_dag</title>
<polygon fill="#ffffff" stroke="transparent" points="-4,4 -4,-519 3943,-519 3943,4 -4,4"/>
<!-- 0 -->
<g id="node1" class="node">
<title>0</title>
<path fill="none" stroke="#d85656" stroke-width="2" d="M2743,-36C2743,-36 2667,-36 2667,-36 2661,-36 2655,-30 2655,-24 2655,-24 2655,-12 2655,-12 2655,-6 2661,0 2667,0 2667,0 2743,0 2743,0 2749,0 2755,-6 2755,-12 2755,-12 2755,-24 2755,-24 2755,-30 2749,-36 2743,-36"/>
<text text-anchor="middle" x="2705" y="-15.5" font-family="sans" font-size="10.00" fill="#000000">ChIPseq_pipeline</text>
</g>
<!-- 1 -->
<g id="node2" class="node">
<title>1</title>
<path fill="none" stroke="#ced856" stroke-width="2" stroke-dasharray="5,2" d="M3522,-438C3522,-438 3492,-438 3492,-438 3486,-438 3480,-432 3480,-426 3480,-426 3480,-414 3480,-414 3480,-408 3486,-402 3492,-402 3492,-402 3522,-402 3522,-402 3528,-402 3534,-408 3534,-414 3534,-414 3534,-426 3534,-426 3534,-432 3528,-438 3522,-438"/>
<text text-anchor="middle" x="3507" y="-417.5" font-family="sans" font-size="10.00" fill="#000000">BWA</text>
</g>
<!-- 1&#45;&gt;0 -->
<g id="edge1" class="edge">
<title>1&#45;&gt;0</title>
<path fill="none" stroke="#c0c0c0" stroke-width="2" d="M3534.13,-417.3191C3568.2516,-412.5953 3626.7493,-399.8267 3663,-366 3713.6136,-318.7707 3813.6904,-122.1794 3766,-72 3731.3306,-35.5212 2984.3773,-21.9906 2765.042,-18.7955"/>
<polygon fill="#c0c0c0" stroke="#c0c0c0" stroke-width="2" points="2765.0506,-15.2954 2755.0012,-18.6511 2764.9498,-22.2947 2765.0506,-15.2954"/>
</g>
<!-- 3 -->
<g id="node4" class="node">
<title>3</title>
<path fill="none" stroke="#56d8d0" stroke-width="2" stroke-dasharray="5,2" d="M3864.5,-289C3864.5,-289 3781.5,-289 3781.5,-289 3775.5,-289 3769.5,-283 3769.5,-277 3769.5,-277 3769.5,-260 3769.5,-260 3769.5,-254 3775.5,-248 3781.5,-248 3781.5,-248 3864.5,-248 3864.5,-248 3870.5,-248 3876.5,-254 3876.5,-260 3876.5,-260 3876.5,-277 3876.5,-277 3876.5,-283 3870.5,-289 3864.5,-289"/>
<text text-anchor="middle" x="3823" y="-277" font-family="sans" font-size="10.00" fill="#000000">makeBigWig</text>
<text text-anchor="middle" x="3823" y="-266" font-family="sans" font-size="10.00" fill="#000000">bin_size: 25</text>
<text text-anchor="middle" x="3823" y="-255" font-family="sans" font-size="10.00" fill="#000000">norm_type: scaled</text>
</g>
<!-- 1&#45;&gt;3 -->
<g id="edge25" class="edge">
<title>1&#45;&gt;3</title>
<path fill="none" stroke="#c0c0c0" stroke-width="2" d="M3534.2609,-416.611C3590.8473,-409.173 3718.7967,-390.1403 3755,-366 3779.9397,-349.3702 3798.4695,-320.2238 3809.8344,-298.1177"/>
<polygon fill="#c0c0c0" stroke="#c0c0c0" stroke-width="2" points="3812.9818,-299.6487 3814.2642,-289.1318 3806.7033,-296.5535 3812.9818,-299.6487"/>
</g>
<!-- 4 -->
<g id="node5" class="node">
<title>4</title>
<path fill="none" stroke="#56d8d0" stroke-width="2" stroke-dasharray="5,2" d="M3927,-366C3927,-366 3855,-366 3855,-366 3849,-366 3843,-360 3843,-354 3843,-354 3843,-337 3843,-337 3843,-331 3849,-325 3855,-325 3855,-325 3927,-325 3927,-325 3933,-325 3939,-331 3939,-337 3939,-337 3939,-354 3939,-354 3939,-360 3933,-366 3927,-366"/>
<text text-anchor="middle" x="3891" y="-354" font-family="sans" font-size="10.00" fill="#000000">makeBigWig</text>
<text text-anchor="middle" x="3891" y="-343" font-family="sans" font-size="10.00" fill="#000000">bin_size: 25</text>
<text text-anchor="middle" x="3891" y="-332" font-family="sans" font-size="10.00" fill="#000000">norm_type: RPM</text>
</g>
<!-- 1&#45;&gt;4 -->
<g id="edge26" class="edge">
<title>1&#45;&gt;4</title>
<path fill="none" stroke="#c0c0c0" stroke-width="2" d="M3534.3549,-416.0495C3588.3213,-408.0698 3712.186,-388.8308 3815,-366 3820.8117,-364.7095 3826.8462,-363.2645 3832.8593,-361.7551"/>
<polygon fill="#c0c0c0" stroke="#c0c0c0" stroke-width="2" points="3834.1022,-365.0495 3842.9158,-359.1699 3832.3593,-358.2699 3834.1022,-365.0495"/>
</g>
<!-- 7 -->
<g id="node8" class="node">
<title>7</title>
<path fill="none" stroke="#d89c56" stroke-width="2" stroke-dasharray="5,2" d="M3619,-363.5C3619,-363.5 3547,-363.5 3547,-363.5 3541,-363.5 3535,-357.5 3535,-351.5 3535,-351.5 3535,-339.5 3535,-339.5 3535,-333.5 3541,-327.5 3547,-327.5 3547,-327.5 3619,-327.5 3619,-327.5 3625,-327.5 3631,-333.5 3631,-339.5 3631,-339.5 3631,-351.5 3631,-351.5 3631,-357.5 3625,-363.5 3619,-363.5"/>
<text text-anchor="middle" x="3583" y="-343" font-family="sans" font-size="10.00" fill="#000000">crossCorrelation</text>
</g>
<!-- 1&#45;&gt;7 -->
<g id="edge29" class="edge">
<title>1&#45;&gt;7</title>
<path fill="none" stroke="#c0c0c0" stroke-width="2" d="M3525.3975,-401.9656C3534.9421,-392.6094 3546.7587,-381.026 3557.2005,-370.7903"/>
<polygon fill="#c0c0c0" stroke="#c0c0c0" stroke-width="2" points="3559.8174,-373.1262 3564.5085,-363.6265 3554.9172,-368.1274 3559.8174,-373.1262"/>
</g>
<!-- 8 -->
<g id="node9" class="node">
<title>8</title>
<path fill="none" stroke="#d8bc56" stroke-width="2" d="M559.5,-366C559.5,-366 482.5,-366 482.5,-366 476.5,-366 470.5,-360 470.5,-354 470.5,-354 470.5,-337 470.5,-337 470.5,-331 476.5,-325 482.5,-325 482.5,-325 559.5,-325 559.5,-325 565.5,-325 571.5,-331 571.5,-337 571.5,-337 571.5,-354 571.5,-354 571.5,-360 565.5,-366 559.5,-366"/>
<text text-anchor="middle" x="521" y="-354" font-family="sans" font-size="10.00" fill="#000000">macs2</text>
<text text-anchor="middle" x="521" y="-343" font-family="sans" font-size="10.00" fill="#000000">cutoff: 0.05</text>
<text text-anchor="middle" x="521" y="-332" font-family="sans" font-size="10.00" fill="#000000">peak_type: broad</text>
</g>
<!-- 1&#45;&gt;8 -->
<g id="edge30" class="edge">
<title>1&#45;&gt;8</title>
<path fill="none" stroke="#c0c0c0" stroke-width="2" d="M3479.9004,-419.9408C3273.0111,-419.3886 1921.8837,-413.9994 825,-366 740.5727,-362.3055 643.129,-355.2385 581.7944,-350.4471"/>
<polygon fill="#c0c0c0" stroke="#c0c0c0" stroke-width="2" points="581.7652,-346.9341 571.5216,-349.6395 581.2165,-353.9126 581.7652,-346.9341"/>
</g>
<!-- 9 -->
<g id="node10" class="node">
<title>9</title>
<path fill="none" stroke="#d8bc56" stroke-width="2" d="M3278.5,-366C3278.5,-366 3201.5,-366 3201.5,-366 3195.5,-366 3189.5,-360 3189.5,-354 3189.5,-354 3189.5,-337 3189.5,-337 3189.5,-331 3195.5,-325 3201.5,-325 3201.5,-325 3278.5,-325 3278.5,-325 3284.5,-325 3290.5,-331 3290.5,-337 3290.5,-337 3290.5,-354 3290.5,-354 3290.5,-360 3284.5,-366 3278.5,-366"/>
<text text-anchor="middle" x="3240" y="-354" font-family="sans" font-size="10.00" fill="#000000">macs2</text>
<text text-anchor="middle" x="3240" y="-343" font-family="sans" font-size="10.00" fill="#000000">cutoff: 0.01</text>
<text text-anchor="middle" x="3240" y="-332" font-family="sans" font-size="10.00" fill="#000000">peak_type: broad</text>
</g>
<!-- 1&#45;&gt;9 -->
<g id="edge32" class="edge">
<title>1&#45;&gt;9</title>
<path fill="none" stroke="#c0c0c0" stroke-width="2" d="M3479.7754,-413.1305C3440.8763,-403.2226 3367.213,-384.1165 3305,-366 3303.5444,-365.5761 3302.0717,-365.1433 3300.5872,-364.7036"/>
<polygon fill="#c0c0c0" stroke="#c0c0c0" stroke-width="2" points="3301.2605,-361.2512 3290.6761,-361.7208 3299.2432,-367.9542 3301.2605,-361.2512"/>
</g>
<!-- 12 -->
<g id="node13" class="node">
<title>12</title>
<path fill="none" stroke="#56d8a9" stroke-width="2" d="M871,-204C871,-204 769,-204 769,-204 763,-204 757,-198 757,-192 757,-192 757,-180 757,-180 757,-174 763,-168 769,-168 769,-168 871,-168 871,-168 877,-168 883,-174 883,-180 883,-180 883,-192 883,-192 883,-198 877,-204 871,-204"/>
<text text-anchor="middle" x="820" y="-189" font-family="sans" font-size="10.00" fill="#000000">rose</text>
<text text-anchor="middle" x="820" y="-178" font-family="sans" font-size="10.00" fill="#000000">stitch_distance: 12500</text>
</g>
<!-- 1&#45;&gt;12 -->
<g id="edge38" class="edge">
<title>1&#45;&gt;12</title>
<path fill="none" stroke="#c0c0c0" stroke-width="2" d="M3479.6985,-419.8221C3244.5788,-418.2244 1564.8859,-405.4754 1345,-366 1163.1811,-333.3586 959.2487,-248.6567 868.294,-208.1757"/>
<polygon fill="#c0c0c0" stroke="#c0c0c0" stroke-width="2" points="869.6255,-204.9371 859.068,-204.0483 866.7669,-211.3269 869.6255,-204.9371"/>
</g>
<!-- 13 -->
<g id="node14" class="node">
<title>13</title>
<path fill="none" stroke="#56d8a9" stroke-width="2" d="M3332,-204C3332,-204 3230,-204 3230,-204 3224,-204 3218,-198 3218,-192 3218,-192 3218,-180 3218,-180 3218,-174 3224,-168 3230,-168 3230,-168 3332,-168 3332,-168 3338,-168 3344,-174 3344,-180 3344,-180 3344,-192 3344,-192 3344,-198 3338,-204 3332,-204"/>
<text text-anchor="middle" x="3281" y="-189" font-family="sans" font-size="10.00" fill="#000000">rose</text>
<text text-anchor="middle" x="3281" y="-178" font-family="sans" font-size="10.00" fill="#000000">stitch_distance: 12500</text>
</g>
<!-- 1&#45;&gt;13 -->
<g id="edge41" class="edge">
<title>1&#45;&gt;13</title>
<path fill="none" stroke="#c0c0c0" stroke-width="2" d="M3488.1044,-401.578C3462.4251,-376.4353 3415.2115,-329.8278 3376,-289 3351.0471,-263.0185 3323.1751,-232.6311 3304.1102,-211.6283"/>
<polygon fill="#c0c0c0" stroke="#c0c0c0" stroke-width="2" points="3306.5673,-209.1274 3297.2591,-204.067 3301.38,-213.8276 3306.5673,-209.1274"/>
</g>
<!-- 21 -->
<g id="node22" class="node">
<title>21</title>
<path fill="none" stroke="#567bd8" stroke-width="2" d="M1216.5,-118.5C1216.5,-118.5 1085.5,-118.5 1085.5,-118.5 1079.5,-118.5 1073.5,-112.5 1073.5,-106.5 1073.5,-106.5 1073.5,-89.5 1073.5,-89.5 1073.5,-83.5 1079.5,-77.5 1085.5,-77.5 1085.5,-77.5 1216.5,-77.5 1216.5,-77.5 1222.5,-77.5 1228.5,-83.5 1228.5,-89.5 1228.5,-89.5 1228.5,-106.5 1228.5,-106.5 1228.5,-112.5 1222.5,-118.5 1216.5,-118.5"/>
<text text-anchor="middle" x="1151" y="-106.5" font-family="sans" font-size="10.00" fill="#000000">coltron</text>
<text text-anchor="middle" x="1151" y="-95.5" font-family="sans" font-size="10.00" fill="#000000">macs_dir: MACS_Out_q_0.05</text>
<text text-anchor="middle" x="1151" y="-84.5" font-family="sans" font-size="10.00" fill="#000000">rose_dir: ROSE_out_12500</text>
</g>
<!-- 1&#45;&gt;21 -->
<g id="edge55" class="edge">
<title>1&#45;&gt;21</title>
<path fill="none" stroke="#c0c0c0" stroke-width="2" d="M3479.9753,-418.5043C3308.246,-408.7052 2351.8045,-349.7464 1585,-212 1457.0886,-189.0224 1311.589,-147.5823 1225.7399,-121.4989"/>
<polygon fill="#c0c0c0" stroke="#c0c0c0" stroke-width="2" points="1226.6704,-118.1236 1216.0843,-118.5535 1224.628,-124.819 1226.6704,-118.1236"/>
</g>
<!-- 22 -->
<g id="node23" class="node">
<title>22</title>
<path fill="none" stroke="#567bd8" stroke-width="2" d="M3352.5,-118.5C3352.5,-118.5 3221.5,-118.5 3221.5,-118.5 3215.5,-118.5 3209.5,-112.5 3209.5,-106.5 3209.5,-106.5 3209.5,-89.5 3209.5,-89.5 3209.5,-83.5 3215.5,-77.5 3221.5,-77.5 3221.5,-77.5 3352.5,-77.5 3352.5,-77.5 3358.5,-77.5 3364.5,-83.5 3364.5,-89.5 3364.5,-89.5 3364.5,-106.5 3364.5,-106.5 3364.5,-112.5 3358.5,-118.5 3352.5,-118.5"/>
<text text-anchor="middle" x="3287" y="-106.5" font-family="sans" font-size="10.00" fill="#000000">coltron</text>
<text text-anchor="middle" x="3287" y="-95.5" font-family="sans" font-size="10.00" fill="#000000">macs_dir: MACS_Out_q_0.01</text>
<text text-anchor="middle" x="3287" y="-84.5" font-family="sans" font-size="10.00" fill="#000000">rose_dir: ROSE_out_12500</text>
</g>
<!-- 1&#45;&gt;22 -->
<g id="edge58" class="edge">
<title>1&#45;&gt;22</title>
<path fill="none" stroke="#c0c0c0" stroke-width="2" d="M3509.4602,-401.997C3513.0514,-369.0344 3516.5045,-297.8011 3488,-248 3454.9474,-190.2528 3389.7346,-147.9993 3342.5333,-123.3187"/>
<polygon fill="#c0c0c0" stroke="#c0c0c0" stroke-width="2" points="3343.8445,-120.058 3333.348,-118.6175 3340.6552,-126.2893 3343.8445,-120.058"/>
</g>
<!-- 25 -->
<g id="node26" class="node">
<title>25</title>
<path fill="none" stroke="#afd856" stroke-width="2" stroke-dasharray="5,2" d="M3684,-204C3684,-204 3634,-204 3634,-204 3628,-204 3622,-198 3622,-192 3622,-192 3622,-180 3622,-180 3622,-174 3628,-168 3634,-168 3634,-168 3684,-168 3684,-168 3690,-168 3696,-174 3696,-180 3696,-180 3696,-192 3696,-192 3696,-198 3690,-204 3684,-204"/>
<text text-anchor="middle" x="3659" y="-189" font-family="sans" font-size="10.00" fill="#000000">makeTDF</text>
<text text-anchor="middle" x="3659" y="-178" font-family="sans" font-size="10.00" fill="#000000">bin_size: 25</text>
</g>
<!-- 1&#45;&gt;25 -->
<g id="edge60" class="edge">
<title>1&#45;&gt;25</title>
<path fill="none" stroke="#c0c0c0" stroke-width="2" d="M3534.1422,-417.146C3565.1194,-412.3304 3614.7499,-399.552 3640,-366 3673.4204,-321.5913 3669.7299,-252.6244 3664.2554,-214.2323"/>
<polygon fill="#c0c0c0" stroke="#c0c0c0" stroke-width="2" points="3667.6989,-213.5982 3662.6934,-204.2603 3660.7832,-214.6815 3667.6989,-213.5982"/>
</g>
<!-- 2 -->
<g id="node3" class="node">
<title>2</title>
<path fill="none" stroke="#ced856" stroke-width="2" stroke-dasharray="5,2" d="M536,-438C536,-438 506,-438 506,-438 500,-438 494,-432 494,-426 494,-426 494,-414 494,-414 494,-408 500,-402 506,-402 506,-402 536,-402 536,-402 542,-402 548,-408 548,-414 548,-414 548,-426 548,-426 548,-432 542,-438 536,-438"/>
<text text-anchor="middle" x="521" y="-417.5" font-family="sans" font-size="10.00" fill="#000000">BWA</text>
</g>
<!-- 2&#45;&gt;0 -->
<g id="edge2" class="edge">
<title>2&#45;&gt;0</title>
<path fill="none" stroke="#c0c0c0" stroke-width="2" d="M493.7223,-418.0593C386.5227,-409.6988 0,-372.3532 0,-268.5 0,-268.5 0,-268.5 0,-186 0,-130.4942 4.7315,-102.6613 51,-72 106.8845,-34.9664 2255.029,-20.6361 2644.7027,-18.3388"/>
<polygon fill="#c0c0c0" stroke="#c0c0c0" stroke-width="2" points="2644.9384,-21.8376 2654.9177,-18.279 2644.8973,-14.8377 2644.9384,-21.8376"/>
</g>
<!-- 2&#45;&gt;8 -->
<g id="edge31" class="edge">
<title>2&#45;&gt;8</title>
<path fill="none" stroke="#c0c0c0" stroke-width="2" d="M521,-401.9656C521,-394.3118 521,-385.1674 521,-376.4898"/>
<polygon fill="#c0c0c0" stroke="#c0c0c0" stroke-width="2" points="524.5001,-376.2678 521,-366.2679 517.5001,-376.2679 524.5001,-376.2678"/>
</g>
<!-- 2&#45;&gt;9 -->
<g id="edge33" class="edge">
<title>2&#45;&gt;9</title>
<path fill="none" stroke="#c0c0c0" stroke-width="2" d="M548.352,-419.2506C805.8715,-412.1946 2803.2918,-357.4657 3179.1337,-347.1677"/>
<polygon fill="#c0c0c0" stroke="#c0c0c0" stroke-width="2" points="3179.3624,-350.6629 3189.2627,-346.8902 3179.1706,-343.6655 3179.3624,-350.6629"/>
</g>
<!-- 3&#45;&gt;0 -->
<g id="edge3" class="edge">
<title>3&#45;&gt;0</title>
<path fill="none" stroke="#c0c0c0" stroke-width="2" d="M3827.984,-247.8102C3836.3693,-207.3042 3847.9427,-117.5301 3799,-72 3760.9242,-36.5792 2988.9361,-22.2612 2765.2454,-18.8464"/>
<polygon fill="#c0c0c0" stroke="#c0c0c0" stroke-width="2" points="2765.0648,-15.3434 2755.013,-18.692 2764.9591,-22.3426 2765.0648,-15.3434"/>
</g>
<!-- 4&#45;&gt;0 -->
<g id="edge4" class="edge">
<title>4&#45;&gt;0</title>
<path fill="none" stroke="#c0c0c0" stroke-width="2" d="M3893.8406,-324.829C3899.7698,-272.094 3906.916,-132.4651 3827,-72 3784.3771,-39.7511 2991.7399,-23.1316 2765.0766,-19.025"/>
<polygon fill="#c0c0c0" stroke="#c0c0c0" stroke-width="2" points="2765.0928,-15.5248 2755.0315,-18.8445 2764.967,-22.5237 2765.0928,-15.5248"/>
</g>
<!-- 5 -->
<g id="node6" class="node">
<title>5</title>
<path fill="none" stroke="#56d86b" stroke-width="2" stroke-dasharray="5,2" d="M3744.5,-116C3744.5,-116 3661.5,-116 3661.5,-116 3655.5,-116 3649.5,-110 3649.5,-104 3649.5,-104 3649.5,-92 3649.5,-92 3649.5,-86 3655.5,-80 3661.5,-80 3661.5,-80 3744.5,-80 3744.5,-80 3750.5,-80 3756.5,-86 3756.5,-92 3756.5,-92 3756.5,-104 3756.5,-104 3756.5,-110 3750.5,-116 3744.5,-116"/>
<text text-anchor="middle" x="3703" y="-101" font-family="sans" font-size="10.00" fill="#000000">makeNormTDF</text>
<text text-anchor="middle" x="3703" y="-90" font-family="sans" font-size="10.00" fill="#000000">norm_type: scaled</text>
</g>
<!-- 5&#45;&gt;0 -->
<g id="edge5" class="edge">
<title>5&#45;&gt;0</title>
<path fill="none" stroke="#c0c0c0" stroke-width="2" d="M3665.0188,-79.953C3656.9224,-76.7835 3648.3054,-73.8969 3640,-72 3472.5499,-33.7545 2944.6607,-21.8567 2765.3144,-18.8667"/>
<polygon fill="#c0c0c0" stroke="#c0c0c0" stroke-width="2" points="2765.3247,-15.3665 2755.2688,-18.7025 2765.2103,-22.3656 2765.3247,-15.3665"/>
</g>
<!-- 6 -->
<g id="node7" class="node">
<title>6</title>
<path fill="none" stroke="#56d86b" stroke-width="2" stroke-dasharray="5,2" d="M3619,-116C3619,-116 3547,-116 3547,-116 3541,-116 3535,-110 3535,-104 3535,-104 3535,-92 3535,-92 3535,-86 3541,-80 3547,-80 3547,-80 3619,-80 3619,-80 3625,-80 3631,-86 3631,-92 3631,-92 3631,-104 3631,-104 3631,-110 3625,-116 3619,-116"/>
<text text-anchor="middle" x="3583" y="-101" font-family="sans" font-size="10.00" fill="#000000">makeNormTDF</text>
<text text-anchor="middle" x="3583" y="-90" font-family="sans" font-size="10.00" fill="#000000">norm_type: RPM</text>
</g>
<!-- 6&#45;&gt;0 -->
<g id="edge6" class="edge">
<title>6&#45;&gt;0</title>
<path fill="none" stroke="#c0c0c0" stroke-width="2" d="M3545.2986,-79.8703C3537.4268,-76.7489 3529.0659,-73.902 3521,-72 3377.4158,-38.1414 2929.2298,-23.6692 2765.5902,-19.4206"/>
<polygon fill="#c0c0c0" stroke="#c0c0c0" stroke-width="2" points="2765.3156,-15.9126 2755.2293,-19.1555 2765.1364,-22.9103 2765.3156,-15.9126"/>
</g>
<!-- 7&#45;&gt;0 -->
<g id="edge7" class="edge">
<title>7&#45;&gt;0</title>
<path fill="none" stroke="#c0c0c0" stroke-width="2" d="M3581.7465,-327.2172C3577.1995,-276.6714 3556.8859,-134.6515 3470,-72 3413.3464,-31.1483 2935.5828,-20.986 2765.1251,-18.6493"/>
<polygon fill="#c0c0c0" stroke="#c0c0c0" stroke-width="2" points="2765.1151,-15.149 2755.0694,-18.5157 2765.022,-22.1484 2765.1151,-15.149"/>
</g>
<!-- 8&#45;&gt;0 -->
<g id="edge8" class="edge">
<title>8&#45;&gt;0</title>
<path fill="none" stroke="#c0c0c0" stroke-width="2" d="M470.4305,-335.196C329.1268,-304.4146 -51.0997,-206.8462 81,-72 127.3606,-24.6756 2256.2371,-18.7688 2644.5461,-18.0847"/>
<polygon fill="#c0c0c0" stroke="#c0c0c0" stroke-width="2" points="2644.7343,-21.5845 2654.7282,-18.0673 2644.7222,-14.5845 2644.7343,-21.5845"/>
</g>
<!-- 10 -->
<g id="node11" class="node">
<title>10</title>
<path fill="none" stroke="#d87556" stroke-width="2" d="M254,-204C254,-204 184,-204 184,-204 178,-204 172,-198 172,-192 172,-192 172,-180 172,-180 172,-174 178,-168 184,-168 184,-168 254,-168 254,-168 260,-168 266,-174 266,-180 266,-180 266,-192 266,-192 266,-198 260,-204 254,-204"/>
<text text-anchor="middle" x="219" y="-183.5" font-family="sans" font-size="10.00" fill="#000000">peakAnnotation</text>
</g>
<!-- 8&#45;&gt;10 -->
<g id="edge34" class="edge">
<title>8&#45;&gt;10</title>
<path fill="none" stroke="#c0c0c0" stroke-width="2" d="M470.4628,-326.5268C444.7398,-316.3264 413.2333,-302.9885 386,-289 338.7146,-264.7116 287.0216,-231.7604 253.8658,-209.7335"/>
<polygon fill="#c0c0c0" stroke="#c0c0c0" stroke-width="2" points="255.6973,-206.7479 245.4377,-204.1041 251.8093,-212.5689 255.6973,-206.7479"/>
</g>
<!-- 8&#45;&gt;12 -->
<g id="edge36" class="edge">
<title>8&#45;&gt;12</title>
<path fill="none" stroke="#c0c0c0" stroke-width="2" d="M571.6511,-334.7652C608.0079,-325.7684 657.3749,-310.8474 697,-289 735.0755,-268.0069 772.4515,-234.3169 795.823,-211.2209"/>
<polygon fill="#c0c0c0" stroke="#c0c0c0" stroke-width="2" points="798.318,-213.6757 802.9022,-204.124 793.362,-208.7321 798.318,-213.6757"/>
</g>
<!-- 14 -->
<g id="node15" class="node">
<title>14</title>
<path fill="none" stroke="#56d88a" stroke-width="2" d="M516,-124C516,-124 116,-124 116,-124 110,-124 104,-118 104,-112 104,-112 104,-84 104,-84 104,-78 110,-72 116,-72 116,-72 516,-72 516,-72 522,-72 528,-78 528,-84 528,-84 528,-112 528,-112 528,-118 522,-124 516,-124"/>
<text text-anchor="middle" x="316" y="-112" font-family="sans" font-size="10.00" fill="#000000">EDEN</text>
<text text-anchor="middle" x="316" y="-101" font-family="sans" font-size="10.00" fill="#000000">TPM_cutoff: 4</text>
<text text-anchor="middle" x="316" y="-90" font-family="sans" font-size="10.00" fill="#000000">folders: MACS_Out_q_0.05</text>
<text text-anchor="middle" x="316" y="-79" font-family="sans" font-size="10.00" fill="#000000">prefix: RH4_PFI90_1uM_24h_H3K27ac_200125_C_H77JJBGXC_peaks.broadPeak.nobl</text>
</g>
<!-- 8&#45;&gt;14 -->
<g id="edge42" class="edge">
<title>8&#45;&gt;14</title>
<path fill="none" stroke="#c0c0c0" stroke-width="2" d="M503.8744,-324.824C468.616,-282.2559 387.6077,-184.4532 344.3851,-132.2698"/>
<polygon fill="#c0c0c0" stroke="#c0c0c0" stroke-width="2" points="346.8598,-129.7706 337.7854,-124.3019 341.4688,-134.2358 346.8598,-129.7706"/>
</g>
<!-- 26 -->
<g id="node27" class="node">
<title>26</title>
<path fill="none" stroke="#569ad8" stroke-width="2" d="M676,-286.5C676,-286.5 608,-286.5 608,-286.5 602,-286.5 596,-280.5 596,-274.5 596,-274.5 596,-262.5 596,-262.5 596,-256.5 602,-250.5 608,-250.5 608,-250.5 676,-250.5 676,-250.5 682,-250.5 688,-256.5 688,-262.5 688,-262.5 688,-274.5 688,-274.5 688,-280.5 682,-286.5 676,-286.5"/>
<text text-anchor="middle" x="642" y="-266" font-family="sans" font-size="10.00" fill="#000000">prepareSummit</text>
</g>
<!-- 8&#45;&gt;26 -->
<g id="edge61" class="edge">
<title>8&#45;&gt;26</title>
<path fill="none" stroke="#c0c0c0" stroke-width="2" d="M553.4258,-324.8654C569.2553,-314.7921 588.3794,-302.6222 604.8004,-292.1725"/>
<polygon fill="#c0c0c0" stroke="#c0c0c0" stroke-width="2" points="607.0494,-294.8899 613.607,-286.5683 603.2913,-288.9843 607.0494,-294.8899"/>
</g>
<!-- 9&#45;&gt;0 -->
<g id="edge9" class="edge">
<title>9&#45;&gt;0</title>
<path fill="none" stroke="#c0c0c0" stroke-width="2" d="M3267.5104,-324.8977C3329.2156,-276.3302 3467.6108,-152.6963 3393,-72 3371.8216,-49.0942 2929.6027,-27.7124 2765.5476,-20.5398"/>
<polygon fill="#c0c0c0" stroke="#c0c0c0" stroke-width="2" points="2765.2938,-17.0256 2755.1513,-20.088 2764.9899,-24.019 2765.2938,-17.0256"/>
</g>
<!-- 11 -->
<g id="node12" class="node">
<title>11</title>
<path fill="none" stroke="#d87556" stroke-width="2" d="M3467,-286.5C3467,-286.5 3397,-286.5 3397,-286.5 3391,-286.5 3385,-280.5 3385,-274.5 3385,-274.5 3385,-262.5 3385,-262.5 3385,-256.5 3391,-250.5 3397,-250.5 3397,-250.5 3467,-250.5 3467,-250.5 3473,-250.5 3479,-256.5 3479,-262.5 3479,-262.5 3479,-274.5 3479,-274.5 3479,-280.5 3473,-286.5 3467,-286.5"/>
<text text-anchor="middle" x="3432" y="-266" font-family="sans" font-size="10.00" fill="#000000">peakAnnotation</text>
</g>
<!-- 9&#45;&gt;11 -->
<g id="edge35" class="edge">
<title>9&#45;&gt;11</title>
<path fill="none" stroke="#c0c0c0" stroke-width="2" d="M3290.6969,-325.1684C3317.4311,-314.4469 3350.2473,-301.2862 3377.5236,-290.3473"/>
<polygon fill="#c0c0c0" stroke="#c0c0c0" stroke-width="2" points="3378.9429,-293.5492 3386.9215,-286.5783 3376.3373,-287.0521 3378.9429,-293.5492"/>
</g>
<!-- 9&#45;&gt;13 -->
<g id="edge39" class="edge">
<title>9&#45;&gt;13</title>
<path fill="none" stroke="#c0c0c0" stroke-width="2" d="M3249.1065,-324.8927C3253.4974,-314.3246 3258.5472,-301.1506 3262,-289 3269.0684,-264.1257 3274.1469,-235.1022 3277.2651,-214.2155"/>
<polygon fill="#c0c0c0" stroke="#c0c0c0" stroke-width="2" points="3280.7607,-214.4957 3278.7172,-204.0998 3273.8317,-213.501 3280.7607,-214.4957"/>
</g>
<!-- 17 -->
<g id="node18" class="node">
<title>17</title>
<path fill="none" stroke="#56d88a" stroke-width="2" d="M2194,-124C2194,-124 1794,-124 1794,-124 1788,-124 1782,-118 1782,-112 1782,-112 1782,-84 1782,-84 1782,-78 1788,-72 1794,-72 1794,-72 2194,-72 2194,-72 2200,-72 2206,-78 2206,-84 2206,-84 2206,-112 2206,-112 2206,-118 2200,-124 2194,-124"/>
<text text-anchor="middle" x="1994" y="-112" font-family="sans" font-size="10.00" fill="#000000">EDEN</text>
<text text-anchor="middle" x="1994" y="-101" font-family="sans" font-size="10.00" fill="#000000">TPM_cutoff: 4</text>
<text text-anchor="middle" x="1994" y="-90" font-family="sans" font-size="10.00" fill="#000000">folders: MACS_Out_q_0.01</text>
<text text-anchor="middle" x="1994" y="-79" font-family="sans" font-size="10.00" fill="#000000">prefix: RH4_PFI90_1uM_24h_H3K27ac_200125_C_H77JJBGXC_peaks.broadPeak.nobl</text>
</g>
<!-- 9&#45;&gt;17 -->
<g id="edge48" class="edge">
<title>9&#45;&gt;17</title>
<path fill="none" stroke="#c0c0c0" stroke-width="2" d="M3189.2229,-335.4139C3011.1746,-300.0471 2411.0815,-180.8473 2135.0592,-126.0194"/>
<polygon fill="#c0c0c0" stroke="#c0c0c0" stroke-width="2" points="2135.4662,-122.5319 2124.9759,-124.0165 2134.1024,-129.3978 2135.4662,-122.5319"/>
</g>
<!-- 27 -->
<g id="node28" class="node">
<title>27</title>
<path fill="none" stroke="#569ad8" stroke-width="2" d="M3241,-286.5C3241,-286.5 3173,-286.5 3173,-286.5 3167,-286.5 3161,-280.5 3161,-274.5 3161,-274.5 3161,-262.5 3161,-262.5 3161,-256.5 3167,-250.5 3173,-250.5 3173,-250.5 3241,-250.5 3241,-250.5 3247,-250.5 3253,-256.5 3253,-262.5 3253,-262.5 3253,-274.5 3253,-274.5 3253,-280.5 3247,-286.5 3241,-286.5"/>
<text text-anchor="middle" x="3207" y="-266" font-family="sans" font-size="10.00" fill="#000000">prepareSummit</text>
</g>
<!-- 9&#45;&gt;27 -->
<g id="edge62" class="edge">
<title>9&#45;&gt;27</title>
<path fill="none" stroke="#c0c0c0" stroke-width="2" d="M3231.1566,-324.8654C3227.3591,-316.0046 3222.8664,-305.5216 3218.7918,-296.0141"/>
<polygon fill="#c0c0c0" stroke="#c0c0c0" stroke-width="2" points="3221.8998,-294.381 3214.7435,-286.5683 3215.4658,-297.1385 3221.8998,-294.381"/>
</g>
<!-- 10&#45;&gt;0 -->
<g id="edge10" class="edge">
<title>10&#45;&gt;0</title>
<path fill="none" stroke="#c0c0c0" stroke-width="2" d="M171.9742,-175.5748C144.3947,-166.7835 111.7662,-151.1282 95,-124 82.8498,-104.3405 78.8279,-88.5102 95,-72 141.1107,-24.9254 2258.6309,-18.8144 2644.8685,-18.091"/>
<polygon fill="#c0c0c0" stroke="#c0c0c0" stroke-width="2" points="2645.0028,-21.5908 2654.9964,-18.0725 2644.99,-14.5909 2645.0028,-21.5908"/>
</g>
<!-- 11&#45;&gt;0 -->
<g id="edge11" class="edge">
<title>11&#45;&gt;0</title>
<path fill="none" stroke="#c0c0c0" stroke-width="2" d="M3440.7974,-250.4457C3458.109,-212.0127 3491.0925,-121.5786 3445,-72 3421.9541,-47.2111 2937.8231,-26.7228 2765.3544,-20.186"/>
<polygon fill="#c0c0c0" stroke="#c0c0c0" stroke-width="2" points="2765.306,-16.6818 2755.1813,-19.8029 2765.0425,-23.6768 2765.306,-16.6818"/>
</g>
<!-- 12&#45;&gt;0 -->
<g id="edge12" class="edge">
<title>12&#45;&gt;0</title>
<path fill="none" stroke="#c0c0c0" stroke-width="2" d="M756.9731,-178.814C692.0086,-169.9564 597.1678,-152.4764 575,-124 560.8034,-105.7632 558.8664,-88.5478 575,-72 612.1194,-33.9277 2301.7408,-20.6789 2644.6644,-18.3799"/>
<polygon fill="#c0c0c0" stroke="#c0c0c0" stroke-width="2" points="2644.9091,-21.8785 2654.8856,-18.312 2644.8625,-14.8786 2644.9091,-21.8785"/>
</g>
<!-- 15 -->
<g id="node16" class="node">
<title>15</title>
<path fill="none" stroke="#56d88a" stroke-width="2" d="M1043.5,-124C1043.5,-124 596.5,-124 596.5,-124 590.5,-124 584.5,-118 584.5,-112 584.5,-112 584.5,-84 584.5,-84 584.5,-78 590.5,-72 596.5,-72 596.5,-72 1043.5,-72 1043.5,-72 1049.5,-72 1055.5,-78 1055.5,-84 1055.5,-84 1055.5,-112 1055.5,-112 1055.5,-118 1049.5,-124 1043.5,-124"/>
<text text-anchor="middle" x="820" y="-112" font-family="sans" font-size="10.00" fill="#000000">EDEN</text>
<text text-anchor="middle" x="820" y="-101" font-family="sans" font-size="10.00" fill="#000000">TPM_cutoff: 4</text>
<text text-anchor="middle" x="820" y="-90" font-family="sans" font-size="10.00" fill="#000000">folders: MACS_Out_q_0.05/ROSE_out_12500</text>
<text text-anchor="middle" x="820" y="-79" font-family="sans" font-size="10.00" fill="#000000">prefix: RH4_PFI90_1uM_24h_H3K27ac_200125_C_H77JJBGXC_peaks_AllEnhancers.table.super</text>
</g>
<!-- 12&#45;&gt;15 -->
<g id="edge44" class="edge">
<title>12&#45;&gt;15</title>
<path fill="none" stroke="#c0c0c0" stroke-width="2" d="M820,-167.7663C820,-158.1303 820,-145.9487 820,-134.4714"/>
<polygon fill="#c0c0c0" stroke="#c0c0c0" stroke-width="2" points="823.5001,-134.2223 820,-124.2223 816.5001,-134.2223 823.5001,-134.2223"/>
</g>
<!-- 16 -->
<g id="node17" class="node">
<title>16</title>
<path fill="none" stroke="#56d88a" stroke-width="2" d="M1713.5,-124C1713.5,-124 1258.5,-124 1258.5,-124 1252.5,-124 1246.5,-118 1246.5,-112 1246.5,-112 1246.5,-84 1246.5,-84 1246.5,-78 1252.5,-72 1258.5,-72 1258.5,-72 1713.5,-72 1713.5,-72 1719.5,-72 1725.5,-78 1725.5,-84 1725.5,-84 1725.5,-112 1725.5,-112 1725.5,-118 1719.5,-124 1713.5,-124"/>
<text text-anchor="middle" x="1486" y="-112" font-family="sans" font-size="10.00" fill="#000000">EDEN</text>
<text text-anchor="middle" x="1486" y="-101" font-family="sans" font-size="10.00" fill="#000000">TPM_cutoff: 4</text>
<text text-anchor="middle" x="1486" y="-90" font-family="sans" font-size="10.00" fill="#000000">folders: MACS_Out_q_0.05/ROSE_out_12500</text>
<text text-anchor="middle" x="1486" y="-79" font-family="sans" font-size="10.00" fill="#000000">prefix: RH4_PFI90_1uM_24h_H3K27ac_200125_C_H77JJBGXC_peaks_AllEnhancers.table.regular</text>
</g>
<!-- 12&#45;&gt;16 -->
<g id="edge46" class="edge">
<title>12&#45;&gt;16</title>
<path fill="none" stroke="#c0c0c0" stroke-width="2" d="M883.2561,-177.6418C973.2979,-165.7444 1142.6199,-143.3716 1278.9282,-125.3608"/>
<polygon fill="#c0c0c0" stroke="#c0c0c0" stroke-width="2" points="1279.6424,-128.797 1289.0977,-124.0171 1278.7254,-121.8573 1279.6424,-128.797"/>
</g>
<!-- 12&#45;&gt;21 -->
<g id="edge54" class="edge">
<title>12&#45;&gt;21</title>
<path fill="none" stroke="#c0c0c0" stroke-width="2" d="M883.1299,-170.7231C932.5059,-158.5903 1002.8087,-140.91 1064,-124 1067.1149,-123.1392 1070.2888,-122.2495 1073.4924,-121.3412"/>
<polygon fill="#c0c0c0" stroke="#c0c0c0" stroke-width="2" points="1074.5134,-124.6895 1083.1623,-118.57 1072.585,-117.9604 1074.5134,-124.6895"/>
</g>
<!-- 13&#45;&gt;0 -->
<g id="edge13" class="edge">
<title>13&#45;&gt;0</title>
<path fill="none" stroke="#c0c0c0" stroke-width="2" d="M3324.9982,-167.8273C3343.316,-157.7999 3362.6878,-143.3849 3373,-124 3383.8542,-103.5963 3388.6698,-88.9877 3373,-72 3352.5197,-49.7973 2925.5996,-28.078 2765.1998,-20.6713"/>
<polygon fill="#c0c0c0" stroke="#c0c0c0" stroke-width="2" points="2765.1772,-17.1666 2755.0271,-20.2043 2764.8561,-24.1593 2765.1772,-17.1666"/>
</g>
<!-- 18 -->
<g id="node19" class="node">
<title>18</title>
<path fill="none" stroke="#56d88a" stroke-width="2" d="M2682.5,-124C2682.5,-124 2235.5,-124 2235.5,-124 2229.5,-124 2223.5,-118 2223.5,-112 2223.5,-112 2223.5,-84 2223.5,-84 2223.5,-78 2229.5,-72 2235.5,-72 2235.5,-72 2682.5,-72 2682.5,-72 2688.5,-72 2694.5,-78 2694.5,-84 2694.5,-84 2694.5,-112 2694.5,-112 2694.5,-118 2688.5,-124 2682.5,-124"/>
<text text-anchor="middle" x="2459" y="-112" font-family="sans" font-size="10.00" fill="#000000">EDEN</text>
<text text-anchor="middle" x="2459" y="-101" font-family="sans" font-size="10.00" fill="#000000">TPM_cutoff: 4</text>
<text text-anchor="middle" x="2459" y="-90" font-family="sans" font-size="10.00" fill="#000000">folders: MACS_Out_q_0.01/ROSE_out_12500</text>
<text text-anchor="middle" x="2459" y="-79" font-family="sans" font-size="10.00" fill="#000000">prefix: RH4_PFI90_1uM_24h_H3K27ac_200125_C_H77JJBGXC_peaks_AllEnhancers.table.super</text>
</g>
<!-- 13&#45;&gt;18 -->
<g id="edge50" class="edge">
<title>13&#45;&gt;18</title>
<path fill="none" stroke="#c0c0c0" stroke-width="2" d="M3217.8639,-179.2409C3109.4805,-167.6378 2882.5462,-143.3431 2704.934,-124.3287"/>
<polygon fill="#c0c0c0" stroke="#c0c0c0" stroke-width="2" points="2705.2303,-120.8405 2694.9145,-123.2561 2704.4851,-127.8007 2705.2303,-120.8405"/>
</g>
<!-- 19 -->
<g id="node20" class="node">
<title>19</title>
<path fill="none" stroke="#56d88a" stroke-width="2" d="M3179.5,-124C3179.5,-124 2724.5,-124 2724.5,-124 2718.5,-124 2712.5,-118 2712.5,-112 2712.5,-112 2712.5,-84 2712.5,-84 2712.5,-78 2718.5,-72 2724.5,-72 2724.5,-72 3179.5,-72 3179.5,-72 3185.5,-72 3191.5,-78 3191.5,-84 3191.5,-84 3191.5,-112 3191.5,-112 3191.5,-118 3185.5,-124 3179.5,-124"/>
<text text-anchor="middle" x="2952" y="-112" font-family="sans" font-size="10.00" fill="#000000">EDEN</text>
<text text-anchor="middle" x="2952" y="-101" font-family="sans" font-size="10.00" fill="#000000">TPM_cutoff: 4</text>
<text text-anchor="middle" x="2952" y="-90" font-family="sans" font-size="10.00" fill="#000000">folders: MACS_Out_q_0.01/ROSE_out_12500</text>
<text text-anchor="middle" x="2952" y="-79" font-family="sans" font-size="10.00" fill="#000000">prefix: RH4_PFI90_1uM_24h_H3K27ac_200125_C_H77JJBGXC_peaks_AllEnhancers.table.regular</text>
</g>
<!-- 13&#45;&gt;19 -->
<g id="edge52" class="edge">
<title>13&#45;&gt;19</title>
<path fill="none" stroke="#c0c0c0" stroke-width="2" d="M3217.9548,-169.1368C3173.076,-157.1328 3111.6685,-140.7077 3059.1667,-126.6647"/>
<polygon fill="#c0c0c0" stroke="#c0c0c0" stroke-width="2" points="3060.0379,-123.2747 3049.4731,-124.0718 3058.2291,-130.037 3060.0379,-123.2747"/>
</g>
<!-- 13&#45;&gt;22 -->
<g id="edge57" class="edge">
<title>13&#45;&gt;22</title>
<path fill="none" stroke="#c0c0c0" stroke-width="2" d="M3282.2432,-167.7663C3283.0124,-156.4847 3284.0195,-141.7138 3284.9089,-128.6691"/>
<polygon fill="#c0c0c0" stroke="#c0c0c0" stroke-width="2" points="3288.4017,-128.8922 3285.5902,-118.6773 3281.418,-128.416 3288.4017,-128.8922"/>
</g>
<!-- 14&#45;&gt;0 -->
<g id="edge14" class="edge">
<title>14&#45;&gt;0</title>
<path fill="none" stroke="#c0c0c0" stroke-width="2" d="M528.274,-73.0189C532.8893,-72.6571 537.4691,-72.3165 542,-72 967.1887,-42.2947 2338.2655,-22.8207 2644.1251,-18.7815"/>
<polygon fill="#c0c0c0" stroke="#c0c0c0" stroke-width="2" points="2644.5997,-22.2756 2654.5528,-18.6443 2644.5076,-15.2762 2644.5997,-22.2756"/>
</g>
<!-- 15&#45;&gt;0 -->
<g id="edge15" class="edge">
<title>15&#45;&gt;0</title>
<path fill="none" stroke="#c0c0c0" stroke-width="2" d="M1055.6645,-72.5976C1058.4582,-72.3917 1061.2376,-72.1924 1064,-72 1680.5638,-29.0637 2429.8886,-20.1216 2644.7896,-18.3902"/>
<polygon fill="#c0c0c0" stroke="#c0c0c0" stroke-width="2" points="2644.9428,-21.8892 2654.915,-18.3109 2644.8879,-14.8895 2644.9428,-21.8892"/>
</g>
<!-- 16&#45;&gt;0 -->
<g id="edge16" class="edge">
<title>16&#45;&gt;0</title>
<path fill="none" stroke="#c0c0c0" stroke-width="2" d="M1725.6146,-73.1685C1730.4503,-72.766 1735.2496,-72.3758 1740,-72 2081.9549,-44.9452 2493.1337,-26.6649 2644.9229,-20.3976"/>
<polygon fill="#c0c0c0" stroke="#c0c0c0" stroke-width="2" points="2645.1233,-23.8924 2654.9711,-19.9847 2644.8358,-16.8983 2645.1233,-23.8924"/>
</g>
<!-- 17&#45;&gt;0 -->
<g id="edge17" class="edge">
<title>17&#45;&gt;0</title>
<path fill="none" stroke="#c0c0c0" stroke-width="2" d="M2206.2139,-72.8901C2208.8244,-72.5911 2211.4207,-72.2942 2214,-72 2369.2176,-54.293 2552.1614,-34.4421 2644.7718,-24.4651"/>
<polygon fill="#c0c0c0" stroke="#c0c0c0" stroke-width="2" points="2645.2321,-27.9359 2654.7999,-23.3853 2644.4827,-20.9761 2645.2321,-27.9359"/>
</g>
<!-- 18&#45;&gt;0 -->
<g id="edge18" class="edge">
<title>18&#45;&gt;0</title>
<path fill="none" stroke="#c0c0c0" stroke-width="2" d="M2539.2092,-71.9157C2573.6439,-60.7174 2613.1902,-47.8568 2645.0213,-37.5053"/>
<polygon fill="#c0c0c0" stroke="#c0c0c0" stroke-width="2" points="2646.2106,-40.799 2654.638,-34.3779 2644.0458,-34.1422 2646.2106,-40.799"/>
</g>
<!-- 19&#45;&gt;0 -->
<g id="edge19" class="edge">
<title>19&#45;&gt;0</title>
<path fill="none" stroke="#c0c0c0" stroke-width="2" d="M2871.4647,-71.9157C2836.7624,-60.6761 2796.8899,-47.7619 2764.8691,-37.3908"/>
<polygon fill="#c0c0c0" stroke="#c0c0c0" stroke-width="2" points="2765.79,-34.0101 2755.1981,-34.2585 2763.633,-40.6695 2765.79,-34.0101"/>
</g>
<!-- 20 -->
<g id="node21" class="node">
<title>20</title>
<path fill="none" stroke="#56c1d8" stroke-width="2" stroke-dasharray="5,2" d="M1901.5,-212C1901.5,-212 1606.5,-212 1606.5,-212 1600.5,-212 1594.5,-206 1594.5,-200 1594.5,-200 1594.5,-172 1594.5,-172 1594.5,-166 1600.5,-160 1606.5,-160 1606.5,-160 1901.5,-160 1901.5,-160 1907.5,-160 1913.5,-166 1913.5,-172 1913.5,-172 1913.5,-200 1913.5,-200 1913.5,-206 1907.5,-212 1901.5,-212"/>
<text text-anchor="middle" x="1754" y="-200" font-family="sans" font-size="10.00" fill="#000000">RNAseq_pipeline</text>
<text text-anchor="middle" x="1754" y="-189" font-family="sans" font-size="10.00" fill="#000000">genome: hg19</text>
<text text-anchor="middle" x="1754" y="-178" font-family="sans" font-size="10.00" fill="#000000">rnaseq_sample: Rh4_dmso_6h_rz_T_H3YCHBGXX</text>
<text text-anchor="middle" x="1754" y="-167" font-family="sans" font-size="10.00" fill="#000000">sample: RH4_PFI90_1uM_24h_H3K27ac_200125_C_H77JJBGXC</text>
</g>
<!-- 20&#45;&gt;0 -->
<g id="edge20" class="edge">
<title>20&#45;&gt;0</title>
<path fill="none" stroke="#c0c0c0" stroke-width="2" d="M1750.0221,-159.9617C1747.6317,-133.6014 1748.8165,-93.7191 1773,-72 1805.483,-42.8272 2443.7315,-24.5036 2644.8492,-19.4363"/>
<polygon fill="#c0c0c0" stroke="#c0c0c0" stroke-width="2" points="2645.0284,-22.933 2654.9377,-19.184 2644.8533,-15.9352 2645.0284,-22.933"/>
</g>
<!-- 20&#45;&gt;14 -->
<g id="edge43" class="edge">
<title>20&#45;&gt;14</title>
<path fill="none" stroke="#c0c0c0" stroke-width="2" d="M1594.1352,-180.0042C1367.2817,-170.9474 939.0413,-151.8284 575,-124 563.0002,-123.0827 550.6942,-122.0749 538.2756,-121.0053"/>
<polygon fill="#c0c0c0" stroke="#c0c0c0" stroke-width="2" points="538.562,-117.5171 528.2956,-120.1348 537.9537,-124.4906 538.562,-117.5171"/>
</g>
<!-- 20&#45;&gt;15 -->
<g id="edge45" class="edge">
<title>20&#45;&gt;15</title>
<path fill="none" stroke="#c0c0c0" stroke-width="2" d="M1594.2858,-172.4029C1456.8508,-160.5257 1252.9601,-142.4848 1065.7175,-124.1631"/>
<polygon fill="#c0c0c0" stroke="#c0c0c0" stroke-width="2" points="1065.977,-120.6719 1055.6832,-123.1794 1065.2939,-127.6385 1065.977,-120.6719"/>
</g>
<!-- 20&#45;&gt;16 -->
<g id="edge47" class="edge">
<title>20&#45;&gt;16</title>
<path fill="none" stroke="#c0c0c0" stroke-width="2" d="M1674.6789,-159.9543C1643.486,-149.7118 1607.5215,-137.9026 1575.4123,-127.3592"/>
<polygon fill="#c0c0c0" stroke="#c0c0c0" stroke-width="2" points="1576.1735,-123.9254 1565.5806,-124.1309 1573.9896,-130.576 1576.1735,-123.9254"/>
</g>
<!-- 20&#45;&gt;17 -->
<g id="edge49" class="edge">
<title>20&#45;&gt;17</title>
<path fill="none" stroke="#c0c0c0" stroke-width="2" d="M1825.0338,-159.9543C1852.727,-149.8001 1884.6198,-138.1061 1913.1849,-127.6322"/>
<polygon fill="#c0c0c0" stroke="#c0c0c0" stroke-width="2" points="1914.5499,-130.8596 1922.7338,-124.1309 1912.1401,-124.2875 1914.5499,-130.8596"/>
</g>
<!-- 20&#45;&gt;18 -->
<g id="edge51" class="edge">
<title>20&#45;&gt;18</title>
<path fill="none" stroke="#c0c0c0" stroke-width="2" d="M1913.5349,-166.0864C2010.1381,-154.0281 2134.6892,-138.4814 2240.3802,-125.2887"/>
<polygon fill="#c0c0c0" stroke="#c0c0c0" stroke-width="2" points="2241.0585,-128.7313 2250.5479,-124.0196 2240.1914,-121.7852 2241.0585,-128.7313"/>
</g>
<!-- 20&#45;&gt;19 -->
<g id="edge53" class="edge">
<title>20&#45;&gt;19</title>
<path fill="none" stroke="#c0c0c0" stroke-width="2" d="M1913.6573,-177.4649C2100.1521,-167.0614 2418.2269,-147.9732 2702.3876,-124.0376"/>
<polygon fill="#c0c0c0" stroke="#c0c0c0" stroke-width="2" points="2702.8119,-127.5143 2712.4815,-123.1841 2702.2221,-120.5392 2702.8119,-127.5143"/>
</g>
<!-- 20&#45;&gt;21 -->
<g id="edge56" class="edge">
<title>20&#45;&gt;21</title>
<path fill="none" stroke="#c0c0c0" stroke-width="2" d="M1594.4438,-174.0982C1491.6567,-164.6568 1355.5632,-148.8337 1237,-124 1232.878,-123.1366 1228.6688,-122.1661 1224.4368,-121.1208"/>
<polygon fill="#c0c0c0" stroke="#c0c0c0" stroke-width="2" points="1225.1087,-117.6794 1214.5506,-118.5608 1223.3539,-124.4559 1225.1087,-117.6794"/>
</g>
<!-- 20&#45;&gt;22 -->
<g id="edge59" class="edge">
<title>20&#45;&gt;22</title>
<path fill="none" stroke="#c0c0c0" stroke-width="2" d="M1913.8059,-184.1273C2236.7178,-179.5251 2956.8539,-164.8937 3200,-124 3205.0208,-123.1556 3210.1595,-122.1104 3215.3064,-120.9285"/>
<polygon fill="#c0c0c0" stroke="#c0c0c0" stroke-width="2" points="3216.3079,-124.2867 3225.1856,-118.5042 3214.6396,-117.4884 3216.3079,-124.2867"/>
</g>
<!-- 21&#45;&gt;0 -->
<g id="edge21" class="edge">
<title>21&#45;&gt;0</title>
<path fill="none" stroke="#c0c0c0" stroke-width="2" d="M1212.0855,-77.446C1220.3815,-75.2702 1228.8456,-73.3593 1237,-72 1514.4676,-25.7469 2403.7799,-19.1099 2644.4541,-18.1588"/>
<polygon fill="#c0c0c0" stroke="#c0c0c0" stroke-width="2" points="2644.7669,-21.6578 2654.7537,-18.1201 2644.7405,-14.6578 2644.7669,-21.6578"/>
</g>
<!-- 22&#45;&gt;0 -->
<g id="edge22" class="edge">
<title>22&#45;&gt;0</title>
<path fill="none" stroke="#c0c0c0" stroke-width="2" d="M3223.1927,-77.4961C3215.4314,-75.4286 3207.5712,-73.5311 3200,-72 3045.2342,-40.7029 2859.3284,-26.5765 2765.5044,-21.0509"/>
<polygon fill="#c0c0c0" stroke="#c0c0c0" stroke-width="2" points="2765.5324,-17.5468 2755.3475,-20.4653 2765.1294,-24.5352 2765.5324,-17.5468"/>
</g>
<!-- 23 -->
<g id="node24" class="node">
<title>23</title>
<path fill="none" stroke="#88d856" stroke-width="2" stroke-dasharray="5,2" d="M3654.5,-515C3654.5,-515 3359.5,-515 3359.5,-515 3353.5,-515 3347.5,-509 3347.5,-503 3347.5,-503 3347.5,-486 3347.5,-486 3347.5,-480 3353.5,-474 3359.5,-474 3359.5,-474 3654.5,-474 3654.5,-474 3660.5,-474 3666.5,-480 3666.5,-486 3666.5,-486 3666.5,-503 3666.5,-503 3666.5,-509 3660.5,-515 3654.5,-515"/>
<text text-anchor="middle" x="3507" y="-503" font-family="sans" font-size="10.00" fill="#000000">prepareFASTQ</text>
<text text-anchor="middle" x="3507" y="-492" font-family="sans" font-size="10.00" fill="#000000">sample: RH4_PFI90_1uM_24h_H3K27ac_200125_C_H77JJBGXC</text>
<text text-anchor="middle" x="3507" y="-481" font-family="sans" font-size="10.00" fill="#000000">suffix: R1.fastq.gz</text>
</g>
<!-- 23&#45;&gt;1 -->
<g id="edge23" class="edge">
<title>23&#45;&gt;1</title>
<path fill="none" stroke="#c0c0c0" stroke-width="2" d="M3507,-473.7476C3507,-465.8767 3507,-456.7743 3507,-448.3232"/>
<polygon fill="#c0c0c0" stroke="#c0c0c0" stroke-width="2" points="3510.5001,-448.1086 3507,-438.1087 3503.5001,-448.1087 3510.5001,-448.1086"/>
</g>
<!-- 24 -->
<g id="node25" class="node">
<title>24</title>
<path fill="none" stroke="#88d856" stroke-width="2" stroke-dasharray="5,2" d="M613.5,-515C613.5,-515 428.5,-515 428.5,-515 422.5,-515 416.5,-509 416.5,-503 416.5,-503 416.5,-486 416.5,-486 416.5,-480 422.5,-474 428.5,-474 428.5,-474 613.5,-474 613.5,-474 619.5,-474 625.5,-480 625.5,-486 625.5,-486 625.5,-503 625.5,-503 625.5,-509 619.5,-515 613.5,-515"/>
<text text-anchor="middle" x="521" y="-503" font-family="sans" font-size="10.00" fill="#000000">prepareFASTQ</text>
<text text-anchor="middle" x="521" y="-492" font-family="sans" font-size="10.00" fill="#000000">sample: RH4_Input_001_C_H5TLGBGXX</text>
<text text-anchor="middle" x="521" y="-481" font-family="sans" font-size="10.00" fill="#000000">suffix: R1.fastq.gz</text>
</g>
<!-- 24&#45;&gt;2 -->
<g id="edge24" class="edge">
<title>24&#45;&gt;2</title>
<path fill="none" stroke="#c0c0c0" stroke-width="2" d="M521,-473.7476C521,-465.8767 521,-456.7743 521,-448.3232"/>
<polygon fill="#c0c0c0" stroke="#c0c0c0" stroke-width="2" points="524.5001,-448.1086 521,-438.1087 517.5001,-448.1087 524.5001,-448.1086"/>
</g>
<!-- 25&#45;&gt;5 -->
<g id="edge27" class="edge">
<title>25&#45;&gt;5</title>
<path fill="none" stroke="#c0c0c0" stroke-width="2" d="M3668.1168,-167.7663C3674.2524,-155.4952 3682.4522,-139.0957 3689.3601,-125.2798"/>
<polygon fill="#c0c0c0" stroke="#c0c0c0" stroke-width="2" points="3692.5532,-126.7198 3693.8949,-116.2103 3686.2922,-123.5893 3692.5532,-126.7198"/>
</g>
<!-- 25&#45;&gt;6 -->
<g id="edge28" class="edge">
<title>25&#45;&gt;6</title>
<path fill="none" stroke="#c0c0c0" stroke-width="2" d="M3643.2528,-167.7663C3632.3492,-155.1412 3617.6716,-138.1461 3605.533,-124.0909"/>
<polygon fill="#c0c0c0" stroke="#c0c0c0" stroke-width="2" points="3607.9122,-121.4909 3598.7271,-116.2103 3602.6144,-126.0662 3607.9122,-121.4909"/>
</g>
<!-- 26&#45;&gt;12 -->
<g id="edge37" class="edge">
<title>26&#45;&gt;12</title>
<path fill="none" stroke="#c0c0c0" stroke-width="2" d="M681.0629,-250.395C707.7268,-238.0367 743.2323,-221.5805 771.6759,-208.3974"/>
<polygon fill="#c0c0c0" stroke="#c0c0c0" stroke-width="2" points="773.4272,-211.4434 781.0283,-204.0627 770.4836,-205.0924 773.4272,-211.4434"/>
</g>
<!-- 27&#45;&gt;13 -->
<g id="edge40" class="edge">
<title>27&#45;&gt;13</title>
<path fill="none" stroke="#c0c0c0" stroke-width="2" d="M3223.423,-250.1906C3233.4825,-238.9755 3246.5176,-224.4433 3257.6403,-212.0429"/>
<polygon fill="#c0c0c0" stroke="#c0c0c0" stroke-width="2" points="3260.5512,-214.0394 3264.6229,-204.2582 3255.3402,-209.3654 3260.5512,-214.0394"/>
</g>
</g>
</svg>
