<?xml version="1.0" encoding="UTF-8" standalone="no"?>
<!DOCTYPE svg PUBLIC "-//W3C//DTD SVG 1.1//EN"
 "http://www.w3.org/Graphics/SVG/1.1/DTD/svg11.dtd">
<!-- Generated by graphviz version 2.40.1 (20161225.0304)
 -->
<!-- Title: snakemake_dag Pages: 1 -->
<svg width="520pt" height="481pt"
 viewBox="0.00 0.00 520.00 481.00" xmlns="http://www.w3.org/2000/svg" xmlns:xlink="http://www.w3.org/1999/xlink">
<g id="graph0" class="graph" transform="scale(1 1) rotate(0) translate(4 477)">
<title>snakemake_dag</title>
<polygon fill="#ffffff" stroke="transparent" points="-4,4 -4,-477 516,-477 516,4 -4,4"/>
<!-- 0 -->
<g id="node1" class="node">
<title>0</title>
<path fill="none" stroke="#56d0d8" stroke-width="2" d="M304.5,-36C304.5,-36 274.5,-36 274.5,-36 268.5,-36 262.5,-30 262.5,-24 262.5,-24 262.5,-12 262.5,-12 262.5,-6 268.5,0 274.5,0 274.5,0 304.5,0 304.5,0 310.5,0 316.5,-6 316.5,-12 316.5,-12 316.5,-24 316.5,-24 316.5,-30 310.5,-36 304.5,-36"/>
<text text-anchor="middle" x="289.5" y="-15.5" font-family="sans" font-size="10.00" fill="#000000">all</text>
</g>
<!-- 1 -->
<g id="node2" class="node">
<title>1</title>
<path fill="none" stroke="#d8cb56" stroke-width="2" stroke-dasharray="5,2" d="M199,-252C199,-252 146,-252 146,-252 140,-252 134,-246 134,-240 134,-240 134,-228 134,-228 134,-222 140,-216 146,-216 146,-216 199,-216 199,-216 205,-216 211,-222 211,-228 211,-228 211,-240 211,-240 211,-246 205,-252 199,-252"/>
<text text-anchor="middle" x="172.5" y="-231.5" font-family="sans" font-size="10.00" fill="#000000">HiCProStep2</text>
</g>
<!-- 1&#45;&gt;0 -->
<g id="edge1" class="edge">
<title>1&#45;&gt;0</title>
<path fill="none" stroke="#c0c0c0" stroke-width="2" d="M151.6422,-215.6461C142.346,-206.0709 132.4022,-193.54 127.5,-180 122.0532,-164.9557 122.9376,-159.3357 127.5,-144 138.3968,-107.3721 145.663,-97.0754 174.5,-72 197.3209,-52.156 228.6845,-38.0784 252.894,-29.2826"/>
<polygon fill="#c0c0c0" stroke="#c0c0c0" stroke-width="2" points="254.1641,-32.5464 262.4521,-25.9465 251.8573,-25.9374 254.1641,-32.5464"/>
</g>
<!-- 4 -->
<g id="node5" class="node">
<title>4</title>
<path fill="none" stroke="#8fd856" stroke-width="2" stroke-dasharray="5,2" d="M198,-180C198,-180 149,-180 149,-180 143,-180 137,-174 137,-168 137,-168 137,-156 137,-156 137,-150 143,-144 149,-144 149,-144 198,-144 198,-144 204,-144 210,-150 210,-156 210,-156 210,-168 210,-168 210,-174 204,-180 198,-180"/>
<text text-anchor="middle" x="173.5" y="-159.5" font-family="sans" font-size="10.00" fill="#000000">mergeStats</text>
</g>
<!-- 1&#45;&gt;4 -->
<g id="edge13" class="edge">
<title>1&#45;&gt;4</title>
<path fill="none" stroke="#c0c0c0" stroke-width="2" d="M172.7523,-215.8314C172.8593,-208.131 172.9865,-198.9743 173.1053,-190.4166"/>
<polygon fill="#c0c0c0" stroke="#c0c0c0" stroke-width="2" points="176.6049,-190.4609 173.2443,-180.4133 169.6056,-190.3637 176.6049,-190.4609"/>
</g>
<!-- 2 -->
<g id="node3" class="node">
<title>2</title>
<path fill="none" stroke="#d8cb56" stroke-width="2" stroke-dasharray="5,2" d="M353,-252C353,-252 300,-252 300,-252 294,-252 288,-246 288,-240 288,-240 288,-228 288,-228 288,-222 294,-216 300,-216 300,-216 353,-216 353,-216 359,-216 365,-222 365,-228 365,-228 365,-240 365,-240 365,-246 359,-252 353,-252"/>
<text text-anchor="middle" x="326.5" y="-231.5" font-family="sans" font-size="10.00" fill="#000000">HiCProStep2</text>
</g>
<!-- 2&#45;&gt;0 -->
<g id="edge2" class="edge">
<title>2&#45;&gt;0</title>
<path fill="none" stroke="#c0c0c0" stroke-width="2" d="M365.085,-229.1583C395.0676,-223.1453 434.7653,-209.7445 454.5,-180 463.3457,-166.6676 458.8336,-159.402 454.5,-144 444.3426,-107.8995 438.6696,-96.7567 410.5,-72 386.2455,-50.6841 352.2111,-36.5089 326.4136,-28.0523"/>
<polygon fill="#c0c0c0" stroke="#c0c0c0" stroke-width="2" points="327.2069,-24.6331 316.6178,-24.9835 325.1142,-31.313 327.2069,-24.6331"/>
</g>
<!-- 3 -->
<g id="node4" class="node">
<title>3</title>
<path fill="none" stroke="#56d8b9" stroke-width="2" stroke-dasharray="5,2" d="M434,-180C434,-180 361,-180 361,-180 355,-180 349,-174 349,-168 349,-168 349,-156 349,-156 349,-150 355,-144 361,-144 361,-144 434,-144 434,-144 440,-144 446,-150 446,-156 446,-156 446,-168 446,-168 446,-174 440,-180 434,-180"/>
<text text-anchor="middle" x="397.5" y="-159.5" font-family="sans" font-size="10.00" fill="#000000">HiCpro2Juicebox</text>
</g>
<!-- 2&#45;&gt;3 -->
<g id="edge12" class="edge">
<title>2&#45;&gt;3</title>
<path fill="none" stroke="#c0c0c0" stroke-width="2" d="M344.4163,-215.8314C352.8442,-207.2848 363.041,-196.9443 372.236,-187.6198"/>
<polygon fill="#c0c0c0" stroke="#c0c0c0" stroke-width="2" points="374.8131,-189.9912 379.3425,-180.4133 369.8289,-185.0761 374.8131,-189.9912"/>
</g>
<!-- 2&#45;&gt;4 -->
<g id="edge14" class="edge">
<title>2&#45;&gt;4</title>
<path fill="none" stroke="#c0c0c0" stroke-width="2" d="M287.8916,-215.8314C267.055,-206.0259 241.2008,-193.8592 219.3459,-183.5746"/>
<polygon fill="#c0c0c0" stroke="#c0c0c0" stroke-width="2" points="220.7892,-180.3856 210.2507,-179.2945 217.8086,-186.7193 220.7892,-180.3856"/>
</g>
<!-- 7 -->
<g id="node8" class="node">
<title>7</title>
<path fill="none" stroke="#567bd8" stroke-width="2" stroke-dasharray="5,2" d="M319,-180C319,-180 240,-180 240,-180 234,-180 228,-174 228,-168 228,-168 228,-156 228,-156 228,-150 234,-144 240,-144 240,-144 319,-144 319,-144 325,-144 331,-150 331,-156 331,-156 331,-168 331,-168 331,-174 325,-180 319,-180"/>
<text text-anchor="middle" x="279.5" y="-159.5" font-family="sans" font-size="10.00" fill="#000000">FitHiChIPCallPeak</text>
</g>
<!-- 2&#45;&gt;7 -->
<g id="edge17" class="edge">
<title>2&#45;&gt;7</title>
<path fill="none" stroke="#c0c0c0" stroke-width="2" d="M314.6399,-215.8314C309.3371,-207.7079 302.9763,-197.9637 297.1327,-189.0118"/>
<polygon fill="#c0c0c0" stroke="#c0c0c0" stroke-width="2" points="299.9169,-186.8739 291.5198,-180.4133 294.0552,-190.7003 299.9169,-186.8739"/>
</g>
<!-- 3&#45;&gt;0 -->
<g id="edge3" class="edge">
<title>3&#45;&gt;0</title>
<path fill="none" stroke="#c0c0c0" stroke-width="2" d="M400.8844,-143.8207C403.4769,-124.4015 404.5579,-93.5171 390.5,-72 375.9109,-49.6699 348.8777,-35.9144 326.4483,-27.8788"/>
<polygon fill="#c0c0c0" stroke="#c0c0c0" stroke-width="2" points="327.4422,-24.5208 316.8485,-24.6779 325.228,-31.1614 327.4422,-24.5208"/>
</g>
<!-- 9 -->
<g id="node10" class="node">
<title>9</title>
<path fill="none" stroke="#d87d56" stroke-width="2" d="M369.5,-108C369.5,-108 329.5,-108 329.5,-108 323.5,-108 317.5,-102 317.5,-96 317.5,-96 317.5,-84 317.5,-84 317.5,-78 323.5,-72 329.5,-72 329.5,-72 369.5,-72 369.5,-72 375.5,-72 381.5,-78 381.5,-84 381.5,-84 381.5,-96 381.5,-96 381.5,-102 375.5,-108 369.5,-108"/>
<text text-anchor="middle" x="349.5" y="-87.5" font-family="sans" font-size="10.00" fill="#000000">peakachu</text>
</g>
<!-- 3&#45;&gt;9 -->
<g id="edge19" class="edge">
<title>3&#45;&gt;9</title>
<path fill="none" stroke="#c0c0c0" stroke-width="2" d="M385.3876,-143.8314C379.9719,-135.7079 373.4758,-125.9637 367.5079,-117.0118"/>
<polygon fill="#c0c0c0" stroke="#c0c0c0" stroke-width="2" points="370.2347,-114.7923 361.7755,-108.4133 364.4104,-118.6753 370.2347,-114.7923"/>
</g>
<!-- 4&#45;&gt;0 -->
<g id="edge4" class="edge">
<title>4&#45;&gt;0</title>
<path fill="none" stroke="#c0c0c0" stroke-width="2" d="M173.0751,-143.6504C173.5298,-124.0857 176.9555,-93.0778 192.5,-72 207.3135,-51.9133 231.9595,-38.3309 252.7007,-29.8121"/>
<polygon fill="#c0c0c0" stroke="#c0c0c0" stroke-width="2" points="254.1397,-33.0083 262.2067,-26.1399 251.6173,-26.4786 254.1397,-33.0083"/>
</g>
<!-- 5 -->
<g id="node6" class="node">
<title>5</title>
<path fill="none" stroke="#68d856" stroke-width="2" stroke-dasharray="5,2" d="M89.5,-324C89.5,-324 51.5,-324 51.5,-324 45.5,-324 39.5,-318 39.5,-312 39.5,-312 39.5,-300 39.5,-300 39.5,-294 45.5,-288 51.5,-288 51.5,-288 89.5,-288 89.5,-288 95.5,-288 101.5,-294 101.5,-300 101.5,-300 101.5,-312 101.5,-312 101.5,-318 95.5,-324 89.5,-324"/>
<text text-anchor="middle" x="70.5" y="-309" font-family="sans" font-size="10.00" fill="#000000">fastqc</text>
<text text-anchor="middle" x="70.5" y="-298" font-family="sans" font-size="10.00" fill="#000000">suffix: R1</text>
</g>
<!-- 5&#45;&gt;0 -->
<g id="edge5" class="edge">
<title>5&#45;&gt;0</title>
<path fill="none" stroke="#c0c0c0" stroke-width="2" d="M70.4755,-287.786C71.4118,-244.4903 79.7871,-134.3854 138.5,-72 168.3288,-40.3054 218.0354,-27.1832 252.2196,-21.7696"/>
<polygon fill="#c0c0c0" stroke="#c0c0c0" stroke-width="2" points="252.8893,-25.2094 262.291,-20.3249 251.8953,-18.2803 252.8893,-25.2094"/>
</g>
<!-- 6 -->
<g id="node7" class="node">
<title>6</title>
<path fill="none" stroke="#68d856" stroke-width="2" stroke-dasharray="5,2" d="M488.5,-252C488.5,-252 450.5,-252 450.5,-252 444.5,-252 438.5,-246 438.5,-240 438.5,-240 438.5,-228 438.5,-228 438.5,-222 444.5,-216 450.5,-216 450.5,-216 488.5,-216 488.5,-216 494.5,-216 500.5,-222 500.5,-228 500.5,-228 500.5,-240 500.5,-240 500.5,-246 494.5,-252 488.5,-252"/>
<text text-anchor="middle" x="469.5" y="-237" font-family="sans" font-size="10.00" fill="#000000">fastqc</text>
<text text-anchor="middle" x="469.5" y="-226" font-family="sans" font-size="10.00" fill="#000000">suffix: R2</text>
</g>
<!-- 6&#45;&gt;0 -->
<g id="edge6" class="edge">
<title>6&#45;&gt;0</title>
<path fill="none" stroke="#c0c0c0" stroke-width="2" d="M472.434,-215.9911C476.7908,-182.2757 480.5997,-109.6451 440.5,-72 408.9523,-42.3834 360.0537,-28.8243 326.5004,-22.7417"/>
<polygon fill="#c0c0c0" stroke="#c0c0c0" stroke-width="2" points="327.0573,-19.2862 316.6161,-21.0845 325.8997,-26.1899 327.0573,-19.2862"/>
</g>
<!-- 7&#45;&gt;0 -->
<g id="edge7" class="edge">
<title>7&#45;&gt;0</title>
<path fill="none" stroke="#c0c0c0" stroke-width="2" d="M280.7665,-143.7623C282.4721,-119.201 285.5245,-75.2474 287.531,-46.3541"/>
<polygon fill="#c0c0c0" stroke="#c0c0c0" stroke-width="2" points="291.0425,-46.3081 288.2438,-36.0896 284.0593,-45.8231 291.0425,-46.3081"/>
</g>
<!-- 8 -->
<g id="node9" class="node">
<title>8</title>
<path fill="none" stroke="#b6d856" stroke-width="2" stroke-dasharray="5,2" d="M249.5,-108C249.5,-108 213.5,-108 213.5,-108 207.5,-108 201.5,-102 201.5,-96 201.5,-96 201.5,-84 201.5,-84 201.5,-78 207.5,-72 213.5,-72 213.5,-72 249.5,-72 249.5,-72 255.5,-72 261.5,-78 261.5,-84 261.5,-84 261.5,-96 261.5,-96 261.5,-102 255.5,-108 249.5,-108"/>
<text text-anchor="middle" x="231.5" y="-87.5" font-family="sans" font-size="10.00" fill="#000000">FitHiChIP</text>
</g>
<!-- 7&#45;&gt;8 -->
<g id="edge18" class="edge">
<title>7&#45;&gt;8</title>
<path fill="none" stroke="#c0c0c0" stroke-width="2" d="M267.3876,-143.8314C261.9719,-135.7079 255.4758,-125.9637 249.5079,-117.0118"/>
<polygon fill="#c0c0c0" stroke="#c0c0c0" stroke-width="2" points="252.2347,-114.7923 243.7755,-108.4133 246.4104,-118.6753 252.2347,-114.7923"/>
</g>
<!-- 8&#45;&gt;0 -->
<g id="edge8" class="edge">
<title>8&#45;&gt;0</title>
<path fill="none" stroke="#c0c0c0" stroke-width="2" d="M246.1358,-71.8314C252.8161,-63.5386 260.8568,-53.557 268.1904,-44.4533"/>
<polygon fill="#c0c0c0" stroke="#c0c0c0" stroke-width="2" points="271.1194,-46.3965 274.6671,-36.4133 265.6681,-42.0052 271.1194,-46.3965"/>
</g>
<!-- 9&#45;&gt;0 -->
<g id="edge9" class="edge">
<title>9&#45;&gt;0</title>
<path fill="none" stroke="#c0c0c0" stroke-width="2" d="M334.3595,-71.8314C327.3783,-63.454 318.9609,-53.3531 311.3124,-44.1749"/>
<polygon fill="#c0c0c0" stroke="#c0c0c0" stroke-width="2" points="313.9351,-41.8548 304.8444,-36.4133 308.5575,-46.3362 313.9351,-41.8548"/>
</g>
<!-- 10 -->
<g id="node11" class="node">
<title>10</title>
<path fill="none" stroke="#d8a456" stroke-width="2" stroke-dasharray="5,2" d="M214,-324C214,-324 131,-324 131,-324 125,-324 119,-318 119,-312 119,-312 119,-300 119,-300 119,-294 125,-288 131,-288 131,-288 214,-288 214,-288 220,-288 226,-294 226,-300 226,-300 226,-312 226,-312 226,-318 220,-324 214,-324"/>
<text text-anchor="middle" x="172.5" y="-309" font-family="sans" font-size="10.00" fill="#000000">HiCProStep1</text>
<text text-anchor="middle" x="172.5" y="-298" font-family="sans" font-size="10.00" fill="#000000">bowtie_idx: mm10</text>
</g>
<!-- 10&#45;&gt;1 -->
<g id="edge10" class="edge">
<title>10&#45;&gt;1</title>
<path fill="none" stroke="#c0c0c0" stroke-width="2" d="M172.5,-287.8314C172.5,-280.131 172.5,-270.9743 172.5,-262.4166"/>
<polygon fill="#c0c0c0" stroke="#c0c0c0" stroke-width="2" points="176.0001,-262.4132 172.5,-252.4133 169.0001,-262.4133 176.0001,-262.4132"/>
</g>
<!-- 11 -->
<g id="node12" class="node">
<title>11</title>
<path fill="none" stroke="#d8a456" stroke-width="2" stroke-dasharray="5,2" d="M377,-324C377,-324 276,-324 276,-324 270,-324 264,-318 264,-312 264,-312 264,-300 264,-300 264,-294 270,-288 276,-288 276,-288 377,-288 377,-288 383,-288 389,-294 389,-300 389,-300 389,-312 389,-312 389,-318 383,-324 377,-324"/>
<text text-anchor="middle" x="326.5" y="-309" font-family="sans" font-size="10.00" fill="#000000">HiCProStep1</text>
<text text-anchor="middle" x="326.5" y="-298" font-family="sans" font-size="10.00" fill="#000000">bowtie_idx: ucsc.hg19</text>
</g>
<!-- 11&#45;&gt;2 -->
<g id="edge11" class="edge">
<title>11&#45;&gt;2</title>
<path fill="none" stroke="#c0c0c0" stroke-width="2" d="M326.5,-287.8314C326.5,-280.131 326.5,-270.9743 326.5,-262.4166"/>
<polygon fill="#c0c0c0" stroke="#c0c0c0" stroke-width="2" points="330.0001,-262.4132 326.5,-252.4133 323.0001,-262.4133 330.0001,-262.4132"/>
</g>
<!-- 12 -->
<g id="node13" class="node">
<title>12</title>
<path fill="none" stroke="#d85656" stroke-width="2" stroke-dasharray="5,2" d="M235,-473C235,-473 12,-473 12,-473 6,-473 0,-467 0,-461 0,-461 0,-444 0,-444 0,-438 6,-432 12,-432 12,-432 235,-432 235,-432 241,-432 247,-438 247,-444 247,-444 247,-461 247,-461 247,-467 241,-473 235,-473"/>
<text text-anchor="middle" x="123.5" y="-461" font-family="sans" font-size="10.00" fill="#000000">prepareFASTQ</text>
<text text-anchor="middle" x="123.5" y="-450" font-family="sans" font-size="10.00" fill="#000000">sample: RH4_D6_H3K27ac_HiChIP_HH3JVBGX7</text>
<text text-anchor="middle" x="123.5" y="-439" font-family="sans" font-size="10.00" fill="#000000">suffix: R1.fastq.gz</text>
</g>
<!-- 12&#45;&gt;5 -->
<g id="edge15" class="edge">
<title>12&#45;&gt;5</title>
<path fill="none" stroke="#c0c0c0" stroke-width="2" d="M116.0188,-431.8208C106.7278,-406.1392 90.8445,-362.2354 80.5114,-333.673"/>
<polygon fill="#c0c0c0" stroke="#c0c0c0" stroke-width="2" points="83.8011,-332.4779 77.1078,-324.265 77.2186,-334.8593 83.8011,-332.4779"/>
</g>
<!-- 14 -->
<g id="node15" class="node">
<title>14</title>
<path fill="none" stroke="#56d86b" stroke-width="2" stroke-dasharray="5,2" d="M207.5,-396C207.5,-396 137.5,-396 137.5,-396 131.5,-396 125.5,-390 125.5,-384 125.5,-384 125.5,-372 125.5,-372 125.5,-366 131.5,-360 137.5,-360 137.5,-360 207.5,-360 207.5,-360 213.5,-360 219.5,-366 219.5,-372 219.5,-372 219.5,-384 219.5,-384 219.5,-390 213.5,-396 207.5,-396"/>
<text text-anchor="middle" x="172.5" y="-381" font-family="sans" font-size="10.00" fill="#000000">HiCPro</text>
<text text-anchor="middle" x="172.5" y="-370" font-family="sans" font-size="10.00" fill="#000000">genome: mm10</text>
</g>
<!-- 12&#45;&gt;14 -->
<g id="edge22" class="edge">
<title>12&#45;&gt;14</title>
<path fill="none" stroke="#c0c0c0" stroke-width="2" d="M137.1492,-431.7476C142.6712,-423.352 149.1147,-413.5551 154.9769,-404.6423"/>
<polygon fill="#c0c0c0" stroke="#c0c0c0" stroke-width="2" points="158.0186,-406.3868 160.5896,-396.1087 152.1702,-402.5402 158.0186,-406.3868"/>
</g>
<!-- 15 -->
<g id="node16" class="node">
<title>15</title>
<path fill="none" stroke="#56d86b" stroke-width="2" stroke-dasharray="5,2" d="M357.5,-396C357.5,-396 295.5,-396 295.5,-396 289.5,-396 283.5,-390 283.5,-384 283.5,-384 283.5,-372 283.5,-372 283.5,-366 289.5,-360 295.5,-360 295.5,-360 357.5,-360 357.5,-360 363.5,-360 369.5,-366 369.5,-372 369.5,-372 369.5,-384 369.5,-384 369.5,-390 363.5,-396 357.5,-396"/>
<text text-anchor="middle" x="326.5" y="-381" font-family="sans" font-size="10.00" fill="#000000">HiCPro</text>
<text text-anchor="middle" x="326.5" y="-370" font-family="sans" font-size="10.00" fill="#000000">genome: hg19</text>
</g>
<!-- 12&#45;&gt;15 -->
<g id="edge24" class="edge">
<title>12&#45;&gt;15</title>
<path fill="none" stroke="#c0c0c0" stroke-width="2" d="M179.508,-431.9453C208.9252,-421.1494 244.7704,-407.9944 273.6987,-397.3778"/>
<polygon fill="#c0c0c0" stroke="#c0c0c0" stroke-width="2" points="275.0428,-400.6129 283.2247,-393.8818 272.6311,-394.0414 275.0428,-400.6129"/>
</g>
<!-- 13 -->
<g id="node14" class="node">
<title>13</title>
<path fill="none" stroke="#d85656" stroke-width="2" stroke-dasharray="5,2" d="M500,-473C500,-473 277,-473 277,-473 271,-473 265,-467 265,-461 265,-461 265,-444 265,-444 265,-438 271,-432 277,-432 277,-432 500,-432 500,-432 506,-432 512,-438 512,-444 512,-444 512,-461 512,-461 512,-467 506,-473 500,-473"/>
<text text-anchor="middle" x="388.5" y="-461" font-family="sans" font-size="10.00" fill="#000000">prepareFASTQ</text>
<text text-anchor="middle" x="388.5" y="-450" font-family="sans" font-size="10.00" fill="#000000">sample: RH4_D6_H3K27ac_HiChIP_HH3JVBGX7</text>
<text text-anchor="middle" x="388.5" y="-439" font-family="sans" font-size="10.00" fill="#000000">suffix: R2.fastq.gz</text>
</g>
<!-- 13&#45;&gt;6 -->
<g id="edge16" class="edge">
<title>13&#45;&gt;6</title>
<path fill="none" stroke="#c0c0c0" stroke-width="2" d="M396.1203,-431.9441C410.7349,-392.5207 442.7125,-306.2601 459.2066,-261.7668"/>
<polygon fill="#c0c0c0" stroke="#c0c0c0" stroke-width="2" points="462.5694,-262.7646 462.7636,-252.1716 456.0059,-260.3314 462.5694,-262.7646"/>
</g>
<!-- 13&#45;&gt;14 -->
<g id="edge23" class="edge">
<title>13&#45;&gt;14</title>
<path fill="none" stroke="#c0c0c0" stroke-width="2" d="M328.9053,-431.9453C297.8062,-421.219 259.9554,-408.164 229.2794,-397.5836"/>
<polygon fill="#c0c0c0" stroke="#c0c0c0" stroke-width="2" points="230.1841,-394.1934 219.5894,-394.2415 227.9017,-400.8108 230.1841,-394.1934"/>
</g>
<!-- 13&#45;&gt;15 -->
<g id="edge25" class="edge">
<title>13&#45;&gt;15</title>
<path fill="none" stroke="#c0c0c0" stroke-width="2" d="M371.2295,-431.7476C364.0242,-423.0896 355.5788,-412.9415 347.9789,-403.8093"/>
<polygon fill="#c0c0c0" stroke="#c0c0c0" stroke-width="2" points="350.6574,-401.5562 341.5703,-396.1087 345.2768,-406.034 350.6574,-401.5562"/>
</g>
<!-- 14&#45;&gt;10 -->
<g id="edge20" class="edge">
<title>14&#45;&gt;10</title>
<path fill="none" stroke="#c0c0c0" stroke-width="2" d="M172.5,-359.8314C172.5,-352.131 172.5,-342.9743 172.5,-334.4166"/>
<polygon fill="#c0c0c0" stroke="#c0c0c0" stroke-width="2" points="176.0001,-334.4132 172.5,-324.4133 169.0001,-334.4133 176.0001,-334.4132"/>
</g>
<!-- 15&#45;&gt;11 -->
<g id="edge21" class="edge">
<title>15&#45;&gt;11</title>
<path fill="none" stroke="#c0c0c0" stroke-width="2" d="M326.5,-359.8314C326.5,-352.131 326.5,-342.9743 326.5,-334.4166"/>
<polygon fill="#c0c0c0" stroke="#c0c0c0" stroke-width="2" points="330.0001,-334.4132 326.5,-324.4133 323.0001,-334.4133 330.0001,-334.4132"/>
</g>
</g>
</svg>
