<?xml version="1.0" encoding="UTF-8" standalone="no"?>
<!DOCTYPE svg PUBLIC "-//W3C//DTD SVG 1.1//EN"
 "http://www.w3.org/Graphics/SVG/1.1/DTD/svg11.dtd">
<!-- Generated by graphviz version 2.40.1 (20161225.0304)
 -->
<!-- Title: snakemake_dag Pages: 1 -->
<svg width="362pt" height="692pt"
 viewBox="0.00 0.00 362.06 692.00" xmlns="http://www.w3.org/2000/svg" xmlns:xlink="http://www.w3.org/1999/xlink">
<g id="graph0" class="graph" transform="scale(1 1) rotate(0) translate(4 688)">
<title>snakemake_dag</title>
<polygon fill="#ffffff" stroke="transparent" points="-4,4 -4,-688 358.059,-688 358.059,4 -4,4"/>
<!-- 0 -->
<g id="node1" class="node">
<title>0</title>
<path fill="none" stroke="#68d856" stroke-width="2" d="M148,-36C148,-36 118,-36 118,-36 112,-36 106,-30 106,-24 106,-24 106,-12 106,-12 106,-6 112,0 118,0 118,0 148,0 148,0 154,0 160,-6 160,-12 160,-12 160,-24 160,-24 160,-30 154,-36 148,-36"/>
<text text-anchor="middle" x="133" y="-15.5" font-family="sans" font-size="10.00" fill="#000000">all</text>
</g>
<!-- 1 -->
<g id="node2" class="node">
<title>1</title>
<path fill="none" stroke="#56d0d8" stroke-width="2" d="M95,-468C95,-468 53,-468 53,-468 47,-468 41,-462 41,-456 41,-456 41,-444 41,-444 41,-438 47,-432 53,-432 53,-432 95,-432 95,-432 101,-432 107,-438 107,-444 107,-444 107,-456 107,-456 107,-462 101,-468 95,-468"/>
<text text-anchor="middle" x="74" y="-447.5" font-family="sans" font-size="10.00" fill="#000000">minimap2</text>
</g>
<!-- 1&#45;&gt;0 -->
<g id="edge1" class="edge">
<title>1&#45;&gt;0</title>
<path fill="none" stroke="#c0c0c0" stroke-width="2" d="M57.577,-431.9758C35.776,-406.1064 0,-356.032 0,-306 0,-306 0,-306 0,-162 0,-104.8167 57.2983,-60.6623 96.6778,-37.0688"/>
<polygon fill="#c0c0c0" stroke="#c0c0c0" stroke-width="2" points="98.8727,-39.8417 105.7645,-31.7947 95.3588,-33.7875 98.8727,-39.8417"/>
</g>
<!-- 2 -->
<g id="node3" class="node">
<title>2</title>
<path fill="none" stroke="#56d86b" stroke-width="2" d="M89,-396C89,-396 59,-396 59,-396 53,-396 47,-390 47,-384 47,-384 47,-372 47,-372 47,-366 53,-360 59,-360 59,-360 89,-360 89,-360 95,-360 101,-366 101,-372 101,-372 101,-384 101,-384 101,-390 95,-396 89,-396"/>
<text text-anchor="middle" x="74" y="-375.5" font-family="sans" font-size="10.00" fill="#000000">sort</text>
</g>
<!-- 1&#45;&gt;2 -->
<g id="edge10" class="edge">
<title>1&#45;&gt;2</title>
<path fill="none" stroke="#c0c0c0" stroke-width="2" d="M74,-431.8314C74,-424.131 74,-414.9743 74,-406.4166"/>
<polygon fill="#c0c0c0" stroke="#c0c0c0" stroke-width="2" points="77.5001,-406.4132 74,-396.4133 70.5001,-406.4133 77.5001,-406.4132"/>
</g>
<!-- 2&#45;&gt;0 -->
<g id="edge2" class="edge">
<title>2&#45;&gt;0</title>
<path fill="none" stroke="#c0c0c0" stroke-width="2" d="M66.3653,-359.7257C55.7979,-332.7325 38,-280.3849 38,-234 38,-234 38,-234 38,-162 38,-114.0912 75.0913,-69.8312 102.921,-43.3654"/>
<polygon fill="#c0c0c0" stroke="#c0c0c0" stroke-width="2" points="105.5108,-45.7382 110.4863,-36.3843 100.7636,-40.5938 105.5108,-45.7382"/>
</g>
<!-- 8 -->
<g id="node9" class="node">
<title>8</title>
<path fill="none" stroke="#d85656" stroke-width="2" d="M112,-324C112,-324 78,-324 78,-324 72,-324 66,-318 66,-312 66,-312 66,-300 66,-300 66,-294 72,-288 78,-288 78,-288 112,-288 112,-288 118,-288 124,-294 124,-300 124,-300 124,-312 124,-312 124,-318 118,-324 112,-324"/>
<text text-anchor="middle" x="95" y="-303.5" font-family="sans" font-size="10.00" fill="#000000">targeted</text>
</g>
<!-- 2&#45;&gt;8 -->
<g id="edge17" class="edge">
<title>2&#45;&gt;8</title>
<path fill="none" stroke="#c0c0c0" stroke-width="2" d="M79.2992,-359.8314C81.5698,-352.0463 84.2746,-342.7729 86.794,-334.1347"/>
<polygon fill="#c0c0c0" stroke="#c0c0c0" stroke-width="2" points="90.1894,-334.9933 89.6295,-324.4133 83.4694,-333.0332 90.1894,-334.9933"/>
</g>
<!-- 3 -->
<g id="node4" class="node">
<title>3</title>
<path fill="none" stroke="#56d892" stroke-width="2" d="M149.5,-252C149.5,-252 116.5,-252 116.5,-252 110.5,-252 104.5,-246 104.5,-240 104.5,-240 104.5,-228 104.5,-228 104.5,-222 110.5,-216 116.5,-216 116.5,-216 149.5,-216 149.5,-216 155.5,-216 161.5,-222 161.5,-228 161.5,-228 161.5,-240 161.5,-240 161.5,-246 155.5,-252 149.5,-252"/>
<text text-anchor="middle" x="133" y="-231.5" font-family="sans" font-size="10.00" fill="#000000">collapse</text>
</g>
<!-- 3&#45;&gt;0 -->
<g id="edge3" class="edge">
<title>3&#45;&gt;0</title>
<path fill="none" stroke="#c0c0c0" stroke-width="2" d="M133,-215.9555C133,-178.3938 133,-91.5541 133,-46.4103"/>
<polygon fill="#c0c0c0" stroke="#c0c0c0" stroke-width="2" points="136.5001,-46.145 133,-36.1451 129.5001,-46.1451 136.5001,-46.145"/>
</g>
<!-- 5 -->
<g id="node6" class="node">
<title>5</title>
<path fill="none" stroke="#567bd8" stroke-width="2" d="M232,-180C232,-180 202,-180 202,-180 196,-180 190,-174 190,-168 190,-168 190,-156 190,-156 190,-150 196,-144 202,-144 202,-144 232,-144 232,-144 238,-144 244,-150 244,-156 244,-156 244,-168 244,-168 244,-174 238,-180 232,-180"/>
<text text-anchor="middle" x="217" y="-159.5" font-family="sans" font-size="10.00" fill="#000000">sqanti</text>
</g>
<!-- 3&#45;&gt;5 -->
<g id="edge13" class="edge">
<title>3&#45;&gt;5</title>
<path fill="none" stroke="#c0c0c0" stroke-width="2" d="M154.1967,-215.8314C164.4434,-207.0485 176.9003,-196.3712 188.0097,-186.8489"/>
<polygon fill="#c0c0c0" stroke="#c0c0c0" stroke-width="2" points="190.4952,-189.3282 195.81,-180.1628 185.9397,-184.0134 190.4952,-189.3282"/>
</g>
<!-- 4 -->
<g id="node5" class="node">
<title>4</title>
<path fill="none" stroke="#56d8b9" stroke-width="2" d="M258.5,-252C258.5,-252 191.5,-252 191.5,-252 185.5,-252 179.5,-246 179.5,-240 179.5,-240 179.5,-228 179.5,-228 179.5,-222 185.5,-216 191.5,-216 191.5,-216 258.5,-216 258.5,-216 264.5,-216 270.5,-222 270.5,-228 270.5,-228 270.5,-240 270.5,-240 270.5,-246 264.5,-252 258.5,-252"/>
<text text-anchor="middle" x="225" y="-231.5" font-family="sans" font-size="10.00" fill="#000000">get_abundance</text>
</g>
<!-- 4&#45;&gt;0 -->
<g id="edge4" class="edge">
<title>4&#45;&gt;0</title>
<path fill="none" stroke="#c0c0c0" stroke-width="2" d="M255.5383,-215.7588C302.3962,-185.4886 382.6573,-123.1451 343,-72 321.9796,-44.8906 224.4522,-29.0116 170.007,-22.1127"/>
<polygon fill="#c0c0c0" stroke="#c0c0c0" stroke-width="2" points="170.401,-18.6349 160.049,-20.8901 169.5479,-25.5827 170.401,-18.6349"/>
</g>
<!-- 4&#45;&gt;5 -->
<g id="edge14" class="edge">
<title>4&#45;&gt;5</title>
<path fill="none" stroke="#c0c0c0" stroke-width="2" d="M222.9813,-215.8314C222.1257,-208.131 221.1083,-198.9743 220.1574,-190.4166"/>
<polygon fill="#c0c0c0" stroke="#c0c0c0" stroke-width="2" points="223.6289,-189.9656 219.0459,-180.4133 216.6717,-190.7386 223.6289,-189.9656"/>
</g>
<!-- 5&#45;&gt;0 -->
<g id="edge5" class="edge">
<title>5&#45;&gt;0</title>
<path fill="none" stroke="#c0c0c0" stroke-width="2" d="M198.8658,-143.615C189.7026,-133.6525 178.8858,-120.789 171,-108 158.8323,-88.2667 148.8248,-63.9482 142.1396,-45.5666"/>
<polygon fill="#c0c0c0" stroke="#c0c0c0" stroke-width="2" points="145.4033,-44.2973 138.7747,-36.0322 138.8023,-46.627 145.4033,-44.2973"/>
</g>
<!-- 6 -->
<g id="node7" class="node">
<title>6</title>
<path fill="none" stroke="#d8cb56" stroke-width="2" d="M242,-108C242,-108 192,-108 192,-108 186,-108 180,-102 180,-96 180,-96 180,-84 180,-84 180,-78 186,-72 192,-72 192,-72 242,-72 242,-72 248,-72 254,-78 254,-84 254,-84 254,-96 254,-96 254,-102 248,-108 242,-108"/>
<text text-anchor="middle" x="217" y="-87.5" font-family="sans" font-size="10.00" fill="#000000">sqanti_filter</text>
</g>
<!-- 5&#45;&gt;6 -->
<g id="edge15" class="edge">
<title>5&#45;&gt;6</title>
<path fill="none" stroke="#c0c0c0" stroke-width="2" d="M217,-143.8314C217,-136.131 217,-126.9743 217,-118.4166"/>
<polygon fill="#c0c0c0" stroke="#c0c0c0" stroke-width="2" points="220.5001,-118.4132 217,-108.4133 213.5001,-118.4133 220.5001,-118.4132"/>
</g>
<!-- 7 -->
<g id="node8" class="node">
<title>7</title>
<path fill="none" stroke="#d8a456" stroke-width="2" d="M322,-108C322,-108 284,-108 284,-108 278,-108 272,-102 272,-96 272,-96 272,-84 272,-84 272,-78 278,-72 284,-72 284,-72 322,-72 322,-72 328,-72 334,-78 334,-84 334,-84 334,-96 334,-96 334,-102 328,-108 322,-108"/>
<text text-anchor="middle" x="303" y="-87.5" font-family="sans" font-size="10.00" fill="#000000">sort_bam</text>
</g>
<!-- 5&#45;&gt;7 -->
<g id="edge16" class="edge">
<title>5&#45;&gt;7</title>
<path fill="none" stroke="#c0c0c0" stroke-width="2" d="M238.7014,-143.8314C249.1921,-135.0485 261.9455,-124.3712 273.3194,-114.8489"/>
<polygon fill="#c0c0c0" stroke="#c0c0c0" stroke-width="2" points="275.8847,-117.2659 281.3055,-108.1628 271.3911,-111.8986 275.8847,-117.2659"/>
</g>
<!-- 6&#45;&gt;0 -->
<g id="edge6" class="edge">
<title>6&#45;&gt;0</title>
<path fill="none" stroke="#c0c0c0" stroke-width="2" d="M195.8033,-71.8314C185.5566,-63.0485 173.0997,-52.3712 161.9903,-42.8489"/>
<polygon fill="#c0c0c0" stroke="#c0c0c0" stroke-width="2" points="164.0603,-40.0134 154.19,-36.1628 159.5048,-45.3282 164.0603,-40.0134"/>
</g>
<!-- 7&#45;&gt;0 -->
<g id="edge7" class="edge">
<title>7&#45;&gt;0</title>
<path fill="none" stroke="#c0c0c0" stroke-width="2" d="M271.5954,-75.7639C268.6943,-74.4803 265.7957,-73.2094 263,-72 231.6741,-58.449 195.8375,-43.612 169.7347,-32.9252"/>
<polygon fill="#c0c0c0" stroke="#c0c0c0" stroke-width="2" points="170.8178,-29.5869 160.2369,-29.0439 168.1697,-36.0667 170.8178,-29.5869"/>
</g>
<!-- 8&#45;&gt;0 -->
<g id="edge8" class="edge">
<title>8&#45;&gt;0</title>
<path fill="none" stroke="#c0c0c0" stroke-width="2" d="M93.987,-287.6804C93.2178,-269.4605 92.6482,-240.7322 95,-216 100.8303,-154.6875 116.5981,-84.1189 125.8882,-45.9838"/>
<polygon fill="#c0c0c0" stroke="#c0c0c0" stroke-width="2" points="129.3239,-46.6699 128.3231,-36.1224 122.528,-44.9918 129.3239,-46.6699"/>
</g>
<!-- 8&#45;&gt;3 -->
<g id="edge11" class="edge">
<title>8&#45;&gt;3</title>
<path fill="none" stroke="#c0c0c0" stroke-width="2" d="M104.589,-287.8314C108.8317,-279.7925 113.9121,-270.1666 118.596,-261.2918"/>
<polygon fill="#c0c0c0" stroke="#c0c0c0" stroke-width="2" points="121.7096,-262.8908 123.2819,-252.4133 115.5189,-259.6235 121.7096,-262.8908"/>
</g>
<!-- 9 -->
<g id="node10" class="node">
<title>9</title>
<path fill="none" stroke="#d87d56" stroke-width="2" d="M119,-540C119,-540 89,-540 89,-540 83,-540 77,-534 77,-528 77,-528 77,-516 77,-516 77,-510 83,-504 89,-504 89,-504 119,-504 119,-504 125,-504 131,-510 131,-516 131,-516 131,-528 131,-528 131,-534 125,-540 119,-540"/>
<text text-anchor="middle" x="104" y="-519.5" font-family="sans" font-size="10.00" fill="#000000">cluster</text>
</g>
<!-- 9&#45;&gt;1 -->
<g id="edge9" class="edge">
<title>9&#45;&gt;1</title>
<path fill="none" stroke="#c0c0c0" stroke-width="2" d="M96.4297,-503.8314C93.1507,-495.9617 89.238,-486.5712 85.6055,-477.8533"/>
<polygon fill="#c0c0c0" stroke="#c0c0c0" stroke-width="2" points="88.7492,-476.2979 81.6722,-468.4133 82.2876,-478.9902 88.7492,-476.2979"/>
</g>
<!-- 9&#45;&gt;4 -->
<g id="edge12" class="edge">
<title>9&#45;&gt;4</title>
<path fill="none" stroke="#c0c0c0" stroke-width="2" d="M111.5691,-503.9843C132.1107,-455.0919 189.0031,-319.6785 213.5176,-261.33"/>
<polygon fill="#c0c0c0" stroke="#c0c0c0" stroke-width="2" points="216.7871,-262.584 217.4338,-252.0089 210.3335,-259.8725 216.7871,-262.584"/>
</g>
<!-- 10 -->
<g id="node11" class="node">
<title>10</title>
<path fill="none" stroke="#56a9d8" stroke-width="2" d="M119,-612C119,-612 89,-612 89,-612 83,-612 77,-606 77,-600 77,-600 77,-588 77,-588 77,-582 83,-576 89,-576 89,-576 119,-576 119,-576 125,-576 131,-582 131,-588 131,-588 131,-600 131,-600 131,-606 125,-612 119,-612"/>
<text text-anchor="middle" x="104" y="-591.5" font-family="sans" font-size="10.00" fill="#000000">refine</text>
</g>
<!-- 10&#45;&gt;9 -->
<g id="edge18" class="edge">
<title>10&#45;&gt;9</title>
<path fill="none" stroke="#c0c0c0" stroke-width="2" d="M104,-575.8314C104,-568.131 104,-558.9743 104,-550.4166"/>
<polygon fill="#c0c0c0" stroke="#c0c0c0" stroke-width="2" points="107.5001,-550.4132 104,-540.4133 100.5001,-550.4133 107.5001,-550.4132"/>
</g>
<!-- 11 -->
<g id="node12" class="node">
<title>11</title>
<path fill="none" stroke="#b6d856" stroke-width="2" d="M131.5,-684C131.5,-684 76.5,-684 76.5,-684 70.5,-684 64.5,-678 64.5,-672 64.5,-672 64.5,-660 64.5,-660 64.5,-654 70.5,-648 76.5,-648 76.5,-648 131.5,-648 131.5,-648 137.5,-648 143.5,-654 143.5,-660 143.5,-660 143.5,-672 143.5,-672 143.5,-678 137.5,-684 131.5,-684"/>
<text text-anchor="middle" x="104" y="-669" font-family="sans" font-size="10.00" fill="#000000">lima</text>
<text text-anchor="middle" x="104" y="-658" font-family="sans" font-size="10.00" fill="#000000">sample: RH4</text>
</g>
<!-- 11&#45;&gt;10 -->
<g id="edge19" class="edge">
<title>11&#45;&gt;10</title>
<path fill="none" stroke="#c0c0c0" stroke-width="2" d="M104,-647.8314C104,-640.131 104,-630.9743 104,-622.4166"/>
<polygon fill="#c0c0c0" stroke="#c0c0c0" stroke-width="2" points="107.5001,-622.4132 104,-612.4133 100.5001,-622.4133 107.5001,-622.4132"/>
</g>
</g>
</svg>
