<?xml version="1.0" encoding="UTF-8" standalone="no"?>
<!DOCTYPE svg PUBLIC "-//W3C//DTD SVG 1.1//EN"
 "http://www.w3.org/Graphics/SVG/1.1/DTD/svg11.dtd">
<!-- Generated by graphviz version 2.40.1 (20161225.0304)
 -->
<!-- Title: snakemake_dag Pages: 1 -->
<svg width="432pt" height="270pt"
 viewBox="0.00 0.00 432.00 270.00" xmlns="http://www.w3.org/2000/svg" xmlns:xlink="http://www.w3.org/1999/xlink">
<g id="graph0" class="graph" transform="scale(1 1) rotate(0) translate(4 266)">
<title>snakemake_dag</title>
<polygon fill="#ffffff" stroke="transparent" points="-4,4 -4,-266 428,-266 428,4 -4,4"/>
<!-- 0 -->
<g id="node1" class="node">
<title>0</title>
<path fill="none" stroke="#70d856" stroke-width="2" d="M206,-36C206,-36 131,-36 131,-36 125,-36 119,-30 119,-24 119,-24 119,-12 119,-12 119,-6 125,0 131,0 131,0 206,0 206,0 212,0 218,-6 218,-12 218,-12 218,-24 218,-24 218,-30 212,-36 206,-36"/>
<text text-anchor="middle" x="168.5" y="-15.5" font-family="sans" font-size="10.00" fill="#000000">RNAseq_pipeline</text>
</g>
<!-- 1 -->
<g id="node2" class="node">
<title>1</title>
<path fill="none" stroke="#d88556" stroke-width="2" d="M105.5,-185C105.5,-185 13.5,-185 13.5,-185 7.5,-185 1.5,-179 1.5,-173 1.5,-173 1.5,-156 1.5,-156 1.5,-150 7.5,-144 13.5,-144 13.5,-144 105.5,-144 105.5,-144 111.5,-144 117.5,-150 117.5,-156 117.5,-156 117.5,-173 117.5,-173 117.5,-179 111.5,-185 105.5,-185"/>
<text text-anchor="middle" x="59.5" y="-173" font-family="sans" font-size="10.00" fill="#000000">STAR</text>
<text text-anchor="middle" x="59.5" y="-162" font-family="sans" font-size="10.00" fill="#000000">annotation: gencode</text>
<text text-anchor="middle" x="59.5" y="-151" font-family="sans" font-size="10.00" fill="#000000">genome: hg19</text>
</g>
<!-- 1&#45;&gt;0 -->
<g id="edge1" class="edge">
<title>1&#45;&gt;0</title>
<path fill="none" stroke="#c0c0c0" stroke-width="2" d="M74.8859,-143.8208C94.2441,-117.8027 127.5176,-73.0819 148.7398,-44.5585"/>
<polygon fill="#c0c0c0" stroke="#c0c0c0" stroke-width="2" points="151.749,-46.3773 154.9103,-36.265 146.133,-42.1987 151.749,-46.3773"/>
</g>
<!-- 4 -->
<g id="node5" class="node">
<title>4</title>
<path fill="none" stroke="#5682d8" stroke-width="2" d="M73.5,-108C73.5,-108 43.5,-108 43.5,-108 37.5,-108 31.5,-102 31.5,-96 31.5,-96 31.5,-84 31.5,-84 31.5,-78 37.5,-72 43.5,-72 43.5,-72 73.5,-72 73.5,-72 79.5,-72 85.5,-78 85.5,-84 85.5,-84 85.5,-96 85.5,-96 85.5,-102 79.5,-108 73.5,-108"/>
<text text-anchor="middle" x="58.5" y="-87.5" font-family="sans" font-size="10.00" fill="#000000">RSEM</text>
</g>
<!-- 1&#45;&gt;4 -->
<g id="edge12" class="edge">
<title>1&#45;&gt;4</title>
<path fill="none" stroke="#c0c0c0" stroke-width="2" d="M59.2214,-143.7476C59.1158,-135.8767 58.9936,-126.7743 58.8802,-118.3232"/>
<polygon fill="#c0c0c0" stroke="#c0c0c0" stroke-width="2" points="62.3771,-118.0608 58.7431,-108.1087 55.3777,-118.1548 62.3771,-118.0608"/>
</g>
<!-- 2 -->
<g id="node3" class="node">
<title>2</title>
<path fill="none" stroke="#d88556" stroke-width="2" d="M220,-185C220,-185 147,-185 147,-185 141,-185 135,-179 135,-173 135,-173 135,-156 135,-156 135,-150 141,-144 147,-144 147,-144 220,-144 220,-144 226,-144 232,-150 232,-156 232,-156 232,-173 232,-173 232,-179 226,-185 220,-185"/>
<text text-anchor="middle" x="183.5" y="-173" font-family="sans" font-size="10.00" fill="#000000">STAR</text>
<text text-anchor="middle" x="183.5" y="-162" font-family="sans" font-size="10.00" fill="#000000">annotation: ucsc</text>
<text text-anchor="middle" x="183.5" y="-151" font-family="sans" font-size="10.00" fill="#000000">genome: hg19</text>
</g>
<!-- 2&#45;&gt;0 -->
<g id="edge2" class="edge">
<title>2&#45;&gt;0</title>
<path fill="none" stroke="#c0c0c0" stroke-width="2" d="M194.3448,-143.7077C202.7568,-124.8155 211.849,-96.2721 204.5,-72 201.5436,-62.2355 196.1748,-52.6229 190.47,-44.2762"/>
<polygon fill="#c0c0c0" stroke="#c0c0c0" stroke-width="2" points="193.2129,-42.0973 184.4905,-36.0831 187.5586,-46.2239 193.2129,-42.0973"/>
</g>
<!-- 5 -->
<g id="node6" class="node">
<title>5</title>
<path fill="none" stroke="#5682d8" stroke-width="2" d="M183.5,-108C183.5,-108 153.5,-108 153.5,-108 147.5,-108 141.5,-102 141.5,-96 141.5,-96 141.5,-84 141.5,-84 141.5,-78 147.5,-72 153.5,-72 153.5,-72 183.5,-72 183.5,-72 189.5,-72 195.5,-78 195.5,-84 195.5,-84 195.5,-96 195.5,-96 195.5,-102 189.5,-108 183.5,-108"/>
<text text-anchor="middle" x="168.5" y="-87.5" font-family="sans" font-size="10.00" fill="#000000">RSEM</text>
</g>
<!-- 2&#45;&gt;5 -->
<g id="edge13" class="edge">
<title>2&#45;&gt;5</title>
<path fill="none" stroke="#c0c0c0" stroke-width="2" d="M179.3217,-143.7476C177.7193,-135.7892 175.8635,-126.5718 174.146,-118.0418"/>
<polygon fill="#c0c0c0" stroke="#c0c0c0" stroke-width="2" points="177.5511,-117.2211 172.146,-108.1087 170.6888,-118.6028 177.5511,-117.2211"/>
</g>
<!-- 3 -->
<g id="node4" class="node">
<title>3</title>
<path fill="none" stroke="#56d89a" stroke-width="2" d="M305.5,-108C305.5,-108 263.5,-108 263.5,-108 257.5,-108 251.5,-102 251.5,-96 251.5,-96 251.5,-84 251.5,-84 251.5,-78 257.5,-72 263.5,-72 263.5,-72 305.5,-72 305.5,-72 311.5,-72 317.5,-78 317.5,-84 317.5,-84 317.5,-96 317.5,-96 317.5,-102 311.5,-108 305.5,-108"/>
<text text-anchor="middle" x="284.5" y="-87.5" font-family="sans" font-size="10.00" fill="#000000">MergeHLA</text>
</g>
<!-- 3&#45;&gt;0 -->
<g id="edge3" class="edge">
<title>3&#45;&gt;0</title>
<path fill="none" stroke="#c0c0c0" stroke-width="2" d="M255.2283,-71.8314C240.3912,-62.6221 222.1985,-51.3301 206.3138,-41.4706"/>
<polygon fill="#c0c0c0" stroke="#c0c0c0" stroke-width="2" points="208.1045,-38.4628 197.7623,-36.1628 204.413,-44.4102 208.1045,-38.4628"/>
</g>
<!-- 4&#45;&gt;0 -->
<g id="edge4" class="edge">
<title>4&#45;&gt;0</title>
<path fill="none" stroke="#c0c0c0" stroke-width="2" d="M85.691,-72.2022C99.7315,-63.0121 117.053,-51.6744 132.2187,-41.7478"/>
<polygon fill="#c0c0c0" stroke="#c0c0c0" stroke-width="2" points="134.4075,-44.4982 140.8577,-36.0931 130.5739,-38.6413 134.4075,-44.4982"/>
</g>
<!-- 5&#45;&gt;0 -->
<g id="edge5" class="edge">
<title>5&#45;&gt;0</title>
<path fill="none" stroke="#c0c0c0" stroke-width="2" d="M168.5,-71.8314C168.5,-64.131 168.5,-54.9743 168.5,-46.4166"/>
<polygon fill="#c0c0c0" stroke="#c0c0c0" stroke-width="2" points="172.0001,-46.4132 168.5,-36.4133 165.0001,-46.4133 172.0001,-46.4132"/>
</g>
<!-- 6 -->
<g id="node7" class="node">
<title>6</title>
<path fill="none" stroke="#56b1d8" stroke-width="2" d="M191,-262C191,-262 12,-262 12,-262 6,-262 0,-256 0,-250 0,-250 0,-233 0,-233 0,-227 6,-221 12,-221 12,-221 191,-221 191,-221 197,-221 203,-227 203,-233 203,-233 203,-250 203,-250 203,-256 197,-262 191,-262"/>
<text text-anchor="middle" x="101.5" y="-250" font-family="sans" font-size="10.00" fill="#000000">prepareFASTQ</text>
<text text-anchor="middle" x="101.5" y="-239" font-family="sans" font-size="10.00" fill="#000000">sample: NCI0215tumor_T_C2V4TACXX</text>
<text text-anchor="middle" x="101.5" y="-228" font-family="sans" font-size="10.00" fill="#000000">suffix: R1.fastq.gz</text>
</g>
<!-- 6&#45;&gt;1 -->
<g id="edge6" class="edge">
<title>6&#45;&gt;1</title>
<path fill="none" stroke="#c0c0c0" stroke-width="2" d="M90.2448,-220.8654C85.7723,-212.6659 80.5421,-203.0772 75.677,-194.1579"/>
<polygon fill="#c0c0c0" stroke="#c0c0c0" stroke-width="2" points="78.6475,-192.2945 70.7863,-185.1915 72.5022,-195.6465 78.6475,-192.2945"/>
</g>
<!-- 6&#45;&gt;2 -->
<g id="edge8" class="edge">
<title>6&#45;&gt;2</title>
<path fill="none" stroke="#c0c0c0" stroke-width="2" d="M123.4745,-220.8654C132.8499,-212.0617 143.9306,-201.6566 154.0035,-192.1979"/>
<polygon fill="#c0c0c0" stroke="#c0c0c0" stroke-width="2" points="156.5709,-194.5883 161.4648,-185.1915 151.7791,-189.4855 156.5709,-194.5883"/>
</g>
<!-- 8 -->
<g id="node9" class="node">
<title>8</title>
<path fill="none" stroke="#d85656" stroke-width="2" d="M303,-182.5C303,-182.5 262,-182.5 262,-182.5 256,-182.5 250,-176.5 250,-170.5 250,-170.5 250,-158.5 250,-158.5 250,-152.5 256,-146.5 262,-146.5 262,-146.5 303,-146.5 303,-146.5 309,-146.5 315,-152.5 315,-158.5 315,-158.5 315,-170.5 315,-170.5 315,-176.5 309,-182.5 303,-182.5"/>
<text text-anchor="middle" x="282.5" y="-162" font-family="sans" font-size="10.00" fill="#000000">HLAminer</text>
</g>
<!-- 6&#45;&gt;8 -->
<g id="edge14" class="edge">
<title>6&#45;&gt;8</title>
<path fill="none" stroke="#c0c0c0" stroke-width="2" d="M155.4416,-220.8978C179.3783,-211.4854 208.0016,-199.8641 240.6306,-185.2704"/>
<polygon fill="#c0c0c0" stroke="#c0c0c0" stroke-width="2" points="242.2608,-188.3747 249.9394,-181.0747 239.3844,-181.993 242.2608,-188.3747"/>
</g>
<!-- 9 -->
<g id="node10" class="node">
<title>9</title>
<path fill="none" stroke="#9fd856" stroke-width="2" d="M380,-182.5C380,-182.5 345,-182.5 345,-182.5 339,-182.5 333,-176.5 333,-170.5 333,-170.5 333,-158.5 333,-158.5 333,-152.5 339,-146.5 345,-146.5 345,-146.5 380,-146.5 380,-146.5 386,-146.5 392,-152.5 392,-158.5 392,-158.5 392,-170.5 392,-170.5 392,-176.5 386,-182.5 380,-182.5"/>
<text text-anchor="middle" x="362.5" y="-162" font-family="sans" font-size="10.00" fill="#000000">seq2HLA</text>
</g>
<!-- 6&#45;&gt;9 -->
<g id="edge16" class="edge">
<title>6&#45;&gt;9</title>
<path fill="none" stroke="#c0c0c0" stroke-width="2" d="M203.0582,-221.342C239.1672,-212.8323 279.9682,-201.6761 323.6062,-184.9788"/>
<polygon fill="#c0c0c0" stroke="#c0c0c0" stroke-width="2" points="324.9156,-188.225 332.9604,-181.3307 322.3721,-181.7034 324.9156,-188.225"/>
</g>
<!-- 7 -->
<g id="node8" class="node">
<title>7</title>
<path fill="none" stroke="#56b1d8" stroke-width="2" d="M412,-262C412,-262 233,-262 233,-262 227,-262 221,-256 221,-250 221,-250 221,-233 221,-233 221,-227 227,-221 233,-221 233,-221 412,-221 412,-221 418,-221 424,-227 424,-233 424,-233 424,-250 424,-250 424,-256 418,-262 412,-262"/>
<text text-anchor="middle" x="322.5" y="-250" font-family="sans" font-size="10.00" fill="#000000">prepareFASTQ</text>
<text text-anchor="middle" x="322.5" y="-239" font-family="sans" font-size="10.00" fill="#000000">sample: NCI0215tumor_T_C2V4TACXX</text>
<text text-anchor="middle" x="322.5" y="-228" font-family="sans" font-size="10.00" fill="#000000">suffix: R2.fastq.gz</text>
</g>
<!-- 7&#45;&gt;1 -->
<g id="edge7" class="edge">
<title>7&#45;&gt;1</title>
<path fill="none" stroke="#c0c0c0" stroke-width="2" d="M250.2766,-220.9841C215.6891,-211.0873 173.4531,-198.8986 127.4578,-185.2666"/>
<polygon fill="#c0c0c0" stroke="#c0c0c0" stroke-width="2" points="128.1698,-181.8271 117.5872,-182.3361 126.1775,-188.5376 128.1698,-181.8271"/>
</g>
<!-- 7&#45;&gt;2 -->
<g id="edge9" class="edge">
<title>7&#45;&gt;2</title>
<path fill="none" stroke="#c0c0c0" stroke-width="2" d="M285.2506,-220.8654C268.2675,-211.4575 247.9832,-200.2209 230.0104,-190.2648"/>
<polygon fill="#c0c0c0" stroke="#c0c0c0" stroke-width="2" points="231.2958,-186.9757 220.8523,-185.1915 227.9038,-193.099 231.2958,-186.9757"/>
</g>
<!-- 7&#45;&gt;8 -->
<g id="edge15" class="edge">
<title>7&#45;&gt;8</title>
<path fill="none" stroke="#c0c0c0" stroke-width="2" d="M311.7807,-220.8654C307.1293,-211.9114 301.6173,-201.3007 296.6372,-191.7142"/>
<polygon fill="#c0c0c0" stroke="#c0c0c0" stroke-width="2" points="299.602,-189.8289 291.8861,-182.5683 293.3901,-193.0558 299.602,-189.8289"/>
</g>
<!-- 7&#45;&gt;9 -->
<g id="edge17" class="edge">
<title>7&#45;&gt;9</title>
<path fill="none" stroke="#c0c0c0" stroke-width="2" d="M333.2193,-220.8654C337.8707,-211.9114 343.3827,-201.3007 348.3628,-191.7142"/>
<polygon fill="#c0c0c0" stroke="#c0c0c0" stroke-width="2" points="351.6099,-193.0558 353.1139,-182.5683 345.398,-189.8289 351.6099,-193.0558"/>
</g>
<!-- 8&#45;&gt;3 -->
<g id="edge10" class="edge">
<title>8&#45;&gt;3</title>
<path fill="none" stroke="#c0c0c0" stroke-width="2" d="M282.9841,-146.4656C283.2109,-138.0178 283.4865,-127.7542 283.7401,-118.3064"/>
<polygon fill="#c0c0c0" stroke="#c0c0c0" stroke-width="2" points="287.2437,-118.2169 284.0134,-108.1265 280.2462,-118.0289 287.2437,-118.2169"/>
</g>
<!-- 9&#45;&gt;3 -->
<g id="edge11" class="edge">
<title>9&#45;&gt;3</title>
<path fill="none" stroke="#c0c0c0" stroke-width="2" d="M343.6184,-146.4656C333.8226,-137.1094 321.695,-125.526 310.9785,-115.2903"/>
<polygon fill="#c0c0c0" stroke="#c0c0c0" stroke-width="2" points="313.127,-112.5025 303.4781,-108.1265 308.2921,-117.5645 313.127,-112.5025"/>
</g>
</g>
</svg>
